<svg xmlns="http://www.w3.org/2000/svg" xmlns:xlink="http://www.w3.org/1999/xlink" width="259" height="226.456" viewBox="0 0 259 226.456">
  <defs>
    <filter id="Path_245" x="-9" y="10.54" width="225.36" height="225.36" filterUnits="userSpaceOnUse">
      <feOffset dy="3" input="SourceAlpha"/>
      <feGaussianBlur stdDeviation="3" result="blur"/>
      <feFlood flood-opacity="0.161"/>
      <feComposite operator="in" in2="blur"/>
      <feComposite in="SourceGraphic"/>
    </filter>
    <filter id="Path_80" x="17.031" y="123.472" width="29.987" height="30.389" filterUnits="userSpaceOnUse">
      <feOffset input="SourceAlpha"/>
      <feGaussianBlur stdDeviation="1" result="blur-2"/>
      <feFlood flood-color="#fff" flood-opacity="0.251"/>
      <feComposite operator="in" in2="blur-2"/>
      <feComposite in="SourceGraphic"/>
    </filter>
    <filter id="Path_81" x="26.223" y="152.093" width="29.987" height="29.987" filterUnits="userSpaceOnUse">
      <feOffset input="SourceAlpha"/>
      <feGaussianBlur stdDeviation="1" result="blur-3"/>
      <feFlood flood-color="#fff" flood-opacity="0.451"/>
      <feComposite operator="in" in2="blur-3"/>
      <feComposite in="SourceGraphic"/>
    </filter>
    <filter id="Path_82" x="38.676" y="165.218" width="29.987" height="29.987" filterUnits="userSpaceOnUse">
      <feOffset input="SourceAlpha"/>
      <feGaussianBlur stdDeviation="1" result="blur-4"/>
      <feFlood flood-color="#fff" flood-opacity="0.251"/>
      <feComposite operator="in" in2="blur-4"/>
      <feComposite in="SourceGraphic"/>
    </filter>
    <filter id="Path_89" x="72.244" y="189.347" width="29.987" height="29.987" filterUnits="userSpaceOnUse">
      <feOffset input="SourceAlpha"/>
      <feGaussianBlur stdDeviation="1" result="blur-5"/>
      <feFlood flood-color="#fff" flood-opacity="0.251"/>
      <feComposite operator="in" in2="blur-5"/>
      <feComposite in="SourceGraphic"/>
    </filter>
    <filter id="Path_79" x="0.008" y="151.785" width="17.994" height="17.994" filterUnits="userSpaceOnUse">
      <feOffset input="SourceAlpha"/>
      <feGaussianBlur stdDeviation="1" result="blur-6"/>
      <feFlood flood-color="#fff" flood-opacity="0.251"/>
      <feComposite operator="in" in2="blur-6"/>
      <feComposite in="SourceGraphic"/>
    </filter>
    <filter id="Path_83" x="13.916" y="171.042" width="15.854" height="15.854" filterUnits="userSpaceOnUse">
      <feOffset input="SourceAlpha"/>
      <feGaussianBlur stdDeviation="1" result="blur-7"/>
      <feFlood flood-color="#fff" flood-opacity="0.251"/>
      <feComposite operator="in" in2="blur-7"/>
      <feComposite in="SourceGraphic"/>
    </filter>
    <filter id="Path_84" x="19.023" y="188.459" width="20.392" height="20.392" filterUnits="userSpaceOnUse">
      <feOffset input="SourceAlpha"/>
      <feGaussianBlur stdDeviation="1" result="blur-8"/>
      <feFlood flood-color="#fff" flood-opacity="0.251"/>
      <feComposite operator="in" in2="blur-8"/>
      <feComposite in="SourceGraphic"/>
    </filter>
    <filter id="Path_85" x="50.46" y="146.962" width="20.392" height="20.392" filterUnits="userSpaceOnUse">
      <feOffset input="SourceAlpha"/>
      <feGaussianBlur stdDeviation="1" result="blur-9"/>
      <feFlood flood-color="#fff" flood-opacity="0.251"/>
      <feComposite operator="in" in2="blur-9"/>
      <feComposite in="SourceGraphic"/>
    </filter>
    <filter id="Path_86" x="50.03" y="126.428" width="18.253" height="18.253" filterUnits="userSpaceOnUse">
      <feOffset input="SourceAlpha"/>
      <feGaussianBlur stdDeviation="1" result="blur-10"/>
      <feFlood flood-color="#fff" flood-opacity="0.251"/>
      <feComposite operator="in" in2="blur-10"/>
      <feComposite in="SourceGraphic"/>
    </filter>
    <filter id="Path_87" x="65.876" y="156.819" width="17.994" height="17.994" filterUnits="userSpaceOnUse">
      <feOffset input="SourceAlpha"/>
      <feGaussianBlur stdDeviation="1" result="blur-11"/>
      <feFlood flood-opacity="0.161"/>
      <feComposite operator="in" in2="blur-11"/>
      <feComposite in="SourceGraphic"/>
    </filter>
    <filter id="Path_77" x="40.401" y="206.063" width="20.392" height="20.392" filterUnits="userSpaceOnUse">
      <feOffset input="SourceAlpha"/>
      <feGaussianBlur stdDeviation="1" result="blur-12"/>
      <feFlood flood-color="#fff" flood-opacity="0.251"/>
      <feComposite operator="in" in2="blur-12"/>
      <feComposite in="SourceGraphic"/>
    </filter>
    <clipPath id="clip-path">
      <g transform="matrix(1, 0, 0, 1, 0, 0)" filter="url(#Path_245)">
        <path id="Path_245-2" data-name="Path 245" d="M103.68,0A103.68,103.68,0,1,1,0,103.68,103.68,103.68,0,0,1,103.68,0Z" fill="none" stroke="#01a5a7" stroke-width="2"/>
      </g>
    </clipPath>
    <clipPath id="clip-path-2">
      <circle id="Ellipse_95" data-name="Ellipse 95" cx="82.107" cy="82.107" r="82.107" fill="#fff" stroke="#707070" stroke-width="1"/>
    </clipPath>
    <filter id="Ellipse_96" x="54.605" y="0" width="204.395" height="204.395" filterUnits="userSpaceOnUse">
      <feOffset dy="3" input="SourceAlpha"/>
      <feGaussianBlur stdDeviation="3" result="blur-13"/>
      <feFlood flood-opacity="0.459"/>
      <feComposite operator="in" in2="blur-13"/>
      <feComposite in="SourceGraphic"/>
    </filter>
  </defs>
  <g id="Group_295" data-name="Group 295" transform="translate(-1053 -65.476)">
    <g id="Group_294" data-name="Group 294" transform="translate(342)">
      <g id="Group_292" data-name="Group 292" transform="translate(429 -81.9)">
        <g id="Group_282" data-name="Group 282" transform="translate(282 153.376)">
          <g id="Group_279" data-name="Group 279" transform="translate(3.008 120.472)">
            <g id="Group_280" data-name="Group 280" transform="translate(0 0)">
              <g id="Group_277" data-name="Group 277" transform="translate(0 0)">
                <g id="Group_278" data-name="Group 278" transform="translate(0 0)">
                  <g transform="matrix(1, 0, 0, 1, -3.01, -126.47)" filter="url(#Path_80)">
                    <path id="Path_80-2" data-name="Path 80" d="M11.994,0h.4a11.994,11.994,0,0,1,0,23.987h-.4A11.994,11.994,0,0,1,11.994,0Z" transform="translate(44.02 126.47) rotate(90)" fill="#b20768"/>
                  </g>
                  <g transform="matrix(1, 0, 0, 1, -3.01, -126.47)" filter="url(#Path_81)">
                    <path id="Path_81-2" data-name="Path 81" d="M11.994,0A11.994,11.994,0,0,1,23.987,11.994h0A11.994,11.994,0,0,1,0,11.994H0A11.994,11.994,0,0,1,11.994,0Z" transform="translate(53.21 155.09) rotate(90)" fill="#009ad6"/>
                  </g>
                  <g transform="matrix(1, 0, 0, 1, -3.01, -126.47)" filter="url(#Path_82)">
                    <path id="Path_82-2" data-name="Path 82" d="M11.994,0A11.994,11.994,0,0,1,23.987,11.994h0A11.994,11.994,0,0,1,0,11.994H0A11.994,11.994,0,0,1,11.994,0Z" transform="translate(65.66 168.22) rotate(90)" fill="#00a650"/>
                  </g>
                  <g transform="matrix(1, 0, 0, 1, -3.01, -126.47)" filter="url(#Path_89)">
                    <path id="Path_89-2" data-name="Path 89" d="M11.994,0A11.994,11.994,0,0,1,23.987,11.994h0A11.994,11.994,0,0,1,0,11.994H0A11.994,11.994,0,0,1,11.994,0Z" transform="translate(99.23 192.35) rotate(90)" fill="#030065"/>
                  </g>
                  <g transform="matrix(1, 0, 0, 1, -3.01, -126.47)" filter="url(#Path_79)">
                    <path id="Path_79-2" data-name="Path 79" d="M6,0a6,6,0,0,1,6,6h0A6,6,0,0,1,0,6H0A6,6,0,0,1,6,0Z" transform="translate(15 154.79) rotate(90)" fill="#e07400"/>
                  </g>
                  <g transform="matrix(1, 0, 0, 1, -3.01, -126.47)" filter="url(#Path_83)">
                    <path id="Path_83-2" data-name="Path 83" d="M4.927,0A4.927,4.927,0,0,1,9.854,4.927h0A4.927,4.927,0,1,1,0,4.927H0A4.927,4.927,0,0,1,4.927,0Z" transform="translate(26.77 174.04) rotate(90)" fill="#f30b52"/>
                  </g>
                  <g transform="matrix(1, 0, 0, 1, -3.01, -126.47)" filter="url(#Path_84)">
                    <path id="Path_84-2" data-name="Path 84" d="M7.2,0a7.2,7.2,0,0,1,7.2,7.2h0A7.2,7.2,0,0,1,0,7.2H0A7.2,7.2,0,0,1,7.2,0Z" transform="translate(36.42 191.46) rotate(90)" fill="#5d1d7d"/>
                  </g>
                  <g transform="matrix(1, 0, 0, 1, -3.01, -126.47)" filter="url(#Path_85)">
                    <path id="Path_85-2" data-name="Path 85" d="M7.2,0a7.2,7.2,0,0,1,7.2,7.2h0A7.2,7.2,0,0,1,0,7.2H0A7.2,7.2,0,0,1,7.2,0Z" transform="translate(67.85 149.96) rotate(90)" fill="#11267a"/>
                  </g>
                  <g transform="matrix(1, 0, 0, 1, -3.01, -126.47)" filter="url(#Path_86)">
                    <path id="Path_86-2" data-name="Path 86" d="M6.126,0a6.126,6.126,0,0,1,6.126,6.126h0A6.126,6.126,0,0,1,0,6.126H0A6.126,6.126,0,0,1,6.126,0Z" transform="translate(65.28 129.43) rotate(90)" fill="#01a5a7"/>
                  </g>
                  <g transform="matrix(1, 0, 0, 1, -3.01, -126.47)" filter="url(#Path_87)">
                    <path id="Path_87-2" data-name="Path 87" d="M6,0a6,6,0,0,1,6,6h0A6,6,0,0,1,0,6H0A6,6,0,0,1,6,0Z" transform="translate(80.87 159.82) rotate(90)" fill="#ffb300"/>
                  </g>
                  <g transform="matrix(1, 0, 0, 1, -3.01, -126.47)" filter="url(#Path_77)">
                    <path id="Path_77-2" data-name="Path 77" d="M7.2,0a7.2,7.2,0,0,1,7.2,7.2h0A7.2,7.2,0,0,1,0,7.2H0A7.2,7.2,0,0,1,7.2,0Z" transform="translate(57.79 209.06) rotate(90)" fill="#70a300"/>
                  </g>
                </g>
              </g>
            </g>
          </g>
          <g id="Group_281" data-name="Group 281" transform="translate(63.605 0)">
            <g id="Mask_Group_3" data-name="Mask Group 3" transform="translate(12.077 10.568)" clip-path="url(#clip-path-2)">
              <g id="svgg" transform="translate(5.318 -6.044)">
                <path id="path1" d="M-59.13,63.156l19.177,42.191,61.019,50.559,85.427-27.2,47.77-74.269L112.77-2.745,44.822-57.836l-66.992,53L-55.643,49.385M66.465,28.051c11.809,8.906,21.483,16.224,21.5,16.262C88,44.407,45.11,76.734,44.95,76.734S1.9,44.407,1.939,44.312c.027-.074,42.94-32.455,43.011-32.455.024,0,9.705,7.287,21.515,16.193M47.14,32.776a19.4,19.4,0,0,0-10.267,4.4c-6.709,5.6-8.911,15-4.545,19.409,2.989,3.015,9.136,3.675,14.471,1.554l.861-.343-.088-.805c-.108-.982-.086-.96-.685-.7-3.557,1.573-8.211,1.538-10.981-.083-4.432-2.594-4.559-9.19-.286-14.9,4.827-6.45,14.256-8.841,19.08-4.839,4.146,3.44,1.817,12.479-3.637,14.118-1.54.463-2.266-.128-2-1.627.161-.9.478-1.7,2.193-5.543,1.842-4.124,1.777-3.686.6-4.044a12,12,0,0,0-14.77,8.076c-1.646,5.684,3.987,7.389,8.774,2.656.4-.4.743-.723.757-.723a5.049,5.049,0,0,1-.019.713c-.121,1.945.8,2.806,2.894,2.7,5.294-.273,10.007-6.221,9.678-12.215-.221-4.032-2.634-6.664-6.969-7.6a29.267,29.267,0,0,0-5.067-.2m1.571,8.415a6.909,6.909,0,0,1,.687.162,52.026,52.026,0,0,1-2.508,5.234c-3.537,5.316-8.848,4.513-6.14-.928,1.594-3.2,4.952-5.087,7.961-4.467M15.871,57.573c7.6,5.774,13.835,10.538,13.851,10.586.028.083-27.488,21.029-27.761,21.134-.11.042-.125-2.584-.125-21.089,0-16.855.022-21.136.107-21.133.059,0,6.327,4.728,13.929,10.5M88.065,68.2c0,18.506-.015,21.132-.125,21.089-.274-.105-27.789-21.051-27.761-21.134.042-.125,27.649-21.083,27.78-21.088.086,0,.107,4.278.107,21.133M38.186,74.967c3.618,2.8,6.6,5.1,6.636,5.1s3-2.278,6.6-5.063,6.623-5.114,6.722-5.175c.168-.1,1.153.648,13.911,10.615L85.784,91.169l-20.46.022c-11.253.012-29.662.012-40.908,0L3.968,91.169,17.682,80.455c8.728-6.818,13.753-10.691,13.82-10.65s3.066,2.358,6.684,5.161" transform="translate(32 28)" fill="#01a5a7" fill-rule="evenodd"/>
                <path id="path3" d="M162.135,148.015l-.635.672.672-.635a8.965,8.965,0,0,0,.672-.672c0-.1-.119.011-.709.635m18.852.7a6.362,6.362,0,0,0,1.023,0c.262-.028.016-.05-.547-.049s-.777.023-.476.05m-12.071,5.313-.506.544.544-.506c.506-.47.6-.582.506-.582a5.713,5.713,0,0,0-.544.544m-.09,25.271a4.073,4.073,0,0,0,.832,0c.229-.028.041-.051-.416-.051s-.645.023-.416.051" transform="translate(-99.498 -90.78)" fill="#b0e0e5" fill-rule="evenodd"/>
              </g>
            </g>
            <g transform="matrix(1, 0, 0, 1, -63.6, -6)" filter="url(#Ellipse_96)">
              <g id="Ellipse_96-2" data-name="Ellipse 96" transform="translate(63.6 6)" fill="none" stroke="#01a5a7" stroke-width="5" opacity="0.13">
                <circle cx="93.198" cy="93.198" r="93.198" stroke="none"/>
                <circle cx="93.198" cy="93.198" r="90.698" fill="none"/>
              </g>
            </g>
          </g>
        </g>
      </g>
    </g>
  </g>
</svg>
