<svg xmlns="http://www.w3.org/2000/svg" width="46" height="47.006" viewBox="0 0 46 47.006">
  <path id="path0" d="M907.068,93.474c-.886.886-.671,1.614.977,3.308a10.49,10.49,0,0,1,1.359,1.542,7.6,7.6,0,0,1-1.11.266c-7.4,1.446-14.031,7.87-15.9,15.406-1.368,5.51-.564,8.836,1.835,7.595.725-.374.8-.615.962-3.191a17.632,17.632,0,0,1,11.76-15.927c1.881-.658,1.918-.614.624.735-1.669,1.738-1.5,3.306.4,3.607.708.112.717.106,3.6-2.756,4.354-4.32,4.344-4.051.277-8.189-3.15-3.2-3.7-3.479-4.783-2.4m13.552,6.951c-1.509.818-1.1,2.117,1.114,3.561a17.646,17.646,0,0,1,7.922,18.9c-.352,1.568-.483,1.581-.851.081-.6-2.455-2.054-3.154-3.316-1.6-.451.556-.443.612.6,4.556,1.585,5.969,1.227,5.74,6.657,4.274,5.006-1.35,5.415-1.639,4.712-3.32-.452-1.08-1.04-1.191-3.306-.616s-2.209.591-1.735-.687c3.36-9.051-1.058-20.29-9.779-24.877-1.23-.646-1.322-.659-2.023-.279m-25.947,26.236c-.685.345-.75.513-1.9,4.855-1.027,3.891-1.006,3.761-.71,4.474a1.586,1.586,0,0,0,2.254.767c.719-.342.951-.827,1.538-3.233l.333-1.364,1.6,1.567a19.827,19.827,0,0,0,14.811,6.181c7.327-.012,14.417-3.74,11.491-6.042-.726-.571-1.279-.479-3.341.554a17.6,17.6,0,0,1-19.727-2.525c-1.171-1.059-1.15-1.157.163-.767,2.061.612,3.185.166,3.225-1.278.034-1.179-.5-1.516-3.4-2.167-1.4-.314-3.1-.707-3.769-.872-1.89-.469-1.931-.471-2.568-.15" transform="translate(-891.729 -92.902)" fill="#fff" fill-rule="evenodd"/>
</svg>
