<svg xmlns="http://www.w3.org/2000/svg" width="46" height="49.697" viewBox="0 0 46 49.697">
  <path id="path0" d="M2277.689,31.663c-.415.167-.464.377-.714,3.067-.094,1-.189,1.825-.212,1.834s-.567.193-1.208.409a24.664,24.664,0,0,0-2.477,1.041c-1.637.806-1.292.887-3.3-.77a11.117,11.117,0,0,0-1.958-1.417c-.408,0-5.346,5.02-5.346,5.435a7.592,7.592,0,0,0,1.409,2.054L2265.291,45l-.747,1.535a22.627,22.627,0,0,0-1.083,2.63l-.333,1.095-2.249.216c-2.964.285-2.735-.069-2.735,4.246s-.223,3.97,2.779,4.258l2.2.211.444,1.355a19.476,19.476,0,0,0,1.1,2.583c.551,1.032.622,1.271.443,1.5-.117.149-.756.93-1.42,1.737-1.6,1.946-1.617,1.868.726,3.933,2.619,2.306,2.208,2.469,5.433-2.146,3.026-4.331,2.921-3.972,1.634-5.592a12.405,12.405,0,0,1,9.7-20.232c10.432.018,16.054,12.28,9.354,20.4-1.1,1.336-1.1,1.353.241,3.175.539.732,1.752,2.4,2.694,3.7,2.135,2.959,1.918,2.926,4.454.687s2.485-1.839.418-4.308l-1.322-1.58.723-1.441a21.631,21.631,0,0,0,1.087-2.609l.365-1.169,2.181-.21c3.062-.294,2.763.165,2.763-4.238,0-4.382.286-3.924-2.656-4.255l-2.239-.251-.547-1.56a21.172,21.172,0,0,0-1.114-2.591l-.567-1.032,1.479-1.8a12.5,12.5,0,0,0,1.479-2.028,45.514,45.514,0,0,0-5.423-5.4,11.534,11.534,0,0,0-1.987,1.417c-.962.779-1.789,1.416-1.84,1.416s-.784-.332-1.628-.737a21.73,21.73,0,0,0-2.558-1.037l-1.024-.3-.108-1.171c-.4-4.319.02-3.923-4.135-3.909a26.4,26.4,0,0,0-3.573.157m6.005,2.29c.056.436.151,1.409.212,2.162.131,1.628.192,1.7,1.9,2.205a18.62,18.62,0,0,1,4.151,1.83c.744.529.99.44,2.722-.99a15.811,15.811,0,0,1,1.748-1.334,17.626,17.626,0,0,1,3.449,3.69c-.074.124-.683.876-1.354,1.671-1.433,1.7-1.434,1.7-.485,3.37a18.855,18.855,0,0,1,1.276,2.985c.674,2.113.774,2.206,2.521,2.347.761.061,1.7.155,2.092.208l.708.1v5.082l-2.125.212c-2.584.257-2.623.276-2.874,1.372a22.367,22.367,0,0,1-1.864,4.509c-.66,1.123-.627,1.241.864,3.013,1.575,1.874,1.546,1.65.342,2.686-1.292,1.113-1.116,1.216-3.463-2.042l-2.071-2.875.787-1.04a13.987,13.987,0,0,0-4.843-20.784c-13.271-6.535-26.292,9.03-17.424,20.83a7.014,7.014,0,0,1,.679,1c0,.07-3.76,5.566-4.061,5.935-.012.015-.534-.435-1.16-1l-1.136-1.029,1.2-1.416c1.88-2.217,1.812-1.825.69-4.019a21.24,21.24,0,0,1-1.335-3.232c-.454-1.673-.438-1.664-3.034-1.92l-2.162-.214V54.712c0-2.32.027-2.556.292-2.563,2.9-.072,4.707-.581,4.707-1.328a16.71,16.71,0,0,1,1.677-4.3l.846-1.583-.47-.629c-.258-.347-.914-1.166-1.457-1.819l-.987-1.191,1.821-1.81,1.82-1.81,1.667,1.4c1.9,1.6,1.952,1.612,3.235.833a18.442,18.442,0,0,1,4.263-1.77c1.2-.292,1.192-.282,1.423-2.742l.21-2.244h4.906l.1.791m-5.807,11.266c-4.439,2.076-4.511,9.231-.115,11.5l.532.276V69.15l-1.136,1.125c-3.442,3.414-2.617,8.966,1.567,10.53,1.825.684,1.99.5,1.836-2.059-.126-2.111-.132-2.1,1.037-2.1,1.031.005,1.068.08.917,1.93-.226,2.769.009,3.037,1.9,2.158,4.362-2.031,4.57-8.694.352-11.289l-.8-.5V56.777l1.078-.987c3.855-3.533,2.493-9.989-2.3-10.888-1.071-.2-1.174.02-1.038,2.232.132,2.141.113,2.183-.993,2.183-1.129,0-1.153-.052-.94-2.072.269-2.548-.05-2.89-1.893-2.027m.239,2.98a5.881,5.881,0,0,0,.047,1.666c.449.921,2.923,1.354,4.13.724,1.171-.612,1.2-.672,1.071-2.3-.137-1.756-.04-1.815,1.1-.672a4.958,4.958,0,0,1-1.256,7.632c-.8.431-.767.062-.715,7.9l.047,6.913.9.458a4.938,4.938,0,0,1,1.408,7.959l-.766.75.081-1.432c.094-1.658.015-1.859-.929-2.352a4.038,4.038,0,0,0-3.376-.011c-1.06.555-1.1.652-.944,2.276s.1,1.7-.83.932c-2.328-1.92-1.875-6.229.827-7.84,1.1-.653,1.041-.247,1.041-7.742,0-7.723.124-7.023-1.367-7.727-2.839-1.341-3.464-5.538-1.174-7.888.808-.829.806-.832.7.75" transform="translate(-2258.14 -31.49)" fill="#fff" fill-rule="evenodd"/>
</svg>
