<svg xmlns="http://www.w3.org/2000/svg" width="46" height="45.936" viewBox="0 0 46 45.936">
  <path id="path0" d="M66.188,88.488c-1.775,1.99-3.891,4.524-3.891,4.657,0,.427.492.718,1.334.788l.9.075v2.845a21.54,21.54,0,0,0,.155,3.256l.156.41h2.548c3.407,0,3.052.391,3.052-3.373V93.968h.708c2.217,0,2.106-.518-.841-3.914-2.82-3.251-2.673-3.194-4.124-1.566m2.823,2.238,1.315,1.551-.459.124c-.813.217-.86.418-.86,3.675v3.006H65.98l-.044-3.223-.043-3.222-.479-.154a3.675,3.675,0,0,1-.535-.2,26.346,26.346,0,0,1,2.7-3.105,13.189,13.189,0,0,1,1.434,1.552M49.2,92.471c-.178.05-.226.246-.185.762l.055.694,1.623.081c9.584.477,14.928,11.778,9.383,19.839a22.213,22.213,0,0,1-1.777,2.04c-1.979,2.041-2.437,3.086-2.52,5.744l-.063,2.055H43.764v-.4c0-.368-.058-.4-.732-.4H42.3l.054,2.76c.062,3.21.375,4.152,1.9,5.714,2.55,2.618,8.238,2.631,10.844.025,1.676-1.676,1.94-2.649,2.075-7.62.128-4.759.157-4.848,2.337-7.114,3.1-3.223,4.158-5.831,4.14-10.222-.029-7.643-5.433-13.332-13.251-13.951a5.975,5.975,0,0,0-1.2-.009m-2.794.359a.714.714,0,1,0,.36,1.381c.754-.141.728-.1.6-.871-.113-.667-.145-.685-.959-.51m-2.79,1c-.744.3-.815.435-.529,1.034.3.629.324.636,1.055.287l.544-.26-.243-.619c-.265-.674-.256-.67-.825-.443m-2.87,1.864-.546.458.376.508c.457.618.5.621,1.118.069l.489-.439-.447-.527-.446-.528-.546.459m6.149,1.406a1.564,1.564,0,0,0-.251,1.017c0,.762,0,.767-.732,1.045l-.732.28-.514-.5c-.8-.772-1.1-.675-2.6.831s-1.543,1.629-.772,2.483l.558.616-.278.661c-.268.639-.3.661-1.025.661-1.158,0-1.25.176-1.25,2.378,0,2.155.053,2.257,1.144,2.257.749,0,.763.01,1.086.74l.327.739-.559.619c-.753.834-.755.829.841,2.419,1.555,1.548,1.695,1.6,2.354.916.521-.544.759-.58,1.578-.238.551.23.579.279.579,1.007,0,.986.185,1.148,1.31,1.148h.926v-.719c0-.661-.033-.719-.4-.719-.308,0-.4-.082-.4-.359,0-1.532-2.861-2.663-4.037-1.6-.265.239-.327.215-.9-.347l-.619-.605.384-.564c.819-1.206-.283-3.716-1.631-3.716h-.542v-.959c0-.911.021-.959.392-.959,1.475,0,2.727-2.806,1.727-3.87l-.357-.38.625-.612.626-.611.433.34c1.088.855,3.624-.2,3.848-1.608.081-.506.161-.609.476-.609.342,0,.379-.069.379-.719v-.719h-.867a1.688,1.688,0,0,0-1.118.251m3.583.446v.691l1.393.274a8.192,8.192,0,0,1,.888,15.913,7.24,7.24,0,0,1-1.658.32h-.622v1.438h.589a9.8,9.8,0,0,0,6.152-2.835c5.792-5.886,2.332-15.372-5.981-16.4l-.759-.093v.69m-12.031.531-.419.589.572.388.571.389.375-.458c.489-.6.479-.728-.086-1.147-.592-.438-.52-.455-1.013.239m-1.631,2.769a1.764,1.764,0,0,0-.223.686,4.866,4.866,0,0,0,1.106.431c.149,0,.636-.825.636-1.077a2.2,2.2,0,0,0-1.078-.682c-.083,0-.281.289-.44.641m12.194.906a.568.568,0,0,1-.51.551c-2.756.732-1.976,4.932.916,4.932,1.353,0,2.105.727,1.692,1.634-.546,1.2-2.866.9-2.866-.367,0-.45-.029-.468-.74-.468h-.74l.083.737a2.249,2.249,0,0,0,1.445,1.956c.5.25.751.478.751.68,0,.252.12.3.719.3.643,0,.719-.038.719-.367,0-.273.14-.418.551-.567,2.815-1.018,1.669-4.961-1.446-4.975-.956,0-1.342-.319-1.342-1.094,0-1.521,2.59-1.619,2.969-.112.129.516,1.507.63,1.5.125-.011-.887-1.237-2.437-1.926-2.437-.236,0-.308-.113-.308-.479,0-.7-1.384-.752-1.468-.051m-13.132,1.849c-.221.827-.128,1.058.47,1.171.67.126.793.026.931-.752.1-.55.079-.583-.4-.679-.781-.156-.9-.127-1,.259m-.261,3.555c0,.688.021.719.466.719.8,0,.972-.141.972-.816v-.622H35.615v.719m.8,2.3c-.44.123-.448.151-.267,1.024.133.644.139.646,1.168.262.313-.117.326-.179.167-.777-.179-.671-.29-.724-1.067-.508m1.2,2.868c-.264.146-.508.282-.544.3-.13.077.518,1.32.688,1.319a1.758,1.758,0,0,0,.629-.364l.453-.363-.284-.594c-.319-.669-.291-.661-.943-.3m1.616,2.633c-.507.405-.46.69.213,1.3.339.307.343.306.847-.2l.506-.506-.463-.483c-.553-.578-.525-.575-1.1-.112m2.174,2.2-.509.454.33.561.331.56.629-.321c.678-.345.677-.485-.009-1.369l-.263-.34-.509.455m1.362,2.742c-.615.154-.691.315-.5,1.037.081.3.206.359.782.359h.685l-.084-.679c-.107-.86-.157-.9-.884-.718M29.1,120.2c-.136.136-.192,1.108-.192,3.355v3.164h-.927c-1.924,0-1.793.468,1.057,3.755,3.029,3.5,2.592,3.472,5.321.287,3.219-3.758,3.318-4.042,1.415-4.042h-.953v-3.1c0-2.61-.04-3.144-.251-3.355-.323-.323-5.153-.376-5.469-.059m4.282,4.432c0,3.383-.011,3.334.814,3.511l.442.094-.827.965c-.455.53-1.084,1.273-1.4,1.652l-.57.686-1.387-1.609c-1.536-1.78-1.532-1.775-1.041-1.775.861,0,.931-.27.931-3.62v-3.09h3.036v3.186m22.27,1.8c-.029,1.916.618,1.728-5.951,1.728s-5.934.194-5.934-1.773v-1.267l5.951.042,5.952.042-.019,1.227m-1.02,3.294c0,.3-1.271,1.327-2.125,1.717a9.812,9.812,0,0,1-5.831-.058,5.934,5.934,0,0,1-1.95-1.645,43.071,43.071,0,0,1,4.953-.141,48.542,48.542,0,0,1,4.953.128" transform="translate(-26.688 -87.396)" fill="#fff" fill-rule="evenodd"/>
</svg>
