<svg xmlns="http://www.w3.org/2000/svg" width="46" height="40.481" viewBox="0 0 46 40.481">
  <path id="path0" d="M1438.663,61.152a4.474,4.474,0,0,0-3.353,3.32,1.835,1.835,0,0,1-.932,1.37,7.278,7.278,0,0,0-2.867,6.055c-.018,1.615-.064,1.93-.355,2.4-.856,1.383-.1,3.564,1.229,3.564.363,0,.434.09.6.736a6.739,6.739,0,0,0,1.94,3.121c1.216,1.149,1.186,1.408-.324,2.843a7.844,7.844,0,0,1-2.965,1.9c-3.353,1.466-4.007,2.413-3.953,5.733.112,6.842.362,9.22.97,9.22.637,0,.65-.16.445-5.456-.265-6.857-.2-7.066,1.454-5,1.5,1.866,1.509,1.906,1.509,6.351,0,4.153.063,4.417.937,3.949.308-.165.316-.274.271-4.305l-.047-4.135-.419-.853a13.551,13.551,0,0,0-1.434-2.069,10.17,10.17,0,0,1-1.013-1.336,23.208,23.208,0,0,1,3.3-1.554,14.319,14.319,0,0,1,1.113,1.7c1.489,2.471,1.932,2.667,3.356,1.484l.829-.689.041,5.8c.045,6.363.058,6.447.966,5.961.3-.162.311-.324.311-5.98V89.467l.866.706c1.469,1.2,1.857,1.031,3.387-1.453A16.974,16.974,0,0,1,1445.659,87a23.911,23.911,0,0,1,3.289,1.554,10.325,10.325,0,0,1-1.025,1.336c-1.817,2.158-1.834,2.224-1.888,7.024-.047,4.252-.015,4.5.607,4.5.536,0,.6-.456.6-4.168,0-4.382.04-4.55,1.493-6.3,1.7-2.049,1.7-2.047,1.455,4.807-.2,5.52-.185,5.665.46,5.665.572,0,.617-.291.838-5.488.311-7.324.154-7.723-3.726-9.422a8.016,8.016,0,0,1-3.061-1.944c-1.53-1.453-1.555-1.717-.272-2.9a7.212,7.212,0,0,0,1.98-3.309c.079-.4.171-.485.507-.485,1.332,0,2.083-2.183,1.227-3.564-.292-.469-.339-.784-.355-2.324a7.372,7.372,0,0,0-2.808-6.082,3.143,3.143,0,0,1-.839-.822c0-1.937-2.839-4.436-4.638-4.08l-.843.162m20.152-.019a9.426,9.426,0,0,0-3.519,1.329,3.638,3.638,0,0,1-1.022.524c-2.107,0-3.251,3.379-2.388,7.051.131.555.108.652-.219.93-1.36,1.154-.667,3.951.98,3.951.181,0,.33.067.33.149a8.9,8.9,0,0,0,1.172,2.634c1.344,1.953-.026,3.729-4.078,5.283-2.418.928-2.985,1.424-2.286,2,.276.23.261.233,2.692-.763,1.053-.431,1.977-.786,2.05-.786a16.072,16.072,0,0,1,1.532,2.089c1.666,2.49,2.558,3.105,3.586,2.47.185-.114.117,2.88-.184,8.07-.281,4.848-.184,5.588.683,5.256.374-.143.384-.249.667-6.49l.271-5.971h1.439l.1,1.976c.054,1.086.172,3.719.263,5.849.189,4.415.2,4.507.594,4.61.864.226.958-.65.651-6.082-.08-1.407-.192-3.615-.248-4.907l-.1-2.35.521.115c1.2.268,1.613-.053,3.272-2.543.682-1.023,1.293-1.919,1.359-1.991a14.8,14.8,0,0,1,3.7,1.287c1.148.586,1.14.629-.44,2.26-2.179,2.254-2.093,1.923-2.151,8.2-.052,5.691-.036,5.9.446,6.023.879.231.919-.02.919-5.786,0-6.151-.095-5.743,1.753-7.567,1.472-1.451,1.4-1.726,1.122,4.565-.409,9.171-.4,9.344.6,8.683.354-.234.295.549.716-9.474.281-6.693.074-7.126-4.193-8.8-3.564-1.4-5.51-3.632-4.2-4.817a8.688,8.688,0,0,0,1.353-2.707c.077-.382.177-.484.47-.484,1.252,0,2.1-2.107,1.375-3.409a4.691,4.691,0,0,1-.127-2.169c.287-5.83-3.526-9.14-9.457-8.207m-17.658,1.561a3.171,3.171,0,0,1,1.056.888c.572.842.509.965-.354.689a10.521,10.521,0,0,0-4.416,0c-.863.276-.926.153-.357-.685a3.359,3.359,0,0,1,4.071-.892m21.659-.116c2.782.744,4.309,2.949,4.242,6.125-.044,2.084-.521,2.477-1.171.968-.49-1.136-.426-1.11-2.141-.841-3.352.525-6.049-.061-7.653-1.665-.515-.515-.812-.57-1.168-.215s-.316.46.4,1.238c1.559,1.692,5.128,2.5,8.541,1.942l.741-.123.421.867c.419.866.422.867,1.191.915.961.061,1.166.228,1.166.946,0,.681-.222.942-.8.942a1.49,1.49,0,0,0-1.214,1.175,6.3,6.3,0,0,1-1.686,2.9c-3.3,3.084-8.26,1.547-9.457-2.932a1.247,1.247,0,0,0-1.221-1.13.929.929,0,0,1-.719-1.365c.191-.542.575-.614,1.093-.207.589.463.906.4,1.688-.318,1.185-1.092.694-2.316-.521-1.294-.959.806-1.318.311-1.575-2.172-.275-2.653.349-4.1,1.767-4.106a1.76,1.76,0,0,0,.775-.364,9.382,9.382,0,0,1,7.3-1.285m-20.986,3.06a6.7,6.7,0,0,1,4.679,5.3c.338,1.968-.136,2.973-1.086,2.308-.335-.234-.812-.32-2.219-.4-3.109-.172-5.268-.917-7.014-2.421-1-.862-1.06-.886-1.409-.535-1.334,1.334,3.663,3.969,7.968,4.2,1.565.085,1.843.142,2.281.474a1.151,1.151,0,0,0,1.129.271c.8-.135,1.084.088,1.084.84,0,.652-.221.942-.716.942a1.762,1.762,0,0,0-1.371,1.348,5.747,5.747,0,0,1-6.963,4.151c-1.964-.6-4.119-2.863-4.119-4.332,0-.4-.691-1.034-1.24-1.146a.954.954,0,0,1-.684-1.375c.19-.541.575-.614,1.093-.206.589.463.9.4,1.695-.325,1.117-1.03.6-2.236-.547-1.273-1.182,1-2-.371-1.582-2.634a6.976,6.976,0,0,1,9.023-5.194m16.427,14.849a7.032,7.032,0,0,0,4.506-.515c.858-.411.906-.391.9.358,0,.483-.121.657-.907,1.33-.5.426-1.365,1.183-1.928,1.681l-1.026.905-1.864-1.653c-1.833-1.627-1.863-1.664-1.863-2.317v-.664l.747.358a8.379,8.379,0,0,0,1.434.516m-1.419,2.861,1.992,1.765-.893.884c-1.186,1.174-1.216,1.16-2.859-1.278l-1.384-2.055.524-.54c.648-.669.3-.832,2.62,1.224m9-.649a18.63,18.63,0,0,1-3,4.152,5.94,5.94,0,0,1-1.957-1.726,22.7,22.7,0,0,1,1.964-1.831l1.964-1.72.515.5a2.265,2.265,0,0,1,.516.626M1440.9,85.828l-1.248,1.249-1.241-1.234c-1.413-1.4-1.851-2.744-.814-2.49a10.8,10.8,0,0,0,3.757.05l.7-.211.048.694c.048.682.028.716-1.2,1.942m-2.6,2.542c-1.118.928-1.461,1.151-1.575,1.021-.218-.252-1.879-3.008-1.879-3.117a2.579,2.579,0,0,1,.5-.621l.5-.513,1.445,1.435,1.445,1.436-.431.359m6.154-2.1a26.464,26.464,0,0,1-2.01,3.218,8.058,8.058,0,0,1-.978-.729l-.9-.727,1.434-1.439,1.433-1.439.509.494a2.176,2.176,0,0,1,.51.623m15.677.065c.579.525.379,1.293-.337,1.293-.593,0-.62-.021-.62-.491,0-.815.489-1.225.957-.8m-7.066,4.636c-.619.618-.182,1.049,1.141,1.124,1.964.111,2.907-.339,2.245-1.071a4.983,4.983,0,0,0-3.386-.053m-18.218,3.01c-.681.681-.19,1.085,1.317,1.085,1.158,0,1.627-.2,1.627-.7,0-.7-2.325-1-2.944-.385" transform="translate(-1427.677 -60.956)" fill="#fff" fill-rule="evenodd"/>
</svg>
