<svg xmlns="http://www.w3.org/2000/svg" width="46" height="45.998" viewBox="0 0 46 45.998">
  <g id="AppIntegration" transform="translate(0 511.933)">
    <path id="Path_248" data-name="Path 248" d="M1.725-511.75a2.939,2.939,0,0,0-1.536,1.563C0-509.693,0-509.558,0-503.314c0,6.217.009,6.388.189,6.864a2.9,2.9,0,0,0,1.384,1.491l.449.225,4.25.027,4.241.027v1.878H8.248l-.305.305a.786.786,0,0,0-.305.683.787.787,0,0,0,.305.683l.305.305h6.5l.305-.305a.787.787,0,0,0,.305-.683.786.786,0,0,0-.305-.683l-.305-.305H12.488v-1.887h4.133c3.944,0,4.151-.009,4.618-.189a2.9,2.9,0,0,0,1.491-1.384l.225-.449.027-6.487c.018-6.4.018-6.487-.171-6.99a2.868,2.868,0,0,0-1.563-1.563c-.494-.189-.584-.189-9.775-.18C2.372-511.93,2.192-511.93,1.725-511.75Zm18.84,1.914a.921.921,0,0,1,.35.368c.153.332.153,11.976,0,12.309-.234.512.162.494-9.416.494s-9.182.018-9.416-.494c-.162-.359-.144-12.048.018-12.344.261-.467-.1-.449,9.38-.458C18.957-509.962,20.35-509.944,20.565-509.836Z" fill="#fff"/>
    <path id="Path_249" data-name="Path 249" d="M298.46-426.739a1.37,1.37,0,0,0-.323.494.989.989,0,0,0,.323.961l.252.261h1.77c2.228,0,2.471-.1,2.471-.988s-.243-.988-2.471-.988h-1.77Z" transform="translate(-271.327 -77.302)" fill="#fff"/>
    <path id="Path_250" data-name="Path 250" d="M374.575-425.378a.921.921,0,0,0-.575.925c0,.485.305.836.943,1.06a3.171,3.171,0,0,1,1.572,1.509,4.275,4.275,0,0,1,.261,1.473c.054.791.1,1.051.234,1.195a1.134,1.134,0,0,0,1.536-.009,5.11,5.11,0,0,0,.09-2.677,4.94,4.94,0,0,0-2.8-3.315C375.177-425.476,374.88-425.512,374.575-425.378Z" transform="translate(-340.399 -78.709)" fill="#fff"/>
    <path id="Path_251" data-name="Path 251" d="M405.305-330.695l-.305.305v3.63l.305.305a.786.786,0,0,0,.683.305.786.786,0,0,0,.683-.305l.305-.305v-3.63l-.305-.305a.786.786,0,0,0-.683-.305A.786.786,0,0,0,405.305-330.695Z" transform="translate(-368.613 -164.677)" fill="#fff"/>
    <path id="Path_252" data-name="Path 252" d="M85.305-234.695l-.305.305v3.63l.305.305a.787.787,0,0,0,.683.305.786.786,0,0,0,.683-.305l.305-.305v-3.63l-.305-.305a.786.786,0,0,0-.683-.305A.787.787,0,0,0,85.305-234.695Z" transform="translate(-77.363 -252.052)" fill="#fff"/>
    <path id="Path_253" data-name="Path 253" d="M258.065-234.664a3.179,3.179,0,0,0-1.375.907c-.719.8-.692.467-.692,7.718,0,6.271.009,6.442.189,6.837a2.848,2.848,0,0,0,1.878,1.653c.413.126,1.069.144,4.465.144h3.98v1.8h-1.033c-1.114,0-1.437.09-1.7.467a1.137,1.137,0,0,0,.3,1.42,62.152,62.152,0,0,0,6.846,0,1.137,1.137,0,0,0,.3-1.42c-.261-.377-.584-.467-1.7-.467h-1.033v-1.8h3.971c4.429,0,4.609-.018,5.4-.593a3.08,3.08,0,0,0,1.051-1.473c.054-.189.09-2.785.09-6.657,0-7.152.027-6.828-.692-7.628a3.879,3.879,0,0,0-.871-.7l-.458-.243-9.344-.018C262.494-234.727,258.191-234.7,258.065-234.664Zm18.7,2.237.261.287v6.055c0,5.957,0,6.055-.18,6.28a1.212,1.212,0,0,1-.521.332c-.458.126-17.187.126-17.645,0a1.212,1.212,0,0,1-.521-.332c-.18-.225-.18-.323-.18-6.271,0-6.037,0-6.037.189-6.28a1.121,1.121,0,0,1,.386-.323c.1-.045,4.187-.072,9.065-.063l8.886.018Z" transform="translate(-232.999 -252.307)" fill="#fff"/>
    <path id="Path_254" data-name="Path 254" d="M85.795-159.333c-.521.153-.62.35-.647,1.429a4.639,4.639,0,0,0,1.231,3.621A4.438,4.438,0,0,0,88.248-153c.53.2.656.216.943.135a.933.933,0,0,0,.7-.961c0-.494-.305-.845-.943-1.069a3.17,3.17,0,0,1-1.572-1.509,4.259,4.259,0,0,1-.261-1.464c-.063-1-.135-1.213-.449-1.375A1.223,1.223,0,0,0,85.795-159.333Z" transform="translate(-77.493 -320.882)" fill="#fff"/>
    <path id="Path_255" data-name="Path 255" d="M160.431-106.856c-.323.171-.431.386-.431.845,0,.889.243.988,2.471.988h1.77l.252-.261a.931.931,0,0,0,0-1.455l-.252-.261h-1.788A6.04,6.04,0,0,0,160.431-106.856Z" transform="translate(-145.625 -368.552)" fill="#fff"/>
  </g>
</svg>
