<svg xmlns="http://www.w3.org/2000/svg" width="46" height="45.97" viewBox="0 0 46 45.97">
  <g id="AppMigrating" transform="translate(-16 495.678)">
    <path id="Path_256" data-name="Path 256" d="M28.18-495.613a8.445,8.445,0,0,0-5.951,4.552,9.139,9.139,0,0,0-.863,2.8c0,.211-.038.22-.8.22a4.237,4.237,0,0,0-3.153,1.227A4.328,4.328,0,0,0,16-483.442a4.509,4.509,0,0,0,2.3,4.044c.93.537,1.093.556,5.827.556,4.111,0,4.351.01,4.284.163a6.155,6.155,0,0,0-.125,1.14,4.384,4.384,0,0,0,.125,1.533,4.648,4.648,0,0,0,3.028,3.115c.527.163.92.182,4.265.182h3.68l-.192.192c-.153.153-.192.316-.192.767v.575H29.11c-9.44,0-9.919.01-10.283.182a2.869,2.869,0,0,0-.69.5c-.632.671-.6.259-.6,8.615v7.571h-.527c-.958,0-1.073.345-.728,2.175.211,1.1.335,1.38.8,1.821.671.652-.431.6,15.027.6s14.356.048,15.027-.6c.46-.441.585-.719.8-1.821.345-1.83.23-2.175-.728-2.175h-.527v-9.2H47.2c.68,0,.872-.105,1.006-.585.1-.288.153-.364.268-.316.527.22.671.249.882.2a9.687,9.687,0,0,0,1.5-1.342c1.351-1.37,1.437-1.524,1.121-2.08-.192-.335-.192-.335.24-.47a.879.879,0,0,0,.479-.3,11.933,11.933,0,0,0,.1-2.051c0-1.754-.01-1.888-.192-2.07s-.192-.192,2.722-.192c2.588,0,2.98-.019,3.5-.182a4.536,4.536,0,0,0,1.945-1.236A4.244,4.244,0,0,0,62-477.318a4.308,4.308,0,0,0-1.418-3.364,4.238,4.238,0,0,0-3.153-1.227h-.8v-.843a5.154,5.154,0,0,0-1.552-3.738,5.158,5.158,0,0,0-3.843-1.552,5.258,5.258,0,0,0-2.731.709l-.355.22-.383-.326a9.224,9.224,0,0,0-2.875-1.7l-.479-.153-.115-.585a5.73,5.73,0,0,0-1.342-2.6,5.17,5.17,0,0,0-2.262-1.466,5.745,5.745,0,0,0-4.447.46l-.355.22-.748-.6a10.067,10.067,0,0,0-3.1-1.61A15.445,15.445,0,0,0,28.18-495.613Zm3.287,1.725A6.934,6.934,0,0,1,34.6-492.1c1,.958,1.246,1.016,1.926.441a3.781,3.781,0,0,1,5.884,1.265c.374.8.383.776-.891.843a6.787,6.787,0,0,0-3.143.786,8.19,8.19,0,0,0-3.881,3.833,9.139,9.139,0,0,0-.863,2.8c0,.211-.038.22-.815.22a4.506,4.506,0,0,0-3.2,1.284l-.23.249H25.114c-2.52,0-4.533-.038-4.9-.105a3.012,3.012,0,0,1-2.319-1.648,2.308,2.308,0,0,1-.22-1.313,2.219,2.219,0,0,1,.278-1.418c.671-1.2,1.677-1.648,3.728-1.648,1,0,1.169-.115,1.255-.834a8.809,8.809,0,0,1,.508-2.415,7.068,7.068,0,0,1,4.648-4.13A7.7,7.7,0,0,1,31.467-493.888Zm12.267,6.133a6.934,6.934,0,0,1,3.134,1.792c1,.958,1.246,1.016,1.926.441a3.8,3.8,0,0,1,5.9,1.294,2.587,2.587,0,0,1,.249,1.457,13.8,13.8,0,0,1-.077,1.438c-.067.47-.048.556.125.738.192.2.3.22,1.188.22,2.233,0,3.23.441,3.92,1.754a2.308,2.308,0,0,1,.22,1.313,2.183,2.183,0,0,1-.288,1.428,3.357,3.357,0,0,1-1.351,1.284c-.537.278-1.476.355-4.159.355H51.9l-1.208-1.2c-1.294-1.284-1.466-1.37-2.013-1.054-.335.192-.335.192-.47-.24a.879.879,0,0,0-.3-.479,21.722,21.722,0,0,0-4.025,0,.879.879,0,0,0-.3.479c-.134.431-.134.431-.47.24-.546-.316-.719-.23-2.012,1.054l-1.208,1.2H36.508c-1.917,0-3.67-.048-4.025-.105A3.012,3.012,0,0,1,30.164-476a2.308,2.308,0,0,1-.22-1.313,2.219,2.219,0,0,1,.278-1.418c.671-1.2,1.677-1.648,3.728-1.648,1,0,1.169-.115,1.255-.834a8.809,8.809,0,0,1,.508-2.415,7.068,7.068,0,0,1,4.648-4.13A7.7,7.7,0,0,1,43.734-487.754Zm3.23,12.65a1.763,1.763,0,0,0,.335.738,1.226,1.226,0,0,0,1.284-.153l.431-.278.642.623.633.632-.278.45a1.228,1.228,0,0,0-.153,1.284,1.763,1.763,0,0,0,.738.335l.623.173v1.783l-.623.172a1.763,1.763,0,0,0-.738.335,1.228,1.228,0,0,0,.153,1.284l.278.45-.633.633-.642.623-.431-.278a1.226,1.226,0,0,0-1.284-.153,1.763,1.763,0,0,0-.335.738l-.172.623H45.009l-.173-.623a1.763,1.763,0,0,0-.335-.738,1.228,1.228,0,0,0-1.284.153l-.45.278-.632-.632-.623-.642.278-.431a1.226,1.226,0,0,0,.153-1.284,1.763,1.763,0,0,0-.738-.335l-.623-.172v-1.792l.287-.067c.163-.038.4-.1.546-.125.68-.153.834-.834.374-1.591l-.278-.45.632-.632.642-.623.431.278c.517.326,1.025.364,1.313.1a1.839,1.839,0,0,0,.316-.7c.067-.278.144-.546.163-.585a3.367,3.367,0,0,1,.91-.048l.872.029Zm-7.964,6c0,.68.105.872.575,1.006.431.134.431.134.24.47-.316.556-.23.709,1.121,2.08a9.687,9.687,0,0,0,1.5,1.342c.211.048.355.019.882-.2.115-.048.173.029.268.316.134.479.326.585,1.006.585h.537v9.2H39.575c-5.434,0-5.558,0-5.75.192a.663.663,0,0,0-.192.383c0,.182-.067.192-1.533.192s-1.533-.01-1.533-.192a.663.663,0,0,0-.192-.383c-.192-.192-.316-.192-5.75-.192H19.067v-7.226c0-5.137.029-7.3.105-7.533.211-.594-.23-.565,10.273-.575H39Zm-9.967,16.522a.663.663,0,0,0,.192.383c.182.182.316.192,2.875.192s2.693-.01,2.875-.192a.663.663,0,0,0,.192-.383c0-.192.067-.192,5.606-.192h5.606l-.057.307c-.125.728-.249.958-.575,1.092-.479.2-26.814.2-27.293,0-.326-.134-.45-.364-.575-1.092l-.048-.307h5.6C28.966-452.775,29.033-452.775,29.033-452.584Z" fill="#fff"/>
    <path id="Path_257" data-name="Path 257" d="M297.9-263.8a3.123,3.123,0,0,0-1.648,1.687,3.845,3.845,0,0,0,.086,2.607,3.193,3.193,0,0,0,4.993.776,3.151,3.151,0,0,0-1.006-5.07A3.752,3.752,0,0,0,297.9-263.8Zm1.974,1.62a1.448,1.448,0,0,1-.748,2.683,1.448,1.448,0,0,1-.747-2.683A1.588,1.588,0,0,1,299.871-262.179Z" transform="translate(-253.223 -209.475)" fill="#fff"/>
    <path id="Path_258" data-name="Path 258" d="M144-151.233v.767h1.533V-152H144Z" transform="translate(-115.733 -310.742)" fill="#fff"/>
    <path id="Path_259" data-name="Path 259" d="M176-151.233v.767h1.533V-152H176Z" transform="translate(-144.667 -310.742)" fill="#fff"/>
    <path id="Path_260" data-name="Path 260" d="M208-151.233v.767h1.533V-152H208Z" transform="translate(-173.6 -310.742)" fill="#fff"/>
    <path id="Path_261" data-name="Path 261" d="M360.414-235.189c-.029,4.686-.038,4.83-.23,5.252a2.625,2.625,0,0,1-1.236,1.217c-.335.153-.757.173-3.661.2L352-228.49v1.533l3.622-.029,3.613-.029.575-.278a4.325,4.325,0,0,0,1.83-1.83l.278-.575.029-5.156.029-5.146h-1.533Z" transform="translate(-303.8 -231.175)" fill="#fff"/>
  </g>
</svg>
