<svg xmlns="http://www.w3.org/2000/svg" width="46" height="42.927" viewBox="0 0 46 42.927">
  <g id="Digitalransformation" transform="translate(-15.992 479.943)">
    <path id="Path_262" data-name="Path 262" d="M295.427-479.766a2.765,2.765,0,0,0-1.15,1.15c-.057.2-.086.2-3.172.2H288v1.533h3.1c3.086,0,3.115,0,3.172.2a2.765,2.765,0,0,0,1.15,1.15,3.006,3.006,0,0,0,1.945.029,2.222,2.222,0,0,0,1.361-2.147,2.222,2.222,0,0,0-1.361-2.147A3.006,3.006,0,0,0,295.427-479.766Zm1.485,1.639a.767.767,0,0,1,.192.479.767.767,0,0,1-.192.479.767.767,0,0,1-.479.192.767.767,0,0,1-.479-.192.767.767,0,0,1-.192-.479.767.767,0,0,1,.192-.479.767.767,0,0,1,.479-.192A.767.767,0,0,1,296.912-478.127Z" transform="translate(-245.941)" fill="#fff"/>
    <path id="Path_263" data-name="Path 263" d="M17.286-471.818a2.87,2.87,0,0,0-.69.5c-.652.69-.6-.412-.6,15.036s-.048,14.346.6,15.036a2.87,2.87,0,0,0,.69.5c.364.172.8.182,8.749.182h8.357v6.133H33.051c-1.84,0-1.725-.153-1.725,2.3,0,1.792.01,1.926.192,2.108s.316.192,7.475.192,7.283,0,7.475-.192.192-.316.192-2.108c0-2.453.115-2.3-1.725-2.3H43.592v-6.133h8.366c7.935,0,8.376-.01,8.74-.182a2.87,2.87,0,0,0,.69-.5c.6-.642.6-.633.6-4.974,0-3.8-.01-3.939-.192-4.121s-.316-.192-10.733-.192H40.525v-10.541c0-10.417,0-10.542-.192-10.733S40.018-472,28.911-472C18.168-472,17.65-471.99,17.286-471.818Zm21.706,2.885v1.533H17.526v-1.092c0-1.284.105-1.658.517-1.84.24-.105,2.147-.125,10.628-.134H38.992Zm0,11.308c0,8.117,0,8.242.192,8.433S39.5-449,49.917-449H60.458v3.019c0,3.383-.029,3.584-.575,3.776-.23.077-5.788.105-20.91.105-22.626,0-21.121.038-21.342-.575-.077-.23-.105-3.469-.105-11.749v-11.442H38.992Zm-.767,18.4c0,1.217.019,1.361.192,1.533a.784.784,0,0,0,.575.192.784.784,0,0,0,.575-.192c.172-.173.192-.316.192-1.533v-1.342h2.3v6.133H35.926v-6.133h2.3Zm6.9,7.092v.767H32.859V-432.9H45.125Z" transform="translate(0 -7.182)" fill="#fff"/>
    <path id="Path_264" data-name="Path 264" d="M40.192-447.808a.784.784,0,0,0-.192.575.68.68,0,0,0,.767.767.68.68,0,0,0,.767-.767.68.68,0,0,0-.767-.767A.784.784,0,0,0,40.192-447.808Z" transform="translate(-21.707 -28.882)" fill="#fff"/>
    <path id="Path_265" data-name="Path 265" d="M64.192-447.808a.784.784,0,0,0-.192.575.68.68,0,0,0,.767.767.68.68,0,0,0,.767-.767.68.68,0,0,0-.767-.767A.784.784,0,0,0,64.192-447.808Z" transform="translate(-43.408 -28.882)" fill="#fff"/>
    <path id="Path_266" data-name="Path 266" d="M88.192-447.808a.784.784,0,0,0-.192.575.68.68,0,0,0,.767.767.68.68,0,0,0,.767-.767.68.68,0,0,0-.767-.767A.784.784,0,0,0,88.192-447.808Z" transform="translate(-65.108 -28.882)" fill="#fff"/>
    <path id="Path_267" data-name="Path 267" d="M61.991-391.808c-.182.182-.192.316-.192,1.917v1.725H60.458c-1.217,0-1.361.019-1.533.192s-.192.316-.192,1.533v1.342H57.392c-1.83,0-1.725-.125-1.725,2.108v1.725H54.325c-1.792,0-1.725-.067-1.725,1.725v1.342H51.258c-1.792,0-1.725-.067-1.725,1.725v1.342H48v1.533H69.466v-1.533H66.4v-8.242c0-8.117,0-8.242-.192-8.433S65.892-392,64.1-392,62.174-391.99,61.991-391.808Zm2.875,9.008v7.667H63.333v-15.333h1.533ZM61.8-380.884v5.75H60.266v-11.5H61.8Zm-3.067,1.533v4.217H57.2v-8.433h1.533Zm-3.067,1.917v2.3H54.133v-4.6h1.533ZM52.6-375.9v.767H51.067v-1.533H52.6Z" transform="translate(-28.941 -79.515)" fill="#fff"/>
    <path id="Path_268" data-name="Path 268" d="M288-215.233v.767h1.533V-216H288Z" transform="translate(-245.941 -238.649)" fill="#fff"/>
    <path id="Path_269" data-name="Path 269" d="M304.627-471.766a2.765,2.765,0,0,0-1.15,1.15c-.058.192-.125.2-1.064.2-.92,0-1.025.019-1.217.211-.115.125-1.073,1.227-2.118,2.453l-1.907,2.233-1.313-1.3-1.313-1.294H288v1.533h5.692l1.543,1.533,1.543,1.533h2.175c2.118,0,2.166,0,2.223.2a2.765,2.765,0,0,0,1.15,1.15,3.006,3.006,0,0,0,1.945.029,2.222,2.222,0,0,0,1.361-2.147,2.222,2.222,0,0,0-1.361-2.147,3.006,3.006,0,0,0-1.945.029,2.765,2.765,0,0,0-1.15,1.15c-.057.192-.125.2-1.112.2-.853,0-1.035-.029-.977-.125.038-.077.767-.939,1.61-1.917l1.533-1.792h.594c.517,0,.594.029.652.2a2.765,2.765,0,0,0,1.15,1.15,3.006,3.006,0,0,0,1.945.029,2.222,2.222,0,0,0,1.361-2.147,2.222,2.222,0,0,0-1.361-2.147A3.006,3.006,0,0,0,304.627-471.766Zm1.485,1.639a.767.767,0,0,1,.192.479.767.767,0,0,1-.192.479.767.767,0,0,1-.479.192.767.767,0,0,1-.479-.192.767.767,0,0,1-.192-.479.767.767,0,0,1,.192-.479.767.767,0,0,1,.479-.192A.767.767,0,0,1,306.112-470.127Zm-2.3,5.367a.767.767,0,0,1,.192.479.767.767,0,0,1-.192.479.767.767,0,0,1-.479.192.767.767,0,0,1-.479-.192.767.767,0,0,1-.192-.479.767.767,0,0,1,.192-.479.767.767,0,0,1,.479-.192A.767.767,0,0,1,303.812-464.761Z" transform="translate(-245.941 -7.233)" fill="#fff"/>
    <path id="Path_270" data-name="Path 270" d="M288-391.233v.767h5.712l.652.661c.613.623.652.68.585.978a2.287,2.287,0,0,0,2.252,2.961,2.173,2.173,0,0,0,2.3-2.319,2.083,2.083,0,0,0-.738-1.715,2.062,2.062,0,0,0-1.84-.537l-.728.048-.824-.8-.824-.8H288Zm9.679,2.587a.767.767,0,0,1,.192.479.767.767,0,0,1-.192.479.767.767,0,0,1-.479.192.767.767,0,0,1-.479-.192.767.767,0,0,1-.192-.479.767.767,0,0,1,.192-.479.767.767,0,0,1,.479-.192A.767.767,0,0,1,297.679-388.646Z" transform="translate(-245.941 -79.515)" fill="#fff"/>
    <path id="Path_271" data-name="Path 271" d="M302.327-351.8a2.557,2.557,0,0,0-1.2,1.3,5.466,5.466,0,0,0,.019,1.869,8.5,8.5,0,0,1-1.025,1.457l-1.054,1.322H288v1.533h5.922c4.6,0,5.961-.029,6.076-.125.077-.057.661-.767,1.294-1.552l1.15-1.447.68.038a2.085,2.085,0,0,0,1.773-.546,2.244,2.244,0,0,0,.757-1.725,2.289,2.289,0,0,0-1.313-2.127A2.907,2.907,0,0,0,302.327-351.8Zm1.485,1.639a.767.767,0,0,1,.192.479.767.767,0,0,1-.192.479.767.767,0,0,1-.479.192.767.767,0,0,1-.479-.192.767.767,0,0,1-.192-.479.767.767,0,0,1,.192-.479.767.767,0,0,1,.479-.192A.767.767,0,0,1,303.812-350.157Z" transform="translate(-245.941 -115.704)" fill="#fff"/>
    <path id="Path_272" data-name="Path 272" d="M292.36-343.766a2.765,2.765,0,0,0-1.15,1.15c-.057.192-.115.2-1.639.2H288v1.533h1.572c1.524,0,1.581.01,1.639.2a2.765,2.765,0,0,0,1.15,1.15,3.006,3.006,0,0,0,1.945.029,2.222,2.222,0,0,0,1.361-2.147,2.222,2.222,0,0,0-1.361-2.147A3.006,3.006,0,0,0,292.36-343.766Zm1.485,1.639a.766.766,0,0,1,.192.479.767.767,0,0,1-.192.479.767.767,0,0,1-.479.192.767.767,0,0,1-.479-.192.767.767,0,0,1-.192-.479.767.767,0,0,1,.192-.479.767.767,0,0,1,.479-.192A.767.767,0,0,1,293.846-342.127Z" transform="translate(-245.941 -122.967)" fill="#fff"/>
  </g>
</svg>
