<svg xmlns="http://www.w3.org/2000/svg" width="46" height="45.979" viewBox="0 0 46 45.979">
  <g id="techConsulting" transform="translate(0.014 511.784)">
    <path id="Path_248" data-name="Path 248" d="M96.247-511.633c-.476.126-.584.189-.566.332s1.464,5.948,1.5,6.028c.018.018,1.518-.35,1.563-.377.009-.009-.332-1.4-.764-3.091C97.1-512.208,97.28-511.9,96.247-511.633Z" transform="translate(-87.097)" fill="#fff"/>
    <path id="Path_249" data-name="Path 249" d="M31.746-509.8c-.216.189-.252.341-.485,1.869-.252,1.716-.359,2.039-.7,2.12-.458.117-.638-.036-1.653-1.384-1-1.33-1.213-1.536-1.59-1.545-.287,0-.458.1-1.653,1.006l-1.051.791-1.734.027a13.087,13.087,0,0,0-2.677.234,14.547,14.547,0,0,0-8,4.618A14.475,14.475,0,0,0,8.639-493.9l-.054.7H8.3c-.485,0-.638.261-.934,1.7-.153.71-.279,1.3-.279,1.321s-.494-.314-1.1-.728c-1.572-1.1-1.464-1.123-3.144.566-1.68,1.671-1.653,1.563-.611,3.117a6.651,6.651,0,0,1,.674,1.105,11.856,11.856,0,0,1-1.276.305c-1.752.368-1.644.2-1.644,2.543s-.108,2.174,1.644,2.551a12.366,12.366,0,0,1,1.285.305,6.649,6.649,0,0,1-.674,1.105c-1.06,1.536-1.078,1.428.6,3.109s1.572,1.662,3.109.6a6.65,6.65,0,0,1,1.105-.674,11.788,11.788,0,0,1,.314,1.285c.207.988.305,1.285.485,1.464l.216.225h3.683l.216-.225c.18-.18.279-.476.485-1.464.144-.683.287-1.258.305-1.285a6.25,6.25,0,0,1,1.114.683c1.411.961,1.509.961,2.417.081l.656-.638.036,1.473c.027,1.339.045,1.5.243,1.869a2.7,2.7,0,0,0,.925,1.132l.341.243v2.408c0,2.884.054,3.108.889,3.953.827.827,1.1.889,3.692.889,2.507,0,2.848-.072,3.621-.8.9-.836,1.051-1.464,1.051-4.393v-1.994l.521-.521c.853-.836.934-1.114,1.006-3.836.072-2.507.117-2.722.7-3.5a6.552,6.552,0,0,1,1.1-1.015c1.3-.961,1.716-1.3,1.68-1.4a7.138,7.138,0,0,0-.979-1.123,18.39,18.39,0,0,0-2.632,2.012,6.063,6.063,0,0,0-1.276,2.039,10.442,10.442,0,0,0-.2,2.677c-.063,2.551-.09,2.65-.7,3.117l-.323.252-3.423.027c-3.4.027-3.423.018-3.818-.18-.755-.386-.764-.413-.827-2.929-.072-2.471-.144-2.9-.674-3.881a6.062,6.062,0,0,0-2.012-2.066,14.2,14.2,0,0,1-2.543-2.228,12.842,12.842,0,0,1-.323-16.693,12.837,12.837,0,0,1,9.02-4.645c.8-.018.809-.018.836.207a9.211,9.211,0,0,0,1.006,1.527,13.852,13.852,0,0,1,1.024,1.5.739.739,0,0,1-.458.8,8.543,8.543,0,0,1-1.59-.135c-1.8-.252-2.12-.252-2.381.027-.18.189-.252.521-.557,2.632-.189,1.321-.35,2.48-.35,2.56a.778.778,0,0,0,.207.386c.189.225.323.261,1.86.485a14.566,14.566,0,0,1,1.851.35.67.67,0,0,1,.287.853,10.6,10.6,0,0,1-1.455,1.249c-1.491,1.123-1.626,1.3-1.366,1.833.162.35,2.722,3.782,2.974,3.989a.9.9,0,0,0,.494.135c.279,0,.53-.153,1.689-1.015,1.24-.925,1.384-1.015,1.689-.988a.507.507,0,0,1,.5.305c.153.261.153.323-.081,1.985-.234,1.644-.234,1.716-.081,1.95a.82.82,0,0,0,.35.314c.108.045,1.276.234,2.605.413,2.111.305,2.426.332,2.632.225a.9.9,0,0,0,.314-.288,15.184,15.184,0,0,0,.314-1.752c.27-1.887.341-2.048.943-2.048h.4l1.015,1.348c1.042,1.384,1.339,1.644,1.761,1.536a38.115,38.115,0,0,0,4.214-3.153,1.066,1.066,0,0,0-.036-.782c-.054-.108-.521-.746-1.033-1.437a6.534,6.534,0,0,1-.934-1.455.867.867,0,0,1,.189-.449c.234-.3.4-.3,2.282-.045,1.536.216,1.851.2,2.066-.126a38.8,38.8,0,0,0,.764-4.977.718.718,0,0,0-.225-.611.716.716,0,0,0-.305-.225,27.316,27.316,0,0,1-3.4-.584.648.648,0,0,1-.2-.845,9.482,9.482,0,0,1,1.339-1.15,17.357,17.357,0,0,0,1.375-1.114c.359-.44.261-.656-1.348-2.794-1.554-2.057-1.725-2.228-2.21-2.1a11.693,11.693,0,0,0-1.554,1.042c-1.455,1.078-1.671,1.159-2.057.764-.279-.27-.279-.305,0-2.192.234-1.644.225-1.869-.153-2.111A44.274,44.274,0,0,0,32.276-510,.9.9,0,0,0,31.746-509.8Zm2.911,1.743,1.195.162-.045.458c-.027.243-.1.845-.162,1.33a2.55,2.55,0,0,0,.35,2.084,2.186,2.186,0,0,0,1.761.925c.809.054,1.141-.1,2.426-1.069a7.02,7.02,0,0,1,.9-.611c.4.5,1.671,2.246,1.671,2.3a5.486,5.486,0,0,1-.746.611c-1.563,1.141-1.806,1.491-1.815,2.56a2.143,2.143,0,0,0,.836,1.86c.458.35.737.431,2.129.629.593.081,1.1.153,1.114.171s-.35,2.839-.4,2.893c-.009.009-.44-.045-.943-.117-1.77-.27-2.426-.18-3.1.422a1.963,1.963,0,0,0-.719,1.734c0,.845.036.916.988,2.192.368.5.674.925.674.943a27.7,27.7,0,0,1-2.282,1.68,6.33,6.33,0,0,1-.853-1.006c-.656-.862-.853-1.06-1.276-1.276a2.356,2.356,0,0,0-2.587.261c-.539.449-.719.889-.925,2.291-.1.71-.189,1.3-.2,1.312-.018.027-2.839-.386-2.875-.431a10.885,10.885,0,0,1,.135-1.2,3.444,3.444,0,0,0-.153-2.4,2.234,2.234,0,0,0-2.048-1.168c-.71,0-1,.135-2.165,1l-.97.719-.845-1.114a12.668,12.668,0,0,1-.836-1.2,5.091,5.091,0,0,1,.836-.7c1.069-.818,1.267-1,1.509-1.473a2.452,2.452,0,0,0-.575-2.812,3.826,3.826,0,0,0-2.084-.656,3.3,3.3,0,0,1-1.186-.27,21.435,21.435,0,0,1,.368-2.785,6.9,6.9,0,0,1,1.132.108c1.653.234,2.309.126,2.956-.512a2.014,2.014,0,0,0,.674-1.644c0-.773-.126-1.051-1.069-2.291l-.665-.88,1.168-.88,1.177-.88.171.234c1.411,1.932,1.833,2.3,2.767,2.381a2.133,2.133,0,0,0,1.8-.566c.53-.476.692-.845.862-2.039.234-1.617.207-1.527.476-1.473C33.345-508.239,33.992-508.149,34.657-508.059ZM9.088-488.51c.189.638.189.7-.009.7a4.878,4.878,0,0,0-1.7.674,4.819,4.819,0,0,0-1.923,2.578,5.271,5.271,0,0,0,.072,2.866,5.325,5.325,0,0,0,1.3,1.923,6.358,6.358,0,0,0,2.048,1.024,4.758,4.758,0,0,0,4.833-1.923l.261-.386.755.539a5.086,5.086,0,0,1,1.761,1.752l.252.476-.764.764a6.449,6.449,0,0,1-.836.764,5.108,5.108,0,0,1-.773-.476,10.5,10.5,0,0,0-.97-.629,1.656,1.656,0,0,0-1.977.5,4,4,0,0,0-.377,1.159c-.314,1.491-.171,1.33-1.132,1.33-.728,0-.845-.018-.889-.162-.018-.081-.126-.548-.234-1.033a6.891,6.891,0,0,0-.305-1.123,1.523,1.523,0,0,0-1.411-.827c-.431,0-.7.135-1.626.773a5.981,5.981,0,0,1-.764.485A8.274,8.274,0,0,1,3.4-478.043a5.516,5.516,0,0,1,.494-.782c.755-1.069.907-1.581.665-2.219-.225-.6-.629-.853-1.806-1.105-.458-.1-.925-.2-1.033-.225-.2-.045-.207-.09-.207-.9,0-.728.018-.845.162-.889.081-.018.593-.135,1.132-.243,1.078-.216,1.491-.467,1.725-1.042.279-.656.144-1.15-.629-2.255a5.466,5.466,0,0,1-.5-.791,8.625,8.625,0,0,1,1.267-1.294,9.312,9.312,0,0,1,.943.6c.746.512.943.6,1.348.638a1.4,1.4,0,0,0,1.509-.818,2.661,2.661,0,0,0,.243-.593c.009-.081.063.1.126.4S9.007-488.8,9.088-488.51Zm1.114,2.8a13.95,13.95,0,0,0,1.779,2.65l.692.836-.153.341a3.05,3.05,0,0,1-3.171,1.536,3.063,3.063,0,0,1-2.408-2.668,3.023,3.023,0,0,1,2.111-3.126C9.816-486.381,9.887-486.354,10.2-485.707ZM26.131-470.29v.719H20.111v-1.437h6.019Zm0,2.659a2.432,2.432,0,0,1-.35,1.267,2.08,2.08,0,0,1-.467.377c-.287.171-.44.189-2.246.189-1.869,0-1.95-.009-2.246-.207a1.452,1.452,0,0,1-.71-1.375v-.575h6.019Z" transform="translate(0 -1.624)" fill="#fff"/>
    <path id="Path_250" data-name="Path 250" d="M302.524-431.433a5.82,5.82,0,0,0-3.54,1.752,5.681,5.681,0,0,0-1.806,4.043,5.579,5.579,0,0,0,.638,3.055A5.9,5.9,0,0,0,303-419.232a5.672,5.672,0,0,0,3.028-.611,6.173,6.173,0,0,0,3.216-3.953,7.766,7.766,0,0,0,.009-3.055A6.183,6.183,0,0,0,302.524-431.433Zm2.156,1.815a4.573,4.573,0,0,1,3.082,4.941,4.609,4.609,0,0,1-4.456,3.845,4.559,4.559,0,0,1-4.4-5.615,4.344,4.344,0,0,1,1.222-2.048A4.317,4.317,0,0,1,304.68-429.618Z" transform="translate(-270.482 -73.093)" fill="#fff"/>
    <path id="Path_251" data-name="Path 251" d="M23.014-465.1c-.261.35-.431.665-.386.7s1.258.889,2.7,1.914,2.632,1.869,2.659,1.869a9.075,9.075,0,0,0,.9-1.258c.018-.072-5.049-3.737-5.292-3.836C23.535-465.727,23.274-465.457,23.014-465.1Z" transform="translate(-20.601 -41.935)" fill="#fff"/>
    <path id="Path_252" data-name="Path 252" d="M142.48-415.569a10.8,10.8,0,0,0-4.321,7.142,13.9,13.9,0,0,0,.18,4.016,10.852,10.852,0,0,0,3.109,5.372A11.2,11.2,0,0,0,144.573-397a5.339,5.339,0,0,1,2.92,2.578,5.968,5.968,0,0,1,.467,1.77v.279H149.6l-.063-.611a5.465,5.465,0,0,0-.656-2.237,5.6,5.6,0,0,0-.988-1.464,6.64,6.64,0,0,0-2.453-1.707,8.945,8.945,0,0,1-3.306-2.291,9.191,9.191,0,0,1-2.282-4.393,10.649,10.649,0,0,1,.09-4.025,9.269,9.269,0,0,1,3.36-5.031,4.725,4.725,0,0,0,.611-.5c0-.045-.809-1.366-.836-1.366C143.073-416,142.8-415.8,142.48-415.569Z" transform="translate(-125.692 -87.179)" fill="#fff"/>
    <path id="Path_253" data-name="Path 253" d="M11.373-381.04c-1.68.422-3.064.764-3.073.773s.072.359.171.8c.153.638.216.782.332.746.081-.027,1.455-.377,3.064-.773s2.929-.746,2.947-.764a7.444,7.444,0,0,0-.332-1.446A19.07,19.07,0,0,0,11.373-381.04Z" transform="translate(-7.567 -118.383)" fill="#fff"/>
    <path id="Path_254" data-name="Path 254" d="M418-195.191v.809h5.391V-196H418Z" transform="translate(-380.46 -287.414)" fill="#fff"/>
    <path id="Path_255" data-name="Path 255" d="M404.538-150.407a3.548,3.548,0,0,0-.449.62c.018.009,1.069.88,2.327,1.932l2.291,1.9.431-.476c.234-.27.467-.557.521-.638.072-.135-.27-.449-2.183-2.048-1.24-1.033-2.309-1.887-2.354-1.887A2.793,2.793,0,0,0,404.538-150.407Z" transform="translate(-367.797 -328.371)" fill="#fff"/>
    <path id="Path_256" data-name="Path 256" d="M248-134.832v1.168h1.617V-136H248Z" transform="translate(-225.732 -342.023)" fill="#fff"/>
    <path id="Path_257" data-name="Path 257" d="M367-125.3v2.7h1.617V-128H367Z" transform="translate(-334.041 -349.304)" fill="#fff"/>
  </g>
</svg>
