<svg xmlns="http://www.w3.org/2000/svg" width="46" height="47.178" viewBox="0 0 46 47.178">
  <path id="path0" d="M2503.018,612.66l-2.907,1.665v2.907c0,2.371-.048,2.948-.259,3.124-.28.232-4.611,2.95-4.7,2.95a3.763,3.763,0,0,1-.107-.889l-.052-.888-2.777-1.618c-3.18-1.851-3.1-1.831-4.4-1.046-.539.325-1.8,1.059-2.8,1.629l-1.823,1.039-.047,3.129-.047,3.13,2.689,1.445,2.689,1.445,0,3.762,0,3.763-2.692,1.529-2.692,1.531.045,3.119.045,3.119,1.562.881c.859.484,2.191,1.22,2.96,1.635l1.4.755,2.412-1.332a14.608,14.608,0,0,1,2.605-1.259c.105.041,1.5.946,3.087,2.013l2.9,1.939V655.2l2.814,1.536c1.548.844,2.911,1.56,3.029,1.59a46.974,46.974,0,0,0,5.828-3.061c.244-.207.3-.54.3-1.706v-1.447l3.027-2.017,3.027-2.017,2.448,1.336,2.448,1.335,2.985-1.619,2.985-1.619v-6.229l-2.6-1.51-2.6-1.508-.043-3.792-.042-3.792,2.385-1.282c3.3-1.775,2.994-1.291,2.99-4.689,0-3.462.326-2.936-3.039-4.853-3.342-1.9-2.67-1.895-5.857-.084-3.155,1.792-3.12,1.763-3.24,2.734l-.094.768-2.384-1.5-2.384-1.5v-2.88c0-3.4.363-2.846-3.251-4.9-3.159-1.8-2.336-1.821-5.818.173m5.093.851c1.083.626,1.994,1.162,2.024,1.192a30.614,30.614,0,0,1-4.067,2.182,20.7,20.7,0,0,1-3.961-2.227c.155-.155,3.8-2.266,3.926-2.276.06-.005.994.5,2.077,1.129m-2.831,4.5c.162.148.21.731.174,2.134l-.049,1.93-2-1.1-2-1.1-.049-2.026-.049-2.025,1.871.991a23.592,23.592,0,0,1,2.094,1.2m5.591-.182v1.98l-1.171.646c-.645.354-1.582.875-2.082,1.155l-.911.511,0-2.051,0-2.052,2.037-1.079c1.119-.593,2.055-1.082,2.079-1.085s.044.886.044,1.975m-19.752,2.9c1.038.587,1.918,1.115,1.954,1.173a10.54,10.54,0,0,1-1.941,1.209l-2.009,1.1-1.4-.747c-2.573-1.371-2.758-1.493-2.505-1.656.8-.516,3.731-2.142,3.86-2.144a18.872,18.872,0,0,1,2.045,1.064m32.838-.659,1.987,1.147,1.276.738-2.057,1.126-2.058,1.127-1.764-.918c-1.94-1.011-2.49-1.376-2.228-1.477.1-.037.955-.529,1.91-1.094,2.008-1.187,2-1.185,2.934-.648m-20.558,2.3,2.092,1.144v4.916l-2.367,1.359c-1.75,1.005-2.447,1.321-2.671,1.214-.167-.08-1.446-.887-2.843-1.794l-2.539-1.648.047-1.385.047-1.385,2.851-1.783c3.379-2.112,2.811-2.045,5.383-.638m10.717.628,2.84,1.773-.05,1.472-.049,1.472-2.517,1.627c-1.384.894-2.61,1.667-2.725,1.716a12.46,12.46,0,0,1-2.564-1.257l-2.355-1.346.048-2.5.048-2.505,2-1.106c2.476-1.372,1.974-1.435,5.328.658m-27.624,1.216,1.993,1.081v1.956a8.851,8.851,0,0,1-.11,1.956c-.06,0-1-.481-2.083-1.068l-1.972-1.069V625.1a11.007,11.007,0,0,1,.089-1.968c.049,0,.987.486,2.083,1.08m7.372.888v1.968l-1.972,1.069c-1.085.587-2.021,1.068-2.082,1.068a8.764,8.764,0,0,1-.108-1.952l0-1.952,1.95-1.077c1.073-.591,2.01-1.08,2.08-1.084a7.515,7.515,0,0,1,.13,1.959m26.681-.84,1.952,1.041v1.952a7.458,7.458,0,0,1-.13,1.951c-.072,0-1.028-.489-2.125-1.085l-2-1.083-.049-1.967c-.039-1.533,0-1.953.173-1.909.123.031,1.1.526,2.175,1.1m7.328.825-.005,1.952-1.984,1.084c-1.091.6-2.026,1.085-2.078,1.085a10.42,10.42,0,0,1-.094-1.97v-1.97l1.952-1.065c1.074-.585,2.011-1.066,2.083-1.067a7.465,7.465,0,0,1,.126,1.951m-30.79,5.243,3.028,1.989v4.651l-2.43,1.716c-1.338.944-2.617,1.829-2.842,1.966-.386.234-.551.17-2.778-1.1l-2.368-1.346.047-3.759.047-3.76,2.082-1.163c1.146-.639,2.105-1.167,2.134-1.173s1.415.883,3.081,1.977m23.9-.392,1.518.854v7.374l-2.35,1.35a10.744,10.744,0,0,1-2.608,1.252c-.143-.055-1.427-.927-2.856-1.938l-2.6-1.839,0-2.373,0-2.373,2.984-1.938,2.983-1.937.7.356c.386.2,1.385.74,2.22,1.211m-12.8.787c1.384.8,1.95,1.214,1.791,1.309a38.443,38.443,0,0,1-3.907,2.033,20.712,20.712,0,0,1-3.961-2.227c.163-.162,3.8-2.267,3.936-2.276a24.045,24.045,0,0,1,2.141,1.161m-2.9,4.464c.162.148.21.73.174,2.125l-.049,1.922-2-1.09-2-1.09-.049-2.027-.049-2.027,1.871.99a23.592,23.592,0,0,1,2.094,1.2m5.591-.176V637l-1.519.815c-.835.449-1.772.966-2.082,1.151l-.563.336,0-2.053,0-2.053,1.949-1.065c1.071-.585,2.008-1.074,2.079-1.084a7.435,7.435,0,0,1,.13,1.967m-6.72,4.951,1.348.734-.047,2.606-.048,2.607-2.6,1.5-2.6,1.5-.054.832c-.029.457-.117.806-.195.777s-1.206-.757-2.506-1.616l-2.364-1.562.042-2.685.043-2.685,2.755-1.96,2.755-1.961,1.063.588c.584.324,1.67.919,2.413,1.323m10.234.164,2.559,1.777v5.473l-2.386,1.588-2.385,1.588-.087-.811-.086-.811-2.643-1.49-2.642-1.488.039-2.68.04-2.681,2.333-1.26a9.269,9.269,0,0,1,2.517-1.121c.1.076,1.335.939,2.743,1.916m-22.288.861c1.282.734,1.387.573-1.351,2.051l-1.672.9-1.9-1.049c-1.045-.577-1.959-1.1-2.031-1.172a7.506,7.506,0,0,1,1.906-1.279l2.037-1.157.957.538c.527.3,1.451.82,2.054,1.165m33.057-.518,2.048,1.19-2.048,1.128-2.048,1.127-2.037-1.063a9.943,9.943,0,0,1-1.993-1.2,41.153,41.153,0,0,1,3.942-2.364c.048-.005,1.009.526,2.135,1.181m-37.039,4.356c.365.247.382.362.334,2.2l-.051,1.942-1.995-1.076-2-1.076-.049-2.044-.049-2.045,1.711.918c.94.505,1.884,1.035,2.095,1.179m5.539,2a23.693,23.693,0,0,1-2.094,1.2l-1.871.992.049-2.026.049-2.026,2-1.1,2-1.1.049,1.931c.036,1.4-.011,1.986-.173,2.135m26.71-2.971,2.047,1.115.049,2.025a6.969,6.969,0,0,1-.086,1.966c-.074-.033-1.054-.554-2.175-1.159l-2.039-1.1v-1.982a12.518,12.518,0,0,1,.079-1.981c.044,0,1,.5,2.125,1.114m7.513.868v1.984l-.911.511c-.5.28-1.441.8-2.088,1.158l-1.178.649.049-2.042.049-2.042,2-1.1c1.1-.6,2.015-1.1,2.039-1.1s.044.889.044,1.98m-19.479,3.557a8.179,8.179,0,0,1,1.6,1.042,32.522,32.522,0,0,1-3.925,2.269c-.155,0-4.054-2.17-4.053-2.256,0-.36,4.1-2.384,4.421-2.181.19.122,1.069.628,1.952,1.127m-4.879,3.338,1.972,1.069v1.968a10.828,10.828,0,0,1-.091,1.968c-.05,0-.986-.486-2.083-1.08l-1.992-1.081v-1.956a8.851,8.851,0,0,1,.11-1.956c.061,0,1,.481,2.083,1.068m7.35.884,0,1.952-1.928,1.041c-1.06.573-2,1.067-2.08,1.1a6.057,6.057,0,0,1-.151-1.941v-2l1.952-1.049c1.073-.577,2.011-1.051,2.082-1.054a7.42,7.42,0,0,1,.128,1.948" transform="translate(-2483.097 -611.151)" fill="#fff" fill-rule="evenodd"/>
</svg>
