<svg xmlns="http://www.w3.org/2000/svg" width="50" height="42.113" viewBox="0 0 50 42.113">
  <path id="path0" d="M3029.042,310.772a13.757,13.757,0,0,0-10.175,20.508c4.066,6.905,13.523,8.93,19.792,4.237.669-.5.7-.5,4.351-.5h3.677v4.524l-.623-.444a3.217,3.217,0,0,0-4.974,1.762c-.287,1.436,0,1.915,2.857,4.814,2.092,2.12,2.732,2.892,2.841,3.423a4.04,4.04,0,0,0,1.579,2.517c1.312,1.154,1.615,1.2,8.585,1.193,6.955,0,7.147-.034,8.467-1.355,1.357-1.357,1.3-.943,1.366-10.612.061-9.429.074-9.3-.973-10.445-.38-.416-.38-.424.122-1.414a10.635,10.635,0,0,0-5.735-14.508c-1.855-.7-2.958-.766-12.032-.767h-8.786l-1.2-.784a14.3,14.3,0,0,0-9.137-2.142m4.521,1.857a12.1,12.1,0,1,1-13.206,18.029c-5.554-9.117,2.775-20.488,13.206-18.029m24.149,2.836a8.987,8.987,0,0,1,7.575,10.2c-.3,1.883-1.255,3.869-1.854,3.869a3.526,3.526,0,0,0-1.2.389c-.746.38-.773.381-1.166.025a2.9,2.9,0,0,0-3.429-.444l-.674.36-.79-.576a2.164,2.164,0,0,0-1.992-.484l-1.2.093-.068-1.605c-.125-2.958-2.339-4.508-4.661-3.264-1.337.717-1.566,1.542-1.566,5.633v3.587H3041.2l.8-1.179a13.832,13.832,0,0,0-.281-15.822,3.251,3.251,0,0,1-.5-.831c0-.228,14.9-.188,16.5.045m-21.683,2.633a46.907,46.907,0,0,0-3.954,3.669l-3.367,3.355-1.619-1.576c-2.639-2.568-4.92-2.649-6.026-.212-.835,1.84-.515,2.5,2.83,5.873,4.924,4.96,4.776,4.984,11.592-1.875,5.066-5.1,5.35-5.5,5.053-7.085a3.274,3.274,0,0,0-4.51-2.149m2.551,1.752c1,1,.9,1.146-4.365,6.409-6.062,6.062-5.163,5.869-9.081,1.952-3.116-3.117-3.279-3.406-2.486-4.415.83-1.055,1.549-.784,3.808,1.44a13.888,13.888,0,0,0,2.244,1.956,48.437,48.437,0,0,0,4.2-3.91c4.342-4.309,4.628-4.482,5.679-3.432m12.034,5.637c.716.55.765.99.765,6.874v5.78h1.564v-3.431c0-4.251.673-5.358,2.418-3.985l.515.406v7.01h1.76v-6.62l.515-.406c1.716-1.349,2.418-.249,2.418,3.791v3.235h1.537l.063-3.048.062-3.048.549-.472c.724-.622,1.216-.595,1.918.108l.579.58-.057,8.5c-.075,11.377.725,10.362-8.234,10.439-7.571.065-8.214-.134-8.655-2.667-.1-.583-.617-1.21-2.837-3.449-2.989-3.018-3.267-3.508-2.525-4.451s1.59-.763,3.048.638c2.248,2.159,2.209,2.283,2.276-7.314l.055-7.973.461-.373a1.555,1.555,0,0,1,1.8-.123" transform="translate(-3017.005 -310.688)" fill="#fff" fill-rule="evenodd"/>
</svg>
