<svg xmlns="http://www.w3.org/2000/svg" width="46" height="45.545" viewBox="0 0 46 45.545">
  <path id="path0" d="M30.115,346.413a4.089,4.089,0,0,0-.843,7.7c.808.376,1.007.392,4.859.394,3.761,0,4.009.02,3.891.3a4.539,4.539,0,0,0-.142,3.78c.332.65.35.64-.994.64-4.482,0-6.794,3.987-4.027,6.945l.433.464-.433.463a4.165,4.165,0,0,0-.168,5.421l.486.58-.543.711a4.109,4.109,0,0,0,.225,5.327l.433.463-.433.463a4.1,4.1,0,0,0,2.1,6.77c.463.1,3.093.178,6.146.181l5.337.005,1.262,1.09c11.59,10.009,29.207-1.829,24.381-16.383-1.482-4.471-6.036-8.975-9.84-9.734a.971.971,0,0,1-.712-.509l-.184-.4h1.167c3.8,0,5.919-2.291,5.042-5.448-.628-2.263-1.96-2.795-7.016-2.8-2.246,0-4.082-.03-4.082-.063a5.316,5.316,0,0,1,.288-.631,4.138,4.138,0,0,0-2.814-5.692c-.974-.209-22.974-.234-23.823-.026m24.4,2.208a2.307,2.307,0,0,1-.469,3.927c-.98.466-23.118.41-24.089-.06a2.332,2.332,0,0,1-.21-4.051c.521-.318.933-.328,12.362-.329H53.927l.585.514m10.095,6.116a2.322,2.322,0,0,1,.512,3.969l-.585.513H52.713c-11.428,0-11.84-.012-12.362-.329a2.366,2.366,0,0,1,.363-4.148c.772-.335,23.09-.34,23.893-.005m-7.394,6.508c-4.107.338-8.417,2.147-10.155,4.26-.343.417-11.366.426-12.243.011-1.678-.8-1.685-3.6-.01-4.277.2-.08,5.664-.139,12.147-.132,6.534.007,11.107.07,10.262.138m3.8,2.207a13.511,13.511,0,1,1-15.833,18.342c-4.341-10.2,5.052-21.083,15.833-18.342m-2.488,1.586a.856.856,0,0,0,.895,1.449c.709-.323.363-1.711-.427-1.711a1.74,1.74,0,0,0-.467.263m3.17,1.158c-.454.546-.142,1.141.917,1.754a10.044,10.044,0,0,1,4.056,12.719c-.62,1.4.216,2.512,1.118,1.49,1.726-1.955,1.935-7.368.407-10.561-1.537-3.211-5.549-6.547-6.5-5.4m-16.509,1.365a10.924,10.924,0,0,1-.666,1.2,18.05,18.05,0,0,0-1.121,2.264l-.455,1.16H39.108c-4.223,0-4.457-.042-5.132-.926a2.39,2.39,0,0,1,.812-3.511c.539-.266,10.4-.439,10.4-.184M57,369.356a1.091,1.091,0,0,0-.2.66c0,.376-.108.494-.594.655-3.853,1.272-2.464,6.733,1.712,6.733a1.708,1.708,0,0,1,1.652,1.684c0,1.618-2.159,2.328-3.376,1.111a1.714,1.714,0,0,1-.573-1,.92.92,0,0,0-1.481-.753c-.86.859.476,3.278,2.127,3.854.4.138.532.288.532.586a.815.815,0,0,0,1.263.677.914.914,0,0,0,.423-.65c0-.285.213-.477.877-.8,3.333-1.606,2.377-5.81-1.475-6.478-2.193-.381-2.935-1.643-1.694-2.883,1.121-1.121,3.468-.446,3.468,1a.838.838,0,0,0,1.438.672c.777-.776-.234-2.865-1.737-3.589-.713-.342-.875-.5-.877-.85a.749.749,0,0,0-.844-.833,1.051,1.051,0,0,0-.639.2m-9.891,2.171a12.042,12.042,0,0,0,.216,10.463c1.1,2.057,3.961,4.732,5.45,5.1a.829.829,0,0,0,.613-1.51c-.208-.143-.872-.588-1.473-.987a9.786,9.786,0,0,1-3.631-11.226c.789-2.2.741-2.693-.26-2.693-.41,0-.547.127-.916.858m-4.692,4.866-.014,2.358H38.9c-4.522,0-5.385-.394-5.385-2.454,0-1.913.762-2.237,5.289-2.25l3.634-.011-.013,2.357m.513,4.336a20.113,20.113,0,0,0,1.5,3.452l.571.968H40.137c-5.3,0-5.475-.027-6.161-.926a2.39,2.39,0,0,1,.812-3.511c.859-.422,8.007-.407,8.145.018M55.656,386.7a.89.89,0,0,0,.577,1.482.868.868,0,1,0-.577-1.482" transform="translate(-26.908 -346.27)" fill="#fff" fill-rule="evenodd"/>
</svg>
