<svg xmlns="http://www.w3.org/2000/svg" width="46" height="45.933" viewBox="0 0 46 45.933">
  <path id="path0" d="M656.271,805.114c-9.406,2.282-11.573,15.575-3.3,20.228l.724.406v17.131l1.821,3.639c1.967,3.931,2.237,4.265,3.427,4.233.927-.024,1.331-.458,2.419-2.6l.916-1.8h14.827c16.695,0,15.686.08,16.352-1.3.537-1.109.476-28-.066-28.8-.691-1.02-.311-.989-12.344-.989-8.685,0-11.054-.047-11.1-.218-.032-.119-.154-.724-.27-1.345a11.2,11.2,0,0,0-13.412-8.589m4.968,1.465a9.653,9.653,0,1,1-10.917,13.889,9.652,9.652,0,0,1,10.917-13.889m-4.281,1.407a8.189,8.189,0,0,0-3.826,13.673,8.088,8.088,0,0,0,13.8-5.786,8.179,8.179,0,0,0-9.973-7.887m3.608,1.469a6.689,6.689,0,1,1-7.746,9.374,6.722,6.722,0,0,1,7.746-9.374m-2.525,2.077c0,.591-.067.781-.27.781A2.06,2.06,0,0,0,656,814.693c.148,1.319,1.086,1.961,2.864,1.961,1.077,0,1.43.193,1.43.781s-.348.781-1.348.781c-1.024,0-1.6-.222-1.6-.614,0-.181-.2-.254-.695-.254-1.232,0-.635,1.6.791,2.11.556.2.6.27.6.964v.746H659.6v-.781c0-.452.08-.781.191-.781a2.442,2.442,0,0,0,1.96-2.544c-.318-1.288-1.093-1.8-2.737-1.8-1.446,0-2.158-.66-1.463-1.354a3.047,3.047,0,0,1,2.61.139c.162.257.405.347.945.347h.727l-.158-.564a2.23,2.23,0,0,0-1.573-1.463c-.461-.093-.5-.161-.5-.859v-.761h-1.563v.781m22.4,7.381v2.257H670.024v-4.515h10.419v2.258m11.6-2.049a5.817,5.817,0,0,1,.208,2.258v2.048H681.832v-4.515h5c3.658,0,5.057.056,5.209.208m-8.647,2.049v.694h1.389v-1.389h-1.389v.695m2.952,0v.694h1.39v-1.389h-1.39v.695m2.953,0v.694h1.389v-1.389H689.3v.695m-20.838,8.422v5.644h-4.516l0-3.6v-3.6l.681-.39a13.829,13.829,0,0,0,3.216-2.988,4.253,4.253,0,0,1,.551-.7c.034,0,.064,2.54.064,5.644m11.982.434v5.209H670.024V822.559h10.419v5.209m11.808,0v5.209H681.832V822.559h10.419v5.209m-20.664-2.952v.695h7.293v-1.389h-7.293v.694m15.906,2.26c-2.922,2.937-2.631,2.742-3.23,2.168l-.454-.435-.466.485-.465.487,1,.989,1,.99,3.2-3.2,3.2-3.2-.414-.44c-.6-.639-.556-.667-3.375,2.167m-31.318-.4.477.1v13.953l-.781.38-.781.379v-7.57c0-7.138.018-7.563.3-7.452a5.977,5.977,0,0,0,.781.214m6.382,7.257v7.552l-.783-.38-.784-.381.046-6.948.045-6.949.695-.21.738-.223c.024-.007.044,3.385.044,7.538m-2.952.034c0,6.842,0,6.894-.379,7.295l-.378.4-.4-.378-.4-.379V827.073H659.6v6.891m11.982-6.2v.694h4.341v-1.389h-4.34v.695m5.9,0v.694h1.39v-1.389h-1.39v.695m-5.9,2.952v.7h7.293v-1.39h-7.294v.695m-3.126,9.03v5.209h-2.692a22.33,22.33,0,0,1-2.691-.082c0-.045.2-.523.434-1.064.423-.958.433-1.083.433-5.127V834.54h4.516v5.209m11.982,0v5.209H670.024V834.539h10.419v5.209m11.808-.208c0,3.658-.056,5.056-.208,5.209s-1.551.208-5.209.208h-5V834.538h10.419v5m-4.6-1.354c-2.827,2.831-2.745,2.778-3.336,2.222l-.406-.382-.461.461-.461.461.77.854a7.377,7.377,0,0,0,.961.948,27.166,27.166,0,0,0,3.378-3.1l3.188-3.191-.414-.44c-.553-.589-.3-.761-3.218,2.165m-16.062-1.476v.781h7.293v-1.563h-7.294v.781m0,3.04v.694h7.293v-1.386h-7.293v.7M658.9,843.57a4.783,4.783,0,0,0,.847-.752l.739-.752.861.412c1.076.516,1.131.2-.659,3.789-1.93,3.869-1.742,3.869-3.726,0-1.794-3.506-1.745-3.208-.617-3.76l.911-.446.768.757a5.037,5.037,0,0,0,.877.756m12.684-.868v.7h7.293v-1.39h-7.293v.695" transform="translate(-647.836 -804.82)" fill="#fff" fill-rule="evenodd"/>
</svg>
