<svg xmlns="http://www.w3.org/2000/svg" width="46" height="48.716" viewBox="0 0 46 48.716">
  <path id="path0" d="M773.108,40c-17.275,1.645-25.792,19.964-16.1,34.624a23.788,23.788,0,0,1,3.959,12.44c0,1.666-.778,1.554,10.837,1.554,12.054,0,10.975.224,10.975-2.283V84.45h5.082c3.7,0,5.145-.061,5.311-.228s.228-1.589.228-5.215V74.019h2.531c3.536,0,3.388.264,2.4-4.293-1.377-6.36-1.673-7.914-1.8-9.456C795.544,48.138,784.848,38.885,773.108,40m5.509,1.88c8.986,1.7,15.376,8.919,16.386,18.5.149,1.416.487,3.549.752,4.739.762,3.432,1.438,6.695,1.438,6.952,0,.178-.583.238-2.287.238-3.321,0-3.021-.545-3.021,5.506v5.114H778.8V84.45h2.465v2.466H762.54l-.127-1.532a23.979,23.979,0,0,0-4.224-11.772c-4.132-6.357-4.855-13.593-2-20.055a20.384,20.384,0,0,1,22.429-11.673m-.636,2.129-.505.528.514.514.514.514h-3.253q-14.325,0-15.79,11.6c-.271,2.141.667,7.182,1.336,7.182.535,0,1.335-.609,1.2-.914a11.373,11.373,0,0,1,9.163-16.153,41.626,41.626,0,0,1,7.133-.065c.07.072-.086.354-.349.628l-.477.5.535.513.535.512,1.362-1.4c1.626-1.677,1.607-1.529.366-2.8-1.718-1.768-1.7-1.758-2.286-1.145m-7.207,6a3,3,0,0,0-.514.967c-.291.881-.907,1.133-1.831.748-1.073-.448-1.428-.356-2.393.625s-1.044,1.231-.584,2.2c.47.985.239,1.545-.826,2.018-1.121.5-1.185.6-1.185,1.992s.122,1.6,1.165,2,1.314,1.022.856,1.984c-.474,1-.409,1.251.587,2.232.975.96,1.326,1.05,2.38.61.97-.405,1.5-.147,1.913.931.381,1,.628,1.11,2.3,1.023l1.13-.058.474-.916c.628-1.215.962-1.384,1.968-1,1.142.436,1.359.392,2.3-.473,1.067-.985,1.14-1.238.661-2.323s-.356-1.376.888-2.022a2.213,2.213,0,0,0,0-3.983c-1.248-.645-1.374-.932-.891-2.021s.406-1.339-.661-2.324c-.938-.864-1.154-.908-2.3-.472-1.006.385-1.339.215-1.968-1l-.474-.916-1.354-.056c-1.019-.042-1.425.017-1.643.236m2.386,2.064a2.471,2.471,0,0,0,3.131,1.331c1.191-.468,1.688-.018,1.234,1.116a2.534,2.534,0,0,0,1.217,3.2c.659.282.815.443.815.836s-.156.555-.815.838a2.573,2.573,0,0,0-1.23,3.215c.444,1.131-.035,1.562-1.22,1.1a2.471,2.471,0,0,0-3.131,1.331c-.481,1.172-1.107,1.152-1.759-.058a2.453,2.453,0,0,0-3.142-1.248c-1.252.464-1.6.089-1.135-1.223a2.4,2.4,0,0,0-1.336-3.125c-.654-.29-.836-.47-.836-.827s.182-.536.836-.826a2.4,2.4,0,0,0,1.336-3.125c-.468-1.32-.118-1.689,1.155-1.217a2.411,2.411,0,0,0,3.121-1.252c.653-1.212,1.277-1.234,1.759-.06m-2,2.647a4.043,4.043,0,0,0-1.367,6.917c3.424,2.823,8.152-1.3,5.9-5.145a4.059,4.059,0,0,0-4.533-1.772m2.679,1.943a2.445,2.445,0,0,1-2.823,3.974,2.444,2.444,0,1,1,2.823-3.974m9.321,5.3a4.652,4.652,0,0,1-.474,1.242,6.232,6.232,0,0,0-.472,1.083c0,.216,1.141.832,1.327.718a7.267,7.267,0,0,0,1.028-2.926c-.379-.355-1.408-.442-1.408-.117m-20.835,3.556c-.75.475-.773.371.37,1.69,1.1,1.267,1.275,1.323,1.817.588l.39-.527-.991-1.064-.99-1.065-.6.378m17.837,1.232-1.008,1.008.4.567c.486.683.645.623,1.982-.744.908-.929.926-.971.569-1.251-.818-.638-.908-.619-1.947.42m-14.368,2.168c-.372.718-.189.892,1.751,1.657l.942.371.2-.759c.2-.737.187-.766-.333-.947a12.26,12.26,0,0,1-1.251-.552c-.929-.473-.951-.469-1.312.23m10.823.174a3.864,3.864,0,0,1-1.079.364c-.45.007-.523.2-.366.958.117.562.206.65.6.6a10.775,10.775,0,0,0,2.644-1.11c0-.963-.757-1.3-1.8-.808m-6.254,1.454c-.159.852-.2.828,1.54.87l1.491.036V70l-1.453-.053-1.453-.052-.124.66m-1.237,13.14v.758h1.517V82.933h-1.517v.759m3.224,0v.758h1.517V82.933h-1.517v.759m3.224,0v.758h1.518V82.933h-1.518v.759" transform="translate(-752.94 -39.912)" fill="#fff" fill-rule="evenodd"/>
</svg>
