<svg xmlns="http://www.w3.org/2000/svg" width="46" height="51.418" viewBox="0 0 46 51.418">
  <path id="path0" d="M1344.426,26.245c-2.069.772-3.214,2.4-3.576,5.1-.053.392-.028.376-5.646,3.606l-3.714,2.135-.9-.411c-5.749-2.628-10.534,6.3-4.93,9.195l.546.282-.007,5.5-.008,5.5-.722.5c-5.142,3.554-.486,11.8,5.107,9.045l.887-.436,3.35,1.932c1.843,1.063,3.956,2.276,4.695,2.7l1.344.764.1,1c.648,6.269,9.54,6.262,10.443-.008l.142-.991,4.669-2.7,4.67-2.7.884.429c4.3,2.088,9.035-2.835,6.849-7.121a7.161,7.161,0,0,0-2.319-2.324,47.909,47.909,0,0,1-.163-5.556,44.7,44.7,0,0,1,.168-5.555c.5,0,2.1-1.781,2.458-2.746a5.245,5.245,0,0,0-7.011-6.721l-.9.411-2.489-1.438c-1.368-.792-3.462-2-4.652-2.685l-2.163-1.245-.141-.984a5.345,5.345,0,0,0-6.971-4.486m2.905,1.353a3.766,3.766,0,1,1-3.962,1.136,3.423,3.423,0,0,1,3.962-1.136m-5.677,6.216a1.945,1.945,0,0,1,.345.721c-.368.278-8.449,4.825-8.575,4.825-.359,0-.887-1.168-.606-1.34.462-.282,8.358-4.865,8.391-4.87a5.4,5.4,0,0,1,.445.664m13.648,1.751c2.175,1.255,4.071,2.359,4.214,2.453.28.183-.244,1.342-.607,1.342-.094,0-1.666-.863-3.49-1.919s-3.7-2.129-4.165-2.387-.872-.485-.9-.505a3.182,3.182,0,0,1,.873-1.337c.068.037,1.9,1.1,4.078,2.352M1344.214,36a4.989,4.989,0,0,0,4.006-.037c.934-.4,1.055-.417,1.507-.156l3.033,1.759c1.4.811,3.275,1.894,4.168,2.408l1.627.933.12.909a5.349,5.349,0,0,0,2.217,3.875l.719.5V57.178l-.83.585a5.268,5.268,0,0,0-2.044,3.5c-.166.969-.3,1.249-.69,1.479-.777.457-5.426,3.149-7.15,4.142-1.85,1.066-1.572,1.012-2.643.495a5.259,5.259,0,0,0-4.232.029c-.67.324-1,.393-1.222.257-.167-.1-2.042-1.191-4.165-2.417l-4.346-2.51c-.394-.228-.523-.5-.689-1.476a5.276,5.276,0,0,0-2.044-3.5l-.83-.585V55.087c0-2.209-.114-2.545-.866-2.545-.558,0-.641.3-.641,2.37v1.774h-1.507V46.7h1.507v1.773c0,2.087.08,2.37.672,2.37.669,0,.834-.533.834-2.693V46.189l.71-.47a6,6,0,0,0,2.3-4.39c0-.312.583-.731,2.763-1.983,1.52-.873,3.575-2.066,4.567-2.651,2.115-1.246,1.973-1.215,3.145-.695m-14.036,2.1a3.766,3.766,0,1,1-5.391,4.31,3.767,3.767,0,0,1,5.391-4.31m35.308-.081a4,4,0,0,1,2.218,4.006c-.87,4.567-7.505,4.041-7.505-.6a3.678,3.678,0,0,1,5.287-3.41m-25.344,3.372-5.744,3.335V58.66l2.731,1.576c7.764,4.481,8.881,5.113,9.052,5.113s6.262-3.464,10.44-5.926l1.318-.777.05-6.909.05-6.909-.709-.455c-1.79-1.149-10.958-6.332-11.187-6.324-.141,0-2.842,1.509-6,3.342m10.9.98c2.6,1.5,4.73,2.776,4.731,2.832a16.611,16.611,0,0,1-1.99,1.269l-1.994,1.168-2.2-1.286c-1.208-.707-3.363-1.955-4.788-2.773a15.8,15.8,0,0,1-2.542-1.631,28.791,28.791,0,0,1,3.932-2.34c.066.017,2.246,1.259,4.848,2.76m-2.836,4.844a21.727,21.727,0,0,1,2.071,1.27c-.032.025-.962.571-2.068,1.212l-2.011,1.167-2.978-1.723c-1.64-.948-3.807-2.2-4.816-2.774-2.223-1.27-2.239-1.029.166-2.416l2-1.151,2.756,1.594c1.516.877,3.714,2.146,4.885,2.82m-7.527,2.119,4.739,2.724v5.609c0,3.085-.031,5.608-.068,5.608s-1.627-.9-3.531-2-4.077-2.348-4.826-2.777l-1.364-.781,0-5.619a48.2,48.2,0,0,1,.156-5.555c.087.035,2.289,1.288,4.9,2.788m16.038,2.783v5.6l-4.734,2.73c-2.6,1.5-4.806,2.759-4.9,2.794a46.827,46.827,0,0,1-.161-5.556l0-5.618,1.363-.781c.75-.429,2.928-1.68,4.839-2.779s3.5-2,3.531-2,.057,2.521.055,5.6m8.1-.424v4.991h-1.695V46.7h1.695v4.99m-13.466,2.136-2.825,1.657-.053,2.032c-.084,3.135-.031,3.148,3.726.978l2.731-1.58.053-2.113c.081-3.215.156-3.194-3.632-.973m2.318,1.289-.056.881-1.695,1c-2.05,1.207-1.978,1.2-1.978.168v-.836l1.743-1.038c2.12-1.263,2.057-1.259,1.988-.174m-23.59,3.428a3.767,3.767,0,1,1-4.319.7,3.9,3.9,0,0,1,4.319-.7m35.91.2a3.769,3.769,0,1,1-3.806-.144,4.112,4.112,0,0,1,3.806.143m-26.314,8.762c1.243.709,2.284,1.306,2.314,1.329a2.417,2.417,0,0,1-.347.722l-.4.68-.878-.5c-.483-.276-1.852-1.066-3.043-1.756s-2.632-1.521-3.2-1.847c-1.7-.971-1.614-.853-1.149-1.6l.412-.668,2.016,1.179c1.11.649,3.034,1.758,4.277,2.467m20.049-2.342a6.619,6.619,0,0,1-1.263.835c-.7.4-2.466,1.427-3.926,2.276s-2.829,1.638-3.043,1.753c-.337.18-1.442-.976-1.138-1.191.031-.02,1.072-.619,2.315-1.33s3.189-1.827,4.325-2.483l2.066-1.19.328.614a4.81,4.81,0,0,1,.335.716m-11.41,3.891a3.758,3.758,0,1,1-3.365-.48,4.224,4.224,0,0,1,3.365.48" transform="translate(-1323.162 -25.939)" fill="#fff" fill-rule="evenodd"/>
</svg>
