<svg xmlns="http://www.w3.org/2000/svg" width="46" height="46.125" viewBox="0 0 46 46.125">
  <path id="path0" d="M2070.778,26.013c-13.633,2.435-17.687,20.062-6.536,28.422a17.719,17.719,0,0,0,7.022,2.874l.936.116.265,1.546c1.826,10.631,14.218,16.309,23.517,10.772a15.85,15.85,0,0,0,2.866-25.164l-.972-.918-.408.474-.408.475,1.249,1.287a14.5,14.5,0,0,1-3.8,23.161c-9.865,4.96-21.649-2.719-21.007-13.688a14.541,14.541,0,0,1,20.68-12.4c1.5.711,1.472.71,1.8.085l.26-.5-1.142-.574a17.624,17.624,0,0,0-4.8-1.543l-.959-.119-.2-1.2a15.974,15.974,0,0,0-18.359-13.1m2.13,2.638-.049,1.466-1.18.2a12.251,12.251,0,0,0-5.582,2.518c-.182.128-.491-.086-1.3-.9l-1.055-1.063.506-.418a14.456,14.456,0,0,1,7.981-3.263l.724-.013-.05,1.465m3.714-1.2a14.868,14.868,0,0,1,6.2,3.012l.506.418-1.055,1.063c-.8.81-1.113,1.024-1.295.9a12.253,12.253,0,0,0-5.582-2.518l-1.181-.2-.049-1.466-.05-1.465h.6a13.143,13.143,0,0,1,1.906.264m-.3,4.392a10.414,10.414,0,0,1,7.323,8.357l.109.61-1.245.454c-5.615,2.047-10.238,8.15-10.238,13.514,0,1.423-.137,1.478-2.294.929-1.974-.5-5.807-2.5-5.807-3.023a14.223,14.223,0,0,1,2.057-2.038,12.176,12.176,0,0,1,1.344.767c1.166.72,3.426,1.577,3.627,1.375.52-.52.115-1.147-.994-1.538a10.178,10.178,0,0,1,6.117-19.405m-12.4,1.084c.74.748.961,1.073.838,1.237a12.635,12.635,0,0,0-2.565,5.7l-.134,1.08h-3.031l.048-.759a15.363,15.363,0,0,1,2.829-7.24c.938-1.25.793-1.249,2.014-.014m21.155-.13a15.212,15.212,0,0,1,2.812,6.582l.117.971-.905,0a11.644,11.644,0,0,0-1.5.1l-.591.1-.283-1.373a11.547,11.547,0,0,0-2.08-4.511l-.564-.644,1.038-1.055c1.249-1.27,1.135-1.26,1.953-.169m-12.943,1.827c-2.948.581-5.768,3.759-5.768,6.5,0,.889,1.288.565,1.391-.35a6.06,6.06,0,0,1,4.882-4.917l.815-.107V35.1c0-.722-.019-.729-1.321-.473m-9.938,8.743a11.969,11.969,0,0,0,2.085,5.026l.93,1.3L2064.19,50.7l-1.018,1.018-.365-.328c-1.6-1.443-3.288-5.04-3.681-7.865-.192-1.382-.235-1.345,1.471-1.288l1.463.049.132,1.076m4.171.442v.759h1.35V43.049h-1.35v.759m19.493.266a12.2,12.2,0,1,0,13.382,16.758,12.311,12.311,0,0,0-13.382-16.758m5.088,1.553a10.856,10.856,0,1,1-13.793,10.5,10.834,10.834,0,0,1,13.793-10.5m-3.654,4.762v.759l-.633,0c-1.47.006-2.236.952-2.235,2.764,0,2.256.688,2.8,3.524,2.8,2.152,0,2.381.147,2.381,1.519s-.234,1.519-2.338,1.519-2.219-.059-2.219-1.3v-.894h-1.35v.886a2.359,2.359,0,0,0,2.321,2.657c.537,0,.548.016.548.76v.759h1.351V61.107h.65c1.448,0,2.213-.979,2.217-2.835,0-2.307-.483-2.734-3.12-2.734-2.436,0-2.617-.111-2.617-1.609s.253-1.653,2.435-1.573c1.872.069,1.983.144,2.087,1.4.078.933.078.934.647.934h.57V53.664c0-1.641-.756-2.515-2.178-2.515h-.691V49.631h-1.351v.759m-7.256,5.738c0,.587,0,.591.76.591s.76,0,.76-.591,0-.591-.76-.591-.76,0-.76.591m14.514,0c0,.576.016.591.675.591s.674-.014.674-.591-.016-.591-.674-.591-.675.014-.675.591" transform="translate(-2057.799 -25.774)" fill="#fff" fill-rule="evenodd"/>
</svg>
