<svg xmlns="http://www.w3.org/2000/svg" width="46" height="45.851" viewBox="0 0 46 45.851">
  <path id="path0" d="M1571.745,840.125c-9.076,3.308-8.932,3.246-9.527,4.144a3.192,3.192,0,0,0-.161,3.263,7.979,7.979,0,0,1,.395,1.187c-.024.014-.469.154-.989.311a4.858,4.858,0,0,0-3.364,3.23c-.2.555-.236,2.966-.236,13.8V879.2l.557,1.133a4.493,4.493,0,0,0,1.334,1.725c1.5,1.148.6,1.1,20.082,1.051l17.575-.045.842-.387c2.336-1.075,2.841-2.231,2.916-6.682l.057-3.365.814-.363a2.851,2.851,0,0,0,1.29-1.08l.477-.72.049-4.346c.062-5.341-.248-6.306-2.181-6.788l-.447-.112-.061-3.394c-.082-4.7-1.058-6.37-4.041-6.929l-.607-.113-.061-2.047c-.12-4.109-.559-4.381-7.153-4.453-4.266-.046-4.752-.081-4.857-.337-.064-.157-.33-.911-.593-1.675-1.361-3.968-1.611-3.972-12.112-.143m9.014-.273a8.834,8.834,0,0,1,.918,2.22c0,.073-.31.182-.689.242-2.2.351-2.894,1.357-2.986,4.332l-.068,2.168-6.312-.043-6.313-.044-.484-1.26c-.6-1.559-.6-1.768-.02-1.994.53-.207,2.432-.9,8.372-3.056,2.314-.839,4.889-1.785,5.722-2.1,1.708-.65,1.622-.629,1.859-.462m12.835,5.29a4.7,4.7,0,0,1,.2,1.936v1.733h-13.127v-1.823a9.493,9.493,0,0,1,.112-1.936,125.863,125.863,0,0,1,12.813.09m3.969,6.713c.857.674.945,1.068.945,4.268v2.954h-2.494c-6.309,0-9.361,2.431-9.084,7.235.244,4.2,2.787,6.109,8.254,6.2l3.324.055v3.143c0,3.492-.117,3.941-1.161,4.481-.895.463-35.028.387-35.783-.079-1.135-.7-1.089-.115-1.089-14.135s-.042-13.471,1.08-14.156c.858-.523,35.342-.491,36.009.034m3.6,13.991.045,3.994-.406.1c-1.154.29-8.257-.006-8.94-.372a4.1,4.1,0,0,1,.406-7.571,21.9,21.9,0,0,1,4.728-.182l4.123.036.045,3.993m-8.515-.826a1.188,1.188,0,0,0,.078,1.786,1.273,1.273,0,0,0,2.1-1.209c-.062-.91-1.507-1.294-2.179-.578" transform="translate(-1557.864 -837.274)" fill="#fff" fill-rule="evenodd"/>
</svg>
