<svg xmlns="http://www.w3.org/2000/svg" width="30.678" height="42.635" viewBox="0 0 30.678 42.635">
  <g id="Group_257" data-name="Group 257" transform="translate(-608.691 -154.813)">
    <g id="Ellipse_64" data-name="Ellipse 64" transform="translate(614.23 160.594)" fill="none" stroke="#11267a" stroke-width="1.55">
      <circle cx="9.771" cy="9.771" r="9.771" stroke="none"/>
      <circle cx="9.771" cy="9.771" r="8.996" fill="none"/>
    </g>
    <path id="Path_135" data-name="Path 135" d="M421.211-764.488l1.564,3.2,3.346.564L423.9-758.1l.414,3.12-3.105-1.128-3.022,1.316.376-3.308-2.255-2.631,3.308-.564Z" transform="translate(202.79 929.543)" fill="none" stroke="#11267a" stroke-width="1.55"/>
    <path id="Path_136" data-name="Path 136" d="M313.1-875.812c.483-.712.683-.756,1.439-.512.845.222,2.691,1.424,4.159,1s3.07-1.468,3.937-.356,2,2.491,3.025,2.625,2.869.067,3.27,1.312.178,2.847.912,3.626,3.136,1.713,2.714,2.958-.89,2.625-.89,2.625a2.044,2.044,0,0,0,0,1.735,15.3,15.3,0,0,1,.667,1.98,1.548,1.548,0,0,1-.512,1.846c-1,.734-1.8,1.468-1.8,1.468a2.5,2.5,0,0,0-.8,1.846c-.111,1.357-.178,1.757-.178,1.757s-.2.979-1.713,1.312-2.447.111-3.559,1.446-1.179,1.4-1.179,1.4-.534.867-2.291.267a5.76,5.76,0,0,0-4.916,0c-1.913.868-3.425-1.913-3.425-1.913a3.122,3.122,0,0,0-2.736-1.09c-1.579.311-2.647-1-2.647-3.359s-2.469-3.159-2.469-3.159a2.651,2.651,0,0,1-.356-2.647,5.314,5.314,0,0,0,.178-3.937c-.334-.845-.756-2.247.623-3.225s1.935-1.246,2.224-3.337.445-2.869,1.957-2.758A4.676,4.676,0,0,0,313.1-875.812Z" transform="translate(306 1032)" fill="none" stroke="#11267a" stroke-width="1.55"/>
    <path id="Path_137" data-name="Path 137" d="M327.622-570.711l-4.661,10.939,4.812-1.917,2.218,5,5.263-11.578" transform="translate(288.207 752.232)" fill="none" stroke="#11267a" stroke-width="1.55"/>
    <path id="Path_138" data-name="Path 138" d="M482.672-567.308,487.6-555.88l2.293-5L495-558.625l-4.962-11.2" transform="translate(142.067 751.422)" fill="none" stroke="#11267a" stroke-width="1.55"/>
  </g>
</svg>
