<svg xmlns="http://www.w3.org/2000/svg" width="49.267" height="41.55" viewBox="0 0 49.267 41.55">
  <g id="Group_20" data-name="Group 20" transform="translate(-152.963 -148.672)">
    <g id="Ellipse_25" data-name="Ellipse 25" transform="translate(173.653 149.786)" fill="none" stroke="#fff" stroke-width="1.55">
      <circle cx="3.49" cy="3.49" r="3.49" stroke="none"/>
      <circle cx="3.49" cy="3.49" r="2.715" fill="none"/>
    </g>
    <g id="Ellipse_26" data-name="Ellipse 26" transform="translate(168.298 171.111)" fill="none" stroke="#fff" stroke-width="1.55">
      <circle cx="3.06" cy="3.06" r="3.06" stroke="none"/>
      <circle cx="3.06" cy="3.06" r="2.285" fill="none"/>
    </g>
    <g id="Ellipse_27" data-name="Ellipse 27" transform="translate(180.634 171.494)" fill="none" stroke="#fff" stroke-width="1.55">
      <circle cx="3.06" cy="3.06" r="3.06" stroke="none"/>
      <circle cx="3.06" cy="3.06" r="2.285" fill="none"/>
    </g>
    <path id="Path_30" data-name="Path 30" d="M0,0A5.448,5.448,0,0,0,2.911,1.493,3.85,3.85,0,0,0,5.538,0" transform="translate(174.466 179.479)" fill="none" stroke="#fff" stroke-width="1.55"/>
    <path id="Path_31" data-name="Path 31" d="M303.079-866.627v-3.037a7.647,7.647,0,0,1-2.539-7.489,6.93,6.93,0,0,1,5.148-5.4h6.157s5.623,1.028,5.922,6.671-5.265,7.614-5.265,7.614l-6.814.233Z" transform="translate(-116.325 1032)" fill="none" stroke="#fff" stroke-width="1.55"/>
    <path id="Path_32" data-name="Path 32" d="M66.828-737.325H57.8a9.423,9.423,0,0,1-4.673-2.21A10.6,10.6,0,0,1,50.85-744.4v-11.43s.284-4.136,2.589-6.694,6.631-3.536,6.631-3.536H75.858" transform="translate(109.305 926.646)" fill="none" stroke="#fff" stroke-width="1.55"/>
    <path id="Path_33" data-name="Path 33" d="M256.506-731.058a12.315,12.315,0,0,1,2.084,3.473,12,12,0,0,1,.568,3.979v11.115a9.7,9.7,0,0,1-2.021,4.421,10.848,10.848,0,0,1-4.357,2.526h-9.094" transform="translate(-65.09 894.992)" fill="none" stroke="#fff" stroke-width="1.55"/>
    <path id="Path_34" data-name="Path 34" d="M105.775-686.151H97.25a7.106,7.106,0,0,0-2.4,1.453,4.663,4.663,0,0,0-1.074,2.21v8.778a6.339,6.339,0,0,0,1.326,2.273,4.733,4.733,0,0,0,2.147,1.073h19.261a6.756,6.756,0,0,0,2.589-1.642,3.853,3.853,0,0,0,.695-2.463v-8.02a5.838,5.838,0,0,0-1.137-2.21,6.684,6.684,0,0,0-2.147-1.453h-8.652" transform="translate(70.484 854.379)" fill="none" stroke="#fff" stroke-width="1.55"/>
    <line id="Line_59" data-name="Line 59" y2="3.729" transform="translate(177.239 156.815)" fill="none" stroke="#fff" stroke-width="1.55"/>
    <path id="Path_35" data-name="Path 35" d="M264.057-833.79l3.67.752" transform="translate(-83.513 987.9)" fill="none" stroke="#fff" stroke-width="1.55"/>
    <path id="Path_36" data-name="Path 36" d="M31.444-833.79s-8.813,1.574-13.056,5.782-3.915,11.051-3.915,11.051" transform="translate(142.209 987.9)" fill="none" stroke="#fff" stroke-width="1.55"/>
    <path id="Path_37" data-name="Path 37" d="M-9.844-657.855l-3.517-.2s-2.948.8-2.9,4.876,2.75,4.839,2.75,4.839h3.667" transform="translate(170 828.966)" fill="none" stroke="#fff" stroke-width="1.55"/>
    <path id="Path_38" data-name="Path 38" d="M-16.262-657.855l3.517-.2s2.948.8,2.9,4.876-2.75,4.839-2.75,4.839h-3.667" transform="translate(210.259 828.966)" fill="none" stroke="#fff" stroke-width="1.55"/>
    <line id="Line_60" data-name="Line 60" x2="7.554" transform="translate(188.332 154.902)" fill="none" stroke="#fff" stroke-width="1.55"/>
    <line id="Line_61" data-name="Line 61" x2="9.563" transform="translate(188.332 158.345)" fill="none" stroke="#fff" stroke-width="1.55"/>
  </g>
</svg>
