<svg xmlns="http://www.w3.org/2000/svg" width="41.337" height="41.463" viewBox="0 0 41.337 41.463">
  <g id="Group_32" data-name="Group 32" transform="translate(-597.945 -89.385)">
    <path id="Path_92" data-name="Path 92" d="M383.43-918.559A30.39,30.39,0,0,1,394.6-935.944c9.518-7.36,20.939-5.711,20.939-5.711a26.344,26.344,0,0,1-3.934,19.67c-6.472,9.391-18.908,12.564-18.908,12.564Z" transform="translate(222.473 1032)" fill="none" stroke="#11267a" stroke-width="1.55"/>
    <path id="Path_93" data-name="Path 93" d="M537.106-620.347v7.36l-8.629,5.838-1.65-7.995" transform="translate(90.751 736.707)" fill="none" stroke="#11267a" stroke-width="1.55"/>
    <path id="Path_94" data-name="Path 94" d="M307.547-792.811l-6.726-2.03,5.33-7.868H313" transform="translate(298.356 904.222)" fill="none" stroke="#11267a" stroke-width="1.55"/>
    <g id="Ellipse_45" data-name="Ellipse 45" transform="translate(621.582 96.767)" fill="none" stroke="#11267a" stroke-width="1.55">
      <ellipse cx="5.292" cy="5.292" rx="5.292" ry="5.292" stroke="none"/>
      <ellipse cx="5.292" cy="5.292" rx="4.517" ry="4.517" fill="none"/>
    </g>
    <line id="Line_112" data-name="Line 112" x1="5.862" y2="5.455" transform="translate(598.5 117.487)" fill="none" stroke="#11267a" stroke-width="1.55"/>
    <line id="Line_113" data-name="Line 113" x1="5.211" y2="4.641" transform="translate(606.805 124.896)" fill="none" stroke="#11267a" stroke-width="1.55"/>
    <line id="Line_114" data-name="Line 114" x1="8.793" y2="8.712" transform="translate(599.151 120.826)" fill="none" stroke="#11267a" stroke-width="1.55"/>
  </g>
</svg>
