<svg xmlns="http://www.w3.org/2000/svg" width="45.527" height="45.775" viewBox="0 0 45.527 45.775">
  <g id="Group_29" data-name="Group 29" transform="translate(-254.367 -210.5)">
    <g id="Ellipse_39" data-name="Ellipse 39" transform="translate(262.408 237.091)" fill="none" stroke="#fff" stroke-width="1.55">
      <circle cx="5.294" cy="5.294" r="5.294" stroke="none"/>
      <circle cx="5.294" cy="5.294" r="4.519" fill="none"/>
    </g>
    <g id="Ellipse_61" data-name="Ellipse 61" transform="translate(265.558 240.241)" fill="none" stroke="#fff" stroke-width="1.55">
      <circle cx="2.144" cy="2.144" r="2.144" stroke="none"/>
      <circle cx="2.144" cy="2.144" r="1.369" fill="none"/>
    </g>
    <path id="Path_80" data-name="Path 80" d="M90.795-735.4a9.108,9.108,0,0,1,1.661-1.446,8.855,8.855,0,0,1,1.986-.909l-.557-3.191,2.913-.608.633,3.09a9.23,9.23,0,0,1,2.2.228,10.229,10.229,0,0,1,2.127.836l2-2.482,2.279,1.646-1.773,2.558a17.544,17.544,0,0,1,1.555,1.927,5.309,5.309,0,0,1,.724,1.568l3.267-.405.481,2.634-3.216.76a11.361,11.361,0,0,1-.17,2.127,7.753,7.753,0,0,1-.615,1.8l2.634,1.9-1.672,2.406-2.457-1.646a11.672,11.672,0,0,1-1.742,1.5A12.665,12.665,0,0,1,100.976-720l.481,3.039-2.887.532-.405-3.014a9.3,9.3,0,0,1-2.35-.127,9.6,9.6,0,0,1-2.234-.81l-1.9,2.533-2.355-1.722,1.849-2.507a11.251,11.251,0,0,1-1.451-1.763,7.3,7.3,0,0,1-.8-1.834l-3.216.532-.456-3.014,3.014-.481a14.778,14.778,0,0,1,.276-2.117,12,12,0,0,1,.61-1.91l-2.811-1.9L87.958-737Z" transform="translate(170 971.294)" fill="none" stroke="#fff" stroke-width="1.55"/>
    <line id="Line_95" data-name="Line 95" x2="6.016" y2="6.016" transform="translate(263.731 216.997)" fill="none" stroke="#fff" stroke-width="1.55"/>
    <line id="Line_96" data-name="Line 96" y2="8.422" transform="translate(281.12 210.5)" fill="none" stroke="#fff" stroke-width="1.55"/>
    <line id="Line_97" data-name="Line 97" x1="6.016" y2="6.016" transform="translate(293.33 216.997)" fill="none" stroke="#fff" stroke-width="1.55"/>
    <path id="Path_81" data-name="Path 81" d="M145.5-762.406a12.093,12.093,0,0,1,2.6-6.51c4.451-5.676,12.471-4.773,16.3-2.17a11.8,11.8,0,0,1,3.227,15.635,14.073,14.073,0,0,1-4.73,4.618v4.451h-8.736" transform="translate(124.247 995.265)" fill="none" stroke="#fff" stroke-width="1.55"/>
    <line id="Line_98" data-name="Line 98" x2="12.273" transform="translate(275.523 252.372)" fill="none" stroke="#fff" stroke-width="1.55"/>
    <line id="Line_99" data-name="Line 99" x2="8.182" transform="translate(277.689 255.5)" fill="none" stroke="#fff" stroke-width="1.55"/>
  </g>
</svg>
