<svg xmlns="http://www.w3.org/2000/svg" width="51.696" height="47.105" viewBox="0 0 51.696 47.105">
  <g id="Group_28" data-name="Group 28" transform="translate(-485.705 -215.48)">
    <path id="Path_72" data-name="Path 72" d="M325.528-557.674l3.089,3.353-3.089,3.265-8.736-8.825,10.766-11.031h16.855l1.5,1.5v3.53l-1.5,1.677h-9.619" transform="translate(170 812.526)" fill="none" stroke="#fff" stroke-width="1.55"/>
    <path id="Path_73" data-name="Path 73" d="M449.9-605.347h4.236l9.707-9.707a4.281,4.281,0,0,1,1.826-.435,7.988,7.988,0,0,1,2.233.435l2.389,2.389-17.605,17.605-19.994.744" transform="translate(66.014 852.521)" fill="none" stroke="#fff" stroke-width="1.55"/>
    <line id="Line_93" data-name="Line 93" y1="7.607" x2="7.607" transform="translate(517.496 247.825)" fill="none" stroke="#fff" stroke-width="1.55"/>
    <line id="Line_94" data-name="Line 94" y1="2.673" x2="2.775" transform="translate(525.925 244.433)" fill="none" stroke="#fff" stroke-width="1.55"/>
    <path id="Path_74" data-name="Path 74" d="M620.772-615.44l6.72-6.652h2.919" transform="translate(-102.734 858.446)" fill="none" stroke="#fff" stroke-width="1.55"/>
    <path id="Path_75" data-name="Path 75" d="M434.925-754.218s-.1,7.7-3.734,11.133-10.793,2.58-10.793,2.58-6.958.849-10.522-2.58-3.734-11.133-3.734-11.133,6.958-.272,10.522,3.055,3.734,10.658,3.734,10.658.068-6.992,3.6-10.318,10.522-3.394,10.522-3.394" transform="translate(89.833 976.996)" fill="none" stroke="#fff" stroke-width="1.55"/>
    <path id="Path_76" data-name="Path 76" d="M459.15-796.386l1.125-2.731a19.786,19.786,0,0,1,2.651,1.125,6.572,6.572,0,0,1,1.647,1.245" transform="translate(42.274 1017.275)" fill="none" stroke="#fff" stroke-width="1.55"/>
    <path id="Path_77" data-name="Path 77" d="M501.744-809.228a13.02,13.02,0,0,1,1.647-3.369,16.924,16.924,0,0,1,2.812-2.932,20.288,20.288,0,0,1,3.173,3.173,8.553,8.553,0,0,1,1.446,3.128" transform="translate(4.059 1032)" fill="none" stroke="#fff" stroke-width="1.55"/>
    <path id="Path_78" data-name="Path 78" d="M464.573-796.386l-1.125-2.731a19.786,19.786,0,0,0-2.651,1.125,6.572,6.572,0,0,0-1.647,1.245" transform="translate(54.815 1017.275)" fill="none" stroke="#fff" stroke-width="1.55"/>
    <path id="Path_79" data-name="Path 79" d="M544.338-775.28s2.089,1.807,2.169,3.334" transform="translate(-34.156 995.888)" fill="none" stroke="#fff" stroke-width="1.55"/>
  </g>
</svg>
