<svg xmlns="http://www.w3.org/2000/svg" width="46.301" height="46.55" viewBox="0 0 46.301 46.55">
  <g id="Group_15" data-name="Group 15" transform="translate(-284.643 139.269)">
    <g id="Ellipse_8" data-name="Ellipse 8" transform="translate(315.048 -129.151)" fill="none" stroke="#fff" stroke-width="1.55">
      <circle cx="2.892" cy="2.892" r="2.892" stroke="none"/>
      <circle cx="2.892" cy="2.892" r="2.117" fill="none"/>
    </g>
    <g id="Ellipse_9" data-name="Ellipse 9" transform="translate(311.614 -132.586)" fill="none" stroke="#fff" stroke-width="1.55">
      <circle cx="6.327" cy="6.327" r="6.327" stroke="none"/>
      <circle cx="6.327" cy="6.327" r="5.552" fill="none"/>
    </g>
    <path id="Path_17" data-name="Path 17" d="M365.646-931.686h-3.3v-4.453h3.3l.942-2.569-2.226-2.483,3.339-3.168,2.055,2.226,2.4-1.07v-3.168h4.5v3.168l2.526,1.07,2.44-2.226,3.211,3.168-2.269,2.483.9,2.269h3.382v4.752h-3.382l-.9,2.483,2.055,2.269-3,3.125-2.44-2.055-2.226.985v3h-4.8v-3l-2.4-.985-2.141,2.055-3.254-3.125,2.226-2.269Z" transform="translate(-56.67 807.877)" fill="none" stroke="#fff" stroke-width="1.55"/>
    <path id="Path_18" data-name="Path 18" d="M175.822-836.333v20.223H141.678s-2.705-.2-3.1-1.982a25.229,25.229,0,0,1-.291-4.79v-26.525a3.727,3.727,0,0,1,1.293-2.635,6.6,6.6,0,0,1,3.5-.563l0,29.949a3.832,3.832,0,0,0-3.506.668c-1.725,1.336-1,3.9-1,3.9" transform="translate(147.146 722.616)" fill="none" stroke="#fff" stroke-width="1.55"/>
    <g id="Rectangle_1" data-name="Rectangle 1" transform="translate(293.265 -119.931)" fill="none" stroke="#fff" stroke-width="1.55">
      <rect width="9.22" height="6.327" stroke="none"/>
      <rect x="0.775" y="0.775" width="7.67" height="4.777" fill="none"/>
    </g>
    <g id="Rectangle_2" data-name="Rectangle 2" transform="translate(293.265 -106.193)" fill="none" stroke="#fff" stroke-width="1.55">
      <rect width="9.22" height="6.327" stroke="none"/>
      <rect x="0.775" y="0.775" width="7.67" height="4.777" fill="none"/>
    </g>
    <g id="Rectangle_3" data-name="Rectangle 3" transform="translate(310.258 -106.102)" fill="none" stroke="#fff" stroke-width="1.55">
      <rect width="9.22" height="6.327" stroke="none"/>
      <rect x="0.775" y="0.775" width="7.67" height="4.777" fill="none"/>
    </g>
    <line id="Line_12" data-name="Line 12" x1="3.887" transform="translate(302.53 -116.723)" fill="none" stroke="#fff" stroke-width="1.55"/>
    <line id="Line_13" data-name="Line 13" x1="7.773" transform="translate(302.53 -102.984)" fill="none" stroke="#fff" stroke-width="1.55"/>
    <line id="Line_14" data-name="Line 14" y2="5.333" transform="translate(314.913 -111.39)" fill="none" stroke="#fff" stroke-width="1.55"/>
    <line id="Line_15" data-name="Line 15" x2="13.016" transform="translate(290.237 -123.863)" fill="none" stroke="#fff" stroke-width="1.55"/>
  </g>
</svg>
