<svg xmlns="http://www.w3.org/2000/svg" width="34.862" height="45" viewBox="0 0 34.862 45">
  <g id="Group_16" data-name="Group 16" transform="translate(-288.5 -128.5)">
    <g id="Group_13" data-name="Group 13" transform="translate(299.347 139.488)">
      <g id="Ellipse_8" data-name="Ellipse 8" transform="translate(3.634 3.621)" fill="none" stroke="#fff" stroke-width="1.55">
        <circle cx="2.858" cy="2.858" r="2.858" stroke="none"/>
        <circle cx="2.858" cy="2.858" r="2.083" fill="none"/>
      </g>
      <path id="Path_17" data-name="Path 17" d="M364.095-938.6h-1.745v-2.357h1.745l.5-1.362-1.179-1.314,1.768-1.677,1.088,1.18,1.269-.568v-1.678h2.381v1.678l1.337.568,1.292-1.18,1.7,1.677-1.2,1.314.476,1.2h1.791v2.516h-1.791l-.476,1.315,1.088,1.2-1.587,1.655-1.292-1.088-1.179.521v1.587H367.54v-1.587l-1.269-.521-1.134,1.088-1.723-1.655,1.179-1.2Z" transform="translate(-362.349 946.371)" fill="none" stroke="#fff" stroke-width="1.55"/>
    </g>
    <g id="Path_22" data-name="Path 22" transform="translate(299.796 162.05)" fill="none">
      <path d="M1.565,0h8.969A1.818,1.818,0,0,1,12.1,1.993a1.818,1.818,0,0,1-1.565,1.993H1.565A1.818,1.818,0,0,1,0,1.993,1.818,1.818,0,0,1,1.565,0Z" stroke="none"/>
      <path d="M 1.670718193054199 1.549997806549072 C 1.623781204223633 1.614847421646118 1.550004005432129 1.761880874633789 1.550004005432129 1.992647886276245 C 1.550004005432129 2.223414897918701 1.623781204223633 2.370448350906372 1.670718193054199 2.435297966003418 L 10.42940998077393 2.435297966003418 C 10.47634696960449 2.370448350906372 10.550124168396 2.223414897918701 10.550124168396 1.992647886276245 C 10.550124168396 1.761880874633789 10.47634696960449 1.614847421646118 10.42940998077393 1.549997806549072 L 1.670718193054199 1.549997806549072 M 1.565403938293457 -2.145767211914063e-06 L 10.53472423553467 -2.145767211914063e-06 C 11.39927387237549 -2.145767211914063e-06 12.10012435913086 0.8921380043029785 12.10012435913086 1.992647886276245 C 12.10012435913086 3.093157768249512 11.39927387237549 3.985297918319702 10.53472423553467 3.985297918319702 L 1.565403938293457 3.985297918319702 C 0.7008543014526367 3.985297918319702 3.814697265625e-06 3.093157768249512 3.814697265625e-06 1.992647886276245 C 3.814697265625e-06 0.8921380043029785 0.7008543014526367 -2.145767211914063e-06 1.565403938293457 -2.145767211914063e-06 Z" stroke="none" fill="#fff"/>
    </g>
    <g id="Path_23" data-name="Path 23" transform="translate(299.796 164.913)" fill="none">
      <path d="M1.565,0h8.969A1.818,1.818,0,0,1,12.1,1.993a1.818,1.818,0,0,1-1.565,1.993H1.565A1.818,1.818,0,0,1,0,1.993,1.818,1.818,0,0,1,1.565,0Z" stroke="none"/>
      <path d="M 1.670718193054199 1.549997806549072 C 1.623781204223633 1.614847421646118 1.550004005432129 1.761880874633789 1.550004005432129 1.992647886276245 C 1.550004005432129 2.223414897918701 1.623781204223633 2.370448350906372 1.670718193054199 2.435297966003418 L 10.42940998077393 2.435297966003418 C 10.47634696960449 2.370448350906372 10.550124168396 2.223414897918701 10.550124168396 1.992647886276245 C 10.550124168396 1.761880874633789 10.47634696960449 1.614847421646118 10.42940998077393 1.549997806549072 L 1.670718193054199 1.549997806549072 M 1.565403938293457 -2.145767211914063e-06 L 10.53472423553467 -2.145767211914063e-06 C 11.39927387237549 -2.145767211914063e-06 12.10012435913086 0.8921380043029785 12.10012435913086 1.992647886276245 C 12.10012435913086 3.093157768249512 11.39927387237549 3.985297918319702 10.53472423553467 3.985297918319702 L 1.565403938293457 3.985297918319702 C 0.7008543014526367 3.985297918319702 3.814697265625e-06 3.093157768249512 3.814697265625e-06 1.992647886276245 C 3.814697265625e-06 0.8921380043029785 0.7008543014526367 -2.145767211914063e-06 1.565403938293457 -2.145767211914063e-06 Z" stroke="none" fill="#fff"/>
    </g>
    <g id="Rectangle_6" data-name="Rectangle 6" transform="translate(302.003 167.506)" fill="none" stroke="#fff" stroke-width="1.55">
      <rect width="7.686" height="5.994" rx="2.997" stroke="none"/>
      <rect x="0.775" y="0.775" width="6.136" height="4.444" rx="2.222" fill="none"/>
    </g>
    <path id="Path_19" data-name="Path 19" d="M190.591-843.714s-8.361,1.55-10.431,8.941,3.686,12.774,6.6,14.806a32.189,32.189,0,0,1,.513,4.77" transform="translate(113.959 977.272)" fill="none" stroke="#fff" stroke-width="1.55"/>
    <path id="Path_20" data-name="Path 20" d="M334.357-843.714s4.793.426,7.763,3.815a14.217,14.217,0,0,1,3.334,7.294" transform="translate(-27.592 977.272)" fill="none" stroke="#fff" stroke-width="1.55"/>
    <path id="Path_21" data-name="Path 21" d="M386.6-687.187a17.284,17.284,0,0,1-2.4,6.044,19.134,19.134,0,0,1-4.9,4.585v4.689" transform="translate(-68.739 833.991)" fill="none" stroke="#fff" stroke-width="1.55"/>
    <line id="Line_16" data-name="Line 16" x2="2.2" y2="2.2" transform="translate(293.662 133.577)" fill="none" stroke="#fff" stroke-width="1.55"/>
    <line id="Line_17" data-name="Line 17" x2="2.962" transform="translate(288.5 145.846)" fill="none" stroke="#fff" stroke-width="1.55"/>
    <line id="Line_18" data-name="Line 18" x2="3.215" transform="translate(320.147 145.846)" fill="none" stroke="#fff" stroke-width="1.55"/>
    <line id="Line_19" data-name="Line 19" x1="2.2" y2="2.2" transform="translate(293.662 155.831)" fill="none" stroke="#fff" stroke-width="1.55"/>
    <line id="Line_20" data-name="Line 20" x2="2.2" y2="2.2" transform="translate(315.831 155.831)" fill="none" stroke="#fff" stroke-width="1.55"/>
    <line id="Line_21" data-name="Line 21" y1="2.2" x2="2.2" transform="translate(315.831 133.577)" fill="none" stroke="#fff" stroke-width="1.55"/>
    <line id="Line_22" data-name="Line 22" y1="3.046" transform="translate(305.846 128.5)" fill="none" stroke="#fff" stroke-width="1.55"/>
  </g>
</svg>
