<svg xmlns="http://www.w3.org/2000/svg" width="44.901" height="41.736" viewBox="0 0 44.901 41.736">
  <g id="Group_253" data-name="Group 253" transform="translate(-711.436 -120.379)">
    <path id="Path_113" data-name="Path 113" d="M572.5-907.373l6.585-3.375,6.42,3.375L579.083-904Z" transform="translate(154.698 1032)" fill="none" stroke="#11267a" stroke-width="1.55"/>
    <line id="Line_132" data-name="Line 132" y2="23.118" transform="translate(733.801 127.963)" fill="none" stroke="#11267a" stroke-width="1.55"/>
    <line id="Line_133" data-name="Line 133" y2="23.118" transform="translate(740.237 124.66)" fill="none" stroke="#11267a" stroke-width="1.55"/>
    <line id="Line_134" data-name="Line 134" y2="23.118" transform="translate(727.196 124.66)" fill="none" stroke="#11267a" stroke-width="1.55"/>
    <line id="Line_135" data-name="Line 135" x2="6.605" y2="3.303" transform="translate(727.196 147.778)" fill="none" stroke="#11267a" stroke-width="1.55"/>
    <line id="Line_136" data-name="Line 136" x1="6.436" y2="3.303" transform="translate(733.801 147.778)" fill="none" stroke="#11267a" stroke-width="1.55"/>
    <line id="Line_137" data-name="Line 137" x2="3.641" y2="1.863" transform="translate(728.466 128.725)" fill="none" stroke="#11267a" stroke-width="1.55"/>
    <line id="Line_138" data-name="Line 138" x2="3.895" y2="2.032" transform="translate(728.466 131.35)" fill="none" stroke="#11267a" stroke-width="1.55"/>
    <line id="Line_139" data-name="Line 139" x2="3.895" y2="1.863" transform="translate(728.466 134.145)" fill="none" stroke="#11267a" stroke-width="1.55"/>
    <line id="Line_140" data-name="Line 140" x2="3.895" y2="1.863" transform="translate(728.466 136.939)" fill="none" stroke="#11267a" stroke-width="1.55"/>
    <line id="Line_141" data-name="Line 141" x2="3.726" y2="1.863" transform="translate(728.466 139.564)" fill="none" stroke="#11267a" stroke-width="1.55"/>
    <line id="Line_142" data-name="Line 142" x2="3.895" y2="2.032" transform="translate(728.466 142.189)" fill="none" stroke="#11267a" stroke-width="1.55"/>
    <line id="Line_143" data-name="Line 143" x2="3.726" y2="2.032" transform="translate(728.466 144.899)" fill="none" stroke="#11267a" stroke-width="1.55"/>
    <line id="Line_144" data-name="Line 144" y1="1.863" x2="3.895" transform="translate(735.325 145.068)" fill="none" stroke="#11267a" stroke-width="1.55"/>
    <line id="Line_145" data-name="Line 145" y1="1.863" x2="4.065" transform="translate(735.156 142.189)" fill="none" stroke="#11267a" stroke-width="1.55"/>
    <line id="Line_146" data-name="Line 146" y1="1.863" x2="4.065" transform="translate(735.156 139.564)" fill="none" stroke="#11267a" stroke-width="1.55"/>
    <line id="Line_147" data-name="Line 147" y1="1.778" x2="4.065" transform="translate(735.156 136.77)" fill="none" stroke="#11267a" stroke-width="1.55"/>
    <line id="Line_148" data-name="Line 148" y1="1.863" x2="3.895" transform="translate(735.325 134.145)" fill="none" stroke="#11267a" stroke-width="1.55"/>
    <line id="Line_149" data-name="Line 149" y1="1.863" x2="4.065" transform="translate(735.156 131.35)" fill="none" stroke="#11267a" stroke-width="1.55"/>
    <line id="Line_150" data-name="Line 150" y1="1.863" x2="4.065" transform="translate(735.156 128.725)" fill="none" stroke="#11267a" stroke-width="1.55"/>
    <path id="Path_114" data-name="Path 114" d="M414.458-640.694,407.2-637.1l20.6,9.984,20.8-9.984-7.013-3.6" transform="translate(306 784.823)" fill="none" stroke="#11267a" stroke-width="1.55"/>
    <path id="Path_115" data-name="Path 115" d="M407.2-597.884v3.4l20.6,10.07,20.789-10.19.04-3.32" transform="translate(306 745.663)" fill="none" stroke="#11267a" stroke-width="1.55"/>
    <line id="Line_151" data-name="Line 151" y2="3.557" transform="translate(733.801 157.686)" fill="none" stroke="#11267a" stroke-width="1.55"/>
    <line id="Line_152" data-name="Line 152" y2="5.843" transform="translate(722.284 142.359)" fill="none" stroke="#11267a" stroke-width="1.55"/>
    <line id="Line_153" data-name="Line 153" y2="5.843" transform="translate(745.233 142.359)" fill="none" stroke="#11267a" stroke-width="1.55"/>
    <path id="Path_116" data-name="Path 116" d="M490.883-714.5s2.138,3.246,2.138,5.058-2.138,2.19-2.138,2.19-2.185-.378-2.185-2.19S490.883-714.5,490.883-714.5Z" transform="translate(231.401 852.37)" fill="none" stroke="#11267a" stroke-width="1.55"/>
    <path id="Path_117" data-name="Path 117" d="M490.883-714.5s2.138,3.246,2.138,5.058-2.138,2.19-2.138,2.19-2.185-.378-2.185-2.19S490.883-714.5,490.883-714.5Z" transform="translate(254.35 852.37)" fill="none" stroke="#11267a" stroke-width="1.55"/>
    <line id="Line_154" data-name="Line 154" y1="1.609" x2="2.879" transform="translate(724.316 140.326)" fill="none" stroke="#11267a" stroke-width="1.55"/>
    <line id="Line_155" data-name="Line 155" x2="2.964" y2="1.44" transform="translate(740.237 140.665)" fill="none" stroke="#11267a" stroke-width="1.55"/>
    <g id="Ellipse_50" data-name="Ellipse 50" transform="translate(716.06 150.615)" fill="none" stroke="#11267a" stroke-width="1.55">
      <circle cx="0.804" cy="0.804" r="0.804" stroke="none"/>
      <circle cx="0.804" cy="0.804" r="0.029" fill="none"/>
    </g>
    <g id="Ellipse_51" data-name="Ellipse 51" transform="translate(719.447 152.055)" fill="none" stroke="#11267a" stroke-width="1.55">
      <circle cx="0.804" cy="0.804" r="0.804" stroke="none"/>
      <circle cx="0.804" cy="0.804" r="0.029" fill="none"/>
    </g>
    <g id="Ellipse_52" data-name="Ellipse 52" transform="translate(722.835 153.748)" fill="none" stroke="#11267a" stroke-width="1.55">
      <circle cx="0.804" cy="0.804" r="0.804" stroke="none"/>
      <circle cx="0.804" cy="0.804" r="0.029" fill="none"/>
    </g>
    <g id="Ellipse_53" data-name="Ellipse 53" transform="translate(726.222 155.357)" fill="none" stroke="#11267a" stroke-width="1.55">
      <circle cx="0.804" cy="0.804" r="0.804" stroke="none"/>
      <circle cx="0.804" cy="0.804" r="0.029" fill="none"/>
    </g>
    <g id="Ellipse_54" data-name="Ellipse 54" transform="translate(729.524 156.966)" fill="none" stroke="#11267a" stroke-width="1.55">
      <circle cx="0.804" cy="0.804" r="0.804" stroke="none"/>
      <circle cx="0.804" cy="0.804" r="0.029" fill="none"/>
    </g>
    <g id="Ellipse_55" data-name="Ellipse 55" transform="translate(736.383 156.966)" fill="none" stroke="#11267a" stroke-width="1.55">
      <circle cx="0.804" cy="0.804" r="0.804" stroke="none"/>
      <circle cx="0.804" cy="0.804" r="0.029" fill="none"/>
    </g>
    <g id="Ellipse_56" data-name="Ellipse 56" transform="translate(739.686 155.357)" fill="none" stroke="#11267a" stroke-width="1.55">
      <circle cx="0.804" cy="0.804" r="0.804" stroke="none"/>
      <circle cx="0.804" cy="0.804" r="0.029" fill="none"/>
    </g>
    <g id="Ellipse_57" data-name="Ellipse 57" transform="translate(743.158 153.748)" fill="none" stroke="#11267a" stroke-width="1.55">
      <circle cx="0.804" cy="0.804" r="0.804" stroke="none"/>
      <circle cx="0.804" cy="0.804" r="0.029" fill="none"/>
    </g>
    <g id="Ellipse_58" data-name="Ellipse 58" transform="translate(746.545 152.139)" fill="none" stroke="#11267a" stroke-width="1.55">
      <circle cx="0.804" cy="0.804" r="0.804" stroke="none"/>
      <circle cx="0.804" cy="0.804" r="0.029" fill="none"/>
    </g>
    <g id="Ellipse_59" data-name="Ellipse 59" transform="translate(749.932 150.446)" fill="none" stroke="#11267a" stroke-width="1.55">
      <circle cx="0.804" cy="0.804" r="0.804" stroke="none"/>
      <circle cx="0.804" cy="0.804" r="0.029" fill="none"/>
    </g>
  </g>
</svg>
