<svg xmlns="http://www.w3.org/2000/svg" width="47.063" height="46.567" viewBox="0 0 47.063 46.567">
  <g id="Group_18" data-name="Group 18" transform="translate(-288 -171.699)">
    <path id="Path_27" data-name="Path 27" d="M218.07-852.1s6.735-10.052,18.5-6.735,11.962,15.378,11.962,15.378l4.222,12.667h-6.433v9.952H235.459v6.332H222.995s.7-7.036-1.809-12.665-4.925-11.259-4.925-11.259" transform="translate(81.24 1032)" fill="none" stroke="#fff" stroke-width="1.55"/>
    <path id="Path_28" data-name="Path 28" d="M463.3-554.166a3.31,3.31,0,0,0,1.647,2.562c1.532.789,4.392.412,4.392.412" transform="translate(-141.92 756.177)" fill="none" stroke="#fff" stroke-width="1.55"/>
    <g id="Ellipse_11" data-name="Ellipse 11" transform="translate(310.333 176.214)" fill="none" stroke="#fff" stroke-width="1.55">
      <circle cx="2.417" cy="2.417" r="2.417" stroke="none"/>
      <circle cx="2.417" cy="2.417" r="1.642" fill="none"/>
    </g>
    <g id="Ellipse_17" data-name="Ellipse 17" transform="translate(310.43 184.045)" fill="none" stroke="#fff" stroke-width="1.55">
      <circle cx="2.417" cy="2.417" r="2.417" stroke="none"/>
      <circle cx="2.417" cy="2.417" r="1.642" fill="none"/>
    </g>
    <g id="Ellipse_12" data-name="Ellipse 12" transform="translate(317.584 180.178)" fill="none" stroke="#fff" stroke-width="1.55">
      <circle cx="2.417" cy="2.417" r="2.417" stroke="none"/>
      <circle cx="2.417" cy="2.417" r="1.642" fill="none"/>
    </g>
    <g id="Ellipse_13" data-name="Ellipse 13" transform="translate(317.584 187.719)" fill="none" stroke="#fff" stroke-width="1.55">
      <circle cx="2.417" cy="2.417" r="2.417" stroke="none"/>
      <circle cx="2.417" cy="2.417" r="1.642" fill="none"/>
    </g>
    <g id="Ellipse_14" data-name="Ellipse 14" transform="translate(310.333 191.876)" fill="none" stroke="#fff" stroke-width="1.55">
      <circle cx="2.417" cy="2.417" r="2.417" stroke="none"/>
      <circle cx="2.417" cy="2.417" r="1.642" fill="none"/>
    </g>
    <g id="Ellipse_15" data-name="Ellipse 15" transform="translate(303.662 187.719)" fill="none" stroke="#fff" stroke-width="1.55">
      <circle cx="2.417" cy="2.417" r="2.417" stroke="none"/>
      <circle cx="2.417" cy="2.417" r="1.642" fill="none"/>
    </g>
    <g id="Ellipse_16" data-name="Ellipse 16" transform="translate(303.662 180.178)" fill="none" stroke="#fff" stroke-width="1.55">
      <circle cx="2.417" cy="2.417" r="2.417" stroke="none"/>
      <circle cx="2.417" cy="2.417" r="1.642" fill="none"/>
    </g>
    <g id="Ellipse_18" data-name="Ellipse 18" transform="translate(288 176.987)" fill="none" stroke="#fff" stroke-width="1.55">
      <circle cx="2.417" cy="2.417" r="2.417" stroke="none"/>
      <circle cx="2.417" cy="2.417" r="1.642" fill="none"/>
    </g>
    <g id="Ellipse_19" data-name="Ellipse 19" transform="translate(288 184.045)" fill="none" stroke="#fff" stroke-width="1.55">
      <circle cx="2.417" cy="2.417" r="2.417" stroke="none"/>
      <circle cx="2.417" cy="2.417" r="1.642" fill="none"/>
    </g>
    <g id="Ellipse_20" data-name="Ellipse 20" transform="translate(288 190.909)" fill="none" stroke="#fff" stroke-width="1.55">
      <circle cx="2.417" cy="2.417" r="2.417" stroke="none"/>
      <circle cx="2.417" cy="2.417" r="1.642" fill="none"/>
    </g>
    <line id="Line_31" data-name="Line 31" y1="1.45" x2="2.61" transform="translate(308.158 179.839)" fill="none" stroke="#fff" stroke-width="1.55"/>
    <line id="Line_32" data-name="Line 32" x2="2.997" y2="1.74" transform="translate(314.925 179.646)" fill="none" stroke="#fff" stroke-width="1.55"/>
    <line id="Line_33" data-name="Line 33" y2="2.804" transform="translate(320.049 184.963)" fill="none" stroke="#fff" stroke-width="1.55"/>
    <line id="Line_34" data-name="Line 34" x1="3.094" y2="1.934" transform="translate(314.925 191.344)" fill="none" stroke="#fff" stroke-width="1.55"/>
    <line id="Line_35" data-name="Line 35" x1="2.804" y1="1.547" transform="translate(307.964 191.441)" fill="none" stroke="#fff" stroke-width="1.55"/>
    <line id="Line_36" data-name="Line 36" y1="2.804" transform="translate(306.128 184.963)" fill="none" stroke="#fff" stroke-width="1.55"/>
    <line id="Line_37" data-name="Line 37" y2="2.997" transform="translate(312.895 181.096)" fill="none" stroke="#fff" stroke-width="1.55"/>
    <line id="Line_38" data-name="Line 38" y1="1.547" x2="2.997" transform="translate(314.925 183.707)" fill="none" stroke="#fff" stroke-width="1.55"/>
    <line id="Line_39" data-name="Line 39" x2="2.997" y2="1.547" transform="translate(314.925 187.574)" fill="none" stroke="#fff" stroke-width="1.55"/>
    <line id="Line_40" data-name="Line 40" x1="2.61" y2="1.547" transform="translate(308.158 187.574)" fill="none" stroke="#fff" stroke-width="1.55"/>
    <line id="Line_41" data-name="Line 41" y2="3.094" transform="translate(312.895 188.831)" fill="none" stroke="#fff" stroke-width="1.55"/>
    <line id="Line_42" data-name="Line 42" x1="2.61" y1="1.547" transform="translate(308.158 183.707)" fill="none" stroke="#fff" stroke-width="1.55"/>
    <line id="Line_43" data-name="Line 43" y1="0.097" x2="13.342" transform="translate(292.785 186.414)" fill="none" stroke="#fff" stroke-width="1.55"/>
    <line id="Line_44" data-name="Line 44" x2="0.87" transform="translate(292.883 179.549)" fill="none" stroke="#fff" stroke-width="1.55"/>
    <line id="Line_45" data-name="Line 45" x2="3.19" y2="3.094" transform="translate(293.752 179.549)" fill="none" stroke="#fff" stroke-width="1.55"/>
    <line id="Line_46" data-name="Line 46" x2="6.768" transform="translate(296.943 182.643)" fill="none" stroke="#fff" stroke-width="1.55"/>
    <line id="Line_47" data-name="Line 47" x2="0.87" transform="translate(292.883 193.471)" fill="none" stroke="#fff" stroke-width="1.55"/>
    <line id="Line_48" data-name="Line 48" y1="3.094" x2="3.19" transform="translate(293.752 190.377)" fill="none" stroke="#fff" stroke-width="1.55"/>
    <line id="Line_49" data-name="Line 49" x2="6.768" transform="translate(296.943 190.377)" fill="none" stroke="#fff" stroke-width="1.55"/>
  </g>
</svg>
