<svg xmlns="http://www.w3.org/2000/svg" width="66.681" height="41.028" viewBox="0 0 66.681 41.028">
  <g id="Group_232" data-name="Group 232" transform="translate(-602.12 -305.568)">
    <path id="Path_95" data-name="Path 95" d="M1931.121-705.452l7.258-18.187,6.8,2.937-6.8,18.281Z" transform="translate(-1327.999 1030.463)" fill="none" stroke="#11267a" stroke-width="1.55"/>
    <path id="Path_96" data-name="Path 96" d="M2036.12-691s-.094,1.012,3.859,1.1a68.45,68.45,0,0,1,9.461,1.2" transform="translate(-1419.403 1002.054)" fill="none" stroke="#11267a" stroke-width="1.55"/>
    <path id="Path_97" data-name="Path 97" d="M2099.63-690.178a28.43,28.43,0,0,0-4.281-1.109c-2.507-.461-3.343,1.109-3.343,1.109s-4.555,4.158-7.39,6.289-2.766,1.828-2.766,2.676,1.524,1.738,1.524,1.738a10.92,10.92,0,0,0,5.086-.314,14.626,14.626,0,0,0,4.648-3.086,19.091,19.091,0,0,0,5.836,3.711,17.055,17.055,0,0,0,6.656.7l8,5.51s2.367,2.369.446,4.3c-1.32,1.963-3.945.572-3.945.572l-4.5-3.215" transform="translate(-1459.211 1002.375)" fill="none" stroke="#11267a" stroke-width="1.55"/>
    <path id="Path_98" data-name="Path 98" d="M2237.975-510.856a3,3,0,0,1-.953,3.387,3.1,3.1,0,0,1-3.3.92l-4.937-3.93" transform="translate(-1587.118 845.233)" fill="none" stroke="#11267a" stroke-width="1.55"/>
    <path id="Path_99" data-name="Path 99" d="M2206.108-478.167s.4,2.379-1.4,3.313a3.827,3.827,0,0,1-3.445,0l-3.93-3.313" transform="translate(-1559.744 816.775)" fill="none" stroke="#11267a" stroke-width="1.55"/>
    <path id="Path_100" data-name="Path 100" d="M2172.887-452.334a4.516,4.516,0,0,1-1.445,2.959,4.309,4.309,0,0,1-3.218.611l-3.3-2.477" transform="translate(-1531.531 794.288)" fill="none" stroke="#11267a" stroke-width="1.55"/>
    <path id="Path_101" data-name="Path 101" d="M2241.7-688.741a14.872,14.872,0,0,0,5,.6,23.7,23.7,0,0,0,5.759-1.576" transform="translate(-1598.361 1000.936)" fill="none" stroke="#11267a" stroke-width="1.55"/>
    <path id="Path_102" data-name="Path 102" d="M2330.418-717.467l-3.266-7.937-6.953,3.045,7.235,18.373,7.054-2.826-3.038-7.5" transform="translate(-1666.697 1032)" fill="none" stroke="#11267a" stroke-width="1.55"/>
    <path id="Path_103" data-name="Path 103" d="M2329.016-568.131l5.391-3.209" transform="translate(-1674.376 897.885)" fill="none" stroke="#11267a" stroke-width="1.55"/>
    <line id="Line_115" data-name="Line 115" x2="6.086" y2="4.273" transform="translate(610.81 326.912)" fill="none" stroke="#11267a" stroke-width="1.55"/>
    <g id="Rectangle_102" data-name="Rectangle 102" transform="translate(614.973 333.555) rotate(-50)" fill="none" stroke="#11267a" stroke-width="1.5">
      <rect width="8.675" height="5.179" rx="2.59" stroke="none"/>
      <rect x="0.75" y="0.75" width="7.175" height="3.679" rx="1.84" fill="none"/>
    </g>
    <g id="Rectangle_103" data-name="Rectangle 103" transform="translate(618.857 336.793) rotate(-50)" fill="none" stroke="#11267a" stroke-width="1.5">
      <rect width="8.675" height="5.179" rx="2.59" stroke="none"/>
      <rect x="0.75" y="0.75" width="7.175" height="3.679" rx="1.84" fill="none"/>
    </g>
    <g id="Rectangle_104" data-name="Rectangle 104" transform="translate(622.612 340.159) rotate(-50)" fill="none" stroke="#11267a" stroke-width="1.5">
      <rect width="8.675" height="5.179" rx="2.59" stroke="none"/>
      <rect x="0.75" y="0.75" width="7.175" height="3.679" rx="1.84" fill="none"/>
    </g>
    <g id="Rectangle_105" data-name="Rectangle 105" transform="translate(626.496 343.267) rotate(-50)" fill="none" stroke="#11267a" stroke-width="1.5">
      <rect width="8.675" height="5.179" rx="2.59" stroke="none"/>
      <rect x="0.75" y="0.75" width="7.175" height="3.679" rx="1.84" fill="none"/>
    </g>
  </g>
</svg>
