<svg xmlns="http://www.w3.org/2000/svg" width="46.653" height="46.831" viewBox="0 0 46.653 46.831">
  <g id="Group_31" data-name="Group 31" transform="translate(-464.637 -168.755)">
    <g id="Ellipse_44" data-name="Ellipse 44" transform="translate(473.483 177.583)" fill="none" stroke="#fff" stroke-width="1.55">
      <circle cx="14.491" cy="14.491" r="14.491" stroke="none"/>
      <circle cx="14.491" cy="14.491" r="13.716" fill="none"/>
    </g>
    <path id="Path_90" data-name="Path 90" d="M335.711-658.642l4.508,4.618,8.247-7.807" transform="translate(146 849.885)" fill="none" stroke="#fff" stroke-width="1.55"/>
    <path id="Path_91" data-name="Path 91" d="M170.72-859.205h6.006l5.244-3.13,4.906,3.13h6.259l2.707,5.16,5.414,2.876v6.006l3.13,5.075-3.13,5.329.338,5.667-5.752,3.214-2.707,5.329H187.3l-5.329,3.214-4.737-3.214h-6.175l-2.707-5.329-6.006-2.791.508-6.09-3.3-5.329,3.3-5.075-.508-6.006,5.583-2.876Z" transform="translate(306 1032)" fill="none" stroke="#fff" stroke-width="1.55"/>
  </g>
</svg>
