<svg xmlns="http://www.w3.org/2000/svg" width="35.462" height="41.866" viewBox="0 0 35.462 41.866">
  <g id="Group_240" data-name="Group 240" transform="translate(-482.823 -137.734)">
    <path id="Path_139" data-name="Path 139" d="M194.5-893.249a28.568,28.568,0,0,1-7.7,4.625,28.339,28.339,0,0,1-8.844,1.46s-1.7,12.454,2.434,20.933S194.5-853.249,194.5-853.249s10.226-4.5,14.365-12.982,2.191-20.933,2.191-20.933a27.624,27.624,0,0,1-8.682-1.46A31.125,31.125,0,0,1,194.5-893.249Z" transform="translate(306 1032)" fill="none" stroke="#11267a" stroke-width="1.55"/>
    <path id="Path_140" data-name="Path 140" d="M297.426-709.782l4.706,5.03,8.763-8.682" transform="translate(196.177 867.194)" fill="none" stroke="#11267a" stroke-width="1.55"/>
  </g>
</svg>
