<svg xmlns="http://www.w3.org/2000/svg" width="36.027" height="40.775" viewBox="0 0 36.027 40.775">
  <g id="Group_254" data-name="Group 254" transform="translate(-509.376 -68.5)">
    <line id="Line_156" data-name="Line 156" y2="2.678" transform="translate(528.562 68.5)" fill="none" stroke="#11267a" stroke-width="1.55"/>
    <line id="Line_157" data-name="Line 157" x2="0.945" y2="2.521" transform="translate(522.654 69.288)" fill="none" stroke="#11267a" stroke-width="1.55"/>
    <line id="Line_158" data-name="Line 158" x2="1.339" y2="2.127" transform="translate(518.086 71.808)" fill="none" stroke="#11267a" stroke-width="1.55"/>
    <line id="Line_159" data-name="Line 159" x2="2.127" y2="1.969" transform="translate(513.675 75.195)" fill="none" stroke="#11267a" stroke-width="1.55"/>
    <line id="Line_160" data-name="Line 160" x2="2.521" y2="1.182" transform="translate(511.154 80.158)" fill="none" stroke="#11267a" stroke-width="1.55"/>
    <line id="Line_161" data-name="Line 161" x2="2.914" y2="0.473" transform="translate(509.5 85.357)" fill="none" stroke="#11267a" stroke-width="1.55"/>
    <line id="Line_162" data-name="Line 162" y1="0.551" x2="2.521" transform="translate(509.894 90.319)" fill="none" stroke="#11267a" stroke-width="1.55"/>
    <line id="Line_163" data-name="Line 163" y1="1.418" x2="2.521" transform="translate(511.706 94.573)" fill="none" stroke="#11267a" stroke-width="1.55"/>
    <line id="Line_164" data-name="Line 164" y1="2.048" x2="2.048" transform="translate(514.778 98.354)" fill="none" stroke="#11267a" stroke-width="1.55"/>
    <path id="Path_118" data-name="Path 118" d="M293.682-888.852s-8.889-2.713-14.138,3.747-3.417,13.684.847,17.545,4.4,2.914,4.4,2.914v2.768s-.959.087-1.029,1.516a1.381,1.381,0,0,0,1.029,1.606h9.541a1.46,1.46,0,0,0,.93-1.606c-.035-1.359-.93-1.516-.93-1.516h-9.541" transform="translate(238.599 963.81)" fill="none" stroke="#11267a" stroke-width="1.55"/>
    <g id="Rectangle_108" data-name="Rectangle 108" transform="translate(524.112 77.992)" fill="none" stroke="#11267a" stroke-width="1.15">
      <rect width="3.23" height="3.23" rx="1.615" stroke="none"/>
      <rect x="0.575" y="0.575" width="2.08" height="2.08" rx="1.04" fill="none"/>
    </g>
    <g id="Rectangle_109" data-name="Rectangle 109" transform="translate(521.197 83.112)" fill="none" stroke="#11267a" stroke-width="1.15">
      <rect width="3.23" height="3.23" rx="1.615" stroke="none"/>
      <rect x="0.575" y="0.575" width="2.08" height="2.08" rx="1.04" fill="none"/>
    </g>
    <g id="Rectangle_110" data-name="Rectangle 110" transform="translate(524.781 88.114) rotate(45)" fill="none" stroke="#11267a" stroke-width="1.15">
      <rect width="3.23" height="3.23" rx="1.615" stroke="none"/>
      <rect x="0.575" y="0.575" width="2.08" height="2.08" rx="1.04" fill="none"/>
    </g>
    <g id="Rectangle_111" data-name="Rectangle 111" transform="translate(526.632 84.293)" fill="none" stroke="#11267a" stroke-width="1.15">
      <rect width="3.23" height="3.23" rx="1.615" stroke="none"/>
      <rect x="0.575" y="0.575" width="2.08" height="2.08" rx="1.04" fill="none"/>
    </g>
    <g id="Rectangle_112" data-name="Rectangle 112" transform="translate(531.201 91.304)" fill="none" stroke="#11267a" stroke-width="1.15">
      <rect width="3.23" height="3.23" rx="1.615" stroke="none"/>
      <rect x="0.575" y="0.575" width="2.08" height="2.08" rx="1.04" fill="none"/>
    </g>
    <g id="Rectangle_113" data-name="Rectangle 113" transform="translate(523.797 93.746)" fill="none" stroke="#11267a" stroke-width="1.15">
      <rect width="3.23" height="3.23" stroke="none"/>
      <rect x="0.575" y="0.575" width="2.08" height="2.08" fill="none"/>
    </g>
    <line id="Line_165" data-name="Line 165" y2="4.332" transform="translate(528.247 87.562)" fill="none" stroke="#11267a" stroke-width="1.55"/>
    <line id="Line_166" data-name="Line 166" y2="7.326" transform="translate(532.816 94.573)" fill="none" stroke="#11267a" stroke-width="1.55"/>
    <path id="Path_119" data-name="Path 119" d="M409.954-668.858l4.927,4.978v5.262" transform="translate(115.808 760.567)" fill="none" stroke="#11267a" stroke-width="1.55"/>
    <line id="Line_167" data-name="Line 167" y2="4.962" transform="translate(525.411 97.014)" fill="none" stroke="#11267a" stroke-width="1.55"/>
    <line id="Line_168" data-name="Line 168" y2="5.986" transform="translate(528.247 95.912)" fill="none" stroke="#11267a" stroke-width="1.55"/>
    <path id="Path_120" data-name="Path 120" d="M394.913-499.451v2.785a.754.754,0,0,0,.19.428,1.173,1.173,0,0,0,.485.234H401.2a1.007,1.007,0,0,0,.408-.234,1.081,1.081,0,0,0,.22-.428v-2.785" transform="translate(129.664 604.504)" fill="none" stroke="#11267a" stroke-width="1.55"/>
    <line id="Line_169" data-name="Line 169" x2="6.932" transform="translate(524.545 106.546)" fill="none" stroke="#11267a" stroke-width="1.55"/>
    <path id="Path_121" data-name="Path 121" d="M499.5-682.353s3.965-1.853,5.867-4.344a9.8,9.8,0,0,0,2.084-4.621" transform="translate(33.316 781.258)" fill="none" stroke="#11267a" stroke-width="1.55"/>
    <path id="Path_123" data-name="Path 123" d="M476.241-888.674v1.633h-2.892v-1.952l-1.08-.488-1.429,1.255-1.986-2.126,1.22-1.15-.523-1.289h-1.917v-3.032h1.917l.523-1.289-1.22-1.533,1.986-1.708,1.185,1.185,1.324-.732v-1.742h2.892v1.742l1.324.732,1.289-1.185,1.882,1.986-1.15,1.255.558,1.289h1.812v2.893l-1.812.139-.558,1.289,1.15,1.15-1.568,1.678-.558.448-1.045-1.255Z" transform="translate(62.672 975.015)" fill="none" stroke="#11267a" stroke-width="1.55"/>
    <g id="Ellipse_60" data-name="Ellipse 60" transform="translate(535.612 78.858)" fill="none" stroke="#11267a" stroke-width="1.15">
      <circle cx="1.851" cy="1.851" r="1.851" stroke="none"/>
      <circle cx="1.851" cy="1.851" r="1.276" fill="none"/>
    </g>
    <path id="Path_124" data-name="Path 124" d="M520.08-853.024a3.525,3.525,0,0,0-4.825,1.654,3.616,3.616,0,0,0,2.083,4.841c4.327.952,5.125-3.672,4.268-4.64" transform="translate(19.065 930.587)" fill="none" stroke="#11267a" stroke-width="1.15"/>
  </g>
</svg>
