<svg xmlns="http://www.w3.org/2000/svg" width="43.076" height="41.554" viewBox="0 0 43.076 41.554">
  <g id="Group_27" data-name="Group 27" transform="translate(-446.323 -137.013)">
    <g id="Ellipse_37" data-name="Ellipse 37" transform="translate(452.038 146.29)" fill="none" stroke="#fff" stroke-width="1.55">
      <circle cx="8.642" cy="8.642" r="8.642" stroke="none"/>
      <circle cx="8.642" cy="8.642" r="7.867" fill="none"/>
    </g>
    <line id="Line_65" data-name="Line 65" y2="4.765" transform="translate(460.721 143.988)" fill="none" stroke="#fff" stroke-width="1.55"/>
    <line id="Line_66" data-name="Line 66" x2="4.765" transform="translate(467.021 154.972)" fill="none" stroke="#fff" stroke-width="1.55"/>
    <line id="Line_67" data-name="Line 67" x2="4.765" transform="translate(449.737 154.972)" fill="none" stroke="#fff" stroke-width="1.55"/>
    <line id="Line_68" data-name="Line 68" y2="4.846" transform="translate(460.721 161.111)" fill="none" stroke="#fff" stroke-width="1.55"/>
    <g id="Ellipse_38" data-name="Ellipse 38" transform="translate(457.612 150.328)" fill="none" stroke="#fff" stroke-width="1.55">
      <circle cx="3.15" cy="3.15" r="3.15" stroke="none"/>
      <circle cx="3.15" cy="3.15" r="2.375" fill="none"/>
    </g>
    <path id="Path_58" data-name="Path 58" d="M380.483-655.667s-1.083-5.744,4.267-5.744,4.349,5.744,4.349,5.744" transform="translate(75.877 818.007)" fill="none" stroke="#fff" stroke-width="1.55"/>
    <g id="Rectangle_14" data-name="Rectangle 14" transform="translate(446.323 138.313)" fill="none" stroke="#fff" stroke-width="1.55">
      <rect width="9.269" height="7.977" stroke="none"/>
      <rect x="0.775" y="0.775" width="7.719" height="6.427" fill="none"/>
    </g>
    <line id="Line_69" data-name="Line 69" x2="2.665" transform="translate(449.463 142.342)" fill="none" stroke="#fff" stroke-width="1.55"/>
    <line id="Line_70" data-name="Line 70" x2="13.085" transform="translate(465.648 172.257)" fill="none" stroke="#fff" stroke-width="1.55"/>
    <path id="Path_59" data-name="Path 59" d="M426.037-511.123v6.6a4.025,4.025,0,0,1-.978,1.7,3.759,3.759,0,0,1-1.767.757H407.415a3.1,3.1,0,0,1-1.136-.5,2.456,2.456,0,0,1-.663-.947" transform="translate(52.691 679.857)" fill="none" stroke="#fff" stroke-width="1.55"/>
    <line id="Line_71" data-name="Line 71" x2="1.615" transform="translate(467.748 174.923)" fill="none" stroke="#fff" stroke-width="1.55"/>
    <g id="Rectangle_15" data-name="Rectangle 15" transform="translate(448 168.501)" fill="none" stroke="#fff" stroke-width="1.55">
      <rect width="15.669" height="7.896" stroke="none"/>
      <rect x="0.775" y="0.775" width="14.119" height="6.346" fill="none"/>
    </g>
    <line id="Line_72" data-name="Line 72" x2="2.759" transform="translate(451.495 172.449)" fill="none" stroke="#fff" stroke-width="1.55"/>
    <line id="Line_73" data-name="Line 73" x2="4.684" transform="translate(455.473 172.449)" fill="none" stroke="#fff" stroke-width="1.55"/>
    <line id="Line_74" data-name="Line 74" y2="3.877" transform="translate(457.975 164.665)" fill="none" stroke="#fff" stroke-width="1.55"/>
    <line id="Line_75" data-name="Line 75" x2="2.665" transform="translate(473.887 144.342)" fill="none" stroke="#fff" stroke-width="1.55"/>
    <line id="Line_76" data-name="Line 76" x2="6.785" transform="translate(478.006 144.342)" fill="none" stroke="#fff" stroke-width="1.55"/>
    <g id="Rectangle_16" data-name="Rectangle 16" transform="translate(471.827 140.313)" fill="none" stroke="#fff" stroke-width="1.55">
      <rect width="15.346" height="8.481" stroke="none"/>
      <rect x="0.775" y="0.775" width="13.796" height="6.931" fill="none"/>
    </g>
    <path id="Path_60" data-name="Path 60" d="M400.86-885.253v-7.085a2.388,2.388,0,0,1,1.2-1.461,10.93,10.93,0,0,1,3.441-.406h13.442a6.773,6.773,0,0,1,.96.267,3.112,3.112,0,0,1,.693.373" transform="translate(57.063 1032)" fill="none" stroke="#fff" stroke-width="1.55"/>
    <line id="Line_78" data-name="Line 78" x2="11.792" transform="translate(457.894 141.888)" fill="none" stroke="#fff" stroke-width="1.55"/>
    <line id="Line_79" data-name="Line 79" y2="7.027" transform="translate(478.733 150.692)" fill="none" stroke="#fff" stroke-width="1.55"/>
    <path id="Path_61" data-name="Path 61" d="M532.029-704.523a4.582,4.582,0,0,0,1.218-1.067,4.082,4.082,0,0,0,.615-1.436,6.561,6.561,0,0,1,.821-3.734,5.536,5.536,0,0,1,3.2-1.682l11.735-9.929,2.216,2.175L541.782-709.16s-.041,3.529-2.708,4.308A23.381,23.381,0,0,1,532.029-704.523Z" transform="translate(-63.511 874.043)" fill="none" stroke="#fff" stroke-width="1.55"/>
    <line id="Line_80" data-name="Line 80" x2="3.958" y2="3.312" transform="translate(474.452 161.596)" fill="none" stroke="#fff" stroke-width="1.55"/>
  </g>
</svg>
