<svg xmlns="http://www.w3.org/2000/svg" width="48.447" height="46.55" viewBox="0 0 48.447 46.55">
  <g id="Group_26" data-name="Group 26" transform="translate(-280.832 -185.919)">
    <path id="Path_62" data-name="Path 62" d="M123.626-755.856v-4.787H140.1" transform="translate(159.117 955.339)" fill="none" stroke="#fff" stroke-width="1.55"/>
    <path id="Path_63" data-name="Path 63" d="M418.1-760.643h16.552v21.826" transform="translate(-107.523 955.339)" fill="none" stroke="#fff" stroke-width="1.55"/>
    <path id="Path_64" data-name="Path 64" d="M123.626-692.82v24.909" transform="translate(159.117 893.926)" fill="none" stroke="#fff" stroke-width="1.55"/>
    <path id="Path_65" data-name="Path 65" d="M117.773-429.257h-6.166v3.976a2.014,2.014,0,0,0,.475,1.139,2.677,2.677,0,0,0,1.229.565h37.161" transform="translate(170 655.271)" fill="none" stroke="#fff" stroke-width="1.55"/>
    <line id="Line_81" data-name="Line 81" x2="39.883" transform="translate(284.999 223.062)" fill="none" stroke="#fff" stroke-width="1.55"/>
    <line id="Line_82" data-name="Line 82" y2="6.143" transform="translate(304.94 214.556)" fill="none" stroke="#fff" stroke-width="1.55"/>
    <path id="Path_66" data-name="Path 66" d="M271.08-722.121h-3.62V-735.54l6.99-2.122h2.559l7.49,2.122v13.419h-3.485" transform="translate(28.876 934.529)" fill="none" stroke="#fff" stroke-width="1.55"/>
    <line id="Line_83" data-name="Line 83" y2="18.146" transform="translate(309.855 202.553)" fill="none" stroke="#fff" stroke-width="1.55"/>
    <line id="Line_84" data-name="Line 84" y2="18.146" transform="translate(300.026 202.553)" fill="none" stroke="#fff" stroke-width="1.55"/>
    <path id="Path_67" data-name="Path 67" d="M321.977-835.132l-1.685-2.122v-8.051h5.43a4.946,4.946,0,0,1,1.311.687,1.448,1.448,0,0,1,.5.874v6.491l-2.434,2.122" transform="translate(-18.962 1032)" fill="none" stroke="#fff" stroke-width="1.55"/>
    <line id="Line_85" data-name="Line 85" x2="7.183" transform="translate(301.349 189.606)" fill="none" stroke="#fff" stroke-width="1.55"/>
    <path id="Path_68" data-name="Path 68" d="M546.59-513.391v7.924h1.379v4.327a2.025,2.025,0,0,1-.461.888,2.3,2.3,0,0,1-.919.491h-4.868" transform="translate(-219.466 731.454)" fill="none" stroke="#fff" stroke-width="1.55"/>
    <path id="Path_69" data-name="Path 69" d="M193.5-429.257h14.792" transform="translate(95.85 655.271)" fill="none" stroke="#fff" stroke-width="1.55"/>
    <path id="Path_70" data-name="Path 70" d="M365.859-429.257h21.408" transform="translate(-60.223 655.271)" fill="none" stroke="#fff" stroke-width="1.55"/>
    <path id="Path_71" data-name="Path 71" d="M306.5-429.257l.679,2.871h8.176l1-2.871" transform="translate(-6.474 655.271)" fill="none" stroke="#fff" stroke-width="1.55"/>
    <line id="Line_86" data-name="Line 86" y2="6.805" transform="translate(285.944 213.894)" fill="none" stroke="#fff" stroke-width="1.55"/>
    <line id="Line_87" data-name="Line 87" y2="7.183" transform="translate(324.22 196.883)" fill="none" stroke="#fff" stroke-width="1.55"/>
    <line id="Line_88" data-name="Line 88" x2="6.521" transform="translate(319.589 228.827)" fill="none" stroke="#fff" stroke-width="1.55"/>
    <line id="Line_89" data-name="Line 89" x2="9.829" transform="translate(300.026 210.87)" fill="none" stroke="#fff" stroke-width="1.55"/>
    <line id="Line_90" data-name="Line 90" y2="4.158" transform="translate(292.938 208.791)" fill="none" stroke="#fff" stroke-width="1.55"/>
    <line id="Line_91" data-name="Line 91" y2="4.158" transform="translate(317.038 208.791)" fill="none" stroke="#fff" stroke-width="1.55"/>
    <line id="Line_92" data-name="Line 92" y2="6.143" transform="translate(304.94 202.556)" fill="none" stroke="#fff" stroke-width="1.55"/>
  </g>
</svg>
