<svg xmlns="http://www.w3.org/2000/svg" width="46" height="46.004" viewBox="0 0 46 46.004">
  <g id="blueprint" transform="translate(0 512.045)">
    <path id="Path_248" data-name="Path 248" d="M37.779-511.888a1.894,1.894,0,0,0-.854.845c-.09.18-.782,1.842-1.518,3.7a20.5,20.5,0,0,0-1.357,3.791v.4l-10.35-.018-10.341-.027-.126-.62a6.762,6.762,0,0,0-5.22-5.166,9.483,9.483,0,0,0-2.848.036,7.684,7.684,0,0,0-2.632,1.258,6.926,6.926,0,0,0-2.354,3.6C0-503.407,0-503.011,0-487.558s0,15.848.18,16.522a6.784,6.784,0,0,0,4.834,4.825c.656.162,1.213.171,20.835.171H46v-37.105H43.035v-.521c0-.458-.153-.9-1.312-3.791-1.429-3.576-1.491-3.72-1.779-4.025A2.034,2.034,0,0,0,37.779-511.888Zm2.165,4.3c.611,1.527,1.114,2.8,1.114,2.839a20.7,20.7,0,0,1-2.507.072H36.045l1.123-2.812a29.6,29.6,0,0,1,1.258-2.911.25.25,0,0,1,.279-.036A26.079,26.079,0,0,1,39.945-507.584ZM7.6-507.45a5.429,5.429,0,0,1,4.016,3.585l.2.584.027,13.117.027,13.117-.431-.413A6.556,6.556,0,0,0,7.053-479.4a6.506,6.506,0,0,0-5,1.842l-.521.494V-490c0-12.6.009-12.955.18-13.629A5.151,5.151,0,0,1,7.6-507.45Zm30.223,12.12v7.727H35.668v-15.453h2.156Zm3.684,0v7.727H39.352v-15.453h2.156Zm-7.457,2.965c0,6.316.027,9.389.1,9.7a2.272,2.272,0,0,0,1.15,1.545l.476.252h2.8c2.516,0,2.83-.018,3.154-.171a2.388,2.388,0,0,0,1.132-1.132c.162-.341.171-.854.171-9.91v-9.541h1.438v34.051H11.033l.593-.638a4.6,4.6,0,0,0,.593-.719,13.33,13.33,0,0,1,2.066-.081h2.066V-472.5l.467-.162c.261-.09.728-.288,1.051-.44l.593-.288,1.285,1.276,1.276,1.267,2.668-2.677,2.677-2.668-1.276-1.276-1.276-1.285.2-.359c.1-.2.3-.665.431-1.033l.243-.674,1.761-.027,1.761-.018v-7.457l-1.761-.018-1.752-.027-.3-.764a9.839,9.839,0,0,0-.431-1.033l-.153-.27,1.276-1.285,1.276-1.276-2.677-2.668-2.668-2.677-1.276,1.276-1.285,1.276-.359-.2c-.2-.1-.665-.3-1.033-.431l-.674-.243-.027-1.761-.018-1.761H13.387v-1.437H34.051Zm-19.227-4.681v1.608l.3.063a14.348,14.348,0,0,1,3.351,1.393l.27.171,1.114-1.114,1.123-1.123,1.545,1.545,1.554,1.554-1.123,1.123c-1.06,1.06-1.114,1.141-1,1.312a14.264,14.264,0,0,1,1.24,2.749l.3.97h3.189v4.4H23.467l-.063.288a13.721,13.721,0,0,1-1.411,3.378l-.189.305,1.114,1.114,1.114,1.114-1.527,1.527-1.527,1.527-1.123-1.114-1.123-1.123-.584.35a13.879,13.879,0,0,1-2.848,1.168l-.476.108v3.216H13.045l.135-.476a14.207,14.207,0,0,0,.18-2.947l.045-2.48.5-.063a8.232,8.232,0,0,0,1.312-.332,8.147,8.147,0,0,0,5.409-6.02,10.75,10.75,0,0,0,0-3.477,8.2,8.2,0,0,0-6.451-6.3l-.791-.144v-5.885h1.438Zm.063,6.244a6.079,6.079,0,0,1,2.363,1.581,6.248,6.248,0,0,1,1.68,2.65,4.752,4.752,0,0,1,.243,1.977,4.743,4.743,0,0,1-.234,1.95,6.149,6.149,0,0,1-1.725,2.722,6.346,6.346,0,0,1-3.576,1.878l-.252.054V-479.4l.476-.108a5.1,5.1,0,0,0,.943-.323l.476-.225-.323-.557c-.171-.314-.35-.62-.4-.692-.063-.108-.153-.1-.53.063a3.03,3.03,0,0,1-.548.2,22,22,0,0,1-.1-3.549v-3.549l.252.054a3.705,3.705,0,0,1,1.995,1.482,3.538,3.538,0,0,1,.081,3.9,1.06,1.06,0,0,0-.225.539,4.894,4.894,0,0,0,1.1.943,4.332,4.332,0,0,0,.809-1.258,5.3,5.3,0,0,0-1.509-6.181,5.662,5.662,0,0,0-1.869-.952c-.665-.135-.629-.09-.629-.854v-.7l.467.081A8.749,8.749,0,0,1,14.887-490.8Zm26.621,6.3c0,1.626-.054,1.869-.476,2.021a29.211,29.211,0,0,1-4.941-.018c-.4-.207-.413-.314-.422-1.941v-1.545h5.84ZM7.861-477.711a5.3,5.3,0,0,1,3.827,3.854,5.921,5.921,0,0,1-.09,2.605,5.275,5.275,0,0,1-5.31,3.657,5.2,5.2,0,0,1-4.735-4.735A5.26,5.26,0,0,1,3.9-477.011,4.925,4.925,0,0,1,7.861-477.711Z" fill="#fff"/>
    <path id="Path_249" data-name="Path 249" d="M313-143.789v5.211h14.914V-149H313Zm13.387,0v3.684h-11.77v-7.367h11.77Z" transform="translate(-284.879 -330.427)" fill="#fff"/>
    <path id="Path_250" data-name="Path 250" d="M346-115.236v.764h1.617V-116H346Z" transform="translate(-314.914 -360.462)" fill="#fff"/>
    <path id="Path_251" data-name="Path 251" d="M379-115.236v.764h6.02V-116H379Z" transform="translate(-344.949 -360.462)" fill="#fff"/>
    <path id="Path_252" data-name="Path 252" d="M346-82.236v.764h6.02V-83H346Z" transform="translate(-314.914 -390.498)" fill="#fff"/>
    <path id="Path_253" data-name="Path 253" d="M429-82.236v.764h1.527V-83H429Z" transform="translate(-390.457 -390.498)" fill="#fff"/>
    <path id="Path_254" data-name="Path 254" d="M36.168-115.753a3.8,3.8,0,0,0-2.39,2.012,2.638,2.638,0,0,0-.279,1.572,2.656,2.656,0,0,0,.287,1.59,3.753,3.753,0,0,0,2.92,2.12l.521.036v-.773c0-.692-.018-.773-.162-.773a2.428,2.428,0,0,1-1.411-.674,2.089,2.089,0,0,1-.018-3.01,2.143,2.143,0,0,1,3.639,1.105l.072.377.782.027.782.027v-.252a3.227,3.227,0,0,0-.126-.7A3.739,3.739,0,0,0,36.168-115.753Z" transform="translate(-30.49 -360.566)" fill="#fff"/>
  </g>
</svg>
