<svg xmlns="http://www.w3.org/2000/svg" width="46" height="45.987" viewBox="0 0 46 45.987">
  <g id="domain" transform="translate(0 511.856)">
    <path id="Path_248" data-name="Path 248" d="M193.324-511.77a16.02,16.02,0,0,0-2.884.584c-.332.171-.44.386-.44.871a.909.909,0,0,0,.683.925,5.243,5.243,0,0,0,1.285-.126c.575-.108,1.509-.234,2.075-.288a9.605,9.605,0,0,0,1.276-.189.89.89,0,0,0,.521-.889C195.84-511.806,195.31-512,193.324-511.77Z" transform="translate(-172.93)" fill="#fff"/>
    <path id="Path_249" data-name="Path 249" d="M299.575-506.386a.921.921,0,0,0-.575.925c0,.638.288.862,1.554,1.195.584.153,1.491.44,2,.629,1.141.44,1.455.449,1.851.1a.714.714,0,0,0,.3-.71.825.825,0,0,0-.207-.674,10.607,10.607,0,0,0-2.974-1.186C300.15-506.494,299.907-506.53,299.575-506.386Z" transform="translate(-272.137 -4.908)" fill="#fff"/>
    <path id="Path_250" data-name="Path 250" d="M95.234-482.378a19.193,19.193,0,0,0-2.848,1.968c-.35.323-.386.4-.386.782a.878.878,0,0,0,.261.71.682.682,0,0,0,.656.3c.341,0,.5-.081,1.33-.683.521-.377,1.339-.925,1.824-1.2a5.786,5.786,0,0,0,1.015-.71,1.112,1.112,0,0,0-.117-1.222C96.546-482.908,96.151-482.9,95.234-482.378Z" transform="translate(-83.734 -26.464)" fill="#fff"/>
    <path id="Path_251" data-name="Path 251" d="M397.546-458.766a.975.975,0,0,0-.279,1.114,2.157,2.157,0,0,0,.53.6c.225.18.961.871,1.635,1.527,1.177,1.15,1.24,1.195,1.608,1.195a.786.786,0,0,0,.683-.305.8.8,0,0,0,.305-.728c0-.413-.009-.431-1.051-1.5-.584-.593-1.357-1.321-1.716-1.608-.575-.467-.71-.53-1.051-.53A.916.916,0,0,0,397.546-458.766Z" transform="translate(-361.51 -48.108)" fill="#fff"/>
    <path id="Path_252" data-name="Path 252" d="M80.537-448.3a16.972,16.972,0,0,0-8.49,2.911,17.341,17.341,0,0,0-7.3,10.916,12.284,12.284,0,0,0-.243,3.414,12.284,12.284,0,0,0,.243,3.414,17.274,17.274,0,0,0,13.593,13.53,11.974,11.974,0,0,0,3.369.252,11.85,11.85,0,0,0,3.351-.243,17.33,17.33,0,0,0,4.241-1.437,17.272,17.272,0,0,0,9.371-12.1,12.284,12.284,0,0,0,.243-3.414,12.284,12.284,0,0,0-.243-3.414A17.338,17.338,0,0,0,87.087-447.49,17.83,17.83,0,0,0,80.537-448.3Zm.18,5.822v3.684l-.512-.045a21.713,21.713,0,0,1-4.268-.809l-.422-.135.144-.377a15.688,15.688,0,0,1,2.354-4.169,6.149,6.149,0,0,1,2.6-1.824C80.69-446.151,80.717-445.361,80.717-442.477Zm2.65-3.459a7.521,7.521,0,0,1,2.9,2.776,24.572,24.572,0,0,1,1.491,3l.144.377-.584.18a21.147,21.147,0,0,1-3.369.683c-.368.027-.809.072-.961.1l-.3.045v-3.693c0-2.884.027-3.684.117-3.684A2.7,2.7,0,0,1,83.367-445.936Zm-7.385.88a17.464,17.464,0,0,0-2.138,3.89,4.108,4.108,0,0,1-.225.521c-.09.1-.836-.279-1.779-.9l-.755-.485.44-.386a14.917,14.917,0,0,1,3.666-2.444C76.126-445.307,76.234-445.334,75.982-445.055Zm12.228.189a16.324,16.324,0,0,1,3.827,2.561l.305.27-.755.494c-1.339.863-1.887,1.078-1.887.755a17.589,17.589,0,0,0-2.1-4.052,1.288,1.288,0,0,1-.27-.413A8.535,8.535,0,0,1,88.21-444.867Zm-17.546,5a15.773,15.773,0,0,0,1.545.88c.431.216.782.4.782.4s-.1.467-.225,1.006a34.291,34.291,0,0,0-.674,5.409c0,.09-.629.117-2.83.117h-2.83l.036-.207a7.339,7.339,0,0,0,.1-.782,15.7,15.7,0,0,1,1.986-5.777c.548-.907,1.132-1.68,1.24-1.617C69.846-440.392,70.232-440.141,70.663-439.862Zm23.836.494a15.141,15.141,0,0,1,2.435,7.026l.036.3h-2.83a26.091,26.091,0,0,1-2.821-.072,33.951,33.951,0,0,0-.719-5.624c-.1-.431-.18-.791-.18-.809a8.461,8.461,0,0,1,.88-.476c.485-.252,1.222-.674,1.635-.952l.764-.512.162.2C93.942-440.177,94.238-439.764,94.5-439.368ZM76.512-437.4a24.687,24.687,0,0,0,3.468.557l.737.063v4.735H74.068l.036-.207c.027-.108.063-.629.1-1.15a22.988,22.988,0,0,1,.5-3.558l.189-.907.35.117C75.434-437.679,76-437.526,76.512-437.4Zm12.425,1.725c.117.692.243,1.707.27,2.246s.072,1.069.1,1.177l.036.207H82.693v-4.735l.746-.063a23.217,23.217,0,0,0,4.708-.9l.341-.117.117.458C88.668-437.149,88.812-436.376,88.938-435.676Zm-16.81,6.3a34.928,34.928,0,0,0,.809,5.6c.054.207,0,.252-.728.629-.431.216-1.168.656-1.635.961s-.863.566-.871.566-.314-.431-.665-.952a14.937,14.937,0,0,1-2.543-7.116l-.045-.377h5.624Zm8.589,1.671v2.363l-1.141.108a22.031,22.031,0,0,0-4.007.773l-.665.207-.2-.907a25,25,0,0,1-.5-3.558c-.027-.467-.072-.961-.09-1.105l-.036-.243h6.639Zm8.58-2.12c-.018.144-.063.638-.09,1.105a25,25,0,0,1-.5,3.558l-.2.907-.665-.207a22.078,22.078,0,0,0-4-.773l-1.15-.108v-4.726h6.648Zm7.619.18a16.489,16.489,0,0,1-1.384,5.058,22.3,22.3,0,0,1-1.824,2.965c-.009,0-.4-.252-.871-.566s-1.2-.746-1.635-.961c-.728-.377-.782-.422-.728-.629a34.927,34.927,0,0,0,.809-5.6l.054-.692h5.624Zm-16.2,10c0,3.019-.018,3.684-.117,3.684a5.207,5.207,0,0,1-1.7-.961,8.987,8.987,0,0,1-1.761-2.03,24.572,24.572,0,0,1-1.491-3l-.144-.377.611-.18a20.317,20.317,0,0,1,4.4-.8l.2-.018Zm4.043-3.45a17.3,17.3,0,0,1,2.534.584l.611.18-.144.377a24.572,24.572,0,0,1-1.491,3,8.987,8.987,0,0,1-1.761,2.03,5.207,5.207,0,0,1-1.7.961c-.1,0-.117-.665-.117-3.684v-3.693l.611.063C83.637-423.25,84.293-423.169,84.76-423.1Zm-11.078,1.716a17.649,17.649,0,0,0,2.048,3.971c.377.512.386.539.162.449a16.579,16.579,0,0,1-2.677-1.437,9.41,9.41,0,0,1-2.021-1.7,11.644,11.644,0,0,1,2.363-1.437C73.592-421.534,73.646-421.462,73.682-421.381Zm16.909.225a6.819,6.819,0,0,1,1.626,1.069,9.825,9.825,0,0,1-2.048,1.707,16.2,16.2,0,0,1-2.731,1.455c-.1.036-.009-.153.243-.485a17.649,17.649,0,0,0,2.048-3.971c.036-.081.09-.153.117-.153A6.729,6.729,0,0,1,90.591-421.157Z" transform="translate(-58.705 -57.812)" fill="#fff"/>
    <path id="Path_253" data-name="Path 253" d="M26.2-410.656a14.367,14.367,0,0,0-2.03,3.037c-.494.943-.575,1.375-.305,1.788a1.063,1.063,0,0,0,1.438.216,4.978,4.978,0,0,0,.683-1.051c.243-.476.728-1.312,1.078-1.842.512-.782.629-1.042.629-1.321A.984.984,0,0,0,26.2-410.656Z" transform="translate(-21.577 -91.977)" fill="#fff"/>
    <path id="Path_254" data-name="Path 254" d="M466.326-373.922c-.386.4-.35.746.234,2.156.27.665.584,1.491.692,1.842.252.862.386,1.105.7,1.267a.939.939,0,0,0,1.438-.854,12.98,12.98,0,0,0-1.716-4.429A.977.977,0,0,0,466.326-373.922Z" transform="translate(-424.198 -125.288)" fill="#fff"/>
    <path id="Path_255" data-name="Path 255" d="M.692-309.827a1.183,1.183,0,0,0-.323.476A17.941,17.941,0,0,0,0-305.82c0,1.123,0,1.132.261,1.393a.769.769,0,0,0,.656.261c.818,0,1.015-.35,1.1-1.977.027-.665.108-1.617.18-2.111.144-1,.081-1.33-.314-1.608A1.169,1.169,0,0,0,.692-309.827Z" transform="translate(0 -183.714)" fill="#fff"/>
    <path id="Path_256" data-name="Path 256" d="M487.591-267.518a1.073,1.073,0,0,0-.449.305c-.243.252-.252.305-.323,1.545-.036.7-.126,1.716-.2,2.246-.126.845-.126,1.015-.018,1.276a1,1,0,0,0,1.833-.063,18.534,18.534,0,0,0,.377-3.666c0-1.114-.009-1.15-.234-1.384a.932.932,0,0,0-.341-.234,2.145,2.145,0,0,1-.279-.036A1.017,1.017,0,0,0,487.591-267.518Z" transform="translate(-442.813 -222.367)" fill="#fff"/>
    <path id="Path_257" data-name="Path 257" d="M9.2-200.82c-.431.341-.449.7-.108,1.833a14.625,14.625,0,0,0,1.438,3.378,1.116,1.116,0,0,0,.62.243c.377.045.431.027.728-.27.431-.431.413-.737-.1-1.914-.225-.512-.548-1.393-.728-1.95-.386-1.213-.62-1.5-1.231-1.5A1.015,1.015,0,0,0,9.2-200.82Z" transform="translate(-8.058 -282.928)" fill="#fff"/>
    <path id="Path_258" data-name="Path 258" d="M445.868-160.755a3.226,3.226,0,0,0-.764,1.087c-.27.5-.746,1.3-1.06,1.779-.71,1.051-.791,1.258-.647,1.68a.933.933,0,0,0,.97.674.775.775,0,0,0,.728-.341,21.549,21.549,0,0,0,1.869-2.938c.557-1.042.512-1.635-.153-1.977A.841.841,0,0,0,445.868-160.755Z" transform="translate(-403.507 -319.409)" fill="#fff"/>
    <path id="Path_259" data-name="Path 259" d="M60.655-104.775a.928.928,0,0,0-.287,1.069,20.136,20.136,0,0,0,3.046,3.091c.845.611,1.716.207,1.716-.8,0-.314-.054-.4-.467-.782-.261-.234-1.024-.961-1.7-1.617-1.2-1.168-1.231-1.186-1.635-1.186A.893.893,0,0,0,60.655-104.775Z" transform="translate(-54.887 -370.303)" fill="#fff"/>
    <path id="Path_260" data-name="Path 260" d="M364.329-74.389c-.44.332-1.249.862-1.8,1.195-.791.467-1.024.656-1.159.925a.717.717,0,0,0-.063.683c.243.809.916.934,1.923.341a22.084,22.084,0,0,0,2.911-2.013c.35-.332.386-.4.386-.791a.776.776,0,0,0-.261-.692.784.784,0,0,0-.7-.261C365.182-74.991,365.056-74.937,364.329-74.389Z" transform="translate(-328.796 -397.608)" fill="#fff"/>
    <path id="Path_261" data-name="Path 261" d="M149.261-40.691a.776.776,0,0,0-.261.665c0,.611.261.862,1.321,1.267a16.075,16.075,0,0,0,3.4.952.96.96,0,0,0,.916-1.375c-.171-.4-.279-.458-1.617-.827-.6-.162-1.473-.449-1.932-.62C150.024-41.032,149.62-41.05,149.261-40.691Z" transform="translate(-135.613 -428.602)" fill="#fff"/>
    <path id="Path_262" data-name="Path 262" d="M260.273-27.326c-.44.09-1.348.216-2.013.279-1.114.1-1.231.126-1.482.359-.243.216-.279.305-.279.71a.722.722,0,0,0,.3.728c.252.225.359.261.854.261a19.216,19.216,0,0,0,3.118-.377c.934-.171,1.06-.216,1.339-.494a.623.623,0,0,0,.252-.71C262.268-27.434,261.72-27.623,260.273-27.326Z" transform="translate(-233.455 -440.879)" fill="#fff"/>
  </g>
</svg>
