<svg xmlns="http://www.w3.org/2000/svg" width="46" height="45.994" viewBox="0 0 46 45.994">
  <g id="governanceFrameWrok" transform="translate(0 512)">
    <path id="Path_263" data-name="Path 263" d="M.243-511.748,0-511.5v8.948l.252.243c.234.243.332.261,4.286.809,2.228.305,4.2.62,4.4.692.647.234.647.234.171.809a18.639,18.639,0,0,0-2.857,5.211A17.878,17.878,0,0,0,7.8-479.926a19.31,19.31,0,0,0,2.471,3.207l.809.836-.458.4a3.418,3.418,0,0,0-.6,4.277,5.538,5.538,0,0,0,.656.728c.4.359.889.584,4.277,1.995,3.836,1.59,4.429,1.788,5.579,1.9,1.006.1,1.86-.081,5.8-1.177,4.4-1.231,4.474-1.24,6.586-.764a13.344,13.344,0,0,0,1.563.279.943.943,0,0,0,.314-1.779,31.627,31.627,0,0,0-3.441-.7c-.934-.09-1.707.072-5.66,1.186-3.675,1.024-3.746,1.042-4.672,1.042a5.011,5.011,0,0,1-1.357-.126c-.225-.072-2-.791-3.953-1.6-3.854-1.6-4.133-1.761-4.259-2.453a1.452,1.452,0,0,1,1.653-1.743c.135.027,1.536.575,3.118,1.213s3.091,1.24,3.36,1.321a9.267,9.267,0,0,0,3.019.144c.341-.054,1.6-.377,2.785-.728,2.435-.719,2.552-.791,2.552-1.491a.878.878,0,0,0-.8-.934,24.79,24.79,0,0,0-2.417.638c-1.986.584-2.183.629-2.516.53a1.48,1.48,0,0,1-1.006-2.147c.323-.638.539-.746,3.881-1.869l3.171-1.06h1.258a4.508,4.508,0,0,1,1.842.207,7.134,7.134,0,0,1,2.381,1.509,8.513,8.513,0,0,0,2.57,1.68c.27.09,2.147.386,4.169.674l3.684.512.027,3.082c.009,1.689.009,3.073-.009,3.073s-.386-.081-.836-.18c-1.141-.252-1.572-.243-1.869.054a1.011,1.011,0,0,0,0,1.33,1.15,1.15,0,0,0,.3.234c.027,0,.719.144,1.527.314,1.833.4,2.138.4,2.462.063L46-466.5v-8.948l-.243-.243c-.243-.243-.341-.261-4.339-.818a28.276,28.276,0,0,1-4.555-.773l-.476-.207.665-.88a17.465,17.465,0,0,0,3.423-12.695,17.638,17.638,0,0,0-4.816-10.188l-.782-.827.476-.422a3.4,3.4,0,0,0,.629-4.295,5.538,5.538,0,0,0-.656-.728c-.4-.359-.889-.584-4.277-1.995-3.836-1.59-4.429-1.788-5.579-1.9-1.006-.1-1.86.072-5.8,1.177-3.477.979-3.773,1.042-4.528,1.042-.71,0-1.626-.171-7.358-1.4-3.6-.773-6.711-1.4-6.918-1.4A.708.708,0,0,0,.243-511.748Zm7.933,3.171c5.651,1.2,6.029,1.276,6.963,1.276,1.123,0,.827.063,5.57-1.267,3.351-.934,3.432-.952,4.313-.943a5.682,5.682,0,0,1,1.312.135c1.1.359,7.511,3.1,7.771,3.333a1.422,1.422,0,0,1-1.078,2.462,33.215,33.215,0,0,1-3.243-1.213c-1.581-.647-3.1-1.24-3.369-1.321a9.991,9.991,0,0,0-3.154-.144c-.305.063-1.509.4-2.677.737-2.408.71-2.525.782-2.525,1.482a.878.878,0,0,0,.8.934,23.985,23.985,0,0,0,2.426-.638c1.986-.584,2.174-.629,2.516-.53a1.638,1.638,0,0,1,1.213,1.653,1.837,1.837,0,0,1-.8,1.177c-.2.117-1.8.683-3.549,1.267l-3.189,1.069H16.352a3.711,3.711,0,0,1-1.635-.207A11.277,11.277,0,0,1,12.03-501.1a7.608,7.608,0,0,0-2.372-1.5c-.243-.081-2.1-.377-4.133-.665l-3.684-.512-.027-3.091L1.8-509.952l.2.045C2.111-509.88,4.888-509.278,8.176-508.577Zm21.428,5.75c2.821,1.132,3.019,1.258,4.456,2.686a15.779,15.779,0,0,1,4.528,9.254,7.34,7.34,0,0,0,.1.782l.036.207H30.035l-.054-1.285a32.348,32.348,0,0,0-2.659-11.743c-.225-.467-.431-.889-.449-.934s.027-.063.09-.036S28.22-503.384,29.6-502.827Zm-3.028,3.136a34.331,34.331,0,0,1,1.518,8.553l.054,1.24H17.789v-.674a39.653,39.653,0,0,1,.827-6.4l.1-.557,3.127-1.042c3.145-1.051,3.711-1.3,4.151-1.842.108-.135.225-.225.252-.189A6.54,6.54,0,0,1,26.576-499.691ZM12.74-498.173a6.609,6.609,0,0,0,3.1.979c.871.045.88.045.836.252a40.1,40.1,0,0,0-.746,5.759l-.054,1.285h-8.7l.054-.521a16.021,16.021,0,0,1,3.45-8.481l.4-.5.467.4A11.117,11.117,0,0,0,12.74-498.173ZM15.9-487.311a39.659,39.659,0,0,0,.5,5.049,26.145,26.145,0,0,0,2.327,7.43c.216.413.377.746.368.746s-.413-.162-.871-.35-1.707-.7-2.767-1.123a7.589,7.589,0,0,1-2.623-1.366,16.043,16.043,0,0,1-3.657-4.438,16.133,16.133,0,0,1-1.95-6.271l-.054-.467H15.9Zm12.192.575a42.927,42.927,0,0,1-.611,5.256l-.189,1.006-3.127,1.042c-3.252,1.087-3.594,1.24-4.187,1.914l-.27.323-.377-1.132a33.631,33.631,0,0,1-1.545-8.993v-.782H28.148Zm10.575-.943A16.05,16.05,0,0,1,35.2-479.09l-.359.422-.332-.3a7.278,7.278,0,0,0-4.393-1.833c-.791-.054-.836-.063-.791-.243a39.318,39.318,0,0,0,.656-5.651l.054-1.411h8.688Z" fill="#fff"/>
    <path id="Path_264" data-name="Path 264" d="M416.818-35.865a1,1,0,0,0-.3,1.069.859.859,0,0,0,.934.593.638.638,0,0,0,.629-.279A.9.9,0,0,0,417.4-36,1.272,1.272,0,0,0,416.818-35.865Z" transform="translate(-379.057 -433.234)" fill="#fff"/>
  </g>
</svg>
