<svg xmlns="http://www.w3.org/2000/svg" width="46" height="50.932" viewBox="0 0 46 50.932">
  <g id="Improvements" transform="translate(-25.052 512)">
    <path id="Path_265" data-name="Path 265" d="M46.065-511.791a2.372,2.372,0,0,0-1.094,1.174,3.193,3.193,0,0,0,.06,2.039,2.07,2.07,0,0,0,1.393,1.1c.836.139.885.06-1.383,2.238-1.154,1.124-2.139,2.039-2.168,2.039s-.716-.328-1.5-.726c-1.273-.637-1.482-.716-2-.716a2.009,2.009,0,0,0-1.074.269c-.716.4-12.772,12.563-13.051,13.18a2.919,2.919,0,0,0-.05,1.95A2.431,2.431,0,0,0,28-487.928c.448-.119.875-.527,6.167-5.8l5.69-5.68,1.4.716c1.293.666,1.432.716,2.009.716a2.6,2.6,0,0,0,1.034-.189,34.753,34.753,0,0,0,3.352-3.034c1.621-1.562,2.994-2.845,3.044-2.845a1.112,1.112,0,0,1,.139.547,2.894,2.894,0,0,0,.855,1.731,2.391,2.391,0,0,0,3.531-.985c.2-.428.209-.6.209-4.029,0-3.531,0-3.591-.229-4.048a2.1,2.1,0,0,0-1.2-1.054A28.492,28.492,0,0,0,50.074-512C46.622-512,46.463-511.99,46.065-511.791Zm7.251,1.383c.557.159.587.4.557,3.919l-.03,3.024-.239.259a.634.634,0,0,1-1.015,0c-.229-.239-.239-.338-.288-1.8-.06-1.721-.1-1.82-.776-1.82-.288,0-.458.119-1.154.776-.438.428-2.139,2.069-3.77,3.631-2.437,2.357-3.014,2.855-3.243,2.855a9.786,9.786,0,0,1-1.82-.8,6.388,6.388,0,0,0-1.9-.8c-.328,0-.666.318-6.147,5.819-3.283,3.292-5.909,5.849-6.038,5.889a.723.723,0,0,1-.8-.706c-.03-.378,0-.408,5.56-6.008,3.074-3.1,5.869-5.919,6.207-6.267.458-.448.7-.617.885-.617a11.291,11.291,0,0,1,1.94.865c1.373.706,1.711.845,1.94.786a18.752,18.752,0,0,0,2.576-2.278c4.635-4.456,4.247-4.058,4.247-4.476,0-.666-.209-.766-1.592-.766s-1.84-.129-1.95-.537a.716.716,0,0,1,.388-.905A40.933,40.933,0,0,1,53.317-510.408Z" fill="#fff"/>
    <path id="Path_266" data-name="Path 266" d="M62.334-456.635a3.559,3.559,0,0,0-2.537,1.97l-.219.468-.03,11.757-.02,11.757-.378.109a3.331,3.331,0,0,1-.637.1h-.279l-.02-8.236-.03-8.226-.328-.666a3.32,3.32,0,0,0-1.6-1.592c-.418-.209-.6-.229-2.1-.229-1.552,0-1.671.01-2.129.249A3.731,3.731,0,0,0,50.4-447.5l-.269.567-.05,4.208-.05,4.208-.617.338-.627.348v-1.522c0-1.84-.109-2.228-.806-2.994-.716-.786-1.223-.975-2.785-1.035-2.5-.09-3.631.4-4.307,1.86-.2.438-.209.637-.239,4.237l-.03,3.78-1.194.627a19.325,19.325,0,0,1-4.6,1.611c-1.87.537-3.591,1.044-3.82,1.124a4.66,4.66,0,0,0-2.457,2.168c-.706,1.283-.736,2.417-.119,4.785.448,1.721.637,2.159.935,2.178.686.05,1.015-.169,1.015-.676a15.048,15.048,0,0,0-.408-1.95,7.052,7.052,0,0,1-.368-2.318,3.028,3.028,0,0,1,1.81-2.606,67.723,67.723,0,0,1,6.625-1.84c.04.04,1.144,2.914,2.437,6.386l2.357,6.316-.04.746a3.178,3.178,0,0,1-1.771,2.745,27.812,27.812,0,0,1-2.934.8,11.973,11.973,0,0,1-3.183.527,2.644,2.644,0,0,1-1.89-.846c-.547-.567-.706-.955-1.293-3.193-.527-1.989-.686-2.367-1.044-2.407-.577-.08-.995.209-.995.676,0,.288.766,3.342,1.054,4.228a4.6,4.6,0,0,0,2.407,2.735c1.363.666,2.775.567,6.824-.487,1.82-.467,2.427-.756,3.173-1.492a4.633,4.633,0,0,0,1.343-3.541l-.04-.627.358-.1c.189-.05,3.909-.965,8.256-2.029s8.127-2.009,8.405-2.1a10.6,10.6,0,0,0,2.576-1.333c.935-.686,8.316-6.774,8.714-7.192a4.5,4.5,0,0,0,.647-.9,2.255,2.255,0,0,0,.3-1.522,2.805,2.805,0,0,0-.269-1.562,3.745,3.745,0,0,0-1.711-1.771,3.526,3.526,0,0,0-3.362.129l-.676.328v-6.177c0-6.107,0-6.2-.209-6.456a.788.788,0,0,0-1.144-.05c-.179.2-.189.5-.239,7.033l-.05,6.824-.746.577a31.448,31.448,0,0,1-4.118,2.765c-.03,0-.05-5.073-.04-11.28l.03-11.28.308-.388c.547-.676.826-.776,2.129-.776,1.223.01,1.522.09,1.96.567s.527.875.527,2.367c0,1.353.01,1.413.249,1.641a.735.735,0,0,0,1.1-.01l.259-.249-.04-1.661c-.03-1.651-.03-1.671-.358-2.328a3.247,3.247,0,0,0-1.8-1.671A8.276,8.276,0,0,0,62.334-456.635Zm-6.7,8.942a1.576,1.576,0,0,1,.865.935c.129.318.149,1.393.149,8.375v8.007H54.257a18.938,18.938,0,0,1-2.387-.08,8.135,8.135,0,0,1,.995-.9,11.447,11.447,0,0,0,1.432-1.383c1.233-1.572,1.81-3.82,1.283-5.013a2.971,2.971,0,0,0-2.735-1.781,3.4,3.4,0,0,0-.925.1l-.259.1.03-3.661.03-3.661.269-.418c.438-.657.826-.806,2.149-.816A3.1,3.1,0,0,1,55.63-447.692Zm-9.161,6.137a2.93,2.93,0,0,1,.507.537c.209.308.219.418.219,2.178v1.85l-1.472.766c-.806.428-1.92,1.025-2.487,1.323l-1.025.547.03-3.213c.03-3.2.03-3.2.269-3.541.418-.587.865-.716,2.367-.686C46.021-441.764,46.22-441.734,46.469-441.555Zm7.072,3.82a1.541,1.541,0,0,1,.527.637c.189.428.189.438-.01,1.194a6.405,6.405,0,0,1-2.7,3.71c-.9.716-1.154,1.2-1.044,1.95a1.872,1.872,0,0,0,1.134,1.363,66.737,66.737,0,0,0,7.331-.01,8.931,8.931,0,0,0,2.8-.855c.388-.2,2.268-1.442,4.168-2.775,3.183-2.228,3.84-2.626,4.367-2.626a2.22,2.22,0,0,1,2.049,2.049,2.445,2.445,0,0,1-.567,1.383c-.179.209-7.55,6.287-8.425,6.953a9.633,9.633,0,0,1-3.79,1.582c-4.158,1.064-15.309,3.75-15.4,3.72s-4.476-11.628-4.416-11.668c.02-.01,11.678-6.187,12.4-6.565A1.562,1.562,0,0,1,53.541-437.735Z" transform="translate(-2.651 -49.795)" fill="#fff"/>
    <path id="Path_267" data-name="Path 267" d="M90.57-92.8A3.027,3.027,0,0,0,88.9-88.57a3,3,0,0,0,4.824.6,2.988,2.988,0,0,0-1.094-4.765A3.4,3.4,0,0,0,90.57-92.8Zm1.582,1.611a1.392,1.392,0,0,1-.418,2.586,1.539,1.539,0,0,1-1.373-.676A1.362,1.362,0,0,1,92.152-91.186Z" transform="translate(-57.198 -377.385)" fill="#fff"/>
  </g>
</svg>
