<svg xmlns="http://www.w3.org/2000/svg" width="46" height="46" viewBox="0 0 46 46">
  <g id="maturity" transform="translate(0 512)">
    <path id="Path_268" data-name="Path 268" d="M148.386-511.829l-.216.171-.027,2.462a20.124,20.124,0,0,0,.063,2.713c.2.5.225.5,6.038.5h5.319l-.5.53c-.44.458-.512.584-.512.88,0,.323.144.476,4.645,4.986l4.654,4.654H179.3v1.527h1.527v-13.477H179.3v1.527h-3.162l-3.171-.009-4.043-3.315-4.043-3.315-8.14-.009C148.854-512,148.584-511.991,148.386-511.829Zm19.882,4.681,4.061,3.324H179.3v7.367H168.565l-4.07-4.07-4.061-4.061.925-.925.916-.916,1.932,1.932c1.06,1.06,1.968,1.932,2.021,1.932a4.339,4.339,0,0,0,1.033-1.033c0-.054-1.042-1.132-2.318-2.408-2.2-2.192-2.336-2.309-2.65-2.309-.27,0-.413.072-.728.359l-.386.359H149.743v-2.875h14.465Z" transform="translate(-134.829)" fill="#fff"/>
    <path id="Path_269" data-name="Path 269" d="M214.138-363.7a10.656,10.656,0,0,0-2.363.62c-.449.2-.449.225-.009,1.1l.261.512.566-.216a8.077,8.077,0,0,1,8.553,1.887,7.671,7.671,0,0,1,2.354,6.011,6.814,6.814,0,0,1-.809,3.2l-.458.943-.036-.386-.027-.377h-1.617l.027,1.671.027,1.671.252.216c.252.207.287.216,1.914.216h1.653v-1.527H223.8a2.965,2.965,0,0,1-.629-.036,4.711,4.711,0,0,1,.323-.512,9.755,9.755,0,0,0,1.581-6.352,8.789,8.789,0,0,0-.961-3.3,9,9,0,0,0-2.012-2.767A9.738,9.738,0,0,0,214.138-363.7Z" transform="translate(-192.441 -134.901)" fill="#fff"/>
    <path id="Path_270" data-name="Path 270" d="M148.719-338.236v.764h.629a2.133,2.133,0,0,1,.629.045,3.048,3.048,0,0,1-.305.467A10.3,10.3,0,0,0,148-331.543a11.532,11.532,0,0,0,.494,3.028,9.72,9.72,0,0,0,11.266,6.442,7.554,7.554,0,0,0,1.932-.665c.045-.045-.054-.359-.243-.755l-.323-.683-.449.171a9.961,9.961,0,0,1-1.824.494l-.341.063v-4.295l.836-.054a5,5,0,0,0,3.531-1.545,5.442,5.442,0,0,0,1.563-3.531,1.071,1.071,0,0,0-.4-.863,11.36,11.36,0,0,0-1.384-.054,4.944,4.944,0,0,0-4.2,1.581l-.746.746-.737-.746a4.973,4.973,0,0,0-4.214-1.581,11.36,11.36,0,0,0-1.384.054,1.071,1.071,0,0,0-.4.863,5.442,5.442,0,0,0,1.563,3.531,5.006,5.006,0,0,0,3.54,1.545l.827.054v2.147c0,1.177-.018,2.138-.045,2.138s-.359-.063-.737-.144a8.191,8.191,0,0,1-6.37-6.406,10.018,10.018,0,0,1,.1-3.513,10.484,10.484,0,0,1,.611-1.527l.458-.943.036.377.027.386h1.617l-.027-1.671-.027-1.671-.252-.216c-.252-.207-.288-.216-1.914-.216h-1.653Zm5.328,6.109a3.622,3.622,0,0,1,1.743.97,3.764,3.764,0,0,1,.97,1.581l.063.216-.755-.045a3.5,3.5,0,0,1-2.408-1.051,4.309,4.309,0,0,1-.988-1.7C152.672-332.307,153.409-332.3,154.046-332.127Zm8.688-.027a4.309,4.309,0,0,1-.988,1.7,3.5,3.5,0,0,1-2.408,1.051l-.755.045.063-.216a4.009,4.009,0,0,1,1.824-2.228C161.243-332.2,162.734-332.423,162.734-332.154Z" transform="translate(-134.703 -157.457)" fill="#fff"/>
    <path id="Path_271" data-name="Path 271" d="M0-200.262v6.738H1.527v-1.527H4.7l3.162.009,4.043,3.315,4.043,3.315,8.14.009c7.888,0,8.158-.009,8.355-.171l.216-.171.027-2.462a20.124,20.124,0,0,0-.063-2.713c-.2-.5-.225-.5-6.038-.5H21.266l.5-.53c.44-.458.512-.584.512-.88,0-.323-.144-.476-4.645-4.986l-4.654-4.654H1.527V-207H0Zm16.334.386,4.061,4.061-.925.925-.916.916L16.621-195.9c-1.06-1.06-1.968-1.932-2.021-1.932a4.34,4.34,0,0,0-1.033,1.033c0,.054,1.042,1.132,2.318,2.408,2.2,2.192,2.336,2.309,2.65,2.309.27,0,.413-.072.728-.359l.386-.359H31.086v2.875H16.621l-4.061-3.324L8.5-196.578H1.527v-7.367H12.264Z" transform="translate(0 -277.598)" fill="#fff"/>
  </g>
</svg>
