<svg xmlns="http://www.w3.org/2000/svg" width="46" height="45.971" viewBox="0 0 46 45.971">
  <g id="performance" transform="translate(0 511.876)">
    <path id="Path_272" data-name="Path 272" d="M20.117-511.743a22.965,22.965,0,0,0-13.292,6.682A23,23,0,0,0,.135-491.653,28.159,28.159,0,0,0,0-488.636v1.958l.234.242.242.234h3.79l.207,1.06a21.755,21.755,0,0,0,.557,2.12c.2.584.359,1.069.359,1.087s-.575.359-1.284.763a10.89,10.89,0,0,0-1.428.925c-.341.431-.234.781.844,2.649s1.266,2.057,1.814,1.967a10.22,10.22,0,0,0,1.554-.781l1.275-.736.287.341c.431.512,2.048,2.111,2.452,2.443l.35.278-.736,1.284a11.024,11.024,0,0,0-.79,1.563c-.09.548.108.736,1.967,1.814,1.437.826,1.805,1.006,2.111,1.006.5,0,.665-.18,1.491-1.643.386-.674.718-1.23.727-1.23s.521.162,1.132.359a19.666,19.666,0,0,0,2.119.566l1.024.2v3.79l.234.242.242.233h4.437l.225-.225c.3-.3.341-.593.341-2.47v-1.572l.988-.207a21.271,21.271,0,0,0,2.084-.557c.593-.2,1.1-.359,1.1-.359s.359.575.763,1.275a10.592,10.592,0,0,0,.925,1.437c.359.287.817.207,1.715-.305,2.272-1.293,2.721-1.59,2.838-1.868.171-.4.081-.638-.727-2.048l-.736-1.284.35-.278a31.23,31.23,0,0,0,2.434-2.443l.278-.35,1.383.781a9.762,9.762,0,0,0,1.572.772c.548,0,.7-.2,2.254-2.928.539-.952.6-1.392.269-1.751a12.452,12.452,0,0,0-1.437-.916c-.683-.386-1.239-.718-1.239-.736s.162-.5.359-1.087a21.756,21.756,0,0,0,.557-2.12l.207-1.06h3.79l.251-.242L46-486.7l-.045-2.38a18.513,18.513,0,0,0-.745-5.712,23.922,23.922,0,0,0-4.311-8.388c-.332-.422-1.159-1.311-1.823-1.976a23.055,23.055,0,0,0-13.328-6.6A31.031,31.031,0,0,0,20.117-511.743Zm1.976,3.529v1.778l.234.242a.762.762,0,0,0,.665.234.762.762,0,0,0,.665-.234l.234-.242V-510h.359a21.885,21.885,0,0,1,3.143.458,21.079,21.079,0,0,1,4.544,1.617l.736.359-.8,1.383c-.683,1.176-.8,1.437-.8,1.787a.638.638,0,0,0,.278.629.948.948,0,0,0,1.176.054,8.709,8.709,0,0,0,.925-1.383c.377-.665.736-1.266.79-1.347.09-.117.216-.054.934.476a22.665,22.665,0,0,1,4.886,4.877c.557.754.6.844.467.952-.09.063-.692.422-1.356.8a7.985,7.985,0,0,0-1.365.907.948.948,0,0,0,.054,1.176.638.638,0,0,0,.629.278c.35,0,.611-.117,1.8-.808l1.4-.8.4.871a21.549,21.549,0,0,1,1.221,3.206,20.342,20.342,0,0,1,.6,2.748c0,.162-.117.171-2.919.171H38.079l-.054-.251a14.831,14.831,0,0,0-1.347-3.889,15.2,15.2,0,0,0-8.756-7.661,12.1,12.1,0,0,0-4.93-.718,11.951,11.951,0,0,0-3.053.2,15.413,15.413,0,0,0-10.651,8.182,15.054,15.054,0,0,0-1.329,3.889l-.054.251H4.984c-2.8,0-2.919-.009-2.919-.171a22.685,22.685,0,0,1,.548-2.613,25.043,25.043,0,0,1,1.275-3.341l.4-.871,1.4.8c1.185.692,1.446.808,1.8.808a.638.638,0,0,0,.629-.278.948.948,0,0,0,.054-1.176,8.708,8.708,0,0,0-1.383-.925c-.665-.377-1.266-.736-1.347-.79-.126-.09-.063-.216.476-.943a22.652,22.652,0,0,1,4.832-4.841c.79-.584.889-.638,1-.5.063.09.422.692.8,1.356a7.984,7.984,0,0,0,.907,1.365.948.948,0,0,0,1.176-.054.644.644,0,0,0,.278-.638c0-.35-.117-.6-.772-1.742a8.152,8.152,0,0,1-.718-1.419,19.3,19.3,0,0,1,3.988-1.661,20.433,20.433,0,0,1,4.221-.763l.467-.009Zm2.119,5.972a13.331,13.331,0,0,1,4.724,1.32,10.956,10.956,0,0,1,2.676,1.814c-.027.018-1.787,1.311-3.925,2.874l-3.88,2.847H23a4.368,4.368,0,0,0-4.5,4.49,4.371,4.371,0,0,0,4.49,4.49,4.368,4.368,0,0,0,4.49-4.5v-.8l2.856-3.907c1.563-2.146,2.874-3.9,2.9-3.907a14.375,14.375,0,0,1,1.482,2.128,14.863,14.863,0,0,1,1.365,3.565,9.487,9.487,0,0,1,.242,2.883,11.5,11.5,0,0,1-.171,2.649,15.656,15.656,0,0,1-1.087,3.224c-.485,1.006-.512,1.329-.144,1.733a.68.68,0,0,0,.611.3c.548,0,.772-.216,1.23-1.168a13.981,13.981,0,0,0,1.464-6.044l.054-1.545H44.1v.207c0,.117.027.521.054.9l.063.692H40.441l-.234.233a1.083,1.083,0,0,0-.287.647,19.588,19.588,0,0,1-1.2,4.679c-.323.772-.35,1.15-.1,1.473a7.925,7.925,0,0,0,1.284.862c.6.35,1.15.674,1.221.718.09.063.027.225-.3.79l-.413.718-1.32-.745a9.663,9.663,0,0,0-1.5-.754c-.377.009-.674.242-1.23.943a20.254,20.254,0,0,1-2.91,2.91c-.7.557-.934.853-.943,1.23a9.664,9.664,0,0,0,.754,1.5l.745,1.32-.718.413c-.566.323-.727.386-.79.3-.045-.072-.368-.62-.718-1.221a7.925,7.925,0,0,0-.862-1.284c-.314-.251-.7-.225-1.464.09a18.972,18.972,0,0,1-4.688,1.212,1.082,1.082,0,0,0-.647.287l-.234.233v3.745h-1.8v-3.745l-.234-.233a1.082,1.082,0,0,0-.647-.287,19.589,19.589,0,0,1-4.679-1.2c-.772-.323-1.15-.35-1.473-.1a7.925,7.925,0,0,0-.862,1.284c-.35.6-.674,1.15-.718,1.221-.063.09-.225.027-.79-.3l-.718-.413.745-1.32a9.663,9.663,0,0,0,.754-1.5c-.009-.377-.242-.674-.943-1.23a20.254,20.254,0,0,1-2.91-2.91c-.557-.7-.853-.934-1.23-.943a9.664,9.664,0,0,0-1.5.754l-1.32.745-.413-.718c-.323-.566-.386-.727-.3-.79.072-.045.62-.368,1.221-.718a7.925,7.925,0,0,0,1.284-.862c.251-.323.225-.7-.1-1.473a19.588,19.588,0,0,1-1.2-4.679,1.083,1.083,0,0,0-.287-.647L5.541-488H1.8v-.207c0-.117.027-.521.054-.9l.063-.692H7.7l.054,1.545a13.879,13.879,0,0,0,.242,2.452A15.385,15.385,0,0,0,19.938-473.88a11.992,11.992,0,0,0,3.053.2,11.992,11.992,0,0,0,3.053-.2c1.9-.413,4.329-1.4,4.652-1.886a1.273,1.273,0,0,0,.153-.584.681.681,0,0,0-.3-.611c-.4-.368-.727-.341-1.733.144A13.332,13.332,0,0,1,13.561-479.4a13.653,13.653,0,0,1-3.745-6.888,19.454,19.454,0,0,1,0-5.209,13.6,13.6,0,0,1,10.526-10.553,15.75,15.75,0,0,1,2.874-.251C23.368-502.3,23.808-502.269,24.212-502.242Zm3.152,9.457c-.754,1.033-1.473,2.012-1.59,2.182-.207.3-.225.386-.225,1.392,0,1.239-.1,1.545-.718,2.155a2.138,2.138,0,0,1-1.841.718,2.138,2.138,0,0,1-1.841-.718,2.322,2.322,0,0,1-.745-1.679,2.342,2.342,0,0,1,.736-2.012,2.6,2.6,0,0,1,2.506-.71l.62.063.593-.413c.332-.225,1.329-.952,2.218-1.617s1.626-1.212,1.635-1.212S28.119-493.809,27.365-492.785Z" transform="translate(0 0)" fill="#fff"/>
    <path id="Path_273" data-name="Path 273" d="M206.234-165.767a.762.762,0,0,0-.234.665.762.762,0,0,0,.234.665.762.762,0,0,0,.665.234.762.762,0,0,0,.665-.234,1.011,1.011,0,0,0,0-1.329A.762.762,0,0,0,206.9-166,.762.762,0,0,0,206.234-165.767Z" transform="translate(-187.499 -314.813)" fill="#fff"/>
    <path id="Path_274" data-name="Path 274" d="M246.234-165.767a.762.762,0,0,0-.234.665.762.762,0,0,0,.234.665.762.762,0,0,0,.665.234.762.762,0,0,0,.665-.234.762.762,0,0,0,.233-.665.762.762,0,0,0-.233-.665A.762.762,0,0,0,246.9-166,.762.762,0,0,0,246.234-165.767Z" transform="translate(-223.907 -314.813)" fill="#fff"/>
    <path id="Path_275" data-name="Path 275" d="M286.234-165.767a.762.762,0,0,0-.234.665.762.762,0,0,0,.234.665.762.762,0,0,0,.665.234.762.762,0,0,0,.665-.234.762.762,0,0,0,.233-.665.762.762,0,0,0-.233-.665A.762.762,0,0,0,286.9-166,.762.762,0,0,0,286.234-165.767Z" transform="translate(-260.315 -314.813)" fill="#fff"/>
    <path id="Path_276" data-name="Path 276" d="M359.234-152.766a.762.762,0,0,0-.234.665.762.762,0,0,0,.234.665.762.762,0,0,0,.665.234.762.762,0,0,0,.665-.234.762.762,0,0,0,.233-.665.762.762,0,0,0-.233-.665A.762.762,0,0,0,359.9-153,.762.762,0,0,0,359.234-152.766Z" transform="translate(-326.759 -326.646)" fill="#fff"/>
    <path id="Path_277" data-name="Path 277" d="M246.234-265.767a.762.762,0,0,0-.234.665.762.762,0,0,0,.234.665.762.762,0,0,0,.665.234.762.762,0,0,0,.665-.234.762.762,0,0,0,.233-.665.762.762,0,0,0-.233-.665A.762.762,0,0,0,246.9-266,.762.762,0,0,0,246.234-265.767Z" transform="translate(-223.907 -223.794)" fill="#fff"/>
  </g>
</svg>
