<svg xmlns="http://www.w3.org/2000/svg" width="46" height="46.001" viewBox="0 0 46 46.001">
  <g id="strategicAssessment" transform="translate(-0.07 511.935)">
    <path id="Path_278" data-name="Path 278" d="M24.69-511.878a1.768,1.768,0,0,0-.9,1.2c0,.18-.036.18-2.768.18-3.128,0-3.379.036-3.964.62a2.33,2.33,0,0,0-.7,1.492l-.054.485-.44-.386A10.463,10.463,0,0,0,11.7-510.3a9.325,9.325,0,0,0-2.067-.144,7.218,7.218,0,0,0-2.319.243,9.818,9.818,0,0,0-6.993,6.975,12.744,12.744,0,0,0-.135,4.269,9.683,9.683,0,0,0,2.759,5.15,5.19,5.19,0,0,1,1.393,2.418c.045.324.027.386-.117.431A2.74,2.74,0,0,0,3.2-489.876a2.727,2.727,0,0,0,0,1.887,2.4,2.4,0,0,0,1.016,1.052c.243.108.252.135.252.791a5.221,5.221,0,0,0,2.885,4.835,4.8,4.8,0,0,0,2.373.557,5.1,5.1,0,0,0,4.063-1.932,5.285,5.285,0,0,0,1.168-3.254c.054-.89.063-.917.3-1.016a2.417,2.417,0,0,0,.935-.944c.135-.252.144.1.144,4.152v4.422l-6.759.027-6.768.027-.6.288A3.754,3.754,0,0,0,.4-477.176a2.721,2.721,0,0,0-.288,1.636,2.657,2.657,0,0,0,.261,1.573,4.482,4.482,0,0,0,1.807,1.807l.539.261,6.8.027,6.795.018.036,2.184c.027,2.04.036,2.2.225,2.544A2.693,2.693,0,0,0,17.86-466c.207.063,4.7.081,13.536.063l13.221-.027.44-.27a2.43,2.43,0,0,0,.71-.71l.27-.44.027-20.636c.018-14.839,0-20.735-.072-20.978a2.611,2.611,0,0,0-1.114-1.258c-.351-.189-.485-.2-3.263-.225l-2.894-.027-.054-.288a1.764,1.764,0,0,0-.288-.584c-.44-.584-.09-.557-7.145-.548C27.71-511.932,24.762-511.9,24.69-511.878Zm12.4,3.667v2.2H25.32v-4.4H37.094Zm-13.3-.045v.719H19.3V-505l-.009,2.544-.216-.854a11.339,11.339,0,0,0-.674-1.762l-.449-.908v-1.258c0-1.186.009-1.267.207-1.438a1.031,1.031,0,0,1,.377-.234c.1-.027,1.321-.045,2.723-.054l2.535-.009Zm20.546-.422.216.252v40.5l-.234.243-.243.234H18.39l-.216-.225-.225-.216v-3.964H19.3v2.966H36.779l3.164-3.164,3.173-3.173v-32.311h-4.4v-1.447l2.705.027,2.705.027Zm-32.967-.063a7.929,7.929,0,0,1,3.811,2,7.785,7.785,0,0,1,2.606,5.9c.009,2.346-.629,3.856-2.526,5.977a6.3,6.3,0,0,0-1.7,2.993l-.153.692H12.4a8.742,8.742,0,0,1-1.016-.027c.009-.216.629-3.685.674-3.748s.234,0,.512.144l.458.234,1.438-1.438,1.438-1.438-.189-.449a4.717,4.717,0,0,1-.2-.5,1.891,1.891,0,0,1,.449-.189l.449-.153v-4.1L16-503.007a4.256,4.256,0,0,1-.467-.189,1.3,1.3,0,0,1,.171-.485l.216-.449-1.438-1.438-1.438-1.438-.431.2c-.485.207-.539.189-.71-.324l-.126-.359-2.067-.027-2.067-.018-.117.413a.937.937,0,0,1-.234.458,1.1,1.1,0,0,1-.485-.153l-.386-.2L5-505.6a14.6,14.6,0,0,0-1.429,1.546,1.826,1.826,0,0,0,.18.476l.189.359-.3.117c-.162.063-.369.144-.449.171-.144.054-.162.234-.162,2.121v2.058l.449.153a1.706,1.706,0,0,1,.449.189,2.883,2.883,0,0,1-.18.4,1.8,1.8,0,0,0-.18.467,14.381,14.381,0,0,0,1.411,1.528l1.42,1.42.467-.225.476-.216.081.333c.054.18.2.962.324,1.726s.243,1.483.27,1.591c.045.207.036.207-.98.207H6.014l-.153-.674a6.11,6.11,0,0,0-1.672-2.975,9.427,9.427,0,0,1-1.851-2.615A8.129,8.129,0,0,1,7.721-508.66,9.4,9.4,0,0,1,11.37-508.741Zm-.521,3.3c.189.4.279.485.593.593a.859.859,0,0,0,.827-.054l.449-.189.647.656.647.647-.189.368a.852.852,0,0,0-.045.971c.126.333.2.4.611.548l.458.162v1.861l-.458.171c-.413.153-.476.225-.62.584-.153.4-.153.422.036.872l.2.458-.647.647-.647.656-.431-.225-.431-.216-.431.171c-.386.153-.449.207-.6.629l-.171.467-.944-.027-.935-.027-.153-.4a.874.874,0,0,0-.566-.611l-.413-.207-.369.18a1.639,1.639,0,0,1-.476.189,3.023,3.023,0,0,1-.746-.629l-.62-.629.2-.413a.745.745,0,0,0,.054-.854c-.144-.4-.207-.458-.611-.611l-.458-.171-.027-.926-.027-.935.467-.162a.836.836,0,0,0,.638-.575l.18-.413-.207-.44-.207-.44.665-.665.656-.665.413.207c.4.207.422.207.818.054s.539-.324.719-.836l.09-.243h1.843Zm13.032-.054a1.381,1.381,0,0,0,.476.692l.351.279,6.345.027c5.7.018,6.39.009,6.741-.126a1.51,1.51,0,0,0,.872-1.052l.063-.243h2.858v29.57H35.656v5.932H20.916v-1.438h5.393l2.741-1.034c1.51-.566,2.867-1.105,3-1.213a2.371,2.371,0,0,0,.728-1.384,2.018,2.018,0,0,0-.989-1.717c-.135-.072-1.438-.575-2.894-1.115l-2.651-1h-5.33v-26.6h2.831ZM19.3-489.2v9.887H17.95v-16.277l.449-.926a10.291,10.291,0,0,0,.656-1.744,6.106,6.106,0,0,1,.225-.827C19.289-499.088,19.3-494.639,19.3-489.2Zm-9.078-4.71c0,.153-.324,2.166-.413,2.544s-.171.108-.4-1.3l-.234-1.384H9.7C10.121-494.055,10.22-494.028,10.22-493.911Zm6.112,2.256c0,1.825-.009,1.941-.144,1.69a2.4,2.4,0,0,0-.944-.953c-.288-.108-.288-.162-.027-.989a4.4,4.4,0,0,1,1.088-1.7C16.323-493.605,16.332-492.725,16.332-491.655Zm-1.7,2.247a.673.673,0,0,1,.2.476.673.673,0,0,1-.2.476l-.2.2-4.674.027-4.674.027-.27-.27a.867.867,0,0,1-.261-.458.867.867,0,0,1,.261-.458l.27-.27,4.674.027,4.674.027Zm-1.267,3.352a3.729,3.729,0,0,1-3.092,3.7,3.7,3.7,0,0,1-3.847-2.067,2.681,2.681,0,0,1-.324-1.42l-.036-.845h7.3ZM6-475.576v2.211l-1.42-.036c-1.4-.027-1.429-.027-1.869-.3a2.469,2.469,0,0,1-1.079-1.555A2.176,2.176,0,0,1,2.652-477.4c.548-.324.8-.368,2.157-.378L6-477.787Zm19.234-1.492v.719H7.524v-1.438H25.23Zm3.784.485a14.15,14.15,0,0,1,2.1.9.192.192,0,0,1-.045.27,16.788,16.788,0,0,1-1.932.8c-.989.378-1.905.719-2.04.773l-.252.1v-1.8a11.9,11.9,0,0,1,.072-1.8C26.964-477.337,27.908-477,29.014-476.582ZM25.23-474.1v.719H7.524v-1.438H25.23Zm15.189-.692c0,.009-.728.746-1.618,1.636l-1.618,1.618v-3.281H38.8C39.691-474.821,40.419-474.812,40.419-474.794Z" fill="#fff"/>
    <path id="Path_279" data-name="Path 279" d="M297.2-478.875a.779.779,0,0,0,.575,1.294.788.788,0,0,0,.557-1.33A.821.821,0,0,0,297.2-478.875Z" transform="translate(-270.252 -29.866)" fill="#fff"/>
    <path id="Path_280" data-name="Path 280" d="M379.792-478.844a.936.936,0,0,0-.252.4.776.776,0,0,0,1.114.944.817.817,0,0,0,.117-1.294A1.2,1.2,0,0,0,379.792-478.844Z" transform="translate(-345.323 -30.041)" fill="#fff"/>
    <path id="Path_281" data-name="Path 281" d="M69.358-429.794a3.907,3.907,0,0,0-2.571,2.058,2.66,2.66,0,0,0-.288,1.627,2.69,2.69,0,0,0,.288,1.627,3.772,3.772,0,0,0,6.795-.072,2.624,2.624,0,0,0,.288-1.555,2.578,2.578,0,0,0-.288-1.546A3.763,3.763,0,0,0,69.358-429.794Zm1.726,1.717a2.172,2.172,0,0,1-.162,3.991,2.215,2.215,0,0,1-2.7-1.079,2.376,2.376,0,0,1,0-1.887,2.58,2.58,0,0,1,1.106-1.07A2.508,2.508,0,0,1,71.084-428.077Z" transform="translate(-60.459 -74.687)" fill="#fff"/>
    <path id="Path_282" data-name="Path 282" d="M247-410.753v2.247h17.886V-413H247Zm16.358,0v.719h-14.74v-1.438h14.74Z" transform="translate(-224.736 -90.043)" fill="#fff"/>
    <path id="Path_283" data-name="Path 283" d="M247-346.236v.764h8.988V-347H247Z" transform="translate(-224.736 -150.111)" fill="#fff"/>
    <path id="Path_284" data-name="Path 284" d="M361.291-342.331l-2.669,2.669-.449-.422a2.885,2.885,0,0,0-.521-.422,3.478,3.478,0,0,0-.611.539l-.539.539,1.034,1.034,1.034,1.034,3.281-3.281,3.281-3.281-.539-.539A5.169,5.169,0,0,0,364-345C363.978-345,362.756-343.8,361.291-342.331Z" transform="translate(-324.395 -151.931)" fill="#fff"/>
    <path id="Path_285" data-name="Path 285" d="M247-313.236v.764h8.988V-314H247Z" transform="translate(-224.736 -180.145)" fill="#fff"/>
    <path id="Path_286" data-name="Path 286" d="M247-280.236v.764h1.618V-281H247Z" transform="translate(-224.736 -210.179)" fill="#fff"/>
    <path id="Path_287" data-name="Path 287" d="M280-280.236v.764h6.022V-281H280Z" transform="translate(-254.77 -210.179)" fill="#fff"/>
    <path id="Path_288" data-name="Path 288" d="M247-247.236v.764h8.988V-248H247Z" transform="translate(-224.736 -240.213)" fill="#fff"/>
    <path id="Path_289" data-name="Path 289" d="M361.264-243.3l-2.7,2.7-.467-.467-.476-.476-.566.566-.557.557,1.061,1.052,1.052,1.061,3.236-3.236c1.78-1.78,3.236-3.281,3.236-3.326A6.727,6.727,0,0,0,364-246C363.978-246,362.747-244.787,361.264-243.3Z" transform="translate(-324.395 -242.033)" fill="#fff"/>
    <path id="Path_290" data-name="Path 290" d="M247-214.236v.764h8.988V-215H247Z" transform="translate(-224.736 -270.247)" fill="#fff"/>
    <path id="Path_291" data-name="Path 291" d="M247-181.236v.764h1.618V-182H247Z" transform="translate(-224.736 -300.281)" fill="#fff"/>
    <path id="Path_292" data-name="Path 292" d="M280-181.236v.764h6.022V-182H280Z" transform="translate(-254.77 -300.281)" fill="#fff"/>
  </g>
</svg>
