<svg xmlns="http://www.w3.org/2000/svg" width="46" height="38.599" viewBox="0 0 46 38.599">
  <g id="informationArch" transform="translate(-14.762 856.388)">
    <path id="Path_266" data-name="Path 266" d="M122.224-856.092a6.732,6.732,0,0,0-1.215.445,5.3,5.3,0,0,0-2.81,3.654c-.056.306-.1,1.651-.1,3v2.439h1.475l.028-2.671.028-2.662.3-.621a3.564,3.564,0,0,1,1.771-1.818l.7-.343,5.268-.028,5.268-.028V-856.2l-5.119.009C125-856.185,122.484-856.148,122.224-856.092Z" transform="translate(-98.141 -0.175)" fill="#fff"/>
    <path id="Path_267" data-name="Path 267" d="M442.864-855.462v.742h2.968V-856.2h-2.968Z" transform="translate(-406.586 -0.175)" fill="#fff"/>
    <path id="Path_268" data-name="Path 268" d="M531.437-855.646v.742l5.268.028,5.258.028.621.3a3.564,3.564,0,0,1,1.818,1.771l.343.7.028,2.671.028,2.671h1.493l-.037-2.764c-.037-2.69-.037-2.773-.269-3.367a5.119,5.119,0,0,0-1.233-1.966,5.044,5.044,0,0,0-1.994-1.261l-.612-.241-5.351-.028-5.36-.028Z" transform="translate(-490.707)" fill="#fff"/>
    <path id="Path_269" data-name="Path 269" d="M281.354-708.46a1.541,1.541,0,0,0-.779.825c-.074.176-.1,3.6-.1,10.925,0,11.787-.037,11.055.612,11.546l.343.269h8.7c8.634,0,8.7,0,8.95-.195a2.528,2.528,0,0,0,.445-.445c.195-.25.195-.288.195-11.175v-10.925l-.269-.343c-.492-.649.019-.612-9.348-.612C283.246-708.581,281.577-708.562,281.354-708.46Zm16.925,11.741v10.387H281.957v-20.774H298.28Z" transform="translate(-252.356 -140.37)" fill="#fff"/>
    <path id="Path_270" data-name="Path 270" d="M429.555-649.382a2.957,2.957,0,0,0-1.373,1.419,2.031,2.031,0,0,0,.584,2.217,2.029,2.029,0,0,0,1.53.7,2.336,2.336,0,0,0,2.226-2.226,2.029,2.029,0,0,0-.7-1.53A2.1,2.1,0,0,0,429.555-649.382Zm1.252,1.6a.723.723,0,0,1,.232.51.723.723,0,0,1-.232.51.732.732,0,0,1-1.252-.51.783.783,0,0,1,.742-.742A.723.723,0,0,1,430.807-647.787Z" transform="translate(-392.535 -196.489)" fill="#fff"/>
    <path id="Path_271" data-name="Path 271" d="M400.149-545.624a1.72,1.72,0,0,0-.417.334c-.232.241-.232.269-.232,1.818v1.567l.306.3c.288.287.343.306,1.085.343l.788.028v3.673l-.788.028c-.742.037-.8.056-1.085.343l-.306.3v3.153l.306.3.3.306h6.863l.3-.306.306-.3V-536.9l-.288-.288a1.038,1.038,0,0,0-.714-.334l-.427-.056-.028-3.737-.028-3.747-.306-.3-.3-.306-2.578-.019C401.494-545.689,400.251-545.661,400.149-545.624Zm4.5,5.249v3.858l.232.223c.185.195.315.232.742.232h.51v1.484h-5.194v-1.484h.881c.816,0,.909-.019,1.113-.232l.232-.223v-5.769l-.232-.223c-.2-.213-.3-.232-1.113-.232h-.881v-1.484h3.71Z" transform="translate(-365.401 -295.091)" fill="#fff"/>
    <path id="Path_272" data-name="Path 272" d="M16.431-634.121a2.319,2.319,0,0,0-1.669,2.142,2.336,2.336,0,0,0,2.226,2.226,2.348,2.348,0,0,0,1.948-1.206c.111-.269.13-.278.742-.278H20.3l.677,1.029a8.025,8.025,0,0,0,.844,1.113,7.027,7.027,0,0,0,1.373.083h1.215v-1.484H22.58l-.677-1.029a8.025,8.025,0,0,0-.844-1.113,4.756,4.756,0,0,0-1.094-.083c-.853,0-.927-.019-.983-.195a2.4,2.4,0,0,0-1-1.02A2.545,2.545,0,0,0,16.431-634.121Zm1.067,1.632a.732.732,0,0,1-.51,1.252.783.783,0,0,1-.742-.742.783.783,0,0,1,.742-.742A.723.723,0,0,1,17.5-632.488Z" transform="translate(0 -211.046)" fill="#fff"/>
    <path id="Path_273" data-name="Path 273" d="M744.8-634.588a2.638,2.638,0,0,0-1.224,1.085l-.111.278h-.927a4.653,4.653,0,0,0-1.085.083,8.024,8.024,0,0,0-.844,1.113L739.934-631h-1.827v1.484h1.215a7.026,7.026,0,0,0,1.373-.083,8.019,8.019,0,0,0,.844-1.113l.677-1.029h.631c.556,0,.631.019.686.195a2.56,2.56,0,0,0,1.011,1.039,2.384,2.384,0,0,0,1.966-.009,2.494,2.494,0,0,0,1.131-1.308,2.02,2.02,0,0,0-.584-2.189A2.1,2.1,0,0,0,744.8-634.588Zm1.233,1.6a.723.723,0,0,1,.232.51.723.723,0,0,1-.232.51.723.723,0,0,1-.51.232.723.723,0,0,1-.51-.232.723.723,0,0,1-.232-.51.723.723,0,0,1,.232-.51.723.723,0,0,1,.51-.232A.723.723,0,0,1,746.036-632.993Z" transform="translate(-686.99 -210.541)" fill="#fff"/>
    <path id="Path_274" data-name="Path 274" d="M221.432-560.219v.742h1.484v-1.484h-1.484Z" transform="translate(-196.283 -280.579)" fill="#fff"/>
    <path id="Path_275" data-name="Path 275" d="M693.82-560.219v.742H695.3v-1.484H693.82Z" transform="translate(-644.929 -280.579)" fill="#fff"/>
    <path id="Path_276" data-name="Path 276" d="M46.529-516.427a2.708,2.708,0,0,0-1.206,1.076,3.1,3.1,0,0,0,0,1.966,2.487,2.487,0,0,0,1.948,1.243,2.39,2.39,0,0,0,2.022-1.206l.111-.278h6.1v-1.484H49.4l-.111-.278a2.274,2.274,0,0,0-.519-.64A2.106,2.106,0,0,0,46.529-516.427Zm1.326,1.549a.732.732,0,0,1-.51,1.252.783.783,0,0,1-.742-.742.783.783,0,0,1,.742-.742A.723.723,0,0,1,47.855-514.879Z" transform="translate(-28.873 -322.72)" fill="#fff"/>
    <path id="Path_277" data-name="Path 277" d="M701.1-516.336a2.352,2.352,0,0,0-1.113,1.067c-.056.195-.111.195-3.116.195H693.82v1.484h6.1l.111.278a2.274,2.274,0,0,0,.519.64,2.1,2.1,0,0,0,3.033-.167,2.078,2.078,0,0,0,0-2.986A2.059,2.059,0,0,0,701.1-516.336Zm1.391,1.493a.732.732,0,0,1-.51,1.252.783.783,0,0,1-.742-.742.723.723,0,0,1,.232-.51.723.723,0,0,1,.51-.232A.723.723,0,0,1,702.492-514.843Z" transform="translate(-644.929 -322.756)" fill="#fff"/>
    <path id="Path_278" data-name="Path 278" d="M21.8-413.247a7.347,7.347,0,0,0-.825,1.113l-.677,1.02h-.631c-.556,0-.631-.019-.686-.195a2.56,2.56,0,0,0-1.011-1.039,2.384,2.384,0,0,0-1.966.009,2.322,2.322,0,0,0-1.243,1.966,2.336,2.336,0,0,0,2.226,2.226,2.348,2.348,0,0,0,1.948-1.206l.111-.278h.927a4.656,4.656,0,0,0,1.085-.083,8.023,8.023,0,0,0,.844-1.113l.677-1.029h1.827v-1.484H23.183A6.7,6.7,0,0,0,21.8-413.247Zm-4.3,2.365a.732.732,0,0,1-.51,1.252.783.783,0,0,1-.742-.742.783.783,0,0,1,.742-.742A.723.723,0,0,1,17.5-410.882Z" transform="translate(0 -420.781)" fill="#fff"/>
    <path id="Path_279" data-name="Path 279" d="M221.432-412.6v.742h1.484v-1.484h-1.484Z" transform="translate(-196.283 -420.781)" fill="#fff"/>
    <path id="Path_280" data-name="Path 280" d="M693.82-412.6v.742H695.3v-1.484H693.82Z" transform="translate(-644.929 -420.781)" fill="#fff"/>
    <path id="Path_281" data-name="Path 281" d="M738.107-412.6v.742h1.827l.677,1.029a8.022,8.022,0,0,0,.844,1.113,4.758,4.758,0,0,0,1.094.083c.853,0,.927.019.983.195a2.56,2.56,0,0,0,1.011,1.039,2.384,2.384,0,0,0,1.966-.009,2.322,2.322,0,0,0,1.243-1.966,2.336,2.336,0,0,0-2.226-2.226,2.348,2.348,0,0,0-1.948,1.206c-.111.269-.13.278-.742.278h-.621l-.677-1.029a8.019,8.019,0,0,0-.844-1.113,7.03,7.03,0,0,0-1.373-.083h-1.215Zm7.929,1.716a.732.732,0,0,1-.51,1.252.783.783,0,0,1-.742-.742.783.783,0,0,1,.742-.742A.723.723,0,0,1,746.036-410.882Z" transform="translate(-686.99 -420.781)" fill="#fff"/>
    <path id="Path_282" data-name="Path 282" d="M118.1-278.041c0,1.345.046,2.69.1,3a5.477,5.477,0,0,0,1.382,2.615,5.058,5.058,0,0,0,2.031,1.308l.612.241,5.36.028,5.351.028v-1.484l-5.268-.028-5.268-.028-.7-.343a3.564,3.564,0,0,1-1.771-1.818l-.3-.621-.028-2.671-.028-2.662H118.1Z" transform="translate(-98.141 -546.963)" fill="#fff"/>
    <path id="Path_283" data-name="Path 283" d="M544.773-277.81l-.028,2.671-.343.7a3.564,3.564,0,0,1-1.818,1.771l-.621.3-5.258.028-5.268.028v1.484l5.36-.028,5.351-.028.612-.241a5.039,5.039,0,0,0,2.671-2.124c.742-1.141.779-1.363.825-4.479l.037-2.754H544.8Z" transform="translate(-490.707 -546.963)" fill="#fff"/>
    <path id="Path_284" data-name="Path 284" d="M442.864-117.355v.742h2.968V-118.1h-2.968Z" transform="translate(-406.586 -701.185)" fill="#fff"/>
  </g>
</svg>
