<svg xmlns="http://www.w3.org/2000/svg" width="46" height="46.028" viewBox="0 0 46 46.028">
  <g id="interactionDesign" transform="translate(-16.5 496)">
    <path id="Path_257" data-name="Path 257" d="M18.438-495.808a2.917,2.917,0,0,0-1.621,1.516l-.317.643v30.7l.249.537a3.258,3.258,0,0,0,1.478,1.526l.48.24,5.737.029,5.737.029.278-.288a.9.9,0,0,0,.182-1.084c-.24-.451-.4-.461-6.1-.461a41.486,41.486,0,0,1-5.594-.125,1.621,1.621,0,0,1-.451-.441l-.221-.326v-24.437H57.132v14.238l-2.8-2.782c-3.2-3.185-3.166-3.157-4.586-3.157a2.4,2.4,0,0,0-1.458.317,3.1,3.1,0,0,0-1.535,1.573c-.221.489-.269.518-.566.355a3.488,3.488,0,0,0-2.8.182,3.368,3.368,0,0,0-1.7,2.6v.374l-.518.058a3.622,3.622,0,0,0-2.667,1.938.678.678,0,0,1-.173.326c-.029,0-1.1-1.065-2.4-2.36-2.475-2.475-2.792-2.725-3.761-2.907a3.369,3.369,0,0,0-3.867,2.936,3.76,3.76,0,0,0,.451,2.034c.106.192,2.84,2.993,6.064,6.217s5.824,5.881,5.785,5.881-.643-.134-1.334-.3a4.33,4.33,0,0,0-3.185.048,3.84,3.84,0,0,0-1.679,1.833,3.932,3.932,0,0,0,0,2.485,3.908,3.908,0,0,0,1.468,1.737c.48.278,9.69,3.5,10.813,3.78a12.862,12.862,0,0,0,14.085-6,12.923,12.923,0,0,0-1.276-14.747l-.537-.633-.019-10.966-.029-10.966-.317-.643a2.924,2.924,0,0,0-1.65-1.526c-.47-.182-.95-.182-19.266-.182C19.541-495.99,18.879-495.981,18.438-495.808ZM56.6-493.976c.489.384.537.595.537,2.581v1.823H18.275v-1.823c0-1.986.048-2.2.537-2.581l.259-.2H56.336Zm-6.14,16.445c.5.24,7.695,7.541,8.28,8.4a10.79,10.79,0,0,1,1.948,6.284A10.366,10.366,0,0,1,60.1-459.2a11.025,11.025,0,0,1-13.135,7.071c-1-.249-10.093-3.464-10.362-3.665a1.591,1.591,0,0,1-.614-1.314,1.548,1.548,0,0,1,1.6-1.583c.221,0,1.65.3,3.176.672s2.878.681,3,.681a.98.98,0,0,0,.8-.931c0-.355-.192-.547-7.186-7.56-7.791-7.791-7.426-7.378-7.263-8.251a1.694,1.694,0,0,1,1.094-1.1c.873-.269.633-.47,7.042,5.929,5.747,5.728,5.833,5.824,6.208,5.824a.806.806,0,0,0,.873-.854c0-.384-.048-.441-2.4-2.792-1.324-1.324-2.514-2.562-2.648-2.754a1.539,1.539,0,0,1,1.209-2.379c.643,0,.979.269,3.655,2.936,2.533,2.523,2.667,2.648,3.013,2.648a.836.836,0,0,0,.863-.883c0-.374-.067-.451-2.706-3.089a19.35,19.35,0,0,1-2.811-3.08,1.524,1.524,0,0,1,1.717-1.938c.422.067.547.173,3.233,2.84,2.658,2.648,2.8,2.773,3.147,2.773a.888.888,0,0,0,.816-1.276c-.058-.115-1.007-1.123-2.1-2.226-1.689-1.708-2.005-2.072-2.053-2.37a1.59,1.59,0,0,1,.854-1.689A1.939,1.939,0,0,1,50.455-477.531Z" fill="#fff"/>
    <path id="Path_258" data-name="Path 258" d="M63.249-461.873a.892.892,0,0,0,.672,1.487.87.87,0,0,0,.576-1.487A.9.9,0,0,0,63.249-461.873Z" transform="translate(-42.048 -30.625)" fill="#fff"/>
    <path id="Path_259" data-name="Path 259" d="M97.636-461.925a.88.88,0,0,0,.038,1.247.867.867,0,0,0,1.228-.048.769.769,0,0,0,.029-1.151A.866.866,0,0,0,97.636-461.925Z" transform="translate(-73.134 -30.563)" fill="#fff"/>
    <path id="Path_260" data-name="Path 260" d="M132.122-461.873a.877.877,0,0,0,.624,1.487.877.877,0,0,0,.624-1.487A.9.9,0,0,0,132.122-461.873Z" transform="translate(-104.3 -30.625)" fill="#fff"/>
    <path id="Path_261" data-name="Path 261" d="M199.446-461.875a.853.853,0,0,0-.1,1.324l.278.278h19.323l.278-.278a.82.82,0,0,0,.038-1.209l-.23-.24h-9.719C201.825-461.99,199.561-461.971,199.446-461.875Z" transform="translate(-165.062 -30.738)" fill="#fff"/>
    <path id="Path_262" data-name="Path 262" d="M161.524-354.892c-.355.249-.441.624-.4,1.852.029,1.055.048,1.18.249,1.391a.862.862,0,0,0,1,.249c.461-.192.556-.509.556-1.861,0-1.209,0-1.218-.278-1.5A.871.871,0,0,0,161.524-354.892Z" transform="translate(-130.738 -127.436)" fill="#fff"/>
    <path id="Path_263" data-name="Path 263" d="M85.727-351.732a.946.946,0,0,0-.422.979,13.247,13.247,0,0,0,1.909,2.12c1.66,1.669,1.881,1.861,2.216,1.909a.734.734,0,0,0,.643-.154.95.95,0,0,0,.269-1.075,45.222,45.222,0,0,0-3.761-3.79A.787.787,0,0,0,85.727-351.732Z" transform="translate(-62.185 -130.308)" fill="#fff"/>
    <path id="Path_264" data-name="Path 264" d="M82.509-275.856a.794.794,0,0,0-.509.835.745.745,0,0,0,.451.729,9.331,9.331,0,0,0,2.83.01,1,1,0,0,0,.326-.432.85.85,0,0,0-.48-1.142A6.031,6.031,0,0,0,82.509-275.856Z" transform="translate(-59.216 -198.892)" fill="#fff"/>
    <path id="Path_265" data-name="Path 265" d="M183.508-145.7a.788.788,0,0,0-.508.844.925.925,0,0,0,.863.835.925.925,0,0,0,.863-.835.8.8,0,0,0-.528-.854C183.816-145.861,183.892-145.871,183.508-145.7Z" transform="translate(-150.525 -316.578)" fill="#fff"/>
  </g>
</svg>
