<svg xmlns="http://www.w3.org/2000/svg" width="46" height="46.062" viewBox="0 0 46 46.062">
  <g id="mobileUX_1" transform="translate(-1 511.723)">
    <path id="Path_285" data-name="Path 285" d="M38.342-511.613a3.87,3.87,0,0,0-2.754,2.646,25.208,25.208,0,0,0-.126,4.168v3.754l-.738.387a10.072,10.072,0,0,0-5.311,7.354l-.108.729H27v1.521l1.143.027,1.143.027.153.9a9.915,9.915,0,0,0,8.353,8.182l.684.108.027,1.143.027,1.143h1.521v-2.3l.792-.117a9.662,9.662,0,0,0,5.617-2.961,9.611,9.611,0,0,0,2.592-5.1c.063-.351.126-.72.144-.837.036-.189.072-.2,1.215-.2h1.17l-.027-.747-.027-.738-1.17-.045c-1.17-.045-1.17-.045-1.2-.27a10.291,10.291,0,0,0-1.728-4.627,12.553,12.553,0,0,0-2.6-2.565,10.808,10.808,0,0,0-4.195-1.611l-.54-.063-.045-1.17-.045-1.17-.738-.027-.738-.027-.027,1.2-.027,1.2-.567.063a7.134,7.134,0,0,0-.738.117c-.18.054-.18.009-.18-2.016v-2.079H49.234v-1.53H36.992v-.657a2.118,2.118,0,0,1,.234-1.134,2.317,2.317,0,0,1,1.521-1.179c.315-.072,3.105-.09,9.226-.072l8.785.027.477.252.477.243.414-.459c.612-.675.612-.657.126-.972-1-.639-.234-.594-10.325-.612C40.547-511.73,38.747-511.712,38.342-511.613Zm.18,12.2v.72h1.53v-1.467l.5.063a9.5,9.5,0,0,1,2.916,1.017,9.807,9.807,0,0,1,2.754,2.547,8.707,8.707,0,0,1,1.386,3.529l.072.432h-1.5v1.53h1.44v.351a9.3,9.3,0,0,1-.72,2.511,9.173,9.173,0,0,1-1.71,2.4l-.54.531v-.36a5.944,5.944,0,0,0-1.368-3.592,7.517,7.517,0,0,0-1.44-1.152c-.072-.018.027-.189.27-.459a3.752,3.752,0,0,0-.117-5.176,3.774,3.774,0,0,0-4.8-.558,3.653,3.653,0,0,0-1.4,1.629,2.643,2.643,0,0,0-.279,1.575,2.69,2.69,0,0,0,.279,1.584,4.858,4.858,0,0,0,.612.954,2.232,2.232,0,0,1,.324.414,1.519,1.519,0,0,1-.387.27,6.366,6.366,0,0,0-1.656,1.7,5.4,5.4,0,0,0-.738,2.268,3.092,3.092,0,0,1-.144.756c-.036.036-.306-.2-.6-.522a8.4,8.4,0,0,1-2.187-4.168c-.216-1.008-.243-.963.585-.963h.72v-1.53H30.853l.063-.477a9.323,9.323,0,0,1,1.7-3.916,8.664,8.664,0,0,1,3.322-2.556,7.531,7.531,0,0,1,2.25-.6l.333-.009Zm1.665,4a2.326,2.326,0,0,1,0,4.2,2.483,2.483,0,0,1-2.583-.513,2.389,2.389,0,0,1-.171-2.97A2.388,2.388,0,0,1,40.187-495.419Zm.684,6.319a4,4,0,0,1,2.151,2.817,9.5,9.5,0,0,1,.09,1.269v.774l-.594.252a10.44,10.44,0,0,1-2.259.594c-.2,0-.207-.036-.207-.72v-.72h-1.53v.72c0,.666-.018.72-.18.72a8.774,8.774,0,0,1-2.178-.54c-.36-.153-.666-.27-.675-.27a9.51,9.51,0,0,1-.027-1.062,3.661,3.661,0,0,1,1.026-2.979,3.368,3.368,0,0,1,2.889-1.152A2.849,2.849,0,0,1,40.871-489.1Z" transform="translate(-23.66)" fill="#fff"/>
    <path id="Path_286" data-name="Path 286" d="M1.45-477.883c-.432.216-.45.342-.45,3.736,0,3.331.027,3.6.405,3.745.081.027,2,.054,4.267.054H9.794l.189-.207c.2-.207.2-.243.2-3.547,0-1.836-.027-3.412-.054-3.493-.153-.387-.36-.405-4.51-.405A25.638,25.638,0,0,0,1.45-477.883Zm7.2,3.709v2.3H2.53v-4.591H8.651Z" transform="translate(0 -30.687)" fill="#fff"/>
    <path id="Path_287" data-name="Path 287" d="M35-443.235v.765h3.06V-444H35Z" transform="translate(-30.94 -61.627)" fill="#fff"/>
    <path id="Path_288" data-name="Path 288" d="M291.45-477.673c-.45.225-.45.234-.45,5.266,0,5.185-.009,5.122.549,5.32.207.072,2.772.1,8.7.1,8.992,0,8.875.009,9.109-.432a48.4,48.4,0,0,0,.1-5v-4.816l-.216-.252-.216-.252-8.677-.018C293.5-477.781,291.63-477.763,291.45-477.673Zm16.455,5.257-.027,3.853h-15.3l-.027-3.853-.018-3.844h15.392Z" transform="translate(-263.896 -30.897)" fill="#fff"/>
    <path id="Path_289" data-name="Path 289" d="M325.063-443.937a2.655,2.655,0,0,0-.063.765v.7h3.06V-444h-1.467A9.8,9.8,0,0,0,325.063-443.937Z" transform="translate(-294.835 -61.627)" fill="#fff"/>
    <path id="Path_290" data-name="Path 290" d="M377-443.235v.765h7.651V-444H377Z" transform="translate(-342.155 -61.627)" fill="#fff"/>
    <path id="Path_291" data-name="Path 291" d="M325.063-409.937a2.655,2.655,0,0,0-.063.765v.7h12.332V-410h-6.1C327.871-410,325.09-409.973,325.063-409.937Z" transform="translate(-294.835 -92.566)" fill="#fff"/>
    <path id="Path_292" data-name="Path 292" d="M268-337.111l.009,3.9-2.088,1.845-2.079,1.845-.747.144a5.355,5.355,0,0,0-4.24,4.195,10.052,10.052,0,0,0-.135,1.656c0,1.548-.081,1.728-1.2,2.655a.711.711,0,0,0,.18,1.269,37.89,37.89,0,0,0,7.048-.108,5.474,5.474,0,0,0,3.853-4.2l.162-.747,5.518-6.256c3.034-3.439,5.59-6.4,5.689-6.589a3.788,3.788,0,0,0,.054-2.079,2.5,2.5,0,0,0-1.044-1.125,1.762,1.762,0,0,0-1.179-.243,1.721,1.721,0,0,0-1.17.243c-.225.135-1.9,1.566-3.736,3.187l-3.331,2.952-.027-3.214L269.517-341h-1.53Zm10.37-2.142a.917.917,0,0,1,.3.891c-.045.189-10.577,12.224-10.748,12.287a19.633,19.633,0,0,1-2.592-2.673c.072-.108,11.2-9.947,11.8-10.424A.887.887,0,0,1,278.366-339.254Zm-12.881,12.989,1.683,1.692-.081.423a3.9,3.9,0,0,1-3.285,3.043,24.641,24.641,0,0,1-3.916.018c.009-.036.081-.288.18-.558a4.59,4.59,0,0,0,.18-1.575,5.67,5.67,0,0,1,.513-2.754,4.781,4.781,0,0,1,1.611-1.566,5.054,5.054,0,0,1,1.3-.4A15.9,15.9,0,0,1,265.485-326.265Z" transform="translate(-233.142 -155.355)" fill="#fff"/>
    <path id="Path_293" data-name="Path 293" d="M11.8-169.156v1.935H1.522l-.261.261L1-166.7v3.259c0,3.322.018,3.5.351,3.754.108.09,2.151.108,8.884.117,8.65,0,8.731,0,8.929-.18a.959.959,0,0,0,.243-.387c.027-.108.045-1.647.027-3.421l-.027-3.232L19.156-167l-.252-.216H13.332l-.018-1.917-.027-1.908-.738-.027L11.8-171.1Zm6.121,5.761v2.3H2.53v-4.591H17.923Z" transform="translate(0 -309.962)" fill="#fff"/>
    <path id="Path_294" data-name="Path 294" d="M35-93.235v.765h3.871V-94H35Z" transform="translate(-30.94 -380.122)" fill="#fff"/>
    <path id="Path_295" data-name="Path 295" d="M95-93.235v.765h6.931V-94H95Z" transform="translate(-85.539 -380.122)" fill="#fff"/>
    <path id="Path_296" data-name="Path 296" d="M149.486-117.5l-.027,1.512-6.9.027-6.913.018v1.53h13.88l-.036,1.377c-.036,1.287-.054,1.413-.288,1.89a2.851,2.851,0,0,1-.576.783c-.675.567-.36.549-10.109.522-9.983-.027-9.19.027-9.911-.738l-.369-.387-.621.351a1.867,1.867,0,0,0-.612.468,3.886,3.886,0,0,0,1.269,1.287c.981.585.648.567,10.352.567,5.563,0,8.965-.036,9.271-.09a3.91,3.91,0,0,0,3.06-3.313c.036-.333.072-2.115.081-3.961V-119H149.5Z" transform="translate(-114.658 -357.372)" fill="#fff"/>
    <path id="Path_297" data-name="Path 297" d="M249-50.235v.765h1.53V-51H249Z" transform="translate(-225.676 -419.251)" fill="#fff"/>
  </g>
</svg>
