<svg xmlns="http://www.w3.org/2000/svg" width="46" height="45.962" viewBox="0 0 46 45.962">
  <g id="uxResearch" transform="translate(-0.024 511.054)">
    <path id="Path_298" data-name="Path 298" d="M4.078-510.923c-.477.27-.45-.926-.459,20.173v19.633H2.18c-1.583,0-1.853.063-2.051.495a5.1,5.1,0,0,0-.009,2.042,4.559,4.559,0,0,0,2.914,3.31c.513.18.746.18,16.413.18,15.433,0,15.9-.009,16.4-.171a4.6,4.6,0,0,0,2.788-2.788c.189-.486.2-.674.225-5.126l.027-4.623,1.277,1.259c1.367,1.349,1.61,1.493,2.635,1.61a3.144,3.144,0,0,0,2.977-1.745,2.255,2.255,0,0,0,.252-1.277c0-1.331-.018-1.349-3.615-4.964L39.3-486.029l.279-.666a9.563,9.563,0,0,0-.3-7.77l-.4-.809v-7.537c0-8.175.018-7.9-.495-8.13-.171-.081-1.943-.108-6.979-.108-7.321,0-7.114-.018-7.348.495a.86.86,0,0,0,0,.809c.225.5.072.495,6.817.495h6.206v11.872l-.558-.459A11.464,11.464,0,0,0,34.9-498.8l-1.052-.513-.009-2.986a18.744,18.744,0,0,0-.108-3.22c-.234-.522.432-.495-12.483-.495S9-506.04,8.763-505.518c-.081.171-.108,1.925-.108,6.889,0,7.222-.009,7.024.495,7.258a59.7,59.7,0,0,0,6.143.108H21.2L21.21-490l.009,1.259H15.3a59.841,59.841,0,0,0-6.152.108.977.977,0,0,0-.495.791.977.977,0,0,0,.495.791c.171.081,1.817.108,6.421.108h6.188l.243.567a9.986,9.986,0,0,0,5.675,5.171,10.573,10.573,0,0,0,4.623.369,15.033,15.033,0,0,0,2.419-.719l.288-.117,1.034,1.025,1.043,1.034-.027,5.4c-.027,5.27-.027,5.405-.216,5.81a2.705,2.705,0,0,1-1.277,1.313,2.168,2.168,0,0,1-1.187.252,2.573,2.573,0,0,1-2.671-2.743,5.205,5.205,0,0,0-.135-1.016c-.207-.54.576-.513-13.382-.513H5.418v-38.133h6.206c4.614,0,6.26-.027,6.43-.108a.977.977,0,0,0,.495-.791.977.977,0,0,0-.495-.791C17.694-511.1,4.375-511.085,4.078-510.923Zm27.961,8.931v2.23H30.807a11.941,11.941,0,0,0-1.862.126l-.612.126-1.745-1.745C24.9-502.937,24.835-503,24.484-503s-.414.054-3.31,2.95c-1.619,1.619-2.977,2.941-3.031,2.941a11.292,11.292,0,0,1-1.169-1.079c-1.565-1.547-1.214-1.655-4.155,1.277l-2.365,2.356v-9.659H32.039Zm-6.52,2.194a4.576,4.576,0,0,1,.89,1.034,10.572,10.572,0,0,0-1.9,1.277,9.37,9.37,0,0,0-2.3,3,9.305,9.305,0,0,1-.513.971c-.027,0-.549-.5-1.169-1.124L19.4-495.76l2.518-2.518c1.385-1.385,2.536-2.518,2.563-2.518S24.979-500.347,25.518-499.8Zm6.574,1.925A7.687,7.687,0,0,1,36.2-495.7a7.592,7.592,0,0,1,1.853,7.9,7.877,7.877,0,0,1-5.729,5.135,10.378,10.378,0,0,1-3.166,0,7.847,7.847,0,0,1-5.945-5.675,8.8,8.8,0,0,1,0-3.813A7.754,7.754,0,0,1,32.093-497.874Zm-14.534,2.788,2.024,2.024H11.488l2.024-2.024,2.024-2.024ZM39.566-481.4l-.872.881-1.061-1.061-1.07-1.061.863-.881.863-.872,1.079,1.061,1.079,1.061Zm4.659,3.112a1.278,1.278,0,0,1-1.466,1.547c-.27-.045-.567-.288-1.574-1.286l-1.232-1.223.872-.881.881-.881,1.232,1.232A7.946,7.946,0,0,1,44.225-478.286Zm-14.3,9.389a4.951,4.951,0,0,0,.63,1.754l.225.342-13.463-.018-13.472-.027-.414-.189a2.812,2.812,0,0,1-1.565-2l-.063-.288h28.06Z" transform="translate(0)" fill="#fff"/>
    <path id="Path_299" data-name="Path 299" d="M226.651-510.748a.9.9,0,0,0,.441,1.673.952.952,0,0,0,.9-.89A.906.906,0,0,0,226.651-510.748Z" transform="translate(-205.845 -0.175)" fill="#fff"/>
    <path id="Path_300" data-name="Path 300" d="M96.638-214.923a.9.9,0,0,0,.036,1.565c.333.153,9.47.153,9.8,0a.977.977,0,0,0,.495-.791.977.977,0,0,0-.495-.791C106.118-215.1,96.935-215.085,96.638-214.923Z" transform="translate(-87.524 -269.379)" fill="#fff"/>
    <path id="Path_301" data-name="Path 301" d="M96.638-166.874a.9.9,0,0,0,.036,1.565c.171.081,1.871.108,6.664.108,6.9,0,6.808.009,7.051-.441a1.243,1.243,0,0,0,0-.917c-.243-.45-.153-.441-7.078-.441C98.122-166.991,96.809-166.973,96.638-166.874Z" transform="translate(-87.524 -313.111)" fill="#fff"/>
    <path id="Path_302" data-name="Path 302" d="M96.657-118.664a.9.9,0,0,0,.054,1.574c.189.072,3.058.1,11.116.081l10.873-.027.216-.252a.927.927,0,0,0,0-1.205l-.216-.252-10.918-.018C98.843-118.78,96.837-118.762,96.657-118.664Z" transform="translate(-87.543 -357.005)" fill="#fff"/>
  </g>
</svg>
