<svg xmlns="http://www.w3.org/2000/svg" width="46" height="62.725" viewBox="0 0 46 62.725">
  <g id="uxtesting" transform="translate(-75.861 495.933)">
    <path id="Path_303" data-name="Path 303" d="M86.555-495.746a4.682,4.682,0,0,0-1.988,1.53c-.732,1.112-.719.85-.719,10.516,0,4.918-.026,8.946-.065,8.946a4.54,4.54,0,0,1-.68-.471,6.863,6.863,0,0,0-3.976-1.491,2.913,2.913,0,0,0-2.812,1.766L76-474.3v35.405l.379.379a1.125,1.125,0,0,0,1.975-.6c.078-.3.131-7.625.131-17.683v-17.173l.327-.209c.288-.183.379-.183,1.02,0a5.58,5.58,0,0,1,3.871,4.316c.092.51.144,3.466.144,8.331v7.56l.8.889a14.687,14.687,0,0,1,3.78,10.058c0,.968.039,1.125.34,1.478a.889.889,0,0,0,.8.405c1.125,0,1.413-.576,1.295-2.55-.039-.8-.118-1.726-.157-2.067l-.092-.615h20.482l-.092.628a12.911,12.911,0,0,1-3.871,7.39,20.893,20.893,0,0,1-2.734,2.04c-1.766,1.112-2.106,1.491-1.91,2.132a1.245,1.245,0,0,0,1.792.811,29.958,29.958,0,0,0,4.656-3.3,15.59,15.59,0,0,0,4.512-8.789l.17-.981.615-.092a3.976,3.976,0,0,0,3.047-2.38c.34-.759.366-.916.419-3.217l.052-2.42,1.74-1.766a20.846,20.846,0,0,0,2.014-2.276,4.253,4.253,0,0,0,.026-3.832,4.866,4.866,0,0,0-1.609-1.687c-.209-.1-.366-.222-.366-.275a11.535,11.535,0,0,1,.968-1.086,4.027,4.027,0,0,0,1.439-3.27,3.71,3.71,0,0,0-1.282-2.838,10.91,10.91,0,0,0-.929-.772c-.249-.144-.2-.222.693-1.138a4.357,4.357,0,0,0,1.478-2.577,4.214,4.214,0,0,0-.471-2.694,6.422,6.422,0,0,0-1.713-1.7c-.222-.131-.17-.235.746-1.19a4.078,4.078,0,0,0,1.478-3.178,4.213,4.213,0,0,0-3.6-4.12l-.6-.092-.078-1.91c-.065-1.779-.1-1.949-.484-2.72a3.878,3.878,0,0,0-2.184-2.014c-.693-.262-.994-.262-14.335-.249C89.406-495.929,86.96-495.89,86.555-495.746Zm27.963,2.577c.575.445.719.981.719,2.59v1.439H86.333v-3.427l.445-.445.445-.445h26.93Zm-1.988,7.717c-1.452,1.5-1.766,2.053-1.844,3.388a3.516,3.516,0,0,0,1.138,3.126,7.1,7.1,0,0,0,.994.889c.235.131.2.2-.6,1.033a4.128,4.128,0,0,0-1.53,3.061,3.453,3.453,0,0,0,1.138,3.113,7.669,7.669,0,0,0,.994.876c.249.144.209.209-.628,1.073a4.244,4.244,0,0,0-1.53,3.244,5.792,5.792,0,0,0,.209,1.543,4.971,4.971,0,0,0,1.883,2.171l.405.17-.929.942a7.165,7.165,0,0,0-1.256,1.7,2.95,2.95,0,0,0-.288,1.8,7.574,7.574,0,0,0,.157,1.295c.1.222-.523.235-12.2.235H86.333v-26.028h4.395c4.473,0,4.748-.026,5.114-.51a1.428,1.428,0,0,0-.144-1.543l-.314-.366-4.525-.039-4.525-.039v-2.341H113.72Zm6.186-.824a2.039,2.039,0,0,1,.837,1.426,2.656,2.656,0,0,1-.131.641A29,29,0,0,1,115.6-480.3a1.779,1.779,0,0,1-2.459-.929c-.288-.85-.1-1.177,1.753-3.061A26.69,26.69,0,0,1,117-486.276,1.676,1.676,0,0,1,118.717-486.276Zm.065,8.161a1.73,1.73,0,0,1,.706,1.74c-.065.405-.405.824-1.8,2.25a21.292,21.292,0,0,1-2.08,1.936,1.8,1.8,0,0,1-2.407-.824c-.392-.916-.222-1.216,1.818-3.283a21.554,21.554,0,0,1,2.119-1.988A1.843,1.843,0,0,1,118.782-478.115Zm0,8.109a1.73,1.73,0,0,1,.706,1.74c-.065.392-.392.8-1.609,2.053a25.79,25.79,0,0,1-2.04,1.936,1.672,1.672,0,0,1-2.629-1.91,20.177,20.177,0,0,1,3.374-3.61A1.693,1.693,0,0,1,118.782-470.006Zm0,8.109a1.73,1.73,0,0,1,.706,1.74c-.065.392-.392.8-1.609,2.053a25.8,25.8,0,0,1-2.04,1.936,1.676,1.676,0,0,1-2.629-1.923,22.044,22.044,0,0,1,3.518-3.728A1.71,1.71,0,0,1,118.782-461.9Zm-3.571,10.254c-.026,1.321-.092,1.74-.275,2.014-.5.732.092.706-12.948.706H89.969l-.51-1.164a18.247,18.247,0,0,0-1.151-2.184l-.654-1.033h27.61Z" transform="translate(-0.12 0)" fill="#fff"/>
    <path id="Path_304" data-name="Path 304" d="M249.316-406.785a1.272,1.272,0,0,0-.732,1.726,1.149,1.149,0,0,0,1.923.288,1.179,1.179,0,0,0-.419-1.962C249.63-406.889,249.6-406.889,249.316-406.785Z" transform="translate(-150.024 -77.425)" fill="#fff"/>
    <path id="Path_305" data-name="Path 305" d="M210.24-371.713a12.069,12.069,0,0,0-1.7.667,8.967,8.967,0,0,0-3.584,3.571,8.2,8.2,0,0,0,3.414,10.921,6.465,6.465,0,0,0,3.937.929,5.682,5.682,0,0,0,2.616-.366,8.3,8.3,0,0,0,5.062-5.062,9.362,9.362,0,0,0,.249-4.565,8.434,8.434,0,0,0-4.395-5.467,10.644,10.644,0,0,0-1.8-.667A12.28,12.28,0,0,0,210.24-371.713Zm3,2.3a5.784,5.784,0,0,1,4.159,8.174,5.647,5.647,0,0,1-3.414,2.956,4.645,4.645,0,0,1-2,.222,4.066,4.066,0,0,1-2.158-.523,5.7,5.7,0,0,1-3.074-3.479,5.254,5.254,0,0,1-.17-1.975,3.978,3.978,0,0,1,.5-2.184,5.859,5.859,0,0,1,2.655-2.681A5.243,5.243,0,0,1,213.235-369.411Z" transform="translate(-111.446 -107.828)" fill="#fff"/>
    <path id="Path_306" data-name="Path 306" d="M245.106-331.792a10.768,10.768,0,0,0-1.5,1.36,10.661,10.661,0,0,1-1.36,1.256,2.884,2.884,0,0,1-.68-.523c-.615-.575-1.007-.654-1.622-.327a1.3,1.3,0,0,0-.575,1.321,9.827,9.827,0,0,0,1.216,1.386c1.033,1.059,1.164,1.151,1.635,1.151.5,0,.615-.092,2.524-2,2.132-2.132,2.223-2.289,1.818-3.087a1.36,1.36,0,0,0-1.033-.654A1.283,1.283,0,0,0,245.106-331.792Z" transform="translate(-142.087 -142.57)" fill="#fff"/>
    <path id="Path_307" data-name="Path 307" d="M256.281-162.576a1.126,1.126,0,0,0,.353,1.923.9.9,0,0,0,.889,0,1.082,1.082,0,0,0,.732-1.151A1.131,1.131,0,0,0,256.281-162.576Z" transform="translate(-156.48 -289.433)" fill="#fff"/>
    <path id="Path_308" data-name="Path 308" d="M76.259-34.579a1.149,1.149,0,0,0,.288,1.923,1.159,1.159,0,0,0,1.687-1.125.886.886,0,0,0-.405-.837A1.048,1.048,0,0,0,76.259-34.579Z" transform="translate(0 -400.688)" fill="#fff"/>
  </g>
</svg>
