<svg xmlns="http://www.w3.org/2000/svg" width="46" height="45.987" viewBox="0 0 46 45.987">
  <g id="wireframe_1" transform="translate(0.015 512)">
    <path id="Path_309" data-name="Path 309" d="M4.865-511.784c-.252.216-.252.216-.279,1.518l-.027,1.3-.539.036a1.076,1.076,0,0,0-.737.234l-.2.207L3.059-490.3l-.018,18.193H1.756c-1.33.009-1.464.036-1.662.422a12.293,12.293,0,0,0,.018,3.4,3.079,3.079,0,0,0,2.3,2.2c.368.072,3.98.09,13.97.072l13.476-.027.512-.243a3.352,3.352,0,0,0,1.5-1.473,2.933,2.933,0,0,0,.27-1.249l.054-.809,1.312-.027c1.276-.018,1.321-.027,1.527-.252l.216-.234.027-20.313c.009-11.176,0-20.457-.027-20.628a1.224,1.224,0,0,0-.27-.512L34.764-512H5.116Zm28.812,20.852v19.54H32.15v-18.534c-.009-14.42-.027-18.561-.117-18.669a1.042,1.042,0,0,0-.305-.243c-.144-.081-3.414-.108-12.91-.108H6.1v-1.527H33.677Zm-3.055,2.893v19.388l-.207.35a1.507,1.507,0,0,1-2.677-.162,4.153,4.153,0,0,1-.171-1.788c0-1.384-.009-1.419-.225-1.635l-.216-.225H4.568v-35.308H30.622Zm-4.582,18.39a4.643,4.643,0,0,0,.18,1.509c.1.305.18.575.18.584s-5.31.027-11.805.027c-8.131,0-11.886-.027-12.066-.1a1.768,1.768,0,0,1-.889-.862,3.788,3.788,0,0,1-.126-1.195v-.9H26.04Z" transform="translate(0)" fill="#fff"/>
    <path id="Path_310" data-name="Path 310" d="M68.485-443.664c-.44.2-.485.458-.485,2.992,0,2.659.036,2.83.611,2.992.252.063,3.674.09,11.158.072l10.8-.027.216-.252.216-.252v-5.175l-.234-.216-.234-.216-10.88-.018C70.623-443.78,68.719-443.762,68.485-443.664Zm20.987,2.929v1.527H69.527v-1.464a9.787,9.787,0,0,1,.063-1.527c.027-.036,4.519-.063,9.972-.063h9.909Z" transform="translate(-61.904 -62.101)" fill="#fff"/>
    <path id="Path_311" data-name="Path 311" d="M67.927-357.263l.027.746,11.482.027,11.473.018V-358H67.9Z" transform="translate(-61.813 -140.164)" fill="#fff"/>
    <path id="Path_312" data-name="Path 312" d="M68.716-323.766l-.216.234v9.793l.252.216.252.216h9.685l.252-.216.252-.216v-9.793l-.216-.234L78.76-324H68.931Zm6.5,2.659-1.366,1.375-1.366-1.375-1.375-1.366h5.48Zm-3.764,3.773A18.983,18.983,0,0,1,70.054-316a24.186,24.186,0,0,1-.072-2.713v-2.722l1.393,1.393,1.393,1.393Zm6.217,1.321a13.13,13.13,0,0,1-1.393-1.294l-1.348-1.348,1.366-1.375,1.375-1.366.027,2.659C77.7-317.262,77.691-316.04,77.664-316.013Zm-2.426-.171,1.348,1.348h-5.48l1.348-1.348c.737-.746,1.366-1.348,1.393-1.348S74.5-316.93,75.238-316.184Z" transform="translate(-62.359 -171.11)" fill="#fff"/>
    <path id="Path_313" data-name="Path 313" d="M213-323.236v.764h1.527V-324H213Z" transform="translate(-193.877 -171.11)" fill="#fff"/>
    <path id="Path_314" data-name="Path 314" d="M246.927-323.263l.027.746,3.441.027,3.432.018V-324H246.9Z" transform="translate(-224.732 -171.11)" fill="#fff"/>
    <path id="Path_315" data-name="Path 315" d="M213-289.236v.764h9.972V-290H213Z" transform="translate(-193.877 -202.055)" fill="#fff"/>
    <path id="Path_316" data-name="Path 316" d="M213-255.236v.764h9.972V-256H213Z" transform="translate(-193.877 -233.001)" fill="#fff"/>
    <path id="Path_317" data-name="Path 317" d="M213-221.236v.764h9.972V-222H213Z" transform="translate(-193.877 -263.946)" fill="#fff"/>
    <path id="Path_318" data-name="Path 318" d="M68-187.236v.764H91V-188H68Z" transform="translate(-61.904 -294.891)" fill="#fff"/>
    <path id="Path_319" data-name="Path 319" d="M68.485-153.664c-.44.2-.485.458-.485,2.992,0,2.641.036,2.83.6,2.992.243.072,3.423.09,11.14.072l10.79-.027.234-.216.234-.216v-5.175l-.216-.252-.216-.252-10.907-.018C70.623-153.78,68.719-153.762,68.485-153.664Zm20.987,2.974v1.572l-9.945-.018-9.954-.027-.027-1.437c-.009-.782,0-1.482.018-1.545.036-.1,1.95-.117,9.981-.117h9.927Z" transform="translate(-61.904 -326.047)" fill="#fff"/>
    <path id="Path_320" data-name="Path 320" d="M427.4-494.892a1.283,1.283,0,0,0-.287.243c-.09.117-.108,4.115-.117,18.049V-458.7l1.617,3.216c1.41,2.812,1.644,3.234,1.878,3.333a.822.822,0,0,0,.809-.117c.063-.063.845-1.554,1.725-3.324l1.608-3.216v-35.676l-.261-.261-.261-.261h-3.27A23.674,23.674,0,0,0,427.4-494.892Zm5.7,2.947v1.527h-4.582v-3.055h4.582Zm0,3.818v.764h-4.582v-1.527h4.582Zm-3.1,15.363v13.027l-.737.027-.746.027v-26.162l.746.027.737.027Zm3.082.018.018,13.054h-1.527v-26.153l.746.027.737.027Zm-.53,14.644c0,.045-.4.862-.88,1.824l-.889,1.752-.907-1.824-.907-1.815h1.8A12.43,12.43,0,0,1,432.561-458.1Z" transform="translate(-388.651 -15.473)" fill="#fff"/>
  </g>
</svg>
