<svg xmlns="http://www.w3.org/2000/svg" width="46" height="46" viewBox="0 0 46 46">
  <g id="CloudManagedServices" transform="translate(0 512)">
    <path id="Path_248" data-name="Path 248" d="M19.029-511.82a1.133,1.133,0,0,0-.323.422c-.063.135-.305,1.4-.557,2.812s-.467,2.561-.476,2.57-.44.18-.961.377-1.06.413-1.213.467c-.261.108-.323.072-2.561-1.491-2.264-1.59-2.3-1.608-2.758-1.608H9.7l-2.785,2.785c-2.893,2.893-2.983,3.01-2.839,3.576a17.423,17.423,0,0,0,1.168,1.824c.62.88,1.312,1.887,1.545,2.219l.422.611-.359.782c-.2.431-.431.97-.521,1.2a1.361,1.361,0,0,1-.207.431c-.18,0-5.238.925-5.48,1.006a.929.929,0,0,0-.476.377c-.162.261-.171.494-.171,4.241,0,3.809.009,3.971.18,4.187a1.133,1.133,0,0,0,.422.323c.135.063,1.4.305,2.8.557s2.57.467,2.579.476.18.44.377.961.413,1.06.467,1.213c.108.261.072.323-1.491,2.561-1.59,2.264-1.608,2.3-1.608,2.758v.476l2.794,2.794c2.57,2.57,2.821,2.794,3.154,2.839.467.063.53.027,2.92-1.644,1.1-.773,2.048-1.42,2.1-1.447a1.374,1.374,0,0,1,.557.189c.252.126.773.359,1.159.512s.71.288.719.288.225,1.195.476,2.623.5,2.74.548,2.9a1,1,0,0,0,.386.476c.261.162.494.171,4.241.171,3.809,0,3.971-.009,4.187-.18a1.133,1.133,0,0,0,.323-.422c.063-.135.305-1.4.557-2.812s.467-2.561.476-2.57.44-.18.961-.377,1.069-.413,1.213-.467c.27-.108.323-.081,2.561,1.491,2.264,1.581,2.3,1.608,2.758,1.608H36.3l2.785-2.785c2.893-2.893,2.983-3.01,2.839-3.576a17.423,17.423,0,0,0-1.168-1.824c-.62-.88-1.312-1.887-1.545-2.219l-.422-.611.359-.782c.2-.431.431-.97.521-1.213a1.127,1.127,0,0,1,.216-.422c.027,0,1.267-.216,2.758-.485a21.85,21.85,0,0,0,2.929-.629c.422-.279.431-.359.431-4.537,0-3.782-.009-3.944-.18-4.16a1.133,1.133,0,0,0-.422-.323c-.135-.063-1.4-.305-2.812-.557s-2.561-.467-2.57-.476-.18-.44-.377-.961-.413-1.069-.467-1.213c-.108-.261-.072-.323,1.491-2.561,1.59-2.264,1.608-2.3,1.608-2.758v-.476l-2.785-2.785c-2.893-2.893-3.01-2.983-3.585-2.839-.117.027-1.177.728-2.354,1.545s-2.192,1.509-2.246,1.536a1.374,1.374,0,0,1-.557-.189c-.252-.126-.773-.359-1.159-.512s-.71-.288-.719-.288-.225-1.195-.476-2.623-.5-2.74-.548-2.9a1,1,0,0,0-.386-.476c-.261-.162-.494-.171-4.241-.171C19.406-512,19.245-511.991,19.029-511.82Zm6.846,2.048c0,.332.943,5.229,1.042,5.418.153.305.261.368,1.267.719a20.311,20.311,0,0,1,1.869.809,8.187,8.187,0,0,0,1.24.53c.323,0,.791-.279,2.749-1.653l2.013-1.42,1.842,1.842,1.833,1.833-1.509,2.147a24.221,24.221,0,0,0-1.59,2.462c-.081.279-.036.431.4,1.438.279.62.629,1.527.791,2.021.431,1.33.332,1.276,2.965,1.743,1.213.216,2.39.431,2.632.476l.422.09v2.6c0,1.429-.027,2.6-.063,2.6-.323,0-5.238.943-5.427,1.042-.305.153-.368.261-.719,1.267-.153.431-.521,1.276-.809,1.869a8.186,8.186,0,0,0-.53,1.24c0,.323.279.791,1.653,2.749l1.42,2.012L37.528-474.1l-1.833,1.833-2.147-1.5a21.435,21.435,0,0,0-2.471-1.59c-.287-.081-.44-.036-1.437.4-.611.27-1.518.62-2.012.782-1.339.431-1.285.332-1.743,2.974-.216,1.2-.431,2.381-.476,2.614l-.09.431h-2.6a24.773,24.773,0,0,1-2.6-.072c0-.341-.934-5.22-1.042-5.418-.153-.305-.252-.368-1.267-.719-.431-.153-1.276-.521-1.869-.809a8.186,8.186,0,0,0-1.24-.53c-.323,0-.791.279-2.749,1.653l-2.012,1.42L8.1-474.472l-1.833-1.833,1.509-2.147a24.221,24.221,0,0,0,1.59-2.462c.081-.279.036-.431-.4-1.437-.279-.62-.629-1.527-.791-2.021-.431-1.33-.332-1.276-2.965-1.743-1.213-.216-2.39-.431-2.632-.476l-.422-.09v-2.6a24.766,24.766,0,0,1,.072-2.6c.332,0,5.229-.943,5.418-1.042.305-.153.368-.261.719-1.267a20.306,20.306,0,0,1,.809-1.869,8.186,8.186,0,0,0,.53-1.24c0-.323-.279-.791-1.653-2.749l-1.42-2.012L8.472-503.9l1.833-1.833,2.147,1.5a21.435,21.435,0,0,0,2.471,1.59c.288.081.44.036,1.438-.4.611-.27,1.518-.62,2.012-.782,1.339-.431,1.285-.332,1.743-2.974.216-1.2.431-2.381.476-2.623l.09-.422h2.6A24.773,24.773,0,0,1,25.875-509.772Z" fill="#fff"/>
    <path id="Path_249" data-name="Path 249" d="M128.1-394.82a12.631,12.631,0,0,0-10.027,7.763,12.54,12.54,0,0,0,6.02,15.813,12.713,12.713,0,0,0,11.734-.323,12.5,12.5,0,0,0,4.708-17.016A12.521,12.521,0,0,0,128.1-394.82Zm3.145,2.282a10.017,10.017,0,0,1,5.552,2.812,10.319,10.319,0,0,1,2.947,5.454,11.935,11.935,0,0,1,.126,1.842,11.935,11.935,0,0,1-.126,1.842,11.1,11.1,0,0,1-1.644,3.944A14.142,14.142,0,0,1,135.459-374a11.1,11.1,0,0,1-3.944,1.644,14.043,14.043,0,0,1-3.684,0,10.155,10.155,0,0,1-5.283-2.785,10.255,10.255,0,0,1-2.947-5.445,14.045,14.045,0,0,1,0-3.684,11.246,11.246,0,0,1,1.545-3.818,14.93,14.93,0,0,1,2.866-2.866A10.312,10.312,0,0,1,131.245-392.538Z" transform="translate(-106.673 -106.57)" fill="#fff"/>
    <path id="Path_250" data-name="Path 250" d="M229.522-332.791a1.268,1.268,0,0,0-.314.422c-.234.746-3.207,11.976-3.207,12.111a1.262,1.262,0,0,0,.548.916,1.2,1.2,0,0,0,1.59-.458c.153-.386,3.252-11.994,3.252-12.192a1.262,1.262,0,0,0-.548-.916A1.222,1.222,0,0,0,229.522-332.791Z" transform="translate(-205.695 -162.876)" fill="#fff"/>
    <path id="Path_251" data-name="Path 251" d="M166.994-303.757a13.8,13.8,0,0,0-2.03,1.851c-1.384,1.384-1.833,1.887-1.878,2.1-.135.638-.036.782,1.878,2.686,1.968,1.977,2.12,2.075,2.776,1.806a1.062,1.062,0,0,0,.692-1.078v-.449l-1.321-1.339-1.321-1.33,1.321-1.33,1.321-1.339v-.449a1.048,1.048,0,0,0-.683-1.069A.969.969,0,0,0,166.994-303.757Z" transform="translate(-148.397 -189.492)" fill="#fff"/>
    <path id="Path_252" data-name="Path 252" d="M289.665-303.443a1.06,1.06,0,0,0-.665,1.069v.449l1.321,1.339,1.321,1.33-1.321,1.33L289-296.588v.449a1.062,1.062,0,0,0,.692,1.078c.656.27.809.171,2.776-1.806,1.914-1.9,2.013-2.048,1.878-2.686-.054-.216-.476-.7-1.7-1.932-.889-.907-1.725-1.725-1.851-1.815A1.2,1.2,0,0,0,289.665-303.443Z" transform="translate(-263.035 -189.743)" fill="#fff"/>
  </g>
</svg>
