<svg xmlns="http://www.w3.org/2000/svg" width="46" height="46.125" viewBox="0 0 46 46.125">
  <path id="path0" d="M1853.493,62.07a8.488,8.488,0,0,0-7,6.681l-.163.882-.537,0a4.59,4.59,0,0,0-2.2,8.727l.867.427,4.5.041,4.5.04-.128.553a4.708,4.708,0,0,0,2,4.815c1.148.677,1.4.715,5.394.774a24.4,24.4,0,0,1,3.564.168,1.345,1.345,0,0,0-.254.746l-.073.635-10.013.066c-10.667.07-10.233.04-10.884.746-.635.689-.643.8-.643,8.694v7.423h-.462c-.57,0-1.043.42-.94.835.039.157.135.693.214,1.191.229,1.439.773,2.164,1.842,2.453,1,.268,27.915.113,28.422-.164a2.715,2.715,0,0,0,1.288-2.151c.339-1.768.217-2.164-.666-2.164h-.451V94.27l.362,0a1.06,1.06,0,0,0,1.119-.766c.111-.429.12-.435.432-.231.551.361.788.246,2.074-1.011,1.375-1.343,1.5-1.569,1.216-2.123-.247-.475-.259-.435.165-.541.671-.168.692-.239.692-2.216,0-1.538-.036-1.892-.217-2.092-.211-.232-.13-.241,2.338-.243,3.7,0,4.987-.372,6.062-1.729a4.559,4.559,0,0,0-3.317-7.457l-1.02-.07-.048-1.069A5.285,5.285,0,0,0,1873.8,70.3l-.715.387-.489-.441a9.578,9.578,0,0,0-2.546-1.522c-.615-.2-.879-.466-.879-.877a6.03,6.03,0,0,0-1.25-2.537,5.457,5.457,0,0,0-6.326-1.216l-.881.434-.417-.4a8.965,8.965,0,0,0-6.805-2.058m3.41,1.76a7.444,7.444,0,0,1,2.891,1.842c.8.8.809.8,1.785.141a3.853,3.853,0,0,1,5.868,1.449c.409.906.4.923-.684.923a8.4,8.4,0,0,0-7.958,6.625l-.213.981-1,.071a4.29,4.29,0,0,0-2.76,1.082l-.53.477-4.784-.043c-5.7-.051-6.057-.149-6.843-1.88-1.018-2.24.513-4.216,3.394-4.378,1.6-.09,1.761-.206,1.761-1.229,0-4.216,4.891-7.483,9.076-6.061m11.811,6.008a6.868,6.868,0,0,1,3.174,1.8c1.124,1.043,1.03,1.017,1.764.485,3.21-2.326,7.271.183,6.333,3.911-.268,1.064-.042,1.245,1.556,1.245,3.934,0,5.53,3.763,2.45,5.781l-.527.345-3.36.039-3.36.039-1.117-1.126c-1.141-1.15-1.658-1.394-2.073-.979-.191.191-.433.036-.433-.277,0-.566-.311-.66-2.172-.66-2.057,0-2.117.015-2.311.6-.149.453-.306.562-.457.318-.276-.446-.932-.127-2.045.994l-1.117,1.126-4.15-.039-4.15-.038-.546-.354c-2.96-1.926-1.385-5.771,2.365-5.771,1.273,0,1.54-.175,1.54-1.011,0-4.169,4.484-7.506,8.634-6.427m3.3,12.726c.318.873.621,1,1.393.583l.567-.308.684.664.684.664-.312.616c-.41.81-.258,1.154.625,1.409l.626.182v1.945l-.526.089c-.994.168-1.2.773-.576,1.722.221.338.219.344-.453,1.016l-.676.676-.516-.29c-.877-.493-1.323-.313-1.564.632l-.118.461-1,.039-1,.038-.082-.438c-.19-1.013-.657-1.234-1.549-.731l-.517.29-.674-.674-.673-.674.283-.481c.519-.879.279-1.394-.745-1.6l-.421-.085V86.373l.626-.182c.85-.247,1.008-.657.571-1.481l-.31-.583.677-.656.677-.656.6.319c.907.482,1.19.289,1.584-1.084.032-.111.342-.164.957-.164h.91l.247.677m-1.927,1.81a3.017,3.017,0,1,0,2.368.385,3.491,3.491,0,0,0-2.368-.385m1.55,1.6a1.535,1.535,0,0,1-.591,2.858,1.515,1.515,0,0,1-.97-2.822,1.277,1.277,0,0,1,1.562-.037m10.042,5.435c0,6.933.186,6.686-5.145,6.686h-3.284v1.449h6.94l.806-.4c1.984-.992,2.06-1.258,2.108-7.4l.04-5.105h-1.464l0,4.776m-17.651-2.741c0,.618.312,1,.823,1,.223,0,.225.025.026.409-.318.614-.18.872,1.171,2.2,1.293,1.268,1.6,1.412,2.128,1.009.245-.185.271-.17.407.235a1.137,1.137,0,0,0,1.144.76l.363,0v9.222H1864.6c-5.811,0-5.972.017-5.972.613,0,.138-.345.177-1.581.177a4.205,4.205,0,0,1-1.581-.131c0-.641-.168-.659-6.063-.659h-5.536l.036-7.52c.035-7.27.044-7.527.292-7.707.215-.157,1.8-.187,10.045-.187h9.79v.586m-10.8,7.121v.725h1.45V95.059h-1.45v.724m3.031,0v.725h1.449V95.059h-1.449v.724m3.162,0v.725h1.449V95.059h-1.449v.724m-5.4,9.311c0,.565.332.636,2.985.636,2.636,0,3.076-.094,3.076-.659a48.107,48.107,0,0,1,5.682-.131h5.682l-.089.556c-.179,1.125,1.227,1.024-14.292,1.022-14.613,0-14.046.025-14.244-.665-.286-1-.787-.914,5.536-.914,4.241,0,5.665.039,5.665.154" transform="translate(-1840.961 -61.984)" fill="#fff" fill-rule="evenodd"/>
</svg>
