<svg xmlns="http://www.w3.org/2000/svg" width="46" height="45.999" viewBox="0 0 46 45.999">
  <path id="path0" d="M29.565,79.236c-1.409.424-1.7,1.029-1.7,3.555,0,3.876-.351,3.723,8.463,3.723,3.688,0,6.706.037,6.706.081a1.934,1.934,0,0,1-.29.462,6.264,6.264,0,0,0-.487.764l-.2.383-1.209-.056a6.248,6.248,0,0,0-5.182,2.034l-.89.9H27.127v4.317h1.348l.035-1.45.035-1.449,2.806-.033c1.543-.018,2.806-.007,2.806.025a1.835,1.835,0,0,1-1.046,1.8,4.4,4.4,0,0,0-2.778,2.771c-.233.68-.246,1.038-.246,6.987v6.27h14.8v-5.92h-1.48v4.44H31.443v-3.515a29.29,29.29,0,0,1,.107-3.515,1.365,1.365,0,0,1,.439.261c.978.77,1.1.783,7.255.824l5.642.038v-1.494h-5.4c-3.144,0-5.572-.05-5.817-.12a2.984,2.984,0,0,1-1.144-5.085,3.016,3.016,0,0,1,4.923,1.746l.069.511.692-.037.692-.037-.044-.493a4.632,4.632,0,0,0-3.376-3.807c-.485-.156.318-2.079,1.273-3.049,2.955-3,8.407-1.219,8.831,2.888l.072.7h1.461l-.078-.586a6.677,6.677,0,0,0-3.167-4.992c-.565-.317-.562-.284-.093-.993a6.712,6.712,0,0,1,12.285,3.37l.074.931,1.017.138a4.458,4.458,0,0,1,1.417,8.531l-.679.322-5.766.036-5.765.036v13.941l-.732.962c-1.179,1.549-.389,1.429-9.381,1.429H28.545l-.031-10.39-.032-10.39H24.167v11.786c0,12.485-.023,12,.6,12.675.676.731.214.7,9.865.7h8.876l.152.462a3.653,3.653,0,0,0,6.822.284l.334-.747h8.816c9.8,0,9.4.033,10.015-.83.508-.716.516-.9.516-12.829V97H67.208v-5.92h-9.7l-.206-.96a9.283,9.283,0,0,0-1.37-3.11l-.327-.431,1.806-.034,1.806-.034,4.119-1.829,4.119-1.828L65.7,82.071c-.967-.428-2.035-.9-2.375-1.054s-1.442-.644-2.451-1.091l-1.835-.813-14.568.011c-8.012.006-14.72.056-14.9.112m4.194,3.607-.034,2.251h-2c-2.592,0-2.44.138-2.44-2.211,0-2.416-.136-2.29,2.488-2.29h2.019l-.033,2.25m24.541,0-.033,2.251-2.077.034c-1.941.032-2.105.016-2.506-.231a8.191,8.191,0,0,0-8.374-.173l-.773.431H35.267V80.593H58.334l-.034,2.25m3.553-.941c1.012.448,1.882.853,1.933.9a32.954,32.954,0,0,1-4.016,1.861,9.591,9.591,0,0,1-.084-1.788c0-2.13-.221-2.031,2.167-.972m-12.4,5.386v.687l.7.157a3.778,3.778,0,0,1,2.933,3.221c.067.322.107.34.763.34h.693l-.07-.586a5.25,5.25,0,0,0-4.318-4.422l-.7-.083v.687m16.308,8.134.033,2.991,1.449.035,1.449.035V109.37c0,9.207-.027,10.924-.175,11.126-.17.233-.433.24-9.62.272l-9.445.033v.346a2.978,2.978,0,0,1-.8,1.976,2.251,2.251,0,0,1-3.761-1.746V120.8l-9.43-.033c-8.863-.031-9.443-.046-9.651-.253s-.222-.846-.253-11.131l-.033-10.91h1.607v20.719h17.1l.766-.383a4.005,4.005,0,0,0,1.393-1.14c.8-.966.7-.964,1.447-.03a3.646,3.646,0,0,0,1.341,1.146l.7.346,8.663.033,8.663.033V99.955h-1.48v17.892l-7.739-.036c-9.086-.041-8.185.129-9.639-1.82l-.5-.675V102.93l5.025-.047c4.281-.04,5.115-.078,5.623-.252a5.925,5.925,0,0,0,2.813-9.425A5.252,5.252,0,0,1,60.8,92.5a23.161,23.161,0,0,1,2.464-.065h2.464l.033,2.99M49.449,106.615v.74h14.8v-1.48h-14.8v.74m0,2.959v.741H64.26l-.037-.709-.037-.709-7.369-.032-7.369-.032v.741m-19.28,2.3a2.115,2.115,0,0,0-.082.74v.658h1.356v-1.48h-.6a1.8,1.8,0,0,0-.678.082m2.96,0a2.115,2.115,0,0,0-.082.74v.658H44.886v-1.48H39.049c-3.211,0-5.875.037-5.92.082m16.32.658v.74H61.166v-1.48H49.449v.74m13.319-.006v.746H64.26l-.037-.709-.037-.709-.709-.037-.71-.037v.746m-32.681,3.028v.678H41.926v-1.356H30.087v.679m13.319,0v.678h1.48v-1.356h-1.48v.679" transform="translate(-24.167 -79.113)" fill="#fff" fill-rule="evenodd"/>
</svg>
