<svg xmlns="http://www.w3.org/2000/svg" width="46" height="45.976" viewBox="0 0 46 45.976">
  <path id="path0" d="M666.642,50.493c-6.283.708-11.956,5.724-12.859,11.371-.067.418-.142.514-.524.661a6.665,6.665,0,0,0-.132,12.6c.481.19,1.152.226,5.243.282l4.691.064V78.19l-5.825.032-5.825.032-.256.324c-.244.31-.255.475-.255,3.761v3.438l-.463.236a3.107,3.107,0,0,0,1.99,5.822c2.844-.59,3.345-4.793.7-5.853l-.5-.2V79.978l5.216.032,5.216.033.039.474c.111,1.356,2.448,2.371,6.01,2.61.679.045,1.332.11,1.45.143.2.056.216.332.216,3.54V90.29l-.575.3a3.513,3.513,0,0,0-1.409,1.577l-.108.278h-7.124l-.269.285a.734.734,0,0,0,.035,1.14l.3.3h7.037l.217.458a3.153,3.153,0,0,0,5.578.11l.283-.567h7.031l.3-.3a.736.736,0,0,0,.018-1.157c-.28-.263-.361-.268-3.819-.268h-3.534l-.284-.569a2.984,2.984,0,0,0-1.427-1.383l-.4-.193V86.818c0-3.216.016-3.493.216-3.548.119-.033.772-.1,1.451-.143,3.54-.238,5.8-1.2,5.976-2.536l.074-.549,5.216-.033,5.216-.032V85.76l-.556.269a3.1,3.1,0,1,0,2.938.1l-.654-.369V82.331c0-3.278-.011-3.443-.255-3.753L692,78.254l-5.825-.032-5.826-.032V75.474l4.63-.067a34.448,34.448,0,0,0,5.124-.23c6.234-2.064,6.022-11.068-.3-12.731l-.795-.209-.262-.992a7.914,7.914,0,0,0-8.254-6.04l-1.232.075-.856-.807a14.558,14.558,0,0,0-11.759-3.979m4.136,1.9a11.744,11.744,0,0,1,6.636,3.6c1.266,1.282,1.2,1.256,2.716,1.017a6.119,6.119,0,0,1,7.058,5.555c.142,1.134.25,1.241,1.45,1.436a4.886,4.886,0,0,1,3.483,7.636c-1.2,1.816-2.069,2.053-7.511,2.053h-4.326V65.867l-.311-.407c-1.938-2.541-14.6-2.541-16.539,0l-.311.407V73.7l-4.6-.038c-5.1-.042-4.856,0-6.167-.934-3.181-2.258-2.085-7.782,1.709-8.614.941-.207,1.279-.53,1.279-1.222a14.191,14.191,0,0,1,.976-3.191,13.192,13.192,0,0,1,9.889-7.361,11.935,11.935,0,0,1,4.568.053m5.352,13.257a11.829,11.829,0,0,1,1.79.514l.573.255-.308.175c-2.321,1.313-10.456,1.321-12.924.012l-.348-.185.569-.254c1.95-.87,7.674-1.147,10.648-.517m-9.92,3.1a25.042,25.042,0,0,0,12.191-.324c.276-.079.278-.07.278,1.228v1.308l-.513.261c-2.557,1.3-9.876,1.354-12.728.085l-.586-.261V69.7c0-1.236.018-1.343.216-1.265.119.047.633.189,1.142.316m.2,4.676a25.072,25.072,0,0,0,10.857-.057c.672-.166,1.264-.3,1.315-.3a4.537,4.537,0,0,1,.093,1.282v1.282l-.429.2c-2.965,1.407-11.428,1.353-13.244-.084-.321-.255-.206-2.726.124-2.644l1.284.32m2.136,5.019a25.977,25.977,0,0,0,8.86-.477c1.368-.359,1.268-.44,1.268,1.039,0,1.406-.019,1.433-1.351,1.846-3.193.99-9.32.86-11.914-.252l-.562-.242V77.667l1.141.3a24.418,24.418,0,0,0,2.557.478m-16.17,9.128a1.272,1.272,0,0,1,.742,1.236,1.347,1.347,0,1,1-.742-1.236m39.835.018a1.358,1.358,0,1,1-1.275.038,1.079,1.079,0,0,1,1.275-.038m-19.592,4.669a1.376,1.376,0,1,1-1.6-.153,1.864,1.864,0,0,1,1.6.153" transform="translate(-648.698 -50.399)" fill="#fff" fill-rule="evenodd"/>
</svg>
