<svg xmlns="http://www.w3.org/2000/svg" width="46" height="42.484" viewBox="0 0 46 42.484">
  <path id="path0" d="M1276.229,65.236a4.424,4.424,0,0,0-3.073,3.464c-.1.534-.132,4.266-.1,13.509l.037,12.772.274.642c.273.64.273.642.037,1.177a3.176,3.176,0,0,0,2.96,4.6c1.233,0,1.592-.195,3.11-1.685l1.238-1.215h4.366c2.4,0,4.366.029,4.366.065s-.172.75-.381,1.587l-.381,1.522-.9.068c-3.36.254-4.18,4.362-1.1,5.514.919.344,17.53.4,18.665.06,3.2-.951,2.428-5.28-1-5.59l-.882-.079-.392-1.542-.392-1.543,6.368-.065c7.691-.078,8.071-.163,9.274-2.061.781-1.232.743-.418.706-14.911l-.033-13.2-.347-.708a4.875,4.875,0,0,0-2.153-2.153l-.708-.347-7.93-.035c-5.545-.024-8.006.007-8.181.1a.986.986,0,0,0-.082,1.5c.016.015,3.586.056,7.936.093l7.907.066.607.371a2.257,2.257,0,0,1,.947,1.04l.339.669v21.3h-8.74c-4.807,0-8.775-.034-8.817-.076a1.919,1.919,0,0,1,.393-.771,10.805,10.805,0,0,0-7.182-16.743c-8.261-1.454-14.969,7.046-11.721,14.851l.324.778-.975.98-.975.98h-4.88V79.7c0-11.926-.049-11.292.953-12.175.851-.75.75-.74,9.017-.741h7.564l.3-.3a.7.7,0,0,0,.047-1.1l-.256-.325-7.857.009c-6.154.007-7.953.044-8.3.17m19.284.013a.817.817,0,0,0,.051,1.279c.4.312.678.324,1.014.04a.848.848,0,1,0-1.065-1.319m9.23,5.767a.853.853,0,0,0-.364,1.176.912.912,0,0,0,1.4.124.853.853,0,0,0-1.035-1.3m4.07-.075a.894.894,0,0,0-.391,1.439c.4.366,6.232.3,6.492-.07a.847.847,0,0,0-.044-1.1c-.232-.287-5.414-.516-6.058-.269m-15.078,3.636a9.074,9.074,0,1,1-11.572,8.743,9.107,9.107,0,0,1,11.572-8.743m11.253.683a.893.893,0,0,0-.392,1.438c.2.183.743.2,5.176.2h4.95l.193-.274a.846.846,0,0,0-.044-1.1l-.236-.292-4.73-.023c-2.6-.012-4.815.008-4.916.047m-15.116,3.486c-2.52.418-5.731,2.983-5.737,4.584a5.708,5.708,0,0,0,1.74,2.52,7.875,7.875,0,0,0,11.97-1.471c.591-.9.6-1.252.062-2.095a8.174,8.174,0,0,0-8.035-3.538m15.116.835a.821.821,0,0,0,.254,1.618.806.806,0,0,0,.355-1.524,2.012,2.012,0,0,0-.387-.172c-.021.006-.121.041-.222.078m4.359.06a.8.8,0,0,0-.324,1.187.817.817,0,0,0,1.518-.409.847.847,0,0,0-1.194-.777m4.527.012a.852.852,0,0,0-.364,1.175.913.913,0,0,0,1.4.125.853.853,0,0,0-1.036-1.3m-25.108,1.6a3.2,3.2,0,0,0,.172,4.334l.317.352-.494-.2a6.8,6.8,0,0,1-2.623-2.137c-.329-.5.7-1.667,2.207-2.5.885-.488.948-.465.421.151m5.4-.123a6.8,6.8,0,0,1,2.118,1.855c.386.589-1.035,2.109-2.571,2.748l-.482.2.333-.4a3.226,3.226,0,0,0,.078-4.352c-.488-.555-.426-.562.525-.056m-2.026,1.025a1.427,1.427,0,0,1-.908,2.588,1.166,1.166,0,0,1-.974-.3,1.485,1.485,0,0,1,.974-2.6,1.244,1.244,0,0,1,.908.312m12.852,1.746a.894.894,0,0,0-.392,1.44c.4.358,3.889.3,4.148-.07a.847.847,0,0,0-.044-1.1,8.541,8.541,0,0,0-3.713-.269m6.725.054c-.594.338-.729.923-.309,1.344.4.4,3.968.375,4.251-.027a.847.847,0,0,0-.044-1.1c-.272-.337-3.381-.509-3.9-.215m-28.144,6.967a11.514,11.514,0,0,1,1.058,1.138c0,.133-6.812,6.933-7.33,7.319a1.542,1.542,0,0,1-2.482-1.483,103.523,103.523,0,0,1,7.671-8.032c.014,0,.5.476,1.083,1.058m-7.113,2.485c-1.668,1.667-1.627,1.67-1.681-.1l-.041-1.348h3.167l-1.445,1.445m40.87-.241c0,1.855-.375,2.66-1.522,3.273l-.513.274-16.319.034c-10.146.022-16.32-.01-16.32-.082a22.581,22.581,0,0,1,1.8-1.926l1.8-1.81.694.31c3.277,1.456,8.443.916,10.5-1.1.154-.151,1.645-.177,10.026-.177h9.846v1.2m-16.106,6.725c.195.763.378,1.485.41,1.6.052.2-.275.215-5.587.215-5.132,0-5.635-.018-5.566-.2.042-.109.216-.761.388-1.45s.336-1.321.365-1.406c.041-.12,1.122-.154,4.845-.154h4.792l.354,1.388m4.129,4a1.154,1.154,0,0,1,0,1.448l-.256.325h-8.976c-8.754,0-8.982-.006-9.236-.243a1.042,1.042,0,0,1-.008-1.605c.265-.247.4-.25,9.244-.25h8.976l.256.325" transform="translate(-1273.042 -65.057)" fill="#fff" fill-rule="evenodd"/>
</svg>
