<svg id="Group_364" data-name="Group 364" xmlns="http://www.w3.org/2000/svg" xmlns:xlink="http://www.w3.org/1999/xlink" width="1920" height="900" viewBox="0 0 1920 900">
  <defs>
    <filter id="Path_80" x="452.136" y="116.706" width="154.146" height="156.624" filterUnits="userSpaceOnUse">
      <feOffset input="SourceAlpha"/>
      <feGaussianBlur stdDeviation="1" result="blur"/>
      <feFlood flood-color="#fff" flood-opacity="0.251"/>
      <feComposite operator="in" in2="blur"/>
      <feComposite in="SourceGraphic"/>
    </filter>
    <filter id="Path_88" x="792.874" y="112" width="154.146" height="157.85" filterUnits="userSpaceOnUse">
      <feOffset input="SourceAlpha"/>
      <feGaussianBlur stdDeviation="1" result="blur-2"/>
      <feFlood flood-color="#fff" flood-opacity="0.251"/>
      <feComposite operator="in" in2="blur-2"/>
      <feComposite in="SourceGraphic"/>
    </filter>
    <filter id="Path_81" x="508.901" y="293.467" width="154.146" height="154.146" filterUnits="userSpaceOnUse">
      <feOffset input="SourceAlpha"/>
      <feGaussianBlur stdDeviation="1" result="blur-3"/>
      <feFlood flood-color="#fff" flood-opacity="0.451"/>
      <feComposite operator="in" in2="blur-3"/>
      <feComposite in="SourceGraphic"/>
    </filter>
    <filter id="Path_89" x="793.128" y="523.552" width="154.146" height="154.146" filterUnits="userSpaceOnUse">
      <feOffset input="SourceAlpha"/>
      <feGaussianBlur stdDeviation="1" result="blur-4"/>
      <feFlood flood-color="#fff" flood-opacity="0.251"/>
      <feComposite operator="in" in2="blur-4"/>
      <feComposite in="SourceGraphic"/>
    </filter>
    <filter id="Path_79" x="346.999" y="291.57" width="80.073" height="80.073" filterUnits="userSpaceOnUse">
      <feOffset input="SourceAlpha"/>
      <feGaussianBlur stdDeviation="1" result="blur-5"/>
      <feFlood flood-color="#fff" flood-opacity="0.251"/>
      <feComposite operator="in" in2="blur-5"/>
      <feComposite in="SourceGraphic"/>
    </filter>
    <filter id="Path_83" x="432.893" y="410.499" width="66.859" height="66.859" filterUnits="userSpaceOnUse">
      <feOffset input="SourceAlpha"/>
      <feGaussianBlur stdDeviation="1" result="blur-6"/>
      <feFlood flood-color="#fff" flood-opacity="0.251"/>
      <feComposite operator="in" in2="blur-6"/>
      <feComposite in="SourceGraphic"/>
    </filter>
    <filter id="Path_84" x="464.439" y="518.063" width="94.888" height="94.888" filterUnits="userSpaceOnUse">
      <feOffset input="SourceAlpha"/>
      <feGaussianBlur stdDeviation="1" result="blur-7"/>
      <feFlood flood-color="#fff" flood-opacity="0.251"/>
      <feComposite operator="in" in2="blur-7"/>
      <feComposite in="SourceGraphic"/>
    </filter>
    <filter id="Path_85" x="658.594" y="261.777" width="94.888" height="94.888" filterUnits="userSpaceOnUse">
      <feOffset input="SourceAlpha"/>
      <feGaussianBlur stdDeviation="1" result="blur-8"/>
      <feFlood flood-color="#fff" flood-opacity="0.251"/>
      <feComposite operator="in" in2="blur-8"/>
      <feComposite in="SourceGraphic"/>
    </filter>
    <filter id="Path_86" x="655.934" y="134.961" width="81.673" height="81.673" filterUnits="userSpaceOnUse">
      <feOffset input="SourceAlpha"/>
      <feGaussianBlur stdDeviation="1" result="blur-9"/>
      <feFlood flood-color="#fff" flood-opacity="0.251"/>
      <feComposite operator="in" in2="blur-9"/>
      <feComposite in="SourceGraphic"/>
    </filter>
    <filter id="Path_87" x="753.801" y="322.655" width="80.073" height="80.073" filterUnits="userSpaceOnUse">
      <feOffset input="SourceAlpha"/>
      <feGaussianBlur stdDeviation="1" result="blur-10"/>
      <feFlood flood-opacity="0.161"/>
      <feComposite operator="in" in2="blur-10"/>
      <feComposite in="SourceGraphic"/>
    </filter>
    <filter id="Path_77" x="596.465" y="626.79" width="94.888" height="94.888" filterUnits="userSpaceOnUse">
      <feOffset input="SourceAlpha"/>
      <feGaussianBlur stdDeviation="1" result="blur-11"/>
      <feFlood flood-color="#fff" flood-opacity="0.251"/>
      <feComposite operator="in" in2="blur-11"/>
      <feComposite in="SourceGraphic"/>
    </filter>
    <filter id="Path_249" x="585.816" y="374.532" width="154.146" height="154.146" filterUnits="userSpaceOnUse">
      <feOffset input="SourceAlpha"/>
      <feGaussianBlur stdDeviation="1" result="blur-12"/>
      <feFlood flood-color="#fff" flood-opacity="0.251"/>
      <feComposite operator="in" in2="blur-12"/>
      <feComposite in="SourceGraphic"/>
    </filter>
  </defs>
  <rect id="Rectangle_139" data-name="Rectangle 139" width="1920" height="900" fill="#2a2c3b"/>
  <g id="Group_363" data-name="Group 363" transform="translate(0 70)">
    <g id="Group_362" data-name="Group 362">
      <text id="Specialist" transform="translate(1085 332)" fill="#fff" font-size="118" font-family="SegoeUI, Segoe UI"><tspan x="0" y="0">Specialist</tspan></text>
      <text id="Specialist-2" data-name="Specialist" transform="translate(1093 324)" fill="#fff" font-size="118" font-family="SegoeUI, Segoe UI" opacity="0.09"><tspan x="0" y="0">Specialist</tspan></text>
    </g>
    <g id="Group_361" data-name="Group 361" transform="translate(141 -64)">
      <g id="Group_321" data-name="Group 321" transform="translate(-366.096 -130.461)" style="isolation: isolate">
        <g transform="matrix(1, 0, 0, 1, 225.1, 124.46)" filter="url(#Path_80)">
          <path id="Path_80-2" data-name="Path 80" d="M74.073,0h2.478a74.073,74.073,0,0,1,0,148.146H74.073A74.073,74.073,0,0,1,74.073,0Z" transform="translate(603.28 119.71) rotate(90)" fill="#b20768"/>
        </g>
        <g transform="matrix(1, 0, 0, 1, 225.1, 124.46)" filter="url(#Path_88)">
          <path id="Path_88-2" data-name="Path 88" d="M74.073,0h3.7a74.073,74.073,0,1,1,0,148.146h-3.7A74.073,74.073,0,0,1,74.073,0Z" transform="translate(944.02 115) rotate(90)" fill="#ff3900"/>
        </g>
        <g transform="matrix(1, 0, 0, 1, 225.1, 124.46)" filter="url(#Path_81)">
          <path id="Path_81-2" data-name="Path 81" d="M74.073,0a74.073,74.073,0,0,1,74.073,74.073h0A74.073,74.073,0,0,1,0,74.073H0A74.073,74.073,0,0,1,74.073,0Z" transform="translate(660.05 296.47) rotate(90)" fill="#009ad6"/>
        </g>
        <g transform="matrix(1, 0, 0, 1, 225.1, 124.46)" filter="url(#Path_89)">
          <path id="Path_89-2" data-name="Path 89" d="M74.073,0a74.073,74.073,0,0,1,74.073,74.073h0A74.073,74.073,0,0,1,0,74.073H0A74.073,74.073,0,0,1,74.073,0Z" transform="translate(944.27 526.55) rotate(90)" fill="#030065"/>
        </g>
        <g transform="matrix(1, 0, 0, 1, 225.1, 124.46)" filter="url(#Path_79)">
          <path id="Path_79-2" data-name="Path 79" d="M37.036,0A37.036,37.036,0,0,1,74.073,37.036h0A37.036,37.036,0,0,1,0,37.037H0A37.036,37.036,0,0,1,37.036,0Z" transform="translate(424.07 294.57) rotate(90)" fill="#e07400"/>
        </g>
        <g transform="matrix(1, 0, 0, 1, 225.1, 124.46)" filter="url(#Path_83)">
          <path id="Path_83-2" data-name="Path 83" d="M30.429,0A30.429,30.429,0,0,1,60.859,30.429h0A30.429,30.429,0,0,1,0,30.429H0A30.429,30.429,0,0,1,30.429,0Z" transform="translate(496.75 413.5) rotate(90)" fill="#f30b52"/>
        </g>
        <g transform="matrix(1, 0, 0, 1, 225.1, 124.46)" filter="url(#Path_84)">
          <path id="Path_84-2" data-name="Path 84" d="M44.444,0A44.444,44.444,0,0,1,88.888,44.444h0A44.444,44.444,0,0,1,0,44.444H0A44.444,44.444,0,0,1,44.444,0Z" transform="translate(556.33 521.06) rotate(90)" fill="#5d1d7d"/>
        </g>
        <g transform="matrix(1, 0, 0, 1, 225.1, 124.46)" filter="url(#Path_85)">
          <path id="Path_85-2" data-name="Path 85" d="M44.444,0A44.444,44.444,0,0,1,88.888,44.444h0A44.444,44.444,0,0,1,0,44.444H0A44.444,44.444,0,0,1,44.444,0Z" transform="translate(750.48 264.78) rotate(90)" fill="#11267a"/>
        </g>
        <g transform="matrix(1, 0, 0, 1, 225.1, 124.46)" filter="url(#Path_86)">
          <path id="Path_86-2" data-name="Path 86" d="M37.837,0A37.837,37.837,0,0,1,75.673,37.837h0A37.837,37.837,0,1,1,0,37.837H0A37.837,37.837,0,0,1,37.837,0Z" transform="translate(734.61 137.96) rotate(90)" fill="#01a5a7"/>
        </g>
        <g transform="matrix(1, 0, 0, 1, 225.1, 124.46)" filter="url(#Path_87)">
          <path id="Path_87-2" data-name="Path 87" d="M37.036,0A37.036,37.036,0,0,1,74.073,37.036h0A37.036,37.036,0,0,1,0,37.037H0A37.036,37.036,0,0,1,37.036,0Z" transform="translate(830.87 325.66) rotate(90)" fill="#ffb300"/>
        </g>
        <g transform="matrix(1, 0, 0, 1, 225.1, 124.46)" filter="url(#Path_77)">
          <path id="Path_77-2" data-name="Path 77" d="M44.444,0A44.444,44.444,0,0,1,88.888,44.444h0A44.444,44.444,0,0,1,0,44.444H0A44.444,44.444,0,0,1,44.444,0Z" transform="translate(688.35 629.79) rotate(90)" fill="#70a300"/>
        </g>
      </g>
      <path id="path0" d="M197.586,33.4c-20.856,4.148-30.97,28.645-19.065,46.175,14.444,21.272,47.036,15.867,53.863-8.933,5.819-21.139-13.234-41.532-34.8-37.243m13.194,9.432c2.807.511,2.819.526,2.209,2.791a15.879,15.879,0,0,0-.524,2.73c-.016.806-.122.837-2.057.611-3.621-.426-4.733.424-4.733,3.621v1.472l2.89.109,2.889.109-.031,3.01-.031,3.01-2.764.187-2.764.188-.1,11.138-.1,11.138-3.646.218a22.14,22.14,0,0,1-3.945.033,113.282,113.282,0,0,1-.3-11.432V60.526l-2.128-.113-2.127-.113V54.28l2.077-.111,2.077-.112.185-3.546c.351-6.709,4.547-9.2,12.921-7.675" transform="translate(361.109 240.106)" fill="#fff" fill-rule="evenodd"/>
      <path id="path0-2" data-name="path0" d="M304.323,139.754c-23.1,3.292-32.322,32.292-15.563,48.947,22.062,21.923,58.833-3.756,46.055-32.164a28.886,28.886,0,0,0-30.492-16.784m-.534,11.372a32.524,32.524,0,0,0,5.775.842c8.383.24,15.053,6.868,15.72,15.62.889,11.663.93,10.787-.62,13.241-2.429,3.848-6.44,5.575-10.459,4.5a37.522,37.522,0,0,0-5.971-.745c-8.639-.43-14.978-6.253-15.878-14.587-.16-1.479-.572-4.366-.915-6.416-1-5.978,1.434-10.577,6.568-12.408,2.679-.955,2.2-.95,5.781-.05m1.089,7.64c-6.711,2.677-5.216,8.5,2.779,10.816,4.751,1.375,5.858,2.706,3.889,4.674-1.577,1.577-3.908,1.38-6.58-.555-2.471-1.79-3.7-2.08-4.124-.972-1.3,3.424,6.57,6.75,11.523,4.868,5.683-2.162,5.4-9.044-.432-10.606-5.741-1.539-7.055-2.214-7.055-3.629,0-2.767,4.291-3.051,7.34-.483,1.63,1.37,3.217,1.317,3.217-.11,0-3.334-6.27-5.713-10.557-4" transform="translate(247.109 2.106)" fill="#fff" fill-rule="evenodd"/>
      <path id="path0-3" data-name="path0" d="M102.487,270.022c-36.186,7.874-54.1,48.911-35.315,80.894,24.948,42.469,90.287,31.568,100.285-16.735,7.916-38.234-26.755-72.474-64.971-64.159m-3.611,34.36v4.226h-9.51v-8.452h9.51v4.226m0,25.484v16.782h-9.51V329.815c0-16.646.025-16.836,2.378-17.191,7.2-1.081,7.133-1.243,7.133,17.242m34.177-16.916c4.514,2.057,5.433,5.411,5.443,19.845l.006,13.327-5.018.32-5.021.323V334.72c0-12.87-1.081-15.7-5.7-14.953-4.689.761-5.722,4.058-5.849,18.694l-.07,8.188h-9.51V312.837h4.137c2.276,0,4.321.539,4.54,1.2.279.84,1.35.691,3.522-.485,3.665-1.984,9.881-2.26,13.524-.6" transform="translate(614.109 272.106)" fill="#fff" fill-rule="evenodd"/>
      <path id="path0-4" data-name="path0" d="M149.105,98c-56.792,14.439-59.379,92.047-3.691,110.579,35.592,11.842,73.907-16.382,73.907-54.441,0-36.992-35.112-65.063-70.217-56.138m36.765,32.7c9.491,1.35,10.088,2.724,10.118,23.27l.023,17.059a7.075,7.075,0,0,1-1.835,4.372c-1.725,1.612-5.066,2.076-5.066,2.076H162.064c-26.981,0-28.4,1-30.132,0a4.67,4.67,0,0,1-3.149-5.361l-.353-17.146c-.527-25.56-1.717-24.707,34.8-24.987,9.168-.073,19.356.253,22.64.717M156.006,153.5c0,8.9.27,16.189.6,16.189,1.494,0,20.8-14.042,21.4-15.559.287-.733-7.874-7.1-18.383-14.332l-3.614-2.487V153.5" transform="translate(566.109 31.106)" fill="#fff" fill-rule="evenodd"/>
      <path id="path0-5" data-name="path0" d="M81.261,183.711c-21.906,7.47-20.58,38.816,1.866,44.108,18.6,4.384,34.188-14.868,25.934-32.028-5.018-10.435-17.156-15.709-27.8-12.079m9.8,7.311c.261,2.586.151,2.41,2.126,3.369,1.457.707,1.482.7,3.165-.82,2.061-1.862,1.786-1.862,3.751-.008s1.961,1.858.243,3.943c-2.131,2.585-1.122,4.917,2.214,5.114l2.274.135v5.225l-2.445.305c-1.959.244-2.446.467-2.446,1.116a1.407,1.407,0,0,1-.444,1.087c-.776.48-.484,1.479.89,3.044,1.689,1.923,1.681,1.994-.4,4.023l-1.73,1.689-1.771-1.6c-2.85-2.576-5.141-1.306-5.541,3.071-.119,1.3-.173,1.334-2.566,1.334s-2.449-.029-2.568-1.334c-.4-4.376-2.69-5.646-5.541-3.071l-1.771,1.6-1.729-1.689c-2.078-2.029-2.085-2.1-.4-4.023,1.374-1.565,1.666-2.564.888-3.044a1.483,1.483,0,0,1-.444-1.138c0-.654-.309-.863-1.278-.863-3.681,0-4.111-.331-3.967-3.061l.132-2.5,2.386-.221c3.487-.325,4.456-2.564,2.281-5.27-1.613-2.007-1.446-2.849.9-4.52l1.347-.96,1.813,1.638c1.313,1.184,1.947,1.5,2.3,1.151a2.1,2.1,0,0,1,1.3-.487c.944,0,1.679-1.634,1.679-3.733,0-1.861-.052-1.826,2.741-1.811l2.372.013.232,2.294m-4.889,9.513c-4.392,1.753-4.063,8.691.484,10.193,2.158.711,3.755.267,5.577-1.555,4.115-4.115-.591-10.822-6.061-8.638" transform="translate(564.109 152.106)" fill="#fff" fill-rule="evenodd"/>
      <path id="path0-6" data-name="path0" d="M219.063,184.6c-24.666,7.183-40.36,32.652-35.326,57.33,11.206,54.955,87.185,55.043,99.042.117,7.7-35.657-28.008-67.849-63.715-57.447M236.5,210.489a29.334,29.334,0,0,1,7.928,5.62c1.369,1.624,2.489,2.483,2.489,1.9,0-3.562,15.34-.006,20.772,4.817,4.1,3.641,7.872,8.961,4.149,16.852l-4.644,4.084c-4.418,3.888-4.641,4.33-4.641,9.162,0,6.21-.718,6.3-5.321.68-3.4-4.151-3.888-4.4-8.67-4.471-10.578-.155-14.469-3.131-8.529-6.523,5.893-3.366,9.077-8.165,9.426-14.211l.293-5.09-.812,5.043c-1.665,10.35-12.308,18.1-25.135,18.307l-6.471.1-4.386,5.134c-5.585,6.535-6.1,6.447-6.1-1.032,0-6.166,0-6.166-4.251-9.162-23.6-16.635,6.7-44.526,33.9-31.216" transform="translate(212.109 134.302)" fill="#fff" fill-rule="evenodd"/>
      <g transform="matrix(1, 0, 0, 1, -141, -6)" filter="url(#Path_249)">
        <path id="Path_249-2" data-name="Path 249" d="M74.073,0a74.073,74.073,0,0,1,74.073,74.073h0A74.073,74.073,0,0,1,0,74.073H0A74.073,74.073,0,0,1,74.073,0Z" transform="translate(736.96 377.53) rotate(90)" fill="#00a650"/>
      </g>
      <path id="path0-7" data-name="path0" d="M180.967,98.167c-42.022,11.01-50.527,67.085-13.7,90.331,14.622,9.23,36.447,10.018,49.486,1.789a17.411,17.411,0,0,1,4.543-2.278c.51,0,3.771-2.841,7.244-6.314,35.986-35.986,1.574-96.4-47.573-83.527M217.5,120.543c4.754,2.258,5.865,2.281,10.053.232,4.3-2.1,4.9-.554,1.481,3.8l-1.992,2.534,2.96-.591c3.74-.751,3.708-.232-.27,4.235-2.658,2.986-3.429,4.908-4.368,10.874-3.925,24.939-25.316,40.335-50.211,36.137-13.045-2.2-19.31-7.012-9.349-7.186a29.013,29.013,0,0,0,8.134-1.7c4.525-1.739,6.357-4.055,3.206-4.055-2.508,0-8.926-6.36-8.926-8.847,0-1.371.452-1.815,1.449-1.432,2.337.9,1.664-.875-.841-2.218-5.241-2.8-8.656-13.4-3.936-12.216l2.467.617-2.226-3.012c-1.745-2.365-2.218-4.247-2.192-8.714.046-8.015,1.325-8.844,6.221-4.044,5.986,5.864,18.947,11.842,25.678,11.842.24,0,.438-1.638.438-3.638,0-11.227,11.453-17.727,22.223-12.613" transform="translate(328.109 299.106)" fill="#fff" fill-rule="evenodd"/>
      <path id="path0-8" data-name="path0" d="M266.105,97.468c-29.747,5.768-50.253,38.5-42.84,68.379,11.719,47.24,74.274,58.3,101.1,17.875,27.661-41.671-8.915-95.821-58.263-86.254M292.944,121.7c27.759,13.752,24.035,55-5.745,63.6-6.058,1.75-11.239,1.626-19.931-.473-6.741-1.626-7.782-1.626-13.38,0-7.338,2.135-11.049,2.278-10.37.4,3.411-9.408,4.319-16.073,2.735-20.065-11.507-28.977,18.861-57.248,46.691-43.463m-20.31,3.93c-16.752,3.192-26.362,21.753-19.523,37.705,2.076,4.851,2.135,6.639.4,12.5-.457,1.547.065,1.626,4.377.637,3.92-.9,5.716-.774,9,.617,28.056,11.862,51.6-24.031,29.417-44.834-5.285-4.955-16.285-8.033-23.679-6.626m-1.443,14.989c1.351,3.228,1.456,4.749.5,7.3-2.158,5.729,8.9,14.924,12.123,10.083,1.557-2.337,1.772-2.363,6.368-.787,6.114,2.1,7.077,6.058,2.37,9.773-11.7,9.234-40.088-17.4-30.194-28.337,3.209-3.545,6.865-2.729,8.833,1.972" transform="translate(111.109 37.106)" fill="#fff" fill-rule="evenodd"/>
      <path id="path0-9" data-name="path0" d="M287.227,96.972c-25.695,5.11-35.358,36.728-17.034,55.746,17.617,18.285,49.036,9.763,55.5-15.056,6.015-23.1-15.024-45.352-38.467-40.689m13.011,15.081c3.889,1.555,4.631,3.477,4.631,11.983,0,5.438.241,7.633.941,8.558,2.582,3.415-2.68,8.3-5.792,5.376l-1.407-1.32-2.163,1.318c-7.82,4.768-16.257-2.376-12.4-10.5,1.634-3.442,3.152-4.22,11.362-5.817,2.016-.393,2.372-2.184.756-3.8-1.578-1.578-3.425-1.214-4.635.912-2.009,3.531-8.229,2.367-7.167-1.339,1.555-5.422,9.249-8.026,15.876-5.372m-7.9,15.986c-1.745,1.743-1.889,2.415-.912,4.241,1.643,3.069,5.751.418,5.751-3.714,0-2.669-2.434-2.934-4.839-.527m22.637,9.091c2.617.7.889,8.576-1.884,8.576-1.408,0-1.4.089-.154-2.9,1.208-2.892.481-3.742-2.723-3.186-2.19.381-3.261-.418-1.968-1.466,1.462-1.187,4.429-1.637,6.729-1.022m-38.892,2.73c9.351,4.223,21.675,5.057,30.534,2.063,8.568-2.9,7.664.564-.995,3.81a34.831,34.831,0,0,1-31.694-4.06c-5.328-3.6-4.1-4.637,2.155-1.813" transform="translate(209.352 540.106)" fill="#fff" fill-rule="evenodd"/>
      <path id="path0-10" data-name="path0" d="M325.058,184.382c-28.381,9.677-33.824,47.754-9.2,64.393,28.853,19.5,66.16-8.982,54.75-41.8-6.435-18.5-27.259-28.832-45.547-22.6m19.395,10.105c27.4,9.205,20.961,49.789-7.9,49.789-8.372,0-8.1,1.058-3.346-12.92.268-.789.586-.744,1.668.234,3.656,3.31,11.143,1.642,14.522-3.236,8.526-12.3,1.012-26.757-13.38-25.739-13.011.921-21.153,14.316-13.728,22.583,2.623,2.918,4.347,1.809,2.865-1.839-1.505-3.7-1.645-5.045-.839-8.037,3.506-13.028,23.249-12.18,23.249,1,0,9.294-6.707,16.6-11.366,12.387-1.554-1.4-1.615-3.673-.223-8.261,1.419-4.674,1.322-6.542-.386-7.457-3.432-1.836-6.538,2.148-5.823,7.474a23.025,23.025,0,0,1-.677,6.991c-.582,2.294-1.474,6.466-1.984,9.268-1.092,5.99-1.647,6.218-6.247,2.583-22.422-17.714-3.384-53.877,23.595-44.817" transform="translate(35.109 341.106)" fill="#fff" fill-rule="evenodd"/>
      <path id="path0-11" data-name="path0" d="M366.158,269.265c-12.7,2.538-21.436,15.827-18.53,28.2,5.632,23.974,38.064,25.537,46.086,2.22,5.807-16.878-9.692-33.987-27.556-30.416M378.5,275.5a19.366,19.366,0,0,1,3.606,2.208l1.43,1.2-1.4.85c-2.141,1.3-2.2,2.582-.3,6.356,2.086,4.141,2.118,6.038.212,12.249-1.193,3.883-2.256,6.4-2.256,5.338,0-.13-1.463-4.478-3.249-9.664-3.414-9.905-3.523-10.628-1.592-10.628.659,0,1.09-.173.958-.387-.18-.291-9.048-.358-10.449-.079-.126.025.37.3,1.1.616,1.287.549,3.982,6.073,3.982,8.163,0,1.068-3.729,12.028-4.093,12.028a84.908,84.908,0,0,1-3.5-9.361c-1.752-5.15-3.277-9.622-3.391-9.941-.128-.352.351-.691,1.221-.865,2.482-.5,1.121-1-2.017-.75-3.736.3-3.906-.266-.979-3.277,4.971-5.115,14.424-6.968,20.716-4.059m9.911,10.543c2.641,6.32.4,15.382-5,20.24-3.85,3.46-3.856,3.012-.112-7.88,2.244-6.527,3.43-10.68,3.43-12.019,0-2.491.724-2.638,1.684-.341m-32.059,3.843c.871,2.416,2.785,7.676,4.252,11.69,2.972,8.131,2.978,8.392.151,6.428-6.854-4.761-9.911-13.3-7.468-20.856.936-2.9,1.076-2.777,3.065,2.738m15.787,5.432c.154.7,1.315,3.968,2.58,7.264,3.241,8.447,3.3,8.338-4.265,8.338-5.514,0-5.438.265-2.416-8.349,1.422-4.054,2.666-7.629,2.763-7.947.312-1.007,1.05-.625,1.338.693" transform="translate(-45.891 146.106)" fill="#fff" fill-rule="evenodd"/>
      <path id="path0-12" data-name="path0" d="M242.842,183.474c-20.351,5.524-27.823,31.8-13.27,46.667,22.715,23.2,59.927-2.647,45.874-31.861-5.622-11.691-20.011-18.224-32.6-14.806m15.01,13.717c4.405,2.583,7.43,6.794,7.458,10.386.02,2.558-2.716,1.879-3.505-.87a11.285,11.285,0,0,0-9.273-7.988c-2-.339-2.311-.584-2.471-1.964l-.181-1.577,2.842.337a15.77,15.77,0,0,1,5.129,1.676m-15.722-.617c2.537,3.346,3.328,8.11,1.711,10.3-1.8,2.433,2.032,7.516,8.029,10.659l2.056,1.077,1.869-2.036c2.249-2.456,2.56-2.474,7.073-.428,3.972,1.8,4.576,3.339,2.615,6.659-7.241,12.258-37.192-10.86-30.6-23.616,1.507-2.91,5.833-4.471,7.243-2.611m13.049,3.645c4.732,2.191,8.448,8.83,4.941,8.83-1.049,0-1.555-.459-2.2-2a6.884,6.884,0,0,0-4.627-4.372c-2.566-.556-2.778-.717-2.778-2.115,0-1.719,1.464-1.828,4.662-.347m-.829,3.617c1.948,1.008,3.3,2.852,3.3,4.512,0,1.895-2.229,1.661-3.377-.355a3.642,3.642,0,0,0-2.193-1.778c-.938-.133-1.332-.591-1.457-1.689-.206-1.783,1.137-2.032,3.731-.689" transform="translate(-3.891 116.106)" fill="#fff" fill-rule="evenodd"/>
    </g>
  </g>
</svg>
