<svg xmlns="http://www.w3.org/2000/svg" xmlns:xlink="http://www.w3.org/1999/xlink" width="178" height="81.99" viewBox="0 0 178 81.99">
  <defs>
    <filter id="Path_80" x="13.235" y="0.592" width="24.648" height="24.96" filterUnits="userSpaceOnUse">
      <feOffset input="SourceAlpha"/>
      <feGaussianBlur stdDeviation="1" result="blur"/>
      <feFlood flood-color="#fff" flood-opacity="0.251"/>
      <feComposite operator="in" in2="blur"/>
      <feComposite in="SourceGraphic"/>
    </filter>
    <filter id="Path_88" x="56.127" y="0" width="24.648" height="25.115" filterUnits="userSpaceOnUse">
      <feOffset input="SourceAlpha"/>
      <feGaussianBlur stdDeviation="1" result="blur-2"/>
      <feFlood flood-color="#fff" flood-opacity="0.251"/>
      <feComposite operator="in" in2="blur-2"/>
      <feComposite in="SourceGraphic"/>
    </filter>
    <filter id="Path_81" x="20.38" y="22.843" width="24.648" height="24.648" filterUnits="userSpaceOnUse">
      <feOffset input="SourceAlpha"/>
      <feGaussianBlur stdDeviation="1" result="blur-3"/>
      <feFlood flood-color="#fff" flood-opacity="0.451"/>
      <feComposite operator="in" in2="blur-3"/>
      <feComposite in="SourceGraphic"/>
    </filter>
    <filter id="Path_82" x="30.062" y="33.047" width="24.648" height="24.648" filterUnits="userSpaceOnUse">
      <feOffset input="SourceAlpha"/>
      <feGaussianBlur stdDeviation="1" result="blur-4"/>
      <feFlood flood-color="#fff" flood-opacity="0.251"/>
      <feComposite operator="in" in2="blur-4"/>
      <feComposite in="SourceGraphic"/>
    </filter>
    <filter id="Path_89" x="56.159" y="51.805" width="24.648" height="24.648" filterUnits="userSpaceOnUse">
      <feOffset input="SourceAlpha"/>
      <feGaussianBlur stdDeviation="1" result="blur-5"/>
      <feFlood flood-color="#fff" flood-opacity="0.251"/>
      <feComposite operator="in" in2="blur-5"/>
      <feComposite in="SourceGraphic"/>
    </filter>
    <filter id="Path_79" x="0" y="22.604" width="15.324" height="15.324" filterUnits="userSpaceOnUse">
      <feOffset input="SourceAlpha"/>
      <feGaussianBlur stdDeviation="1" result="blur-6"/>
      <feFlood flood-color="#fff" flood-opacity="0.251"/>
      <feComposite operator="in" in2="blur-6"/>
      <feComposite in="SourceGraphic"/>
    </filter>
    <filter id="Path_83" x="10.813" y="37.575" width="13.661" height="13.661" filterUnits="userSpaceOnUse">
      <feOffset input="SourceAlpha"/>
      <feGaussianBlur stdDeviation="1" result="blur-7"/>
      <feFlood flood-color="#fff" flood-opacity="0.251"/>
      <feComposite operator="in" in2="blur-7"/>
      <feComposite in="SourceGraphic"/>
    </filter>
    <filter id="Path_84" x="14.784" y="51.114" width="17.189" height="17.189" filterUnits="userSpaceOnUse">
      <feOffset input="SourceAlpha"/>
      <feGaussianBlur stdDeviation="1" result="blur-8"/>
      <feFlood flood-color="#fff" flood-opacity="0.251"/>
      <feComposite operator="in" in2="blur-8"/>
      <feComposite in="SourceGraphic"/>
    </filter>
    <filter id="Path_85" x="39.223" y="18.854" width="17.189" height="17.189" filterUnits="userSpaceOnUse">
      <feOffset input="SourceAlpha"/>
      <feGaussianBlur stdDeviation="1" result="blur-9"/>
      <feFlood flood-color="#fff" flood-opacity="0.251"/>
      <feComposite operator="in" in2="blur-9"/>
      <feComposite in="SourceGraphic"/>
    </filter>
    <filter id="Path_86" x="38.889" y="2.89" width="15.526" height="15.526" filterUnits="userSpaceOnUse">
      <feOffset input="SourceAlpha"/>
      <feGaussianBlur stdDeviation="1" result="blur-10"/>
      <feFlood flood-color="#fff" flood-opacity="0.251"/>
      <feComposite operator="in" in2="blur-10"/>
      <feComposite in="SourceGraphic"/>
    </filter>
    <filter id="Path_87" x="51.208" y="26.517" width="15.324" height="15.324" filterUnits="userSpaceOnUse">
      <feOffset input="SourceAlpha"/>
      <feGaussianBlur stdDeviation="1" result="blur-11"/>
      <feFlood flood-opacity="0.161"/>
      <feComposite operator="in" in2="blur-11"/>
      <feComposite in="SourceGraphic"/>
    </filter>
    <filter id="Path_77" x="31.403" y="64.801" width="17.189" height="17.189" filterUnits="userSpaceOnUse">
      <feOffset input="SourceAlpha"/>
      <feGaussianBlur stdDeviation="1" result="blur-12"/>
      <feFlood flood-color="#fff" flood-opacity="0.251"/>
      <feComposite operator="in" in2="blur-12"/>
      <feComposite in="SourceGraphic"/>
    </filter>
  </defs>
  <g id="Group_263" data-name="Group 263" transform="translate(-572.093 -236.461)">
    <g transform="matrix(1, 0, 0, 1, 572.09, 236.46)" filter="url(#Path_80)">
      <path id="Path_80-2" data-name="Path 80" d="M9.324,0h.312a9.324,9.324,0,1,1,0,18.648H9.324A9.324,9.324,0,0,1,9.324,0Z" transform="translate(34.88 3.59) rotate(90)" fill="#b20768"/>
    </g>
    <g transform="matrix(1, 0, 0, 1, 572.09, 236.46)" filter="url(#Path_88)">
      <path id="Path_88-2" data-name="Path 88" d="M9.324,0H9.79a9.324,9.324,0,0,1,0,18.648H9.324A9.324,9.324,0,0,1,9.324,0Z" transform="translate(77.77 3) rotate(90)" fill="#ff3900"/>
    </g>
    <g transform="matrix(1, 0, 0, 1, 572.09, 236.46)" filter="url(#Path_81)">
      <path id="Path_81-2" data-name="Path 81" d="M9.324,0a9.324,9.324,0,0,1,9.324,9.324h0A9.324,9.324,0,1,1,0,9.324H0A9.324,9.324,0,0,1,9.324,0Z" transform="translate(42.03 25.84) rotate(90)" fill="#009ad6"/>
    </g>
    <g transform="matrix(1, 0, 0, 1, 572.09, 236.46)" filter="url(#Path_82)">
      <path id="Path_82-2" data-name="Path 82" d="M9.324,0a9.324,9.324,0,0,1,9.324,9.324h0A9.324,9.324,0,1,1,0,9.324H0A9.324,9.324,0,0,1,9.324,0Z" transform="translate(51.71 36.05) rotate(90)" fill="#00a650"/>
    </g>
    <g transform="matrix(1, 0, 0, 1, 572.09, 236.46)" filter="url(#Path_89)">
      <path id="Path_89-2" data-name="Path 89" d="M9.324,0a9.324,9.324,0,0,1,9.324,9.324h0A9.324,9.324,0,1,1,0,9.324H0A9.324,9.324,0,0,1,9.324,0Z" transform="translate(77.81 54.81) rotate(90)" fill="#030065"/>
    </g>
    <g transform="matrix(1, 0, 0, 1, 572.09, 236.46)" filter="url(#Path_79)">
      <path id="Path_79-2" data-name="Path 79" d="M4.662,0A4.662,4.662,0,0,1,9.324,4.662h0A4.662,4.662,0,1,1,0,4.662H0A4.662,4.662,0,0,1,4.662,0Z" transform="translate(12.32 25.6) rotate(90)" fill="#e07400"/>
    </g>
    <g transform="matrix(1, 0, 0, 1, 572.09, 236.46)" filter="url(#Path_83)">
      <path id="Path_83-2" data-name="Path 83" d="M3.83,0a3.83,3.83,0,0,1,3.83,3.83h0A3.83,3.83,0,1,1,0,3.83H0A3.83,3.83,0,0,1,3.83,0Z" transform="translate(21.47 40.57) rotate(90)" fill="#f30b52"/>
    </g>
    <g transform="matrix(1, 0, 0, 1, 572.09, 236.46)" filter="url(#Path_84)">
      <path id="Path_84-2" data-name="Path 84" d="M5.594,0a5.594,5.594,0,0,1,5.594,5.594h0A5.594,5.594,0,1,1,0,5.594H0A5.594,5.594,0,0,1,5.594,0Z" transform="translate(28.97 54.11) rotate(90)" fill="#5d1d7d"/>
    </g>
    <g transform="matrix(1, 0, 0, 1, 572.09, 236.46)" filter="url(#Path_85)">
      <path id="Path_85-2" data-name="Path 85" d="M5.594,0a5.594,5.594,0,0,1,5.594,5.594h0A5.594,5.594,0,1,1,0,5.594H0A5.594,5.594,0,0,1,5.594,0Z" transform="translate(53.41 21.85) rotate(90)" fill="#11267a"/>
    </g>
    <g transform="matrix(1, 0, 0, 1, 572.09, 236.46)" filter="url(#Path_86)">
      <path id="Path_86-2" data-name="Path 86" d="M4.763,0A4.763,4.763,0,0,1,9.526,4.763h0A4.763,4.763,0,0,1,0,4.763H0A4.763,4.763,0,0,1,4.763,0Z" transform="translate(51.41 5.89) rotate(90)" fill="#01a5a7"/>
    </g>
    <g transform="matrix(1, 0, 0, 1, 572.09, 236.46)" filter="url(#Path_87)">
      <path id="Path_87-2" data-name="Path 87" d="M4.662,0A4.662,4.662,0,0,1,9.324,4.662h0A4.662,4.662,0,1,1,0,4.662H0A4.662,4.662,0,0,1,4.662,0Z" transform="translate(63.53 29.52) rotate(90)" fill="#ffb300"/>
    </g>
    <g transform="matrix(1, 0, 0, 1, 572.09, 236.46)" filter="url(#Path_77)">
      <path id="Path_77-2" data-name="Path 77" d="M5.594,0a5.594,5.594,0,0,1,5.594,5.594h0A5.594,5.594,0,1,1,0,5.594H0A5.594,5.594,0,0,1,5.594,0Z" transform="translate(45.59 67.8) rotate(90)" fill="#70a300"/>
    </g>
    <path id="Path_90" data-name="Path 90" d="M15.6,19.49H9.745A9.745,9.745,0,0,1,9.745,0H15.6V2.5H9.586a7.132,7.132,0,1,0,0,14.264H15.6v2.72Z" transform="translate(637.975 265.022)"/>
    <path id="Path_91" data-name="Path 91" d="M9.454,19.562A9.465,9.465,0,0,1,0,10.108V9.454a9.454,9.454,0,0,1,18.908,0v.655A9.465,9.465,0,0,1,9.454,19.562ZM9.384,2.406A7,7,0,0,0,2.4,9.395v.633a6.989,6.989,0,1,0,13.977,0V9.395A7,7,0,0,0,9.384,2.406Z" transform="translate(664.59 264.782)" fill="#b20768"/>
    <g id="Group_230" data-name="Group 230" transform="translate(656.273 264.824)">
      <rect id="Rectangle_67" data-name="Rectangle 67" width="2.495" height="19.67"/>
      <rect id="Rectangle_96" data-name="Rectangle 96" width="2.495" height="6.446" transform="translate(6.966 17.175) rotate(90)"/>
    </g>
    <g id="Group_229" data-name="Group 229" transform="translate(726.059 264.741)">
      <rect id="Rectangle_101" data-name="Rectangle 101" width="2.495" height="19.753" fill="#b20768"/>
    </g>
    <path id="Path_92" data-name="Path 92" d="M19.447,18.824H9.412A9.412,9.412,0,0,1,9.412,0H19.447V2.563H9.369a6.888,6.888,0,0,0,0,13.776H19.447v2.484Z" transform="translate(686.202 284.379) rotate(-90)"/>
    <path id="Path_93" data-name="Path 93" d="M19.447,18.824H9.412A9.412,9.412,0,0,1,9.412,0H19.447V2.485H9.369a6.888,6.888,0,0,0,0,13.776H19.447v2.562Z" transform="translate(750.093 264.965) rotate(90)"/>
    <path id="Path_94" data-name="Path 94" d="M15.6,19.6H9.8A9.8,9.8,0,0,1,9.8,0h5.8V2.736H9.625a7.171,7.171,0,1,0,0,14.341H15.6V19.6Z" transform="translate(723.306 284.379) rotate(180)"/>
  </g>
</svg>
