<svg xmlns="http://www.w3.org/2000/svg" width="518" height="338" viewBox="0 0 518 338">
  <g id="Group_359" data-name="Group 359" transform="translate(-11732 -3159)">
    <text id="Solutions" transform="translate(11832 3248)" fill="#70a300" font-size="69" font-family="SegoeUI, Segoe UI"><tspan x="0" y="0">SOLUTIONS</tspan></text>
    <text id="Digital_Marketing" data-name="Digital Marketing" transform="translate(11850 3290)" font-size="33" font-family="SegoeUI, Segoe UI"><tspan x="0" y="0">DIGITAL MARKETING</tspan></text>
    <text id="ML_NLP" data-name="ML &amp; NLP" transform="translate(12128 3327)" fill="#707070" font-size="27" font-family="SegoeUI, Segoe UI"><tspan x="0" y="0">ML &amp; NLP</tspan></text>
    <text id="Artificial_Intelligence" data-name="Artificial Intelligence" transform="translate(12037 3352)" fill="#ffb300" font-size="17" font-family="SegoeUI-BoldItalic, Segoe UI" font-weight="700" font-style="italic"><tspan x="0" y="0">ARTIFICIAL INTELLIGENCE</tspan></text>
    <text id="Consulting_Services" data-name="Consulting Services" transform="translate(11732 3187)" fill="#707070" font-size="26" font-family="SegoeUI, Segoe UI"><tspan x="0" y="0">CONSULTING SERVICES</tspan></text>
    <text id="Chatbot" transform="translate(12073 3463)" fill="#70a300" font-size="26" font-family="SegoeUI, Segoe UI"><tspan x="0" y="0">CHATBOT</tspan></text>
    <text id="Web_App" data-name="Web App" transform="translate(11915 3492)" fill="#e07400" font-size="20" font-family="SegoeUI, Segoe UI"><tspan x="0" y="0">WEB APP</tspan></text>
    <text id="Virtual_Assistant" data-name="Virtual Assistant" transform="translate(11803 3202) rotate(90)" fill="#707070" font-size="32" font-family="SegoeUI, Segoe UI"><tspan x="0" y="0">VIRTUAL ASSISTANT</tspan></text>
    <text id="Blockchain_" data-name="Blockchain " transform="translate(11772 3211) rotate(90)" fill="#b20768" font-size="21" font-family="SegoeUI-Bold, Segoe UI" font-weight="700"><tspan x="0" y="0">BLOCKCHAIN </tspan></text>
    <text id="React_Native" data-name="React Native" transform="translate(12073 3429)" fill="#01a5a7" font-size="25" font-family="SegoeUI-Bold, Segoe UI" font-weight="700"><tspan x="0" y="0">REACT NATIVE</tspan></text>
    <text id="UI_UX_Design" data-name="UI / UX Design" transform="translate(12026 3186)" fill="#f30b52" font-size="23" font-family="SegoeUI-Semibold, Segoe UI" font-weight="600"><tspan x="0" y="0">UI / UX DESIGN</tspan></text>
    <g id="Group_358" data-name="Group 358" transform="translate(-57 -3)">
      <text id="Cloud_" data-name="Cloud " transform="translate(11958 3398)" fill="#01a5a7" font-size="32" font-family="SegoeUI-Bold, Segoe UI" font-weight="700"><tspan x="0" y="0">CLOUD </tspan></text>
      <text id="Services" transform="translate(11952 3466)" fill="#707070" font-size="29" font-family="SegoeUI, Segoe UI"><tspan x="0" y="0">SERVICES</tspan></text>
      <path id="Path_248" data-name="Path 248" d="M35.209,126.076H64.243a3.707,3.707,0,1,0,0-7.414H35.209a27.8,27.8,0,0,1-2.933-55.437,3.7,3.7,0,0,0,3.041-5.1A25.918,25.918,0,0,1,78.444,30.78a3.612,3.612,0,0,0,3.113,1.186,3.693,3.693,0,0,0,2.808-1.792A46.3,46.3,0,0,1,170.493,53.8a46.49,46.49,0,0,1-.32,5.251,3.791,3.791,0,0,0,1.152,2.973,4.057,4.057,0,0,0,3.084,1.122c.545-.038,1.088-.081,1.644-.081a27.8,27.8,0,0,1,0,55.594H133.43a3.707,3.707,0,1,0,0,7.414h42.622A35.21,35.21,0,0,0,177.867,55.7c.025-.645.038-1.277.038-1.9a53.7,53.7,0,0,0-97.391-31.26,33.337,33.337,0,0,0-53.5,34.075,35.214,35.214,0,0,0,8.2,69.46Zm0,0" transform="translate(11907 3308.941)" fill="#333" stroke="#fff" stroke-width="1.5"/>
    </g>
  </g>
</svg>
