<svg xmlns="http://www.w3.org/2000/svg" xmlns:xlink="http://www.w3.org/1999/xlink" width="451.707" height="425.25" viewBox="0 0 451.707 425.25">
  <defs>
    <filter id="Ellipse_182" x="0" y="127.372" width="399.908" height="170.001" filterUnits="userSpaceOnUse">
      <feOffset dy="3" input="SourceAlpha"/>
      <feGaussianBlur stdDeviation="3" result="blur"/>
      <feFlood flood-opacity="0.51"/>
      <feComposite operator="in" in2="blur"/>
      <feComposite in="SourceGraphic"/>
    </filter>
    <filter id="Ellipse_183" x="29.658" y="0" width="340.592" height="424.745" filterUnits="userSpaceOnUse">
      <feOffset dy="3" input="SourceAlpha"/>
      <feGaussianBlur stdDeviation="3" result="blur-2"/>
      <feFlood flood-opacity="0.51"/>
      <feComposite operator="in" in2="blur-2"/>
      <feComposite in="SourceGraphic"/>
    </filter>
    <filter id="Ellipse_184" x="29.658" y="0" width="340.592" height="424.745" filterUnits="userSpaceOnUse">
      <feOffset dy="3" input="SourceAlpha"/>
      <feGaussianBlur stdDeviation="3" result="blur-3"/>
      <feFlood flood-opacity="0.51"/>
      <feComposite operator="in" in2="blur-3"/>
      <feComposite in="SourceGraphic"/>
    </filter>
  </defs>
  <g id="Group_486" data-name="Group 486" transform="translate(4063.884 -1130.484)">
    <g id="react" transform="translate(-4049.884 1143.314)">
      <circle id="Ellipse_181" data-name="Ellipse 181" cx="34.655" cy="34.655" r="34.655" transform="translate(151.299 161.887)" fill="#61dafb"/>
      <g id="Group_483" data-name="Group 483" transform="translate(0 0)">
        <g transform="matrix(1, 0, 0, 1, -14, -12.83)" filter="url(#Ellipse_182)">
          <ellipse id="Ellipse_182-2" data-name="Ellipse 182" cx="185.954" cy="71.001" rx="185.954" ry="71.001" transform="translate(14 138.37)" fill="none" stroke="#61dafb" stroke-width="10"/>
        </g>
        <g transform="matrix(1, 0, 0, 1, -14, -12.83)" filter="url(#Ellipse_183)">
          <ellipse id="Ellipse_183-2" data-name="Ellipse 183" cx="185.954" cy="71.001" rx="185.954" ry="71.001" transform="translate(168.47 12.83) rotate(60)" fill="none" stroke="#61dafb" stroke-width="10"/>
        </g>
        <g transform="matrix(1, 0, 0, 1, -14, -12.83)" filter="url(#Ellipse_184)">
          <ellipse id="Ellipse_184-2" data-name="Ellipse 184" cx="185.954" cy="71.001" rx="185.954" ry="71.001" transform="translate(354.42 83.83) rotate(120)" fill="none" stroke="#61dafb" stroke-width="10"/>
        </g>
      </g>
    </g>
    <g id="Group_484" data-name="Group 484" transform="translate(-3912.396 1290.043)">
      <g id="Group_377" data-name="Group 377" transform="translate(0 0)">
        <circle id="Ellipse_110" data-name="Ellipse 110" cx="35.41" cy="35.41" r="35.41" transform="matrix(0.602, -0.799, 0.799, 0.602, 0, 56.559)" fill="#ffb300"/>
        <ellipse id="Ellipse_111" data-name="Ellipse 111" cx="43.279" cy="43.279" rx="43.279" ry="43.279" transform="matrix(0.602, -0.799, 0.799, 0.602, 23.729, 84.293)" fill="#70a300"/>
        <circle id="Ellipse_109" data-name="Ellipse 109" cx="52.537" cy="52.537" r="52.537" transform="matrix(0.602, -0.799, 0.799, 0.602, 52.907, 117.872)" fill="#f30b52"/>
        <circle id="Ellipse_112" data-name="Ellipse 112" cx="78.92" cy="78.92" r="78.92" transform="matrix(0.602, -0.799, 0.799, 0.602, 79.171, 170.7)" fill="#11267a"/>
      </g>
    </g>
    <g id="Group_485" data-name="Group 485" transform="translate(-3761.907 1407.476)">
      <path id="Path_44" data-name="Path 44" d="M110.2-747.912l3.546-1.137.937-2.275-1.4-3.278,5.62-5.754,3.011,1.806,2.275-1,1.271-3.613h8.3l.468,3.278,2.81,1.338,3.011-1.806,5.553,5.754-1.606,3.278.8,2.275,3.68,1.137v8.162l-2.877.736-1.606,2.542,1.606,3.01-5.553,5.887-3.011-1.539-2.475,1.07-1.07,3.078h-7.694l-1.271-3.078-2.141-1.07-3.479,1.873-5.954-6.222,1.739-3.01-.937-2.542-3.546-1Z" transform="translate(-110.196 785.144)" fill="none" stroke="#fff" stroke-width="2"/>
      <g id="Ellipse_33" data-name="Ellipse 33" transform="translate(7.5 29.198)" fill="none" stroke="#fff" stroke-width="2">
        <circle cx="11.984" cy="11.984" r="11.984" stroke="none"/>
        <circle cx="11.984" cy="11.984" r="10.984" fill="none"/>
      </g>
      <g id="Ellipse_34" data-name="Ellipse 34" transform="translate(12.978 34.676)" fill="none" stroke="#fff" stroke-width="2">
        <circle cx="6.506" cy="6.506" r="6.506" stroke="none"/>
        <circle cx="6.506" cy="6.506" r="5.506" fill="none"/>
      </g>
      <path id="Path_45" data-name="Path 45" d="M351-794v12.959l13.659-6.262Z" transform="translate(-309.773 810.697)" fill="none" stroke="#fff" stroke-width="2"/>
      <g id="Rectangle_8" data-name="Rectangle 8" transform="translate(34.55 4.202)" fill="none" stroke="#fff" stroke-width="2">
        <rect width="2.739" height="2.739" stroke="none"/>
        <rect x="1" y="1" width="0.739" height="0.739" fill="none"/>
      </g>
      <g id="Rectangle_9" data-name="Rectangle 9" transform="translate(39.858 4.202)" fill="none" stroke="#fff" stroke-width="2">
        <rect width="8.218" height="2.739" stroke="none"/>
        <rect x="1" y="1" width="6.218" height="0.739" fill="none"/>
      </g>
      <g id="Ellipse_35" data-name="Ellipse 35" transform="translate(51.157 26.287)" fill="none" stroke="#fff" stroke-width="2">
        <circle cx="16.179" cy="16.179" r="16.179" stroke="none"/>
        <circle cx="16.179" cy="16.179" r="15.179" fill="none"/>
      </g>
      <g id="Ellipse_36" data-name="Ellipse 36" transform="translate(61.772 32.622)" fill="none" stroke="#fff" stroke-width="2">
        <circle cx="5.564" cy="5.564" r="5.564" stroke="none"/>
        <circle cx="5.564" cy="5.564" r="4.564" fill="none"/>
      </g>
      <path id="Path_46" data-name="Path 46" d="M434.336-626.475s3.044-10.114,11.828-9.331c8.436-.957,11.828,9.331,11.828,9.331" transform="translate(-378.842 679.642)" fill="none" stroke="#fff" stroke-width="2"/>
      <path id="Path_47" data-name="Path 47" d="M237.082-556.047v5.851h38.555v-9.158" transform="translate(-215.358 616.227)" fill="none" stroke="#fff" stroke-width="2"/>
      <path id="Path_48" data-name="Path 48" d="M207.249-547.837v15.914a7.423,7.423,0,0,0,.9,4.3,6.99,6.99,0,0,0,3.731,2.148h39.233a7.764,7.764,0,0,0,3.844-2.148,8.541,8.541,0,0,0,1.47-4.3v-17.525" transform="translate(-190.614 608.017)" fill="none" stroke="#fff" stroke-width="2"/>
      <g id="Rectangle_10" data-name="Rectangle 10" transform="translate(38.317 71.315)" fill="none" stroke="#fff" stroke-width="2">
        <rect width="5.821" height="5.821" rx="2.911" stroke="none"/>
        <rect x="1" y="1" width="3.821" height="3.821" rx="1.911" fill="none"/>
      </g>
      <path id="Path_49" data-name="Path 49" d="M260.99-470.456l-3.044-2.559s-3.067-.364-3.067,2.559,3.067,2.312,3.067,2.312Z" transform="translate(-230.108 544.681)" fill="none" stroke="#fff" stroke-width="2"/>
      <path id="Path_50" data-name="Path 50" d="M254.878-470.456l3.044-2.559s3.067-.364,3.067,2.559-3.067,2.312-3.067,2.312Z" transform="translate(-202.715 544.681)" fill="none" stroke="#fff" stroke-width="2"/>
      <path id="Path_51" data-name="Path 51" d="M207.364-869.562v-17.116a6.879,6.879,0,0,1,2.261-3.731,9.066,9.066,0,0,1,4.636-1.131h36.18a8.3,8.3,0,0,1,4.3,1.7,7.191,7.191,0,0,1,1.7,4.07v20.8" transform="translate(-190.728 891.541)" fill="none" stroke="#fff" stroke-width="2"/>
      <path id="Path_52" data-name="Path 52" d="M237.082-815.917v-10.9H275.41v16.734" transform="translate(-215.358 837.896)" fill="none" stroke="#fff" stroke-width="2"/>
    </g>
  </g>
</svg>
