<svg id="Layer_1" data-name="Layer 1" xmlns="http://www.w3.org/2000/svg" xmlns:xlink="http://www.w3.org/1999/xlink" viewBox="0 0 120 120"><defs><linearGradient id="linear-gradient" x1="21.45" y1="84.05" x2="113.47" y2="84.05" gradientUnits="userSpaceOnUse"><stop offset="0" stop-color="#c9b8ea"/><stop offset="0.42" stop-color="#a5cfdf"/><stop offset="1" stop-color="#ffcadf"/></linearGradient><clipPath id="clip-path"><path d="M71.87,29.5l1.53.89a2.33,2.33,0,0,0-2.34.22l-1.52-.88A2.29,2.29,0,0,1,71.87,29.5Z" style="fill:#fb6762"/></clipPath><clipPath id="clip-path-2"><path d="M48.42,62.31l-1.52-.89a2.28,2.28,0,0,1-1-2.1l1.52.88A2.32,2.32,0,0,0,48.42,62.31Z" style="fill:#fb6762"/></clipPath><clipPath id="clip-path-3"><path d="M47.43,48l-1.52-.89a7.22,7.22,0,0,1,3.27-5.67l1.52.89A7.19,7.19,0,0,0,47.43,48Z" style="fill:#fb6762"/></clipPath><clipPath id="clip-path-4"><path d="M36.55,68l0,.07a.54.54,0,0,0,.24-.41l0,.07A.31.31,0,0,1,36.55,68Z" style="fill:#2c2230"/></clipPath><clipPath id="clip-path-5"><path d="M34.13,69.19l-.12,0c0,.15.1.21.23.13l0-.06C34.2,69.33,34.13,69.29,34.13,69.19Z" style="fill:#2c2230"/></clipPath><clipPath id="clip-path-6"><path d="M33.88,69.24l.2.12a.16.16,0,0,1-.07-.15l-.2-.12C33.81,69.17,33.83,69.22,33.88,69.24Z" style="fill:#3a3240"/></clipPath><clipPath id="clip-path-7"><path d="M36.69,62.1l0-.07c0-.15-.1-.21-.23-.13l0,.11C36.62,62,36.69,62,36.69,62.1Z" style="fill:#2c2230"/></clipPath><clipPath id="clip-path-8"><path d="M36.65,61.88l-.2-.11a.14.14,0,0,0-.16,0l.2.12A.16.16,0,0,1,36.65,61.88Z" style="fill:#413948"/></clipPath><clipPath id="clip-path-9"><path d="M34.27,63.32l0-.12a.54.54,0,0,0-.24.41l.13,0A.33.33,0,0,1,34.27,63.32Z" style="fill:#2c2230"/></clipPath><clipPath id="clip-path-10"><path d="M34.23,63.2l-.2-.11a.5.5,0,0,0-.24.4l.2.12A.54.54,0,0,1,34.23,63.2Z" style="fill:#413948"/></clipPath><clipPath id="clip-path-11"><path d="M36,63.7l0,0a.19.19,0,0,1-.08-.17l0,0A.17.17,0,0,0,36,63.7Z" style="fill:#413948"/></clipPath><clipPath id="clip-path-12"><path d="M36.41,62.49l0,0a.15.15,0,0,0-.18,0l0,0A.19.19,0,0,1,36.41,62.49Z" style="fill:#413948"/></clipPath><clipPath id="clip-path-13"><path d="M36.22,62.51l0,0a.56.56,0,0,0-.27.45l0,0A.59.59,0,0,1,36.22,62.51Z" style="fill:#413948"/></clipPath><clipPath id="clip-path-14"><path d="M47.64,9.29l2.06,1.2a2.69,2.69,0,0,0-2.72.26L44.92,9.56A2.69,2.69,0,0,1,47.64,9.29Z" style="fill:#fb6762"/></clipPath><clipPath id="clip-path-15"><path d="M8.39,50.05l-2.05-1.2A2.67,2.67,0,0,1,5.22,46.4l2.06,1.19A2.69,2.69,0,0,0,8.39,50.05Z" style="fill:#fb6762"/></clipPath><clipPath id="clip-path-16"><path d="M7.24,38.09l-2-1.19A8.37,8.37,0,0,1,9,30.3l2.06,1.19A8.44,8.44,0,0,0,7.24,38.09Z" style="fill:#fb6762"/></clipPath></defs><title>5</title><path d="M22.27,99.91,3.06,111A2.5,2.5,0,0,1,.8,111h0a.69.69,0,0,1,0-1.3L20,98.61a2.5,2.5,0,0,1,2.26,0h0A.69.69,0,0,1,22.27,99.91Z" style="fill:#eae8ed"/><path d="M37.11,91.34,27,97.21a2.5,2.5,0,0,1-2.26,0h0a.69.69,0,0,1,0-1.31L34.85,90a2.5,2.5,0,0,1,2.26,0h0A.69.69,0,0,1,37.11,91.34Z" style="fill:#eae8ed"/><path d="M28,90.8,8.76,101.9a2.5,2.5,0,0,1-2.26,0h0a.69.69,0,0,1,0-1.31L25.71,89.5a2.5,2.5,0,0,1,2.26,0h0A.69.69,0,0,1,28,90.8Z" style="fill:#eae8ed"/><path d="M52.53,76.62,33.32,87.71a2.5,2.5,0,0,1-2.26,0h0a.69.69,0,0,1,0-1.3L50.27,75.32a2.5,2.5,0,0,1,2.26,0h0A.69.69,0,0,1,52.53,76.62Z" style="fill:#eae8ed"/><path d="M63.56,81.89,44.35,93a2.5,2.5,0,0,1-2.26,0h0a.69.69,0,0,1,0-1.3L61.3,80.59a2.5,2.5,0,0,1,2.26,0h0A.69.69,0,0,1,63.56,81.89Z" style="fill:#eae8ed"/><path d="M27.31,102.82l-5.62,3.25a2.5,2.5,0,0,1-2.26,0h0a.69.69,0,0,1,0-1.31l5.62-3.24a2.5,2.5,0,0,1,2.26,0h0A.69.69,0,0,1,27.31,102.82Z" style="fill:#eae8ed"/><path d="M75.52,75,69.9,78.24a2.5,2.5,0,0,1-2.26,0h0c-.63-.37-.63-.95,0-1.31l5.62-3.25a2.5,2.5,0,0,1,2.26,0h0A.69.69,0,0,1,75.52,75Z" style="fill:#eae8ed"/><path d="M31.79,82.78,12.58,93.87a2.5,2.5,0,0,1-2.26,0h0a.68.68,0,0,1,0-1.3l19.21-11.1a2.5,2.5,0,0,1,2.26,0h0A.69.69,0,0,1,31.79,82.78Z" style="fill:#eae8ed"/><path d="M43.74,75.88l-5.62,3.24a2.5,2.5,0,0,1-2.26,0h0a.69.69,0,0,1,0-1.3l5.62-3.25a2.5,2.5,0,0,1,2.26,0h0A.69.69,0,0,1,43.74,75.88Z" style="fill:#eae8ed"/><path d="M66,97.34,46.74,108.43a2.5,2.5,0,0,1-2.26,0h0a.69.69,0,0,1,0-1.31L63.69,96A2.5,2.5,0,0,1,66,96h0A.69.69,0,0,1,66,97.34Z" style="fill:#eae8ed"/><path d="M80.79,88.77,70.64,94.63a2.5,2.5,0,0,1-2.26,0h0a.69.69,0,0,1,0-1.3l10.15-5.86a2.5,2.5,0,0,1,2.26,0h0A.69.69,0,0,1,80.79,88.77Z" style="fill:#eae8ed"/><path d="M71.65,88.23,52.44,99.32a2.5,2.5,0,0,1-2.26,0h0a.68.68,0,0,1,0-1.3L69.39,86.93a2.5,2.5,0,0,1,2.26,0h0A.69.69,0,0,1,71.65,88.23Z" style="fill:#eae8ed"/><path d="M96.21,74.05,77,85.14a2.5,2.5,0,0,1-2.26,0h0a.69.69,0,0,1,0-1.3L94,72.74a2.5,2.5,0,0,1,2.26,0h0A.69.69,0,0,1,96.21,74.05Z" style="fill:#eae8ed"/><path d="M107.24,79.32,88,90.41a2.5,2.5,0,0,1-2.26,0h0a.69.69,0,0,1,0-1.31L105,78a2.5,2.5,0,0,1,2.26,0h0A.69.69,0,0,1,107.24,79.32Z" style="fill:#eae8ed"/><path d="M71,100.25l-5.62,3.24a2.5,2.5,0,0,1-2.26,0h0a.68.68,0,0,1,0-1.3l5.62-3.25a2.5,2.5,0,0,1,2.26,0h0A.69.69,0,0,1,71,100.25Z" style="fill:#eae8ed"/><path d="M119.2,72.42l-5.62,3.24a2.5,2.5,0,0,1-2.26,0h0a.68.68,0,0,1,0-1.3l5.62-3.25a2.5,2.5,0,0,1,2.26,0h0A.69.69,0,0,1,119.2,72.42Z" style="fill:#eae8ed"/><path d="M75.47,80.21,56.26,91.3a2.5,2.5,0,0,1-2.26,0h0A.69.69,0,0,1,54,90L73.21,78.9a2.5,2.5,0,0,1,2.26,0h0A.69.69,0,0,1,75.47,80.21Z" style="fill:#eae8ed"/><path d="M87.42,73.3,81.8,76.55a2.5,2.5,0,0,1-2.26,0h0a.69.69,0,0,1,0-1.31L85.17,72a2.48,2.48,0,0,1,2.25,0h0A.68.68,0,0,1,87.42,73.3Z" style="fill:#eae8ed"/><path d="M20.86,77.13a4.17,4.17,0,0,0,1.23,1l55.6,32.1a7.13,7.13,0,0,0,2.09.8,11.84,11.84,0,0,0,2.25.24,8.88,8.88,0,0,0,4.35-1L112.83,95a3.61,3.61,0,0,0,1.76-2,2.09,2.09,0,0,0,0-.43v3.94a3.09,3.09,0,0,1-1.8,2.51L86.38,114.26a7.22,7.22,0,0,1-2.09.79,9.68,9.68,0,0,1-6.6-.79l-55.6-32.1a7.91,7.91,0,0,1-.7-.48,2.83,2.83,0,0,1-1.1-2.05h0v-4h0A2.67,2.67,0,0,0,20.86,77.13Z" style="fill:#516877"/><path d="M101.84,102.55a.48.48,0,0,1,.44-.06.45.45,0,0,1,.22.44v.28a1.45,1.45,0,0,1-.66,1.13l-4.47,2.58a.4.4,0,0,1-.66-.37v-.29a1.46,1.46,0,0,1,.66-1.13Z" style="fill:#161326"/><path d="M91.91,108.21c.62-.63,1.22-.38,1.2.27,0,1-1,1.94-1.52,1.61a.47.47,0,0,1-.18-.19.84.84,0,0,1-.08-.52,2.23,2.23,0,0,1,.19-.62h0c0-.08.1-.16.14-.24A2.42,2.42,0,0,1,91.91,108.21Z" style="fill:#161326"/><path d="M21.94,76.88c.46.55.82.7,2.42,1.63,0,0,54.19,31.3,54.47,31.44a7.59,7.59,0,0,0,3.21.67v.67a11.84,11.84,0,0,1-2.25-.24,7.13,7.13,0,0,1-2.09-.8l-55.6-32.1a4.17,4.17,0,0,1-1.23-1,2.67,2.67,0,0,1-.57-1.49,2,2,0,0,1,.05-.49,3.57,3.57,0,0,1,1.75-2L48.55,57.86a8.73,8.73,0,0,1,4.34-1v.67a8.33,8.33,0,0,0-1.71.17,7.41,7.41,0,0,0-2.55,1.1c-.86.52,2-1.15-9.93,5.72-1.93,1.12-3.86,2.26-5.8,3.37S29,70.07,27.08,71.2c-.81.47-1.61,1-2.42,1.4A23.47,23.47,0,0,0,22.39,74,1.92,1.92,0,0,0,21.94,76.88Z" style="fill:#6b8091"/><polygon points="35.28 87.89 35.73 87.63 30.85 84.81 30.4 85.07 35.28 87.89" style="fill:#3f3b54"/><polygon points="35.73 88.25 35.73 87.63 35.28 87.89 35.28 88.5 35.73 88.25" style="fill:#2c293b"/><polygon points="35.28 88.5 35.28 87.89 30.4 85.07 30.4 85.69 35.28 88.5" style="fill:#575757"/><path d="M89.06,110.81h0a.4.4,0,0,0,.17-.29h0c0-.11-.08-.15-.17-.09h0a.35.35,0,0,0-.18.29h0C88.88,110.82,89,110.86,89.06,110.81Z" style="fill:#161326"/><path d="M111.41,98.83h0a.59.59,0,0,0,.27-.45V97.11c0-.16-.12-.23-.27-.14h0a.57.57,0,0,0-.26.45v1.26C111.15,98.85,111.27,98.91,111.41,98.83Z" style="fill:#161326"/><path d="M110.35,99.44h0a.57.57,0,0,0,.27-.45V97.72c0-.16-.12-.22-.27-.14h0a.59.59,0,0,0-.27.45V99.3C110.08,99.46,110.2,99.52,110.35,99.44Z" style="fill:#161326"/><path d="M109.29,100.05h0a.57.57,0,0,0,.26-.45V98.34c0-.16-.12-.23-.26-.14h0a.56.56,0,0,0-.27.45v1.26C109,100.07,109.14,100.14,109.29,100.05Z" style="fill:#161326"/><path d="M108.22,100.67h0a.59.59,0,0,0,.27-.45V99c0-.16-.12-.22-.27-.14h0a.59.59,0,0,0-.26.45v1.27C108,100.69,108.08,100.75,108.22,100.67Z" style="fill:#161326"/><path d="M107.16,101.28h0a.57.57,0,0,0,.26-.45V99.57c0-.17-.12-.23-.26-.15h0a.59.59,0,0,0-.27.45v1.27C106.89,101.3,107,101.37,107.16,101.28Z" style="fill:#161326"/><path d="M106.09,101.9h0a.59.59,0,0,0,.27-.45v-1.27c0-.16-.12-.23-.27-.14h0a.59.59,0,0,0-.26.45v1.27C105.83,101.92,106,102,106.09,101.9Z" style="fill:#161326"/><path d="M112.83,95,86.38,110.25a8.88,8.88,0,0,1-4.35,1v-.67a7.54,7.54,0,0,0,2.91-.55,10.27,10.27,0,0,0,1.35-.73c.86-.52-2,1.15,9.93-5.71,1.94-1.12,3.86-2.26,5.8-3.38s3.88-2.21,5.81-3.34c.81-.47,1.61-1,2.42-1.41,1.6-.9,2.36-1.25,2.86-2,.64-.93.49-2.16-1.11-3.11-.06,0-55.66-32.15-55.91-32.27a7.49,7.49,0,0,0-3.22-.67v-.67a11.08,11.08,0,0,1,2.25.24,7,7,0,0,1,2.1.8L112.83,90a3.94,3.94,0,0,1,1.24,1,2.6,2.6,0,0,1,.56,1.55,2.09,2.09,0,0,1,0,.43A3.61,3.61,0,0,1,112.83,95Z" style="fill:#6b8091"/><path d="M57.12,58.75l-1-.59a7.52,7.52,0,0,0-3.22-.67,8.33,8.33,0,0,0-1.71.17,7.33,7.33,0,0,0-2.55,1.11c-.8.48,1.59-.93-7.65,4.4l-2.28,1.31c-1.94,1.12-3.86,2.26-5.8,3.38l-1.59.91Q29.19,70,27.08,71.2c-.81.47-1.61,1-2.42,1.4A25.23,25.23,0,0,0,22.38,74a1.93,1.93,0,0,0-.44,2.92c.46.55.82.7,2.42,1.64L47.88,92.09c14.66,8.47,30.79,17.78,30.95,17.86a8,8,0,0,0,6.12.12,9.21,9.21,0,0,0,1.35-.73c.86-.52-2,1.15,9.93-5.71,1.94-1.12,3.86-2.26,5.8-3.38s3.88-2.21,5.81-3.34c.81-.47,1.61-1,2.42-1.41,1.6-.9,2.36-1.25,2.85-2,.63-.9.51-2.07-.92-3l-.18-.11C112,90.4,64.73,63.12,57.12,58.75Z" style="fill:#6b8091"/><path d="M112.19,90.54c1.43.93,1.55,2.1.92,3-.49.71-1.25,1.06-2.85,2-.81.46-1.61.94-2.42,1.41C105.91,98,104,99.14,102,100.25s-3.86,2.26-5.8,3.38c-11.9,6.86-9.07,5.19-9.93,5.71a9.21,9.21,0,0,1-1.35.73,8,8,0,0,1-6.12-.12c-.26-.13-47.35-27.32-54.47-31.43-1.6-.94-2-1.09-2.42-1.64A1.93,1.93,0,0,1,22.38,74c.55-.44,1-.61,4.7-2.76,1.09-.64,2.19-1.27,3.29-1.9a2.1,2.1,0,0,1,1.86,0,4.81,4.81,0,0,0,4.37,0l5.31-3.06a1.34,1.34,0,0,0,0-2.53c-.55-.31-.51-.79,0-1.08,8.15-4.7,6-3.4,6.72-3.86a7.33,7.33,0,0,1,2.55-1.11,8,8,0,0,1,4.93.5Z" style="fill:url(#linear-gradient)"/><path d="M39.82,65.26a1,1,0,0,1,.87,0l.32.18-5.89,3.4a1,1,0,0,1-.87,0l-.32-.18Z" style="fill:#030000"/><path d="M40.69,64.66l.41.23a.26.26,0,0,1,0,.5l-.09,0-.32-.18a1,1,0,0,0-.87,0l-5.89,3.4-.08,0a.31.31,0,0,1-.18-.25h0a.28.28,0,0,1,.18-.24l6-3.45A1,1,0,0,1,40.69,64.66Z" style="fill:#092236"/><path d="M29.79,71.3a2,2,0,0,0,1.78,0,.54.54,0,0,0,0-1,2,2,0,0,0-1.78,0A.54.54,0,0,0,29.79,71.3Z" style="fill:#6b8091"/><path d="M46.75,61.5a1.93,1.93,0,0,0,1.78,0,.54.54,0,0,0,0-1,2,2,0,0,0-1.78,0A.54.54,0,0,0,46.75,61.5Z" style="fill:#6b8091"/><ellipse cx="27.58" cy="72.58" rx="0.63" ry="0.36" style="fill:#6b8091"/><path d="M43,63.55a1,1,0,0,0,.89,0c.25-.14.25-.37,0-.51A1,1,0,0,0,43,63,.27.27,0,0,0,43,63.55Z" style="fill:#6b8091"/><ellipse cx="44.87" cy="62.46" rx="0.63" ry="0.36" style="fill:#6b8091"/><g style="opacity:0.27"><path d="M45.85,71.67l-12.06,7a1.61,1.61,0,0,1-1.42,0h0a.43.43,0,0,1,0-.82l12.06-7a1.55,1.55,0,0,1,1.42,0h0A.43.43,0,0,1,45.85,71.67Z" style="fill:#6b8091"/><path d="M45,75.41l-8.41,4.85a1.55,1.55,0,0,1-1.42,0h0a.43.43,0,0,1,0-.81l8.41-4.86a1.55,1.55,0,0,1,1.42,0h0A.43.43,0,0,1,45,75.41Z" style="fill:#6b8091"/><path d="M47.88,77,39.46,81.9a1.55,1.55,0,0,1-1.42,0h0a.43.43,0,0,1,0-.82l8.42-4.86a1.61,1.61,0,0,1,1.42,0h0A.43.43,0,0,1,47.88,77Z" style="fill:#6b8091"/></g><g style="opacity:0.27"><path d="M67.61,68.16l-12.06,7a1.55,1.55,0,0,1-1.42,0h0a.43.43,0,0,1,0-.81l12.06-7a1.61,1.61,0,0,1,1.42,0h0A.43.43,0,0,1,67.61,68.16Z" style="fill:#6b8091"/><path d="M66.8,71.9l-8.42,4.86a1.53,1.53,0,0,1-1.41,0h0c-.4-.22-.4-.59,0-.82l8.41-4.86a1.61,1.61,0,0,1,1.42,0h0A.43.43,0,0,1,66.8,71.9Z" style="fill:#6b8091"/><path d="M69.63,73.54,61.22,78.4a1.61,1.61,0,0,1-1.42,0h0a.43.43,0,0,1,0-.82l8.42-4.86a1.53,1.53,0,0,1,1.41,0h0C70,73,70,73.31,69.63,73.54Z" style="fill:#6b8091"/></g><g style="opacity:0.27"><path d="M71.53,87.66l-12.06,7a1.53,1.53,0,0,1-1.41,0h0c-.4-.22-.4-.59,0-.81l12-7a1.61,1.61,0,0,1,1.42,0h0A.43.43,0,0,1,71.53,87.66Z" style="fill:#6b8091"/><path d="M70.72,91.4l-8.41,4.86a1.55,1.55,0,0,1-1.42,0h0a.43.43,0,0,1,0-.82l8.42-4.86a1.59,1.59,0,0,1,1.41,0h0C71.12,90.81,71.12,91.18,70.72,91.4Z" style="fill:#6b8091"/><path d="M73.56,93,65.14,97.9a1.59,1.59,0,0,1-1.41,0h0c-.4-.23-.4-.59,0-.82l8.41-4.86a1.55,1.55,0,0,1,1.42,0h0A.43.43,0,0,1,73.56,93Z" style="fill:#6b8091"/></g><path d="M105.76,62.72l-4.44,2.56a3,3,0,0,0,1.21-2.75V55.05a9.54,9.54,0,0,0-4.31-7.47l-11-6.33a3,3,0,0,0-3-.33l4.45-2.57a3,3,0,0,1,3,.3l11,6.34A9.51,9.51,0,0,1,107,52.45v7.48A3,3,0,0,1,105.76,62.72Z" style="fill:#923eff"/><path d="M102.53,55.05v7.48a3,3,0,0,1-1.21,2.75l0,0a3.05,3.05,0,0,1-3-.3l-11-6.34-4.31,1.23V43.74A3,3,0,0,1,84.2,41l0,0a3,3,0,0,1,3,.33l11,6.33A9.54,9.54,0,0,1,102.53,55.05Z" style="fill:#af8eff"/><path d="M90.43,51.44c0,.59-.48.79-1.07.45a2.22,2.22,0,0,1-1.06-1.68c0-.58.48-.78,1.06-.45A2.21,2.21,0,0,1,90.43,51.44Z" style="fill:#faffff"/><path d="M93.8,53.39c0,.58-.48.79-1.07.45a2.22,2.22,0,0,1-1.06-1.68c0-.59.48-.79,1.06-.45A2.21,2.21,0,0,1,93.8,53.39Z" style="fill:#faffff"/><path d="M97.17,55.33c0,.59-.48.79-1.07.45A2.22,2.22,0,0,1,95,54.11c0-.59.48-.79,1.06-.45A2.21,2.21,0,0,1,97.17,55.33Z" style="fill:#faffff"/><path d="M92.93,23.22v1.15a.65.65,0,0,0-.7-.58A.64.64,0,0,0,92.93,23.22Z" style="fill:#af8eff"/><path d="M92.93,22.24v1a.65.65,0,0,0-.7-.57h-1.6a7.61,7.61,0,0,0,.34-2v-.15h1.26a.65.65,0,0,1,.7.58Z" style="fill:#af8eff"/><path d="M92.8,24.7v.75a.58.58,0,0,0-.38-.51h-.18A.77.77,0,0,0,92.8,24.7Z" style="fill:#af8eff"/><path d="M92.1,26a.8.8,0,0,0,.27,0v.52a.53.53,0,0,0-.29-.46v0Z" style="fill:#af8eff"/><path d="M91,20.67a7.61,7.61,0,0,1-.34,2h1.6a.65.65,0,0,1,.7.57.64.64,0,0,1-.7.57.65.65,0,0,1,.7.58.51.51,0,0,1-.13.33.77.77,0,0,1-.56.24h.18a.58.58,0,0,1,.38.51.59.59,0,0,1-.43.53h0a.8.8,0,0,1-.27,0h-.51l.49,0a.53.53,0,0,1,.29.46.65.65,0,0,1-.7.57h-2.9a1.79,1.79,0,0,1-1.94-1.58V23.83a1.47,1.47,0,0,1,1.1-1.32,2.68,2.68,0,0,0,1.75-1.84c.32-1,1.19-.93,1.29-.15Z" style="fill:#923eff"/><path d="M87.93,22.51a1.47,1.47,0,0,0-1.1,1.32V21.71a1.46,1.46,0,0,1,1.1-1.32,2.67,2.67,0,0,0,1.75-1.85c.34-1,1.29-.92,1.29,0v2h0c-.1-.78-1-.81-1.29.15A2.68,2.68,0,0,1,87.93,22.51Z" style="fill:#af8eff"/><path d="M17.89,11.28,16.17,11c.17-1.45.57-2.57.86-2.64h0l2,.31h0c-.1,0-.22.13-.34.4a9.2,9.2,0,0,0-.6,3.19c0-.65-.11-1-.27-1Z" style="fill:#af8eff"/><path d="M18.16,12.28a9.2,9.2,0,0,1,.6-3.19c.12-.27.24-.4.34-.4s.26.35.26,1c0,.89-.1,1.27-1.2,7.92a10.69,10.69,0,0,0-1.05-1.8,1.81,1.81,0,0,1-.16-.94,9.2,9.2,0,0,1,.6-3.19c.13-.27.25-.4.34-.4S18.16,11.63,18.16,12.28Z" style="fill:#923eff"/><path d="M15.86,11l.31,0,1.72.27h0c-.09,0-.21.13-.34.4a9.2,9.2,0,0,0-.6,3.19,1.81,1.81,0,0,0,.16.94,10.69,10.69,0,0,1,1.05,1.8l-2.05-.32a11.55,11.55,0,0,0-1-1.8,1.93,1.93,0,0,1-.15-.93,9.11,9.11,0,0,1,.6-3.19C15.64,11.08,15.76,11,15.86,11Z" style="fill:#af8eff"/><path d="M35.83,54.84l1.29.74h0a1,1,0,0,0-1,.09,3.14,3.14,0,0,0-1.42,2.45,1,1,0,0,0-.41-.91h0l-.79-.46a3.15,3.15,0,0,1,1.33-1.82A1,1,0,0,1,35.83,54.84Z" style="fill:#ff74b8"/><path d="M37.53,56.5a3.07,3.07,0,0,1-.36,1.3q-1.23,2.46-2.47,4.92a20.21,20.21,0,0,0-2.47-2.07,1,1,0,0,1-.36-.88,3.14,3.14,0,0,1,1.42-2.45.86.86,0,0,1,1.41.81,3.14,3.14,0,0,1,1.42-2.45,1,1,0,0,1,1-.09A1,1,0,0,1,37.53,56.5Z" style="fill:#f32a75"/><path d="M31.87,59.77a1,1,0,0,0,.36.88,20.21,20.21,0,0,1,2.47,2.07L33.41,62a20.16,20.16,0,0,0-2.47-2.08,1,1,0,0,1-.36-.88A3.11,3.11,0,0,1,32,56.57a1,1,0,0,1,1-.1l.5.29.79.46h0a1,1,0,0,0-1,.1A3.14,3.14,0,0,0,31.87,59.77Z" style="fill:#ff74b8"/><path d="M106.43,71.19v1a2,2,0,0,0-4-.1h0v-.94a2,2,0,0,1,4,0Z" style="fill:#af8eff"/><path d="M102.44,76.8c-1.09-1.2-2.25-2.37-3.47-3.48a1.46,1.46,0,0,1-.51-1.09,2,2,0,0,1,4,0,.34.34,0,0,1,0-.1,2,2,0,0,1,4,.1,1.56,1.56,0,0,1-.51,1.09Z" style="fill:#923eff"/><path d="M102.45,72.13a.34.34,0,0,0,0,.1,2,2,0,0,0-4,0v-1h0a2,2,0,0,1,4,0v.94Z" style="fill:#af8eff"/><path d="M108.86,91a.53.53,0,0,1-.21.47L96.06,98.72V97.58L95,97l12.63-7.3a.54.54,0,0,1,.49,0,1.18,1.18,0,0,1,.48.46A1.55,1.55,0,0,1,108.86,91Z" style="fill:#923eff"/><path d="M89.9,78a2.75,2.75,0,0,1,.16,1.14A1.68,1.68,0,0,1,91.7,79a1.75,1.75,0,0,1,.75,1.64A5.62,5.62,0,0,1,89.91,85L80,90.76a1.73,1.73,0,0,1-1.82.16,1.77,1.77,0,0,1-.71-1.62,5.69,5.69,0,0,1,2-4c-.89-2.19.87-6,3.27-7.37a2.45,2.45,0,0,1,2.45-.25h0a2,2,0,0,1,.9,1.26c1.06-1.55,2.43-2.09,3.25-1.63A1.28,1.28,0,0,1,89.9,78Z" style="fill:#923eff"/><path d="M89.9,78l1.81,1h0a1.68,1.68,0,0,0-1.64.1A2.75,2.75,0,0,0,89.9,78Z" style="fill:#af8eff"/><path d="M84.84,74.69l4.5,2.6c-.82-.46-2.19.08-3.25,1.63a2,2,0,0,0-.9-1.26h0L82,75.81a4.37,4.37,0,0,1,1.1-.94A1.73,1.73,0,0,1,84.84,74.69Z" style="fill:#a27dff"/><polygon points="96.06 98.72 96.06 99.79 94.14 100.89 94.14 98.68 96.06 97.58 96.06 98.72" style="fill:#c81467"/><polygon points="96.06 97.58 94.14 98.68 92.16 97.54 94.07 96.43 95 96.97 96.06 97.58" style="fill:#ff74b8"/><path d="M94.15,98.68v2.22l-.93-.54.42-.24a.51.51,0,0,0,.24-.49,1.6,1.6,0,0,0-.82-1.3.54.54,0,0,0-.39,0l0,0-.46.27V97.54Z" style="fill:#ff74b8"/><path d="M80.71,75.07l1.28.74,3.18,1.84a2.45,2.45,0,0,0-2.45.25c-2.4,1.39-4.16,5.18-3.27,7.37L75,82.67c-.89-2.19.88-6,3.27-7.36a2.46,2.46,0,0,1,2.47-.25Z" style="fill:#af8eff"/><path d="M75,82.67l4.5,2.6a5.69,5.69,0,0,0-2,4,1.77,1.77,0,0,0,.71,1.62h0l-4.47-2.58a1.77,1.77,0,0,1-.74-1.64A5.69,5.69,0,0,1,75,82.67Z" style="fill:#a27dff"/><path d="M80.8,107.18c0-.8-.81-1.55-1.23-1.3h0q6.29-3.64,12.59-7.27l.46-.27,0,0a.54.54,0,0,1,.39,0,1.6,1.6,0,0,1,.82,1.3.51.51,0,0,1-.24.49l-.42.24-12.63,7.29h0a.57.57,0,0,0,.15-.16A.64.64,0,0,0,80.8,107.18Z" style="fill:#923eff"/><path d="M80.17,107.65c-.59-.25-1-1.21-.75-1.61a.34.34,0,0,1,.15-.16c.42-.25,1.21.5,1.23,1.3a.64.64,0,0,1-.06.31.57.57,0,0,1-.15.16l-.1,0A.5.5,0,0,1,80.17,107.65Z" style="fill:#af8eff"/><path d="M83.26,85.22a1.84,1.84,0,0,1-.88,1.39c-.49.28-.88.11-.88-.37a1.81,1.81,0,0,1,.88-1.39C82.86,84.57,83.26,84.74,83.26,85.22Z" style="fill:#dfd3ff"/><path d="M86.05,83.61A1.84,1.84,0,0,1,85.17,85c-.49.28-.88.11-.88-.37a1.81,1.81,0,0,1,.88-1.39C85.65,83,86.05,83.13,86.05,83.61Z" style="fill:#dfd3ff"/><path d="M88.84,82A1.84,1.84,0,0,1,88,83.39c-.49.28-.88.11-.88-.37A1.81,1.81,0,0,1,88,81.63C88.44,81.35,88.84,81.52,88.84,82Z" style="fill:#dfd3ff"/><path d="M92.55,28.73,88.11,31.3a3.08,3.08,0,0,0,1.21-2.76V21.06A9.57,9.57,0,0,0,85,13.59L74,7.26a3.07,3.07,0,0,0-3-.33l4.45-2.57a3.05,3.05,0,0,1,3,.3L89.5,11a9.51,9.51,0,0,1,4.31,7.46v7.48A3,3,0,0,1,92.55,28.73Z" style="fill:#c81467"/><path d="M89.32,21.06v7.48a3.08,3.08,0,0,1-1.21,2.76l-.06,0a3,3,0,0,1-3-.3L74,24.69l-4.31,1.23V9.75A3,3,0,0,1,71,7l0,0a3.07,3.07,0,0,1,3,.33l11,6.33A9.57,9.57,0,0,1,89.32,21.06Z" style="fill:#ff74b8"/><path d="M82.26,21.27l-5.09-5.86a.58.58,0,0,0-.39-.23.2.2,0,0,0-.2.23v5.86a.75.75,0,0,0,.2.45.74.74,0,0,0,.2.16.35.35,0,0,0,.19.06h5.09c.12,0,.19-.09.19-.23A.74.74,0,0,0,82.26,21.27ZM79,21H77.37v-4.5l3.91,4.51Z" style="fill:#faffff"/><g style="isolation:isolate"><polygon points="60.97 67.17 59.45 66.28 53.91 58.5 55.43 59.38 60.97 67.17" style="fill:#ff74b8"/><g style="isolation:isolate"><path d="M71.87,29.5l1.53.89a2.33,2.33,0,0,0-2.34.22l-1.52-.88A2.29,2.29,0,0,1,71.87,29.5Z" style="fill:#fb6762"/><g style="clip-path:url(#clip-path)"><g style="isolation:isolate"><path d="M71.06,30.61l-1.52-.88a2.66,2.66,0,0,1,1.92-.4l1.52.89A2.61,2.61,0,0,0,71.06,30.61Z" style="fill:#ff74b8"/><path d="M73,30.22l-1.52-.89a1.68,1.68,0,0,1,.41.17l1.53.89A1.28,1.28,0,0,0,73,30.22Z" style="fill:#fb6762"/></g></g></g><g style="isolation:isolate"><path d="M48.42,62.31l-1.52-.89a2.28,2.28,0,0,1-1-2.1l1.52.88A2.32,2.32,0,0,0,48.42,62.31Z" style="fill:#fb6762"/><g style="clip-path:url(#clip-path-2)"><path d="M48.42,62.31l-1.52-.89a2.28,2.28,0,0,1-1-2.1l1.52.88A2.32,2.32,0,0,0,48.42,62.31Z" style="fill:#ff74b8"/></g></g><polygon points="47.46 60.2 45.94 59.31 45.91 47.15 47.43 48.04 47.46 60.2" style="fill:#ff74b8"/><polygon points="50.7 42.37 49.18 41.48 69.54 29.73 71.06 30.61 50.7 42.37" style="fill:#ff74b8"/><g style="isolation:isolate"><path d="M47.43,48l-1.52-.89a7.22,7.22,0,0,1,3.27-5.67l1.52.89A7.19,7.19,0,0,0,47.43,48Z" style="fill:#fb6762"/><g style="clip-path:url(#clip-path-3)"><path d="M47.43,48l-1.52-.89a6.49,6.49,0,0,1,.86-3.07L48.3,45A6.62,6.62,0,0,0,47.43,48Z" style="fill:#ff74b8"/><path d="M48.3,45l-1.53-.89a6.83,6.83,0,0,1,2.41-2.6l1.52.89A6.8,6.8,0,0,0,48.3,45Z" style="fill:#ff74b8"/></g></g><path d="M71.06,30.61c1.81-1,3.29-.2,3.3,1.88l0,12.16a7.22,7.22,0,0,1-3.27,5.68L66.45,53,61,67.17l-5.54-7.79-4.67,2.7c-1.81,1.05-3.29.2-3.3-1.88l0-12.16a7.19,7.19,0,0,1,3.27-5.67Z" style="fill:#c81467"/></g><path d="M58.23,42.88a6.15,6.15,0,0,1-2.77,4.81c-1.53.88-2.77.16-2.77-1.62a6.13,6.13,0,0,1,2.77-4.81C57,40.38,58.23,41.1,58.23,42.88Z" style="fill:#fff"/><path d="M60.49,52.41V50c0-2.7-1.9-3.8-4.22-2.46l-1.63.94a9.39,9.39,0,0,0-4.22,7.33v2.46Z" style="fill:#fff"/><path d="M63.29,46l1.07-.62v.89l-1.07.62v1.39l-.81.47V47.34L61.41,48v-.89l1.07-.61V45.11l.81-.46Z" style="fill:#fff"/><path d="M65,45.35l.25-2.66,2.41-1.39v.82l-1.71,1-.11,1.13a2.56,2.56,0,0,1,.65-.56c.41-.24.73-.27,1-.12a1.21,1.21,0,0,1,.35,1,2.77,2.77,0,0,1-.18,1,2.86,2.86,0,0,1-.5.88,3,3,0,0,1-.77.65,1.61,1.61,0,0,1-.73.24.67.67,0,0,1-.52-.21,1,1,0,0,1-.21-.64L65.7,46a.41.41,0,0,0,.18.37.46.46,0,0,0,.42-.07,1,1,0,0,0,.45-.5,1.82,1.82,0,0,0,.16-.77q0-.42-.18-.54c-.12-.08-.29-.06-.51.07a1.41,1.41,0,0,0-.5.47l-.08.13Z" style="fill:#fff"/><path d="M70.38,44.67l-.86.49v-3.8l-1,1v-.8l1.78-1.76.1,0Z" style="fill:#fff"/><path d="M49.34,82.8c.45-.73,1.78-2.94,2.37-4.17.16-.33-.09-.6-.08-1a2.37,2.37,0,0,0-.36-1.17.94.94,0,0,0-.46-.48.69.69,0,0,0-.55,0,3,3,0,0,0-1.75,2.13c-.21.82-.81,2.1-1,2.93a2.11,2.11,0,0,0-.1.5A1.31,1.31,0,0,0,48.72,83C49.05,82.91,49.1,83.2,49.34,82.8Z" style="fill:#efa682"/><path d="M44.73,84.42h-.86A31,31,0,0,1,48.08,81a1.49,1.49,0,0,1,1.21.18c1.59,1.59-3.52,4.7-4.48,5.34l-.08,0Z" style="fill:#efa682"/><g id="_10_woman_smart_watch" data-name="10_woman_smart_watch"><g id="character"><g id="character-2" data-name="character"><path d="M54.13,103.7a2.28,2.28,0,0,0,0-.26c0-.91-.06-2.21,0-3.12,0-1.89,1.17-7.36-2.71-8.38-.34-.09-.53-.64-.65-.92s-.3-.9-.6-1.12c-.89-.65-1.48,1.85-1.55,2.29a30.91,30.91,0,0,0,1.17,11.51Z" style="fill:#f1a481"/><path d="M56.1,76.69A7.88,7.88,0,0,0,54.27,76c-.13,0-.57.13-.7.1a4.86,4.86,0,0,0-2.9.24l0,0v6h5.71Z" style="fill:#efa682"/><path d="M51.86,75.88h0C52,75.83,52,75.87,51.86,75.88Z" style="fill:#e5e5e5"/><path d="M49,78.69a7.28,7.28,0,0,1-.3.94c-.19.46-.51.91-.66,1.38-.91,2.76,1.42,2.86.8,8.13-.15,1.28-.23,1.24,0,1.38a9.74,9.74,0,0,0,5,.79A4.65,4.65,0,0,0,56,90.4c.12-.09.19-.14.21-.27a1.93,1.93,0,0,0,0-.34,9.42,9.42,0,0,0-.06-1.06,10.13,10.13,0,0,1,.08-2.2c.19-1.08.38-2.17.58-3.25l.3-1.59a5.86,5.86,0,0,0,.27-1.52,9.76,9.76,0,0,1-2,.3,11.32,11.32,0,0,1-2.25-.17A11,11,0,0,1,51,79.68C50.81,79.61,49,78.86,49,78.69Z" style="fill:#fa433d"/><path d="M59.07,79.44c-.12-1.37-2-2.06-3.13-2.75-.87,2.57-4.91,3.63-4.72-.17a.63.63,0,0,1,.43-.64c-2.17.08-2.26,1.38-2.62,2.81a11,11,0,0,0,9.95,1A.49.49,0,0,0,59.07,79.44Z" style="fill:#efa682"/><path d="M49,78.69l.58.34a12,12,0,0,1,.69-2.84C49.41,76.68,49.3,77.65,49,78.69Z" style="fill:#efa682"/><path d="M51.65,75.88h-.21s0,.1,0,.16A.49.49,0,0,1,51.65,75.88Z" style="fill:#efa682"/><path d="M51.44,75.89a5.27,5.27,0,0,0-1.52.26A6.89,6.89,0,0,0,49,78.69c-.05,1.11.65.79,1.09,1A14.63,14.63,0,0,1,51.44,75.89Z" style="fill:#fa433d"/><path d="M52.53,111.52a28.81,28.81,0,0,0,.43-3.66,22.5,22.5,0,0,0-.32-3.07l-3.43-.21a28,28,0,0,0,.83,4.69c.09.51.16,1.11.22,1.68,0,.41.42,2.39.29,2.78-.19.55-1.21,1.19-1.7,1.51a13.62,13.62,0,0,0-1,2.19,1,1,0,0,0,.33.13c1,.22,1.62-.78,2.5-1l.11,0,1.33-.47a2.51,2.51,0,0,0,.41-1.57A17.49,17.49,0,0,1,52.53,111.52Z" style="fill:#ea9974"/><path d="M52.13,116.42c-.63.45-.65.23-1.41.71-.49.32-2.59,2.17-3.85.52-.34-.46-.44-.91.28-1.45a5.51,5.51,0,0,1,1.26-.73c.07,0,1.39-.89,1.45-.93-1.18,1-1.34,1.33-1.21,1.57a1.14,1.14,0,0,0,.77.53,2.12,2.12,0,0,0,1.28-.24,3.52,3.52,0,0,0,.83-.52,12.26,12.26,0,0,0,1-1.37,1.54,1.54,0,0,1,.2.68A1.11,1.11,0,0,1,52.13,116.42Z" style="fill:#2c2230"/><path d="M56.61,113.06a15,15,0,0,0,.61-4.31,10.13,10.13,0,0,0-.94-3.83c-.16-.31-.37-.64-.71-.69l-3-1.26c.32,2.84,1.31,6.25,1.65,9.09.07.52.17,2,.21,3.17a4.29,4.29,0,0,1-1.63,2.31l-.47.39-.12.44,2.64.68c.15-.15.29-.31.43-.47.32-.38.82-.58.94-1.13l0-.21c.1-.24.22-.53.35-.91.06-.18-.32-.62-.34-.82A6.88,6.88,0,0,1,56.61,113.06Z" style="fill:#efa682"/><path d="M56.46,117.85c-.53.56-.59.36-1.24,1-.42.4-2.11,2.63-3.67,1.26-.43-.38-.61-.8,0-1.48a5.58,5.58,0,0,1,1.1-1c.06,0,1.18-1.15,1.24-1.19-1,1.21-1,1.57-.88,1.77a1.14,1.14,0,0,0,.86.37,2.15,2.15,0,0,0,1.21-.49,3.74,3.74,0,0,0,.71-.67,14.1,14.1,0,0,0,.7-1.54,1.55,1.55,0,0,1,.32.63A1.1,1.1,0,0,1,56.46,117.85Z" style="fill:#3a3240"/><path d="M47.87,94.78c.05-.4.12-.8.15-1.2a26.94,26.94,0,0,1,.36-2.7c.06-.33.07-1,.39-1.18s.71.17,1,.28a5.92,5.92,0,0,0,2.65.2,16,16,0,0,0,3.8-.84s.57.84.67,1.06c.2.45.38.9.55,1.36a12.83,12.83,0,0,1,.65,2.72,18.15,18.15,0,0,1-.1,2.85,50.15,50.15,0,0,0,0,6.13,3.12,3.12,0,0,1-.1,1.36c-.2.49-.54.55-1,.66s-1,.35-1.53.44a10.45,10.45,0,0,1-4-.14,11.1,11.1,0,0,1-1.84-.63,5,5,0,0,1-1.26-.5,2.21,2.21,0,0,1-.71-1.22,6.51,6.51,0,0,1,0-2.2,44.91,44.91,0,0,0,.16-5.68A5.12,5.12,0,0,1,47.87,94.78Z" style="fill:#fa433d"/><path d="M49.51,73.5c0,.22-.31.35-.36.57s.12.41.25.59.21.46.05.61-.31.12-.29.4c0,.12.1.18.07.33a1.22,1.22,0,0,1-.17.29,1.38,1.38,0,0,0,0,.78c0,.18.1.39.27.42s.31-.12.47-.09.2.15.27.26.18.23.31.2.17-.11.21-.21c.3-.74.49.18.92-.26a1.18,1.18,0,0,0,.12-.92c-.05-.1-.15-.17-.2-.28-.12-.27.14-.55.31-.81a1.33,1.33,0,0,0-.13-1.55,4.76,4.76,0,0,1-.55-.55,5.46,5.46,0,0,1-.32-.64,3,3,0,0,1-.32-.61c0-.14-.05-.28-.08-.42a1,1,0,0,0-.24-.51.45.45,0,0,0-.32-.17.34.34,0,0,0-.26.17.37.37,0,0,0,0,.31c.05.11.16.21.16.34a.63.63,0,0,1-.13.24,1,1,0,0,0-.13.22,1,1,0,0,0-.09.38s0,.11,0,.16a.66.66,0,0,0,0,.15C49.39,73.1,49.55,73.28,49.51,73.5Z" style="fill:#3a3240"/><path d="M55.48,76.91s-3.77,1.9-3.59-.19c.26-2.92.44-3.24,1.75-3.62.36-.1.5-.4.87-.39,1.35.05.78.76.7,1.27C55,75.5,55.5,76.11,55.48,76.91Z" style="fill:#efa682"/><path d="M54.45,74.79c.1-.1.19-.21.28-.32a5.49,5.49,0,0,0,.88-1.26,3.65,3.65,0,0,0-.8-4.31,3.33,3.33,0,0,0-3.31-.49,4.84,4.84,0,0,0-.83.46,2.42,2.42,0,0,0-.61.54,2.73,2.73,0,0,0-.25.48,4.05,4.05,0,0,0-.21.9,1.89,1.89,0,0,0,0,.53,4.55,4.55,0,0,0,.19.89A4.7,4.7,0,0,1,50,73a1.89,1.89,0,0,1-.12.74,1,1,0,0,0,0,.53c.06.15.25.26.35.39a1,1,0,0,1,.17.44.76.76,0,0,0,.13.29c.05.08,0,.14.06.23s.11.18.16.27a2.91,2.91,0,0,0,.17.3,1,1,0,0,0,1.47.24A8.33,8.33,0,0,0,54.45,74.79Z" style="fill:#fbc4aa"/><path d="M57.31,70.93c-.14-.12-.32-.21-.4-.38s.16-.69,0-1-.42-.19-.62-.33c-.37-.26-.28-1-.7-1.12-.21-.09-.45,0-.66-.08s-.33-.3-.5-.46a1,1,0,0,0-.9-.24,2.36,2.36,0,0,1-.45.08c-.18,0-.28-.15-.48-.08a1.37,1.37,0,0,0-.42.29.77.77,0,0,1-.45.24,1.27,1.27,0,0,1-.43-.09.49.49,0,0,0-.41,0,.54.54,0,0,0-.14.27.65.65,0,0,1-.15.27c-.19.16-.48-.13-.74.13s0,.72-.12,1.06a3.47,3.47,0,0,0-.41,1.21,1.27,1.27,0,0,0,.39,1,.89.89,0,0,1,.13-.59.77.77,0,0,1,.59-.4,1.7,1.7,0,0,1,.45,0,1.58,1.58,0,0,0,.38,0,.22.22,0,0,1,.18,0c.07.09,0,.24.1.32s.21,0,.32.06a.46.46,0,0,1,.16.15c.13.15.33.08.47.23a.55.55,0,0,1,.08.44.54.54,0,0,0,.23.51,2.5,2.5,0,0,0,.26.07c.09,0,.18.09.19.18s-.05.18,0,.26.2.09.28.17a1,1,0,0,1,.23.3l0,.1a.26.26,0,0,0,.19.1.15.15,0,0,0,.14-.07l0,0c.05-.06.08.06.09.09a.44.44,0,0,0,.11.27c.16.13.41,0,.55-.09a1.77,1.77,0,0,0,.5-.31c-.19.33-.17.27-.24.85A4.2,4.2,0,0,1,55.7,74a4.09,4.09,0,0,0,.46-.47,5,5,0,0,0,.71-.82,3.6,3.6,0,0,0,.26-.52c.08-.23.09-.48.18-.7s.25-.31,0-.53Z" style="fill:#3a3240"/></g></g></g><path d="M59.81,82.46c-.05-.58-.1-1.17-.2-1.75a7.67,7.67,0,0,0-.71-1.86c-.49-.82-2.9-.66-3-.25a12.58,12.58,0,0,0,.59,4A10.71,10.71,0,0,1,56.82,84c0,.32.24.88,0,1.14a5.71,5.71,0,0,1-2.13,1.34L53.53,87c-.07,0-1.06.43-1.06.43a4.46,4.46,0,0,0,.75,1.53c.59-.12,1.21-.13,1.81-.23a9.59,9.59,0,0,0,2.06-.45,8.83,8.83,0,0,0,2.36-1.32c.65-.5.56-1.14.53-1.88S59.89,83.32,59.81,82.46Z" style="fill:#efa682"/><path d="M50,87.76a.66.66,0,0,0-.2.16.61.61,0,0,0-.13.32.58.58,0,0,0,.18.46s.09,0,.1.08,0,0-.06.08c-.18.2,0,.58.43.64,0,.69,1.87.26,2.48-.19a2,2,0,0,1,.74-.44l-1.05-1.48a7.43,7.43,0,0,0-1.25-.07,2,2,0,0,0-.82.09.63.63,0,0,0-.35.29A.11.11,0,0,1,50,87.76Z" style="fill:#efa682"/><path d="M50,87.18a.22.22,0,0,0,0,.22.36.36,0,0,0,.18.14.58.58,0,0,1,.21.07,1.93,1.93,0,0,0,1,.34.81.81,0,0,0,.31,0,.4.4,0,0,0,.24-.18.18.18,0,0,0,0-.2.17.17,0,0,0-.1-.06,6.51,6.51,0,0,0-.88-.3l-.16,0-.23-.07a.82.82,0,0,0-.44,0,.18.18,0,0,0-.13.08Z" style="fill:#efa682"/><path d="M50.5,87.53c-.32,0-.62.07-.94.12a7.79,7.79,0,0,0-1,.2,1.48,1.48,0,0,0-.29.12c-.1.06-.32.22-.22.35a.25.25,0,0,0,.1.08.68.68,0,0,0,.37.06,5.21,5.21,0,0,0,.95-.21l1-.28Z" style="fill:#efa682"/><polygon points="47.81 85.27 42.86 82.44 43.09 82.29 48.03 85.12 47.81 85.27" style="fill:#413948"/><polygon points="47.81 85.27 49.82 91.41 49.94 91.12 48.03 85.12 47.81 85.27" style="fill:#2c2230"/><polygon points="49.82 91.41 44.88 88.58 42.86 82.44 47.81 85.27 49.82 91.41" style="fill:#2c2230"/><path d="M44.2,86.44a.25.25,0,0,0-.12.47c.18,0,.63-.17.59-.44S44.42,86.42,44.2,86.44Z" style="fill:#efa682"/><path d="M43.6,85.61a.31.31,0,0,1-.17-.39c.07-.12.21-.06.31-.11a1.66,1.66,0,0,1,.5-.12c.24,0,.12.31,0,.4A.67.67,0,0,1,43.6,85.61Z" style="fill:#efa682"/><path d="M43.54,85.64c.1-.18.23.06.61-.13a1,1,0,0,1,.15-.07.13.13,0,0,1,.15.06c.16.2-.17.44-.26.5C43.73,86.28,43.36,86,43.54,85.64Z" style="fill:#efa682"/><path d="M43.74,86.13c.12-.14.18-.07.49-.17.47-.16.49.33-.08.49l-.24.06A.23.23,0,0,1,43.74,86.13Z" style="fill:#efa682"/><path d="M57.76,77.72c-.5-.32-1.06-.6-1.53-.86a18.58,18.58,0,0,0-2.12,3.93c.5.06,1.17.83,1.85-.34A4.52,4.52,0,0,1,57.76,77.72Z" style="fill:#fa433d"/><path d="M58,76.68a.58.58,0,0,0,.24-.36c.08-.45-.34-.82-.53-1.17a.75.75,0,0,1,0-.88c.25-.27.53-.4.3-.85a4.21,4.21,0,0,0-.52-.61.81.81,0,0,1-.23-.73c.08-.26.38-.46.36-.74s-.54-.47-.65-.81a3.57,3.57,0,0,1,0-.46c-.07-.36-.5-.52-.86-.61a1,1,0,0,0-.84,0,.91.91,0,0,0-.19,1c.09.32.22.64.28,1a1.33,1.33,0,0,1-.14,1c-.16.25-.44.41-.55.68a1.37,1.37,0,0,0-.05.67c.06.5,0,1.06.14,1.56s.34.76.07,1.31c-.11.14-.19.29-.3.44s-.11.29,0,.35a.2.2,0,0,0,.08,0,.22.22,0,0,1,.05.3,1,1,0,0,1-.23.24.33.33,0,0,0-.12.3.3.3,0,0,0,.27.21c.12,0,.24,0,.36.06s.23.13.22.25-.06.14-.06.22a.24.24,0,0,0,.14.21.76.76,0,0,0,.26.06,1,1,0,0,0,.38,0,.35.35,0,0,0,.26-.24c0-.14,0-.27,0-.4a.42.42,0,0,1,.34-.31,1.55,1.55,0,0,1,.48,0,.75.75,0,0,0,.47-.08c0-.06,0-.15.07-.19s.15,0,.21-.08a.32.32,0,0,0,.09-.47c-.07-.08-.18-.12-.24-.2C57.31,77,57.81,76.8,58,76.68Z" style="fill:#3a3240"/><path d="M55.22,72.11c.58-.11.81.59.47,1.2a7.22,7.22,0,0,1-.69.84c-.76.62-1-.3-.75-.61C54.94,72.75,54.49,72.24,55.22,72.11Z" style="fill:#fbc4aa"/><path d="M55,73.47c.06-.07.68-.54.2-.75-.14-.06-.26.07-.27.2s0,.14,0,.21a.53.53,0,0,1,0,.12c0,.1-.24.22-.19.35S55,73.51,55,73.47Z" style="fill:#efa682"/><path d="M36.36,67.51h-1.7v-.43c-.8.77-1.69,1.44-2.53,2.15a14.81,14.81,0,0,1-6.75,2.9,1.21,1.21,0,0,0-.76.33,1.18,1.18,0,0,0-.15.87c.05.74.11,1.48.17,2.22a.71.71,0,0,0,.2.55.7.7,0,0,0,.6,0c.65-.19,1.18-.62,1.8-.86a14.88,14.88,0,0,0,2-1.1,33.62,33.62,0,0,0,4-2.47,14.39,14.39,0,0,0,2.8-3,2.33,2.33,0,0,1,.32-.36Z" style="fill:#efa682"/><path d="M27.22,71.7a5.18,5.18,0,0,0,.49,4.12,36.33,36.33,0,0,1-3.9,1.53s.4-1.44.37-1.8a1.65,1.65,0,0,0-.84-1.4c-.77-.41-1.47-.85-.85-1.57A32.51,32.51,0,0,1,27.22,71.7Z" style="fill:#fb5651"/><g id="man"><path d="M18.47,110.46a1.36,1.36,0,0,0,.22.41c.11.2.25.41.35.62a7.54,7.54,0,0,1,.27.88c.19.58.37,1.16.55,1.74a3.5,3.5,0,0,1,.17.71,1.13,1.13,0,0,1-.12.7,1.66,1.66,0,0,1-1.07.68,1.11,1.11,0,0,1-.74,0,1.08,1.08,0,0,1-.43-.42,10.77,10.77,0,0,1-1.05-2.5,4.2,4.2,0,0,1-.26-1.43,2,2,0,0,1,.2-.79,1.31,1.31,0,0,1,.24-.34c.1-.1.19-.14.25-.27a2.88,2.88,0,0,1,.38-.74.62.62,0,0,1,.67-.07,1,1,0,0,1,.48.54c0,.07-.1.15-.11.22Z" style="fill:#e1312a"/><path d="M24.46,108.09c.2.18.38.38.58.55s.4.32.59.5a17.23,17.23,0,0,0,1.31,1.12,11.55,11.55,0,0,1,1,.83,3.11,3.11,0,0,1,.62.81.47.47,0,0,1,.06.44,1.82,1.82,0,0,1-.26.45,1.55,1.55,0,0,1-.72.62,1.21,1.21,0,0,1-.89-.1,3,3,0,0,1-1.12-.93,2.85,2.85,0,0,0-1.08-1,4.39,4.39,0,0,1-1.07-.51A1.27,1.27,0,0,1,23,110c0-.42.17-.82.17-1.24a2.57,2.57,0,0,1,0-.83.62.62,0,0,1,.57-.36.93.93,0,0,1,.66.27Z" style="fill:#e1312a"/><path d="M21.76,98.3c-.15-.78-.23-1.91-.37-2.69-.27-1.63-2.42-6.69.71-8.09.47-.21,1.11-1.29,1.57-1a2.69,2.69,0,0,1,.69,1.1,16,16,0,0,1,.44,1.62,13.1,13.1,0,0,1,.36,3.34c0,1.25.29,3.79.19,5.74,0,.14,0,.29,0,.43,0,.81.06,1.62.09,2.43s.06,1.83.09,2.75c.05,1.21.13,2.43.13,3.64,0,.77.06,1.79-.76,2.15-.61.27-1.7.59-2.17-.09a5,5,0,0,1-.47-1.73c-.11-.59-.19-1.18-.28-1.77-.14-1-.1-2-.15-2.94,0-.69-.05-1.39,0-2.08,0-.4,0-.79,0-1.19a3.92,3.92,0,0,0,.08-1.07A3.58,3.58,0,0,1,21.76,98.3Z" style="fill:#114798"/><path d="M16.21,96.86a16.94,16.94,0,0,1,.4-9.4l.2-.27a7.2,7.2,0,0,0,2.45.4c1.82.24,2,.57,3.17-.24a9.76,9.76,0,0,1-.08,2.79c0,1.48-1.29,1.59-1.35,2.37-.14,1.8-.39,5.37-.67,7.16a7.16,7.16,0,0,1-.35,1.47c0,.61-.09,1.22-.14,1.82-.36,4.53-.38,6.84-.75,7.79-.3.78-1.31.71-2,.48a1.41,1.41,0,0,1-.72-.53,2.08,2.08,0,0,1-.24-.86,21.36,21.36,0,0,1,0-7.81A16.28,16.28,0,0,0,16.21,96.86Z" style="fill:#52456c"/><path d="M16.18,96.85a17.08,17.08,0,0,1,.41-9.41l.2-.26a7.18,7.18,0,0,0,2.44.4c1.83.24,2,.57,3.18-.25a9.7,9.7,0,0,1-.08,2.79c.05,1.48-1.3,1.59-1.35,2.37-.14,1.81-.39,5.38-.67,7.17a7.49,7.49,0,0,1-.35,1.47c0,.61-.09,1.21-.14,1.82-.12,1.51-.22,3-.32,4.53,0,.51-.07,1-.12,1.52a4.66,4.66,0,0,1-.08.64c-.16.69,0,1.56-.7,2a2.69,2.69,0,0,1-1.32.21,1.24,1.24,0,0,1-.8-.23,1.23,1.23,0,0,1-.29-.68,23.89,23.89,0,0,1,0-8.88A16.28,16.28,0,0,0,16.18,96.85Z" style="fill:#255cbc"/><path d="M16.31,81.72a23.28,23.28,0,0,0-1-2.77C14.54,76.34,14,74.34,20.78,72a2.89,2.89,0,0,1,2.08-.17,2.44,2.44,0,0,1,1,1.38c.84,2,.48,7.71.51,8.32s0,1,0,1.58c0,.72.84,5.87.6,6.37-.14.28-.93.64-1.2.74a12.1,12.1,0,0,1-6.36.62,2.2,2.2,0,0,1-1.24-.52,2,2,0,0,1-.39-1.65C16.11,86.32,16.76,84.16,16.31,81.72Z" style="fill:#cad0ed"/></g><g style="isolation:isolate"><path d="M36.55,68l0,.07a.54.54,0,0,0,.24-.41l0,.07A.31.31,0,0,1,36.55,68Z" style="fill:#2c2230"/><g style="clip-path:url(#clip-path-4)"><g style="isolation:isolate"><path d="M36.55,68l0,.07a.54.54,0,0,0,.24-.41l0,.07A.31.31,0,0,1,36.55,68Z" style="fill:#2c2230"/></g></g><polygon points="34.29 69.28 34.24 69.34 36.5 68.04 36.55 67.97 34.29 69.28" style="fill:#2c2230"/><path d="M34.13,69.19l-.12,0c0,.15.1.21.23.13l0-.06C34.2,69.33,34.13,69.29,34.13,69.19Z" style="fill:#2c2230"/><g style="clip-path:url(#clip-path-5)"><g style="isolation:isolate"><path d="M34.13,69.19l-.12,0v.06l.13,0A.06.06,0,0,1,34.13,69.19Z" style="fill:#2c2230"/><path d="M34.14,69.23l-.13,0a.16.16,0,0,0,.07.09l.1-.07A.07.07,0,0,1,34.14,69.23Z" style="fill:#2c2230"/><path d="M34.18,69.29l-.1.07a.14.14,0,0,0,.14,0l.05-.06Z" style="fill:#2c2230"/><path d="M34.27,69.29l-.05.06h0l0-.06Z" style="fill:#2c2230"/></g></g><path d="M33.88,69.24l.2.12a.16.16,0,0,1-.07-.15l-.2-.12C33.81,69.17,33.83,69.22,33.88,69.24Z" style="fill:#3a3240"/><g style="clip-path:url(#clip-path-6)"><g style="isolation:isolate"><path d="M34,69.21l-.2-.12c0,.08,0,.13.07.15l.2.12A.16.16,0,0,1,34,69.21Z" style="fill:#3a3240"/></g></g><polygon points="36.7 67.7 36.74 67.63 36.72 62.03 36.69 62.1 36.7 67.7" style="fill:#2c2230"/><path d="M36.69,62.1l0-.07c0-.15-.1-.21-.23-.13l0,.11C36.62,62,36.69,62,36.69,62.1Z" style="fill:#2c2230"/><g style="clip-path:url(#clip-path-7)"><g style="isolation:isolate"><path d="M36.69,62.1l0-.07a.19.19,0,0,0,0-.08l0,.1A.07.07,0,0,1,36.69,62.1Z" style="fill:#2c2230"/><path d="M36.68,62.05l0-.1a.11.11,0,0,0-.1-.08V62A.09.09,0,0,1,36.68,62.05Z" style="fill:#2c2230"/><path d="M36.62,62v-.12a.15.15,0,0,0-.12,0l0,.11Z" style="fill:#2c2230"/><polygon points="36.53 62.01 36.49 61.9 36.49 61.9 36.53 62.01 36.53 62.01" style="fill:#2c2230"/></g></g><path d="M36.65,61.88l-.2-.11a.14.14,0,0,0-.16,0l.2.12A.16.16,0,0,1,36.65,61.88Z" style="fill:#413948"/><g style="clip-path:url(#clip-path-8)"><g style="isolation:isolate"><path d="M36.65,61.88l-.2-.11a.14.14,0,0,0-.16,0l.2.12A.16.16,0,0,1,36.65,61.88Z" style="fill:#413948"/></g></g><polygon points="34.12 63.59 33.99 63.61 34.01 69.21 34.13 69.19 34.12 63.59" style="fill:#2c2230"/><polygon points="33.99 63.61 33.79 63.49 33.81 69.09 34.01 69.21 33.99 63.61" style="fill:#3a3240"/><polygon points="36.53 62.01 36.49 61.9 34.23 63.2 34.27 63.32 36.53 62.01" style="fill:#2c2230"/><polygon points="36.49 61.9 36.29 61.78 34.03 63.09 34.23 63.2 36.49 61.9" style="fill:#413948"/><path d="M34.27,63.32a.33.33,0,0,0-.15.27v5.6c0,.1.07.14.16.09L36.55,68a.31.31,0,0,0,.15-.27V62.1c0-.1-.07-.14-.16-.09Z" style="fill:#2c2230"/><path d="M34.27,63.32l0-.12a.54.54,0,0,0-.24.41l.13,0A.33.33,0,0,1,34.27,63.32Z" style="fill:#2c2230"/><g style="clip-path:url(#clip-path-9)"><g style="isolation:isolate"><path d="M34.27,63.32l0-.12a.54.54,0,0,0-.24.41l.13,0A.33.33,0,0,1,34.27,63.32Z" style="fill:#2c2230"/></g></g><path d="M34.23,63.2l-.2-.11a.5.5,0,0,0-.24.4l.2.12A.54.54,0,0,1,34.23,63.2Z" style="fill:#413948"/><g style="clip-path:url(#clip-path-10)"><g style="isolation:isolate"><path d="M34.23,63.2l-.2-.11-.06,0,.2.11Z" style="fill:#413948"/><path d="M34.17,63.24l-.2-.11a.57.57,0,0,0-.18.35l.2.12A.54.54,0,0,1,34.17,63.24Z" style="fill:#413948"/><polygon points="33.99 63.6 33.79 63.48 33.79 63.49 33.99 63.61 33.99 63.6" style="fill:#413948"/></g></g></g><g style="isolation:isolate"><path d="M36,63.7l0,0a.19.19,0,0,1-.08-.17l0,0A.17.17,0,0,0,36,63.7Z" style="fill:#413948"/><g style="clip-path:url(#clip-path-11)"><g style="isolation:isolate"><path d="M36,63.56l0,0v0l0,0A.43.43,0,0,0,36,63.56Z" style="fill:#413948"/><path d="M36,63.61l0,0a.15.15,0,0,0,.07.12l0,0A.19.19,0,0,1,36,63.61Z" style="fill:#413948"/></g></g><polygon points="35.96 62.96 35.92 62.94 35.92 63.54 35.96 63.56 35.96 62.96" style="fill:#413948"/><path d="M36.41,62.49l0,0a.15.15,0,0,0-.18,0l0,0A.19.19,0,0,1,36.41,62.49Z" style="fill:#413948"/><g style="clip-path:url(#clip-path-12)"><g style="isolation:isolate"><path d="M36.41,62.49l0,0a.13.13,0,0,0-.09,0l0,0A.15.15,0,0,1,36.41,62.49Z" style="fill:#413948"/><path d="M36.32,62.47l0,0-.07,0,0,0S36.29,62.48,36.32,62.47Z" style="fill:#413948"/><path d="M36.25,62.5l0,0,0,0,0,0Z" style="fill:#413948"/></g></g><path d="M36.22,62.51l0,0a.56.56,0,0,0-.27.45l0,0A.59.59,0,0,1,36.22,62.51Z" style="fill:#413948"/><g style="clip-path:url(#clip-path-13)"><g style="isolation:isolate"><path d="M36.22,62.51l0,0s0,0,0,0l0,0Z" style="fill:#413948"/><path d="M36.18,62.54l0,0a.61.61,0,0,0-.2.3l0,0A.6.6,0,0,1,36.18,62.54Z" style="fill:#413948"/><path d="M36,62.85l0,0s0,.06,0,.09l0,0S36,62.87,36,62.85Z" style="fill:#413948"/><path d="M36,62.93l0,0v0l0,0Z" style="fill:#413948"/></g></g><path d="M36.22,62.51A.59.59,0,0,0,36,63v.6c0,.16.12.23.27.15a.61.61,0,0,0,.26-.46v-.59C36.49,62.49,36.37,62.42,36.22,62.51Z" style="fill:#413948"/><path d="M36.11,63.72a.14.14,0,0,0,.1,0,.53.53,0,0,0,.25-.43v-.59c0-.1,0-.16-.12-.16a.19.19,0,0,0-.1,0A.56.56,0,0,0,36,63v.6C36,63.66,36,63.72,36.11,63.72Z" style="fill:#2c2230"/></g><g style="isolation:isolate"><path d="M36.43,62.69a.47.47,0,0,1-.22.37l-.08,0-.06,0A.12.12,0,0,1,36,63a.49.49,0,0,1,.22-.36l.09,0h0A.12.12,0,0,1,36.43,62.69Z" style="fill:#413948"/><path d="M36.41,62.68a.45.45,0,0,1-.22.36.16.16,0,0,1-.09,0h0A.12.12,0,0,1,36,63a.49.49,0,0,1,.22-.36l.09,0h0A.16.16,0,0,1,36.41,62.68Z" style="fill:#bbc3e9"/><path d="M36.34,62.73a.29.29,0,0,1-.14.23l-.05,0h0a.12.12,0,0,1,0-.07.3.3,0,0,1,.14-.23l.06,0h0S36.34,62.69,36.34,62.73Z" style="fill:#dfe1f6"/></g><g style="isolation:isolate"><path d="M36.43,63.23a.47.47,0,0,1-.22.37l-.08,0-.06,0a.12.12,0,0,1,0-.11.49.49,0,0,1,.22-.36l.09,0h0A.11.11,0,0,1,36.43,63.23Z" style="fill:#413948"/><path d="M36.41,63.22a.45.45,0,0,1-.22.36.16.16,0,0,1-.09,0h0a.12.12,0,0,1,0-.11.49.49,0,0,1,.22-.36l.09,0h0A.16.16,0,0,1,36.41,63.22Z" style="fill:#bbc3e9"/><path d="M36.34,63.28a.27.27,0,0,1-.14.23l-.05,0h0a.12.12,0,0,1,0-.07.31.31,0,0,1,.14-.23l.06,0h0S36.34,63.25,36.34,63.28Z" style="fill:#dfe1f6"/></g><path d="M35.09,65.16a.82.82,0,0,0-.72.1.22.22,0,0,0-.07.28c.06.11.22.1.35.1a1,1,0,0,1,.75.35l-.79.09c-.16,0-.38.09-.38.26s.14.23.27.28c0,.09-.11.14-.17.2s-.09.19,0,.23.18,0,.18.08a.51.51,0,0,0-.21.2.2.2,0,0,0,.05.26.25.25,0,0,0,.12,0,2.6,2.6,0,0,1,.85.29l.51.25a1.51,1.51,0,0,1,.26.12c.05,0,.07.08.14.08s.14,0,.2-.11a2.19,2.19,0,0,0,.46-.74,1.54,1.54,0,0,0,.09-.37,1.93,1.93,0,0,0,0-.34,3.72,3.72,0,0,0-.08-.57,1.67,1.67,0,0,0-.13-.45C36.48,65.38,35.53,65.25,35.09,65.16Z" style="fill:#efa682"/><path d="M17.42,94.61a2.67,2.67,0,0,0-.74-1.29c-.33-.35-.7-.48-.67-1l.06-.88a9.42,9.42,0,0,0,.06-1.06c0-.38-.06-.75-.06-1.13,0-.83-.1-1.65-.16-2.47A7.79,7.79,0,0,1,16,84.49c.29-1.19.59-2.4.86-3.6a14.71,14.71,0,0,0,.47-3.36H14.06c-.05,0-.48,2.07-.51,2.23a39.58,39.58,0,0,0-.46,4.85,41.54,41.54,0,0,0,.85,6.83,6.61,6.61,0,0,1,.18,1,1.47,1.47,0,0,1,0,.4,4,4,0,0,0,.23,2.58c0,.11.12.23.23.22s.13-.08.21-.07.16.21.23.33a.29.29,0,0,0,.5-.11c.31.6.79.45.76.15a.38.38,0,1,0,.74-.14c-.08-.36-.43-.28-.36-1.3l.22.18s0,0,0,.06C17,95.31,17.51,95.13,17.42,94.61Z" style="fill:#efa682"/><path d="M13.63,78.37c.54-2.42,1.8-4.11,2.89-3.44a1.9,1.9,0,0,1,.64.86,5.29,5.29,0,0,1,.36,2.4c0,.64-.65,4.4-.65,4.4s-.49.1-.65.11a6.43,6.43,0,0,1-1.58,0,3.58,3.58,0,0,1-1.55-.55S13.41,79.38,13.63,78.37Z" style="fill:#fb5651"/><path d="M17.85,73.48c-.07,2.16,4,2.2,3.92.17-.08-2.83-.25-3.16-1.58-3.59a3.71,3.71,0,0,0-1.13-.22c-1.41,0-.87.68-.81,1.18C18.4,72.5,17.88,72.71,17.85,73.48Z" style="fill:#efa682"/><path d="M22.58,66.4a2.8,2.8,0,0,1,.65,1.44,2.35,2.35,0,0,1,0,.7,1.93,1.93,0,0,0-.12.67,3,3,0,0,0,.39.78,1,1,0,0,1,.14.7,2.19,2.19,0,0,1-.17.38c-.27.61.18,1.38-.38,1.87a1,1,0,0,1-.5.2,6.84,6.84,0,0,1-1.72-.21A4.24,4.24,0,0,1,19.51,72a5.32,5.32,0,0,1-1-.87c-.06-.09.05-.13-.06-.17s-.21-.42-.28-.41a.81.81,0,0,1-.29-.12c-.15-.07-.17.28-.24.12a7,7,0,0,1-.71-2,2.81,2.81,0,0,1,.19-1.83,2.86,2.86,0,0,1,1.12-1.09,3.56,3.56,0,0,1,2.35-.38A3.46,3.46,0,0,1,22.58,66.4Z" style="fill:#fbc4aa"/><path d="M20.23,67.78c-.23,0-.68,0-.81.27s0,.71.15,1,.27.87.4,1.31a.45.45,0,0,1,0,.28.31.31,0,0,1-.32.19.77.77,0,0,1-.38-.14,4.45,4.45,0,0,1-.58-.38c-.16-.11-.33-.23-.48,0a1,1,0,0,0,0,.85s.15.34,0,.36a4.2,4.2,0,0,1-1.77-3,2.07,2.07,0,0,1,.95-2.44,2.33,2.33,0,0,1,2-1.22,4.52,4.52,0,0,1,4.12,1.52,1.54,1.54,0,0,1-.94,1.09,3.86,3.86,0,0,1-1.47.25C20.84,67.74,20.53,67.75,20.23,67.78Z" style="fill:#c59980"/><path d="M18.21,69.74c-.57,0-.62.76-.15,1.25a2.82,2.82,0,0,0,.52.36c1.14.72,1.26-.25.9-.5C18.63,70.27,18.93,69.68,18.21,69.74Z" style="fill:#fbc4aa"/><path d="M18.74,71c-.07,0-.77-.34-.37-.66a.2.2,0,0,1,.3.12c0,.07,0,.14,0,.2a.24.24,0,0,0,.06.11c.07.08.27.15.26.29S18.78,71.06,18.74,71Z" style="fill:#efa682"/><path d="M22.11,72.55a2.78,2.78,0,0,1-.69-.22,1.86,1.86,0,0,1-1-.74,4.68,4.68,0,0,1-.45-1.32,2.13,2.13,0,0,0-.94-1c-.29-.11-.12.83-.09,1,.24.76.23.76.38,1.18s.07.21.24.64c.1.24.49.77.62,1a3.12,3.12,0,0,0,.54.66,2.83,2.83,0,0,0,1.44.73A1.11,1.11,0,0,0,23.47,74a1.6,1.6,0,0,0,.14-.94,3,3,0,0,0-.24-.77.67.67,0,0,1-.47.21A2.33,2.33,0,0,1,22.11,72.55Z" style="fill:#c59980"/><g style="isolation:isolate"><g style="isolation:isolate"><path d="M47.64,9.29l2.06,1.2a2.69,2.69,0,0,0-2.72.26L44.92,9.56A2.69,2.69,0,0,1,47.64,9.29Z" style="fill:#fb6762"/><g style="clip-path:url(#clip-path-14)"><path d="M47,10.75,44.92,9.56a2.69,2.69,0,0,1,2.72-.27l2.06,1.2A2.69,2.69,0,0,0,47,10.75Z" style="fill:#ff74b8"/></g></g><polygon points="29.11 52.18 27.05 50.98 20.6 41.92 22.66 43.12 29.11 52.18" style="fill:#ff74b8"/><g style="isolation:isolate"><path d="M8.39,50.05l-2.05-1.2A2.67,2.67,0,0,1,5.22,46.4l2.06,1.19A2.69,2.69,0,0,0,8.39,50.05Z" style="fill:#fb6762"/><g style="clip-path:url(#clip-path-15)"><path d="M8.39,50.05l-2.05-1.2A2.67,2.67,0,0,1,5.22,46.4l2.06,1.19A2.69,2.69,0,0,0,8.39,50.05Z" style="fill:#ff74b8"/></g></g><polygon points="7.28 47.59 5.22 46.4 5.18 36.9 7.24 38.09 7.28 47.59" style="fill:#ff74b8"/><polygon points="11.06 31.49 9 30.3 44.92 9.56 46.98 10.75 11.06 31.49" style="fill:#ff74b8"/><g style="isolation:isolate"><path d="M7.24,38.09l-2-1.19A8.37,8.37,0,0,1,9,30.3l2.06,1.19A8.44,8.44,0,0,0,7.24,38.09Z" style="fill:#fb6762"/><g style="clip-path:url(#clip-path-16)"><path d="M7.24,38.09l-2-1.19A8.37,8.37,0,0,1,9,30.3l2.06,1.19A8.44,8.44,0,0,0,7.24,38.09Z" style="fill:#ff74b8"/></g></g><path d="M47,10.75c2.11-1.22,3.83-.24,3.83,2.19l0,9.5A8.42,8.42,0,0,1,47,29L35.49,35.71,29.11,52.18l-6.45-9.06L11.12,49.78C9,51,7.28,50,7.28,47.59l0-9.5a8.44,8.44,0,0,1,3.82-6.6Z" style="fill:#c81467"/></g><path d="M14.24,34.25c0,.82,0,.87-.17,1l-1.77,1V39L14,38c0,.77,0,.94-.16,1l-1.5.86v4.18a.34.34,0,0,1-.17.3l-.71.41V36.08a.4.4,0,0,1,.17-.31Z" style="fill:#fff"/><path d="M16.82,32.63c1.43-.82,1.95-.07,1.95,3.37s-.62,5-2.07,5.87-2,.19-2-3.48C14.7,35,15.39,33.46,16.82,32.63Zm-.09,8.16c.81-.46,1.08-1.61,1.08-4.21s-.22-3.34-1-2.88-1.09,1.6-1.09,4.36C15.71,40.44,15.94,41.25,16.73,40.79Z" style="fill:#fff"/><path d="M22.38,37.49v.77a.3.3,0,0,1-.17.3l-2.62,1.51V31.45c0-.29,0-.3.89-.81v8Z" style="fill:#fff"/><path d="M25.85,35.49v.77a.31.31,0,0,1-.18.3l-2.61,1.51V29.45c0-.29,0-.3.89-.81v8Z" style="fill:#fff"/><path d="M28.15,26.09c1.43-.83,2-.07,2,3.37s-.63,5-2.08,5.87-2,.18-2-3.49C26,28.45,26.72,26.91,28.15,26.09Zm-.09,8.16c.81-.46,1.09-1.62,1.09-4.22s-.22-3.33-1-2.87S27,28.75,27,31.52C27,33.9,27.27,34.71,28.06,34.25Z" style="fill:#fff"/><path d="M37.54,20.79l-1.45,9.8a7.9,7.9,0,0,1-.74.49c-.26.15-.4,0-.48-.45l-.57-2.56c-.11-.62-.26-1.9-.34-2.72-.09.91-.24,2.36-.32,3.09L33,32.35a8.44,8.44,0,0,1-.82.53c-.23.13-.36-.11-.45-.52-.37-1.91-1.31-7.17-1.31-7.17a.6.6,0,0,1,0-.12c0-.12.05-.2.21-.29l.72-.42.81,4.49c.16,1,.25,1.89.33,2.65l.06,0c0-1,.15-2,.28-3l.69-4.61c0-.22,0-.34.23-.44l.38-.22.25-.14.78,4.07c.15.83.22,1.54.29,2.19,0,.15,0,.3,0,.46l.07,0c0-.84.14-2,.27-3l.72-5.07a.48.48,0,0,1,.22-.43Z" style="fill:#fff"/><path d="M40.86,26.86c0,.87,0,.93-.17,1L38.08,29.4V20.68a.36.36,0,0,1,.18-.3l2.65-1.53c0,.83,0,.93-.17,1L39,20.9v2.66l1.66-1c0,.78,0,.94-.16,1l-1.5.87V28Z" style="fill:#fff"/><path d="M42.87,17.71c1.39-.8,2-.42,2,1.34a4.61,4.61,0,0,1-1,3.05,4.57,4.57,0,0,1,1,3.09c0,.19,0,.27-.45.51L44,26c-.12-2.09-.64-2.86-.92-3.11l-.21.14-.39.23v3.41c0,.21,0,.21-.89.72V18.65a.36.36,0,0,1,.18-.3ZM43,22c.63-.36,1-1.07,1-2.42,0-1-.22-1.44-.88-1.06l-.55.32v3.44Z" style="fill:#fff"/><path d="M46.2,19.32a1.66,1.66,0,0,1-.69-1.43A3.51,3.51,0,0,1,47.41,15c1-.61,1.44-.56,1.44-.2a1.55,1.55,0,0,1-.22.72,1.68,1.68,0,0,0-1.08.31,1.91,1.91,0,0,0-1.08,1.51,1.15,1.15,0,0,0,.51,1l1.2.87a1.91,1.91,0,0,1,.74,1.72,3.87,3.87,0,0,1-2,3.53c-1,.58-1.45.44-1.45.09a2.12,2.12,0,0,1,.23-.87,1.25,1.25,0,0,0,1.14-.21A2.09,2.09,0,0,0,48,21.48a1.43,1.43,0,0,0-.65-1.31Z" style="fill:#fff"/><path d="M112.13,18a14.35,14.35,0,0,1-.69,3.91h3.17A1.27,1.27,0,0,1,116,23.07a1.28,1.28,0,0,1-1.39,1.13A1.28,1.28,0,0,1,116,25.33a1,1,0,0,1-.27.67,1.45,1.45,0,0,1-1.09.46H115a1.13,1.13,0,0,1,.75,1,1.15,1.15,0,0,1-.85,1h0a1.78,1.78,0,0,1-.53.08h-1l1,0a1.09,1.09,0,0,1,.56.92,1.27,1.27,0,0,1-1.38,1.12h-5.74c-2.11,0-3.82-1.39-3.82-3.12V24.27a2.88,2.88,0,0,1,2.16-2.6A5.31,5.31,0,0,0,109.57,18c.63-1.9,2.35-1.83,2.54-.28A2.46,2.46,0,0,1,112.13,18Z" style="fill:#923eff"/><path d="M106.1,21.67a2.88,2.88,0,0,0-2.16,2.6v-4.2a2.88,2.88,0,0,1,2.16-2.6,5.31,5.31,0,0,0,3.47-3.65c.67-2,2.56-1.82,2.56,0v3.92h0c-.19-1.55-1.91-1.62-2.54.28A5.31,5.31,0,0,1,106.1,21.67Z" style="fill:#af8eff"/></svg>