<svg xmlns="http://www.w3.org/2000/svg" width="46" height="45.992" viewBox="0 0 46 45.992">
  <path id="path0" d="M34.7,23.656a13.133,13.133,0,0,0-8.094,5.828c-.476.845-.545.9-.806.664-1.315-1.188-4.145-.969-5.591.433l-.715.694-.433-.514c-2.365-2.809-7.123-1.22-7.666,2.561-.085.593-.2.83-.456.911-1.672.53-2.512,2.349-2.514,5.44l0,2.389-1.829.3c-1.007.169-2,.346-2.213.4-.6.145-.6,7.114,0,7.257.21.049,1.245.22,2.3.379,1.578.238,1.915.34,1.915.579,0,2.162,2.792,6.245,5.321,7.781.73.444.971.68.895.878a6.444,6.444,0,0,0-.2,1c-.055.4-.186.733-.29.735a51.568,51.568,0,0,0-7.5,1.352C4.97,63.623,4,65.393,4,67.87v1.5H38.146l.842-.426C41,67.93,41.137,67.292,41.073,59.4l-.051-6.311-.432-.583c-.416-.561-.429-.649-.341-2.42l.092-1.838,1.161-.405a12.577,12.577,0,0,0,6.332-18.807A12.876,12.876,0,0,0,34.7,23.656m4.5,1.3c5.989.971,10.329,7.1,9.149,12.916a11.159,11.159,0,0,1-20.317,4.206c-5.353-8,1.608-18.672,11.168-17.121m-4.732,1.936c-.291.883-.512.991-1.349.662l-.721-.283-1.9,1.9-1.9,1.9.29.609c.423.888.369,1.053-.434,1.32l-.723.241L27.7,35.973l-.047,2.744.7.21c.855.256.936.431.586,1.268l-.272.651,1.938,1.939,1.939,1.938.546-.282c.745-.385,1.053-.285,1.29.419l.2.595H40.14l.2-.595c.237-.7.546-.8,1.29-.419l.546.282,1.945-1.945,1.945-1.944-.291-.611c-.377-.792-.262-1.041.595-1.3l.7-.21-.047-2.744-.047-2.744-.723-.241c-.8-.267-.857-.432-.433-1.32l.29-.609-1.9-1.9-1.9-1.9-.72.283c-.837.329-1.058.221-1.349-.662l-.193-.582H34.665l-.192.582m4.8,1.426a1.913,1.913,0,0,0,2.193.879c.8-.332,2.989,1.839,2.68,2.659-.3.785.22,2.055.9,2.2l.491.107v3.565l-.5.175a1.858,1.858,0,0,0-.877,2.135c.226.5.172.579-1.4,2.121-.735.721-.867.787-1.227.624a1.926,1.926,0,0,0-2.228.828l-.237.568h-3.4l-.237-.568a1.913,1.913,0,0,0-2.249-.819c-.686.314-2.917-1.993-2.621-2.709a1.913,1.913,0,0,0-.874-2.184l-.491-.172V34.164l.468-.1a1.8,1.8,0,0,0,.886-2.156c-.322-.777,1.914-3.069,2.663-2.728.71.324,2.06-.2,2.2-.859l.105-.479h3.577l.18.476m-3.321,1.912a5.963,5.963,0,0,0-4.391,6.724,5.884,5.884,0,1,0,4.391-6.724m-19.06.768c1.68.7,1.908,1.353,1.912,5.482l0,3.277H9.787v-.894c0-1.983,1.688-4.4,2.119-3.043a4.777,4.777,0,0,0,3.2,2.284l.638.1v-.733c0-.71-.02-.736-.612-.832A2.861,2.861,0,0,1,12.85,33.72a2.915,2.915,0,0,1,4.041-2.725m7.664.075c.937.426.962.522.554,2.119a12.285,12.285,0,0,0-.086,5.289c.139.654.252,1.21.252,1.234s-1.149.043-2.553.043H20.169V36.631a20.541,20.541,0,0,1,.2-3.7,2.956,2.956,0,0,1,4.19-1.859m14.722.895a4.432,4.432,0,1,1-6.334,4.045,4.367,4.367,0,0,1,6.334-4.046M36.7,33.116a2.913,2.913,0,1,0,2.741.8,5.053,5.053,0,0,0-2.154-.957c-.007.009-.271.079-.587.153M38.417,35a1.417,1.417,0,0,1-1.055,2.452,1.378,1.378,0,0,1-1.474-1.313,1.533,1.533,0,0,1,1.474-1.658A1.458,1.458,0,0,1,38.417,35m-22.5,7.011c.192,1.669,1,2.148,3.652,2.162,2.482.014,3.425-.578,3.615-2.268l.089-.785h2.616l.3.638a15.2,15.2,0,0,0,2.382,3.267,1.448,1.448,0,0,1,.613,1.32v.732h-.82c-.767,0-.837-.037-1.1-.589a2.892,2.892,0,0,0-5.094.017l-.338.572h-4.69l-.22-.53c-.884-2.133-4.455-2.037-5.283.144-.127.331-.27.386-1,.386H9.787V41.108l3.021.047,3.021.046.093.807m5.78-.33c0,.877-.21.97-2.212.97s-2.213-.093-2.213-.97v-.562H21.7v.562M8.424,46.362v2.864l-1.319-.216c-.726-.118-1.416-.22-1.532-.225-.16-.007-.213-.6-.213-2.385V44.024L6,43.913c.351-.062.907-.173,1.235-.246,1.279-.288,1.191-.486,1.191,2.7m6.9.448c1.07,1.07.253,2.6-1.335,2.5-1.028-.065-1.506-1.713-.723-2.5a1.476,1.476,0,0,1,2.058,0m10.429-.027c1.058,1.126.239,2.626-1.38,2.522a1.561,1.561,0,0,1-1.142-1.434,1.5,1.5,0,0,1,2.522-1.088m7.522,1.075c1.066.375,1.583.9.906.927-.171.006-1,.111-1.842.233-1.868.27-1.714.371-1.645-1.074l.056-1.205.71.366a17.918,17.918,0,0,0,1.816.754m5.617,1.924c0,1.63-.2,1.885-1.5,1.885-1.359,0-1.562-.24-1.562-1.856V48.52h3.064v1.263m-27.024-.4a2.882,2.882,0,0,0,5.073-.285c.187-.449.28-.494,1.036-.494h.83v5.277H15.3l-.575,1.54c-.724,1.938-.645,1.913-1.939.618a11.164,11.164,0,0,1-3-6.882c-.006-.982,1.443-.824,2.079.226M22.2,49.268a2.894,2.894,0,0,0,5.114-.149c.2-.473.28-.515,1.044-.515h.831v.739a10.6,10.6,0,0,1-2.676,6.407c-1.461,1.615-1.439,1.616-2.139-.214l-.6-1.57-1.761-.085L20.256,53.8l-.047-2.6-.047-2.6h.852c.819,0,.865.027,1.191.664m12.311,1.762c.072.727.028.96-.238,1.25-.578.628-.66,1.422-.66,6.43v4.916l-.383-.276c-1.127-.812-1.771-1-5.127-1.494-1.879-.277-3.445-.532-3.48-.566a6.751,6.751,0,0,1-.369-1.71c0-.226.214-.461.63-.681a11.731,11.731,0,0,0,5.322-7.019l.3-1.147,1.768-.279c.971-.153,1.853-.287,1.958-.3s.229.362.281.874m4.855,2.2c.371.37.284,12.97-.093,13.615-.467.8-1.349,1.159-2.844,1.159H35.149V60.725c0-8.492-.23-7.694,2.213-7.694a4.922,4.922,0,0,1,2.008.2M23.263,56.654l.48,1.326-.791.339a8.961,8.961,0,0,1-5.874.335c-1.813-.56-1.823-.577-1.262-2.114l.475-1.3,3.246.046,3.246.047.48,1.325M18.2,60.359a11.906,11.906,0,0,0,4.206-.285c.439-.1,1.034,1.336.748,1.8-1.526,2.468-7.51,1.711-7.162-.907.141-1.065.206-1.168.6-.956a7.809,7.809,0,0,0,1.606.349m-2.783,2.963a6.085,6.085,0,0,0,8.126.014l.7-.628,1.327.2c2.337.345,2.094.027,2.094,2.742V68.01H11.319V63.26l.553-.1c1.062-.2,2.258-.384,2.576-.4a2.086,2.086,0,0,1,.971.569m-5.5,2.348-.048,2.255-2.255.048L5.36,68.02v-.558c0-2.272,1.641-3.776,4.388-4.028.169-.015.207.484.171,2.236M31,63.781a3.636,3.636,0,0,1,2.614,3.432v.8H29.192V63.423l.553.091c.3.05.871.171,1.259.268" transform="translate(-3.928 -23.38)" fill="#fff" fill-rule="evenodd"/>
</svg>
