<svg xmlns="http://www.w3.org/2000/svg" width="46" height="53.526" viewBox="0 0 46 53.526">
  <path id="path0" d="M633.6,15.688c-10.812,1.36-17.55,9.425-17.556,21.011v4.413l.563,1.149a7.626,7.626,0,0,0,5.379,4.108c.857.16,1.135.387,4.014,3.262l3.095,3.09h2.442l-.122.611c-.811,4.053-2.377,4.94-11.335,6.42-7.144,1.18-7.569,1.311-7.284,2.236.071.231.875,1.889,1.784,3.684l1.654,3.261,12.9.05,12.9.049.316-.481c.658-1.007.017-1.44-2.132-1.44a5.81,5.81,0,0,1-1.819-.146c0-.081,1.4-1.54,3.119-3.244l3.117-3.1,5.564.939c3.061.517,5.677.962,5.813.99.167.034-.115.772-.863,2.256l-1.111,2.206-1.816.1c-2.111.112-2.825.646-2.033,1.522.371.41,4.466.614,5.025.25a55.733,55.733,0,0,0,3.525-7.112c0-.775-.568-.934-7.274-2.034-8.452-1.387-9.742-2-10.937-5.193-.647-1.729-.607-1.822.8-1.822h1.2l3.095-3.089c2.9-2.9,3.152-3.1,4.031-3.265,4.972-.923,6.961-5.722,5.737-13.84C653.8,22.051,643.9,14.394,633.6,15.688m6.619,2.484a18.226,18.226,0,0,1,13.166,14.357c.257,1.475.176,1.59-.638.9a6.575,6.575,0,0,0-2.912-1.33c-.921-.215-.941-.236-1.365-1.406-4.308-11.9-21.739-11.5-25.606.582-.149.467-.348.72-.564.72a7.807,7.807,0,0,0-3.291,1.271L618,33.962l.134-1.029c1.021-7.866,6.875-13.624,15.463-15.209a25.8,25.8,0,0,1,6.619.449m-1.631,6.053a11.854,11.854,0,0,1,6.781,4.862c1.726,2.62,2.045,4.3,2.045,10.766V44.47h-5.981c-6.408,0-6.682.04-6.682.989,0,1.054.351,1.121,5.9,1.121h5.128l-2.1,2.111-2.1,2.111H630.052l-2.926-2.915L624.2,44.971l0-5.287a39.615,39.615,0,0,1,.285-6.63,11.763,11.763,0,0,1,14.1-8.829m-6.919,7.835c-4.181,1.17-4.16,7.066.03,7.994,1.874.416,8.153.192,9.119-.324a4.142,4.142,0,0,0-.045-7.347c-1.113-.577-7.4-.8-9.1-.322m8.373,2.22a2.079,2.079,0,0,1,.252,3.367l-.584.492h-7.875l-.651-.653a2,2,0,0,1,.477-3.281c.845-.459,7.607-.4,8.382.075m-17.763,4.914c0,5.613.065,5.357-1.219,4.82a5.261,5.261,0,0,1-.462-9.322c1.786-1.023,1.681-1.3,1.681,4.5m28.4-4.7a5.283,5.283,0,0,1,.335,9.2c-1.785,1.023-1.681,1.3-1.681-4.5,0-5.677-.072-5.423,1.346-4.7m-12.52,19.224c.524,2.2,2.328,4.936,3.767,5.708.275.146.5.359.5.472a79.033,79.033,0,0,1-6.62,6.638,44.916,44.916,0,0,1-3.511-3.32L628.981,59.9l.883-.634a9.984,9.984,0,0,0,3.561-5.568l.208-.972h4.291l.237,1m-8.109,10.131,3.258,3.262H617.572l-1.108-2.229a22.259,22.259,0,0,1-1.052-2.277c.031-.027,2.6-.482,5.718-1.012s5.662-.972,5.663-.984,1.468,1.446,3.259,3.239m15.493,3.483a1.248,1.248,0,0,0,.038,1.5,1.225,1.225,0,0,0,1.52-.22c.549-.876-.828-2-1.557-1.276" transform="translate(-612.736 -15.545)" fill="#fff" fill-rule="evenodd"/>
</svg>
