<svg xmlns="http://www.w3.org/2000/svg" width="46" height="45.49" viewBox="0 0 46 45.49">
  <path id="path0" d="M1165.654,16.076a5.332,5.332,0,0,0-3.44,2.8c-.482,1.063-.41,33.959.077,35.013,1.179,2.548,1.694,2.7,9.521,2.757,6.936.053,7.039.043,7.039-.7s-.054-.755-6.674-.759c-6.981,0-7.117-.023-8.054-1.135-2.393-2.844,1.328-6.6,4.339-4.383a1.521,1.521,0,0,0,2.152-.074l.483-.482V21.371h35.3V55.192h-1.533c-1.615,0-1.93.122-1.93.742,0,.949,3.57,1.157,4.467.26l.482-.482V20.7l-.4-.406-.4-.4h-18.071c-16.129,0-18.073-.027-18.073-.252,0-1.913-3.124-4.017-5.279-3.558m2.094,1.737a2.914,2.914,0,0,1,1.319,1.113l.463.713.046,14.477c.024,7.962.009,14.477-.035,14.477a4.066,4.066,0,0,1-.671-.4,4.293,4.293,0,0,0-4.453-.113c-.454.237-.881.456-.949.487-.2.091-.15-28.164.053-28.895a3.023,3.023,0,0,1,4.227-1.856m6.744,7.612a.717.717,0,0,0-.061,1.027c.283.282,9.22.282,9.5,0a.669.669,0,0,0-.1-1.015c-.444-.4-8.937-.414-9.338-.013m12.279.07c-.4.4-.411.556-.07.9s16.032.4,16.37.061a.754.754,0,0,0-.122-1.117c-.689-.369-15.8-.22-16.178.159m-12.042,3.677c-.473.24-.613.685-.325,1.032s16.186.359,16.484,0,.147-.793-.325-1.032c-.594-.3-15.241-.3-15.835,0m19.2-.052a.685.685,0,0,0-.387,1.008c.164.308.363.319,4.908.277l4.735-.044.052-.536c.043-.45-.019-.563-.382-.7a66.318,66.318,0,0,0-8.926,0m-19.5,4a.718.718,0,0,0,.061,1.027c.39.389,8.991.389,9.38,0a.717.717,0,0,0,.061-1.027c-.282-.282-9.219-.282-9.5,0m12.27.061c-.341.34-.328.5.07.9.379.379,15.489.528,16.178.158a.753.753,0,0,0,.122-1.116c-.339-.338-16.031-.279-16.37.061m-12.271,3.733a.883.883,0,0,0-.2.544c0,.689.248.742,3.407.742h3.012l-.09.784c-.074.654.078,1.309.916,3.94.552,1.736,1,3.2,1,3.259s-.316.1-.7.1a2.954,2.954,0,0,0-2.887,2.6c-.078.822,1.6,6.6,2.537,8.751a6.855,6.855,0,0,0,6.084,3.866c1.444.01,8.89-2.179,10.723-3.152a6.425,6.425,0,0,0,3.46-5.961l0-1.735-1.516-4.612a52.278,52.278,0,0,0-1.815-5.016,2.777,2.777,0,0,0-4.034-.236c-.246.216-.322.214-.655-.02a2.992,2.992,0,0,0-2.693.094c-.366.288-.507.32-.724.162-1.326-.963-2.3-1.12-3.273-.526-.61.372-.55.435-1.038-1.067-.863-2.658-1.023-2.722-6.805-2.722-3.288,0-4.564.054-4.709.2m9.493,1.658a40.261,40.261,0,0,1,2.011,5.651c2.292,7.256,2.186,7.016,2.989,6.761.559-.177.486-.646-.695-4.4-1.3-4.121-1.331-4.507-.424-4.827,1.123-.395,1.233-.226,2.644,4.062,1.313,3.99,1.459,4.262,2.149,4,.526-.2.455-.755-.454-3.591-1.172-3.651-1.136-4.289.237-4.289.8,0,1.026.387,2.05,3.586.984,3.073,1.174,3.4,1.831,3.1.563-.256.53-.533-.411-3.465-.857-2.676-.881-3.111-.19-3.481,1.163-.623,1.5-.165,2.754,3.769.6,1.869,1.274,3.977,1.505,4.685.974,2.984-.025,5.741-2.542,7.017a50.958,50.958,0,0,1-9.9,2.889c-3.122-.024-4.276-1.353-6.069-6.991-1.214-3.818-1.266-4.216-.642-4.84,1.151-1.15,2.265-.431,3.031,1.958.7,2.179,1.028,2.51,1.722,1.741.278-.307.269-.384-.211-1.856-2.177-6.668-3.327-10.365-3.327-10.694a1.142,1.142,0,0,1,1.936-.781m.363,16.6c-1.02.827,1.3,3.325,3.085,3.325,1.224,0,1.235-1.3.012-1.5a2.482,2.482,0,0,1-1.8-1.24c-.468-.795-.835-.961-1.3-.587" transform="translate(-1161.888 -16.012)" fill="#fff" fill-rule="evenodd"/>
</svg>
