<svg xmlns="http://www.w3.org/2000/svg" width="46" height="45.239" viewBox="0 0 46 45.239">
  <path id="path0" d="M1812.507,20.161a5.316,5.316,0,0,0-2.579,7.559c.4.614.408.651.115.809-1.683.9-2.208,2.336-2.208,6.028,0,4.552-.286,4.371,6.727,4.269,2.8-.041,5.292-.072,5.542-.071,2.8.015,10.9.023,11.278.012.273-.008,2.785.018,5.583.059,6.944.1,6.775.194,6.866-3.763.084-3.6-.383-5.11-1.92-6.206l-.635-.452.5-.977a5.164,5.164,0,1,0-9.143-.02l.5.983-.462.332a6.019,6.019,0,0,0-.788.691l-.326.359-.6-.542a7.048,7.048,0,0,0-.9-.709c-.281-.159-.281-.188.036-.64a5.155,5.155,0,1,0-8.926-.56l.526,1.061-.361.249a7.606,7.606,0,0,0-.815.7l-.454.449-.454-.449a7.606,7.606,0,0,0-.815-.7l-.361-.249.526-1.061a5.2,5.2,0,0,0-6.452-7.16m2.81,1.555a3.441,3.441,0,0,1,.509,6.371,3.216,3.216,0,0,1-4.768-3.061,3.23,3.23,0,0,1,4.259-3.309m11.342-.014a3.451,3.451,0,0,1,2.164,4.874,3.368,3.368,0,0,1-5.569.727,3.427,3.427,0,0,1,3.4-5.6m12.337.415a3.365,3.365,0,0,1,.642,5.3,3.31,3.31,0,0,1-4.651.183A3.41,3.41,0,0,1,1839,22.118M1813.2,30.083a4.9,4.9,0,0,0,3.028-.209c1.068-.446,2.405.5,2.819,1.995.339,1.224.242,5-.135,5.2a55.336,55.336,0,0,1-9.232-.028c-.312-.312-.268-4.768.057-5.543.438-1.05,1.755-2.014,2.389-1.751.136.058.62.208,1.074.337m11.4,0a4.93,4.93,0,0,0,3.058-.217,2.09,2.09,0,0,1,2.437,1.125c.52.784.8,5.479.363,6.01-.244.294-8.717.355-9.255.066-.38-.2-.473-3.868-.133-5.218.285-1.129,1.753-2.384,2.457-2.1.136.054.62.2,1.074.333m11.538-.008a4.4,4.4,0,0,0,2.947-.221c.972-.386,2.146.329,2.695,1.643.375.9.37,5.5-.007,5.641a64.049,64.049,0,0,1-9.224-.115c-.422-.309-.332-4.866.113-5.687.526-.97,1.7-1.8,2.267-1.6.136.048.681.2,1.21.336m8.377,10.236a28.453,28.453,0,0,0-3.4,3.053l-2.82,2.8-.367-.495c-.771-1.045-.916-1.07-6.64-1.174-4.658-.087-5.37-.136-6.775-.475-4.187-1.011-7.335-.139-10.293,2.852l-1.453,1.468-.812-.759a6.849,6.849,0,0,0-.894-.76c-.625,0-7.091,6.675-7.169,7.4-.048.458.208.716,9.728,9.744,1.8,1.7,1.5,1.826,5.426-2.231,3.517-3.635,3.635-3.819,2.892-4.516l-.427-.4.634-.137c.348-.075,3.905-.169,7.9-.207,8.783-.084,9.643-.22,11.19-1.768.523-.523,7.272-8.459,8.024-9.435,2.088-2.71-1.445-6.4-4.752-4.962m2.638,1.741c1.744,1.063,1.759,1.033-3.384,7.084-3.572,4.2-3.866,4.5-4.871,5l-1.07.532-8.019.114c-4.41.063-8.449.179-8.978.258l-.959.143-2.8-2.711a25.688,25.688,0,0,1-2.8-2.953,6.807,6.807,0,0,1,1.28-1.516,7.831,7.831,0,0,1,8.221-2.32c1.164.307,1.964.361,6.7.453,6.048.117,6.109.129,6.427,1.307a2.245,2.245,0,0,1-.431,2.042c-.2.17-1.207.245-4.059.307-4.007.087-4.257.143-4.257.941,0,1.229,7.753,1.334,9.355.126a3.916,3.916,0,0,0,1.219-2.265c0-.366,5.444-5.97,6.44-6.629a1.821,1.821,0,0,1,1.984.081m-31.481,11.491,4.535,4.408-1.3,1.417c-.716.78-1.826,1.935-2.468,2.567l-1.166,1.15-.458-.425c-2.268-2.107-8.729-8.285-8.764-8.379a57.406,57.406,0,0,1,4.935-5.145c.084,0,2.193,1.984,4.688,4.407m9.12-3.443a.846.846,0,0,0,.847,1.419c.353-.124.461-.279.5-.726.085-.894-.77-1.335-1.35-.693" transform="translate(-1803.899 -19.847)" fill="#fff" fill-rule="evenodd"/>
</svg>
