<svg xmlns="http://www.w3.org/2000/svg" width="46" height="59.447" viewBox="0 0 46 59.447">
  <path id="path0" d="M2442.518,15.72c-2.139,1.332-2-.514-2.013,27.3-.009,26.021-.031,25.463,1.084,26.733.951,1.083,1.563,1.168,8.365,1.169h6.156l1.126,1.066c1.278,1.208,2.17,1.391,3.126.639.712-.56.795-.541.795.182a1.963,1.963,0,0,0,.514,1.163c1.493,1.61,5.45.711,5.45-1.238v-.527l.693.422c1.21.739,2.307.443,3.53-.95l.663-.757h5.573c8.948,0,8.921.026,8.923-8.558,0-5.248-.075-5.713-.946-5.713-.656,0-.736.614-.8,6.045l-.064,5.494-.6.514-.6.514h-11.2l-.294-.585-.372-.746c-.044-.089.206-.16.551-.16,2.345,0,2.566-5.084.252-5.778-.914-.273-1.011-.422-.538-.813,1.752-1.454-1.638-5.348-3.748-4.3l-.822.406-.405-.914c-.928-2.1-5.769-1.867-5.769.275,0,.63-.161.663-1.051.223-2.082-1.03-5.067,2.253-3.856,4.241l.417.684-.72.136c-2.634.493-2.46,5.845.189,5.845.665,0,.671.062.081.861l-.467.63H2443.5l-.6-.514-.6-.514-.056-24.955-.056-24.954.625-.625.626-.625h30.918V21.3c0,6.806.405,7.22,7.083,7.231l3.355.005V41.2c0,13.809-.034,13.435,1.158,12.977.558-.215.571-.571.5-14.787l-.064-13.731-.578-1.172a59.364,59.364,0,0,0-7.579-8.521l-.738-.532-17.173-.056c-16.446-.052-17.2-.038-17.813.342m37.022,3.916c3.323,3.455,4.74,5.208,5.01,6.193.292,1.062.37,1.042-3.9.961l-3.555-.068-.514-.6c-.5-.588-.514-.663-.514-4.845V17.032l.479-.005c.337,0,1.226.771,2.994,2.61m-31.72,2.175c-.363.943-.084,1.075,2.412,1.137,2.555.064,3.327-.272,2.607-1.139-.368-.443-4.849-.443-5.019,0m7.606.083c-.479.9.088,1.122,2.646,1.056l2.34-.061V21.611l-2.385-.06c-2.157-.055-2.405-.022-2.6.344m-7.546,3.373a1.234,1.234,0,0,0,.114,1.306c.533.533,11.8.345,12.182-.2.826-1.179.5-1.245-6.127-1.245-3.315,0-6.091.064-6.169.142m1.948,5.382c-.481.378-.561.626-.636,1.952-.077,1.356-.147,1.562-.663,1.938-.742.542-.729.925.061,1.664.565.527.639.737.639,1.8,0,1.491.223,1.931,1.137,2.233,1.273.419,2.119-.585.887-1.055-.438-.166-.533-.345-.534-1.007a3.731,3.731,0,0,0-.781-2.579c-.3-.169-.286-.262.133-.827a3.868,3.868,0,0,0,.588-1.931c.1-1.145.176-1.306.635-1.422.386-.1.5-.251.451-.6-.093-.656-1.176-.749-1.917-.166m3.59-.27c-.308.308-.112.714.5,1.03.582.3.639.426.639,1.4,0,1.122.276,1.879.795,2.184.253.15.226.266-.162.68a2.573,2.573,0,0,0-.563,1.523c-.157,1.71-.256,1.984-.718,1.984a.526.526,0,0,0-.309.985c1.1.805,2.45-.441,2.45-2.267,0-1.21.476-2.127,1.1-2.127.406,0,.123-.8-.465-1.318s-.639-.682-.639-1.867c0-1.8-1.653-3.186-2.628-2.211m6.471,2.083a1.172,1.172,0,0,0-.185.8l.069.491,9.418.055c10.369.061,10.394.059,9.518-1.194-.417-.6-18.331-.739-18.819-.151m.033,5.274c-.365.364-.316,1.166.082,1.319,1.025.394,18.6.129,18.826-.282.285-.533.282-.562-.114-.957-.44-.44-18.358-.515-18.794-.079m-11.5,5.32a.83.83,0,0,0,.033,1.219c.528.437,7.592.217,7.883-.245a.606.606,0,0,0,0-.746c-.3-.477-7.461-.682-7.916-.227m10.858,0a.978.978,0,0,0-.256.6c0,.835.2.853,9.932.853,9.758,0,10.091-.028,10.091-.852a1.129,1.129,0,0,0-.335-.518c-.44-.438-19-.515-19.433-.079m-10.863,5.326a.978.978,0,0,0-.256.6c0,.854-.028.851,15.363.851,16.432,0,16.013.036,15.3-1.292-.272-.509-29.9-.662-30.41-.156m17,8.984c0,.814.168.988,1.427,1.477.887.344.9.341,1.562-.212l.666-.561.868.869.868.868-.573.68c-.614.729-.6,1.055.059,2.23a1.189,1.189,0,0,0,1.149.7c.875.074,1.089.465.965,1.768-.051.528-.183.736-.5.782-1.18.176-1.4.312-1.807,1.107-.555,1.088-.543,1.249.148,1.969l.578.6-.883.882-.883.883-.754-.575-.754-.575-1.018.486c-.92.44-1.028.567-1.123,1.338l-.106.853-1.226.064-1.224.064v-.633c0-1-.2-1.278-1.229-1.736-1.049-.464-.909-.5-2.314.534-.212.155-.5,0-1.086-.588s-.742-.874-.588-1.086c1.034-1.411,1-1.274.557-2.311-.436-1.016-.744-1.232-1.759-1.232h-.633l.064-1.224.064-1.226.851-.106c1.329-.166,2.094-2.042,1.173-2.876-.593-.537-.542-.759.382-1.661l.809-.791.705.52a1.935,1.935,0,0,0,3-1.422c0-.574.031-.585,1.282-.585h1.278v.72m-2.662,3.372a4.283,4.283,0,1,0,5.64,4.067,4.308,4.308,0,0,0-5.64-4.067m2.533,1.77a2.606,2.606,0,0,1,.868,3.906,2.551,2.551,0,0,1-3.865.208c-2.157-2.026.3-5.4,3-4.114" transform="translate(-2440.503 -15.356)" fill="#fff" fill-rule="evenodd"/>
</svg>
