<svg xmlns="http://www.w3.org/2000/svg" width="46" height="46.197" viewBox="0 0 46 46.197">
  <path id="path0" d="M2883.968,28.3l0,.611-1.238.04c-8.305.266-12.222,10.547-6.274,16.464a9.227,9.227,0,0,0,6.44,2.744h1.076v5.3h-1.54V52.21c0-2.284-.335-2.231-3.624.58-2.737,2.339-3.049,2.645-3.049,3.007a62.779,62.779,0,0,0,5.592,4.966c.761.508,1.081.067,1.081-1.493V57.908h1.54V61.9c0,4.834.123,5.439,1.358,6.636,1.419,1.376,1.216,1.352,11.462,1.35l8.995,0,.861-.4a4.521,4.521,0,0,0,2.646-4.068v-.756l1.114-.034c12.135-.359,12.3-18.572.175-19.287l-1.2-.071-.048-2.233-.047-2.233h1.549v1.124c0,2.445.4,2.385,3.85-.576,3.586-3.079,3.635-2.5-.513-6.019-3-2.543-3.336-2.562-3.336-.176v1.2h-1.52l-.052-4.833c-.059-5.357-.054-5.338-1.256-6.539-1.269-1.269-.644-1.2-11.116-1.247l-9.411-.044-.855.4m3.089,2.509,1.57,1.54h10.872l1.559-1.516c1.714-1.667,1.851-1.707,2.993-.894,1.112.792,1.219,1.342,1.219,6.228V36.35h-5.013c-5.914,0-5.425-.2-5.425,2.253,0,2.372-.445,2.2,5.55,2.2h4.887v4.759l-1.055.356c-8.475,2.862-8.484,15.074-.014,18.153l1.07.389v.778c0,1.916-1.23,3.11-3.342,3.245l-1.278.082v-.749c0-2.189-.645-2.407-6.9-2.342-5.959.063-6.442.244-6.442,2.431v.615h-.947a3.852,3.852,0,0,1-2.618-.906c-.847-.79-.884-1.02-.884-5.5v-4.2h5.041c5.892,0,5.4.2,5.4-2.213,0-2.377.352-2.235-5.564-2.235H2885.5l.047-2.765.047-2.765.91-.309c8.393-2.851,8.393-15.081,0-18.14l-1-.364v-.926a3.046,3.046,0,0,1,2.555-3.12,20.862,20.862,0,0,1,1.646,1.525m12.738-.77-.756.77h-9.953l-.756-.77-.755-.77H2903.2l-.756.77m-17.094,4.766c6.979,2.137,8.282,11.281,2.135,14.978a8.243,8.243,0,0,1-11.637-10.709,8.5,8.5,0,0,1,9.5-4.269m12.817.453v.685h5.988V30.361h-5.988v.684m-15.741,1.621c0,.662-.065.8-.471,1.012-2.433,1.271-2.019,5.075.6,5.5.353.056.817.14,1.032.184a1.5,1.5,0,0,1,.219,2.8c-.875.361-2.063-.246-2.063-1.055,0-.254-.141-.31-.773-.31-.757,0-.771.01-.66.471.251,1.052,1.256,2.267,1.874,2.267.179,0,.244.23.244.855v.856h1.54v-.856c0-.646.063-.855.256-.855.471,0,1.56-1.158,1.78-1.893a2.929,2.929,0,0,0-2.614-3.753,1.567,1.567,0,0,1-1.194-2.66c.847-.785,2.456-.28,2.456.77,0,.3.109.35.784.35h.783l-.118-.556a2.906,2.906,0,0,0-1.44-1.984c-.648-.364-.693-.439-.693-1.149V31.9h-1.54v.765m11.292,1.374v.77h8.9V33.27h-8.9v.77m21.863,4.554A18.67,18.67,0,0,1,2914,40.045l-1.54,1.318-.1-.817c-.156-1.335.1-1.288-7.123-1.288h-6.383v-1.54h6.58c7.431,0,6.936.1,6.936-1.364v-.7l1.63,1.405a9.887,9.887,0,0,1,1.583,1.538m-2.871,8.594a8.24,8.24,0,0,1-.5,15.752c-6.5,1.909-12.5-5.253-9.554-11.415a8.242,8.242,0,0,1,10.057-4.337m-3.251,1.914c0,.687-.052.794-.47.953-2.76,1.045-2.043,5.63.88,5.63,1.338,0,2.129,1.118,1.553,2.194a1.454,1.454,0,0,1-2.706-.158c-.165-.437-.271-.5-.9-.5h-.714l.126.56a2.88,2.88,0,0,0,1.763,2.162c.418.158.47.265.47.953v.774h1.368v-.767c0-.719.042-.787.667-1.106,2.553-1.3,1.613-5.469-1.236-5.481a1.522,1.522,0,0,1-1.129-2.64,1.485,1.485,0,0,1,2.453.667c.154.615,1.472.656,1.467.045a3.115,3.115,0,0,0-1.5-2.151c-.681-.376-.723-.442-.723-1.156v-.756h-1.368V49.1m-28.4,4.695c0,1.237-.2,1.2,7,1.2h6.341v1.539h-6.481c-7.235,0-6.809-.079-6.9,1.273l-.053.837-1.455-1.244c-.8-.684-1.557-1.342-1.683-1.462-.189-.179.053-.462,1.368-1.6,1.887-1.638,1.854-1.628,1.854-.544m9.582,6.422v.77h8.9V59.448h-8.9v.77m4.62,2.908v.77h5.817v-1.54h-5.817v.77m6.468,4.055a1.33,1.33,0,0,1,.205.773v.567l-5.261-.045-5.261-.045-.053-.376c-.154-1.081-.166-1.079,5.244-1.079,3.6,0,4.976.055,5.127.205" transform="translate(-2873.591 -23.686)" fill="#fff" fill-rule="evenodd"/>
</svg>
