<svg xmlns="http://www.w3.org/2000/svg" width="46" height="88.017" viewBox="0 0 46 88.017">
  <path id="path0" d="M3705.107,22.341c-8.174,2.2-11.657,8.151-11.669,19.942l-.006,5.739h-2.765c-2.536,0-2.831.068-3.6.832l-.832.832.17,8.141c.19,9.164.38,10.254,2.581,14.771,3.116,6.393,11.562,12.288,17.608,12.288h1.063V99.439h-8.391c-10.165,0-9.4-.423-9.4,5.175,0,2.858.118,3.906.5,4.455l.5.718h18.365c21.809,0,19.434.642,19.434-5.256,0-5.549.846-5.091-9.406-5.091h-8.392l.087-7.173.088-7.175,2.264-.39a22.326,22.326,0,0,0,16.5-12.587c1.989-4.071,2.418-6.839,2.418-15.666,0-8.673.215-8.225-4.017-8.376l-3.1-.113,0-6.193c0-4.333-.144-6.717-.466-7.931a15.941,15.941,0,0,0-19.546-11.494m7.2,3.209a12.692,12.692,0,0,1,8.184,6.678l.908,1.727V65.646l-.766,1.546c-4.7,9.459-17.837,9.622-22.435.279l-1.052-2.136V34.279l.862-1.835a12.42,12.42,0,0,1,14.3-6.894m-18.8,32.9c.13,5.859.25,7.138.813,8.685a15.861,15.861,0,0,0,28.693,2.753c1.721-2.938,2.107-5.157,2.107-12.078V51.579h3.609l-.115,7.519-.116,7.519-1.042,2.588a19.5,19.5,0,0,1-36.669-.9c-.63-1.79-.724-2.819-.838-9.368l-.13-7.358h3.537l.151,6.872m31.613,46.163v1.94h-31.69v-3.881h31.691v1.94" transform="translate(-3686.24 -21.791)" fill="#fff" fill-rule="evenodd"/>
</svg>
