<svg xmlns="http://www.w3.org/2000/svg" width="43" height="43" viewBox="0 0 43 43">
  <g id="Group_343" data-name="Group 343" transform="translate(-585 -725)">
    <rect id="Rectangle_154" data-name="Rectangle 154" width="43" height="43" transform="translate(585 725)" fill="none"/>
    <path id="path0" d="M66.169,27.475a2.262,2.262,0,0,0-1.105,1.579c-.259,1.808,0,19.5.287,19.893.636.851.922.957,2.727,1.011l1.667.049v17.3h30.6V57.943H99.089v8.1H71V49.99l5.649-.041c7.873-.057,6.985,1.21,7.036-10.043l.039-8.653h7.4v7.965h7.965v9.363h1.258V38.312L96.19,34.153,92.034,30H83.717v-.384a2.53,2.53,0,0,0-.706-1.79l-.429-.411-8.061-.029c-4.434-.015-8.191.026-8.351.092m16.073,1.435c.191.273.217,1.426.217,9.68s-.026,9.407-.217,9.68l-.218.311H74.376c-5.764,0-7.692-.042-7.817-.168-.243-.243-.243-19.4,0-19.647.126-.126,2.053-.168,7.817-.168h7.649l.218.311M67.089,31.6v2.306H81.621V29.3H67.089V31.6m13.275,0v1.048H68.347v-2.1H80.364V31.6M95.316,35.1l2.862,2.865h-5.8V35.1c0-1.575.016-2.864.036-2.864s1.324,1.289,2.9,2.864M68.192,35a2.649,2.649,0,0,0-.052,3.187,4.147,4.147,0,0,0,2.87.189c1-.535.922-3.148-.107-3.617A3.326,3.326,0,0,0,68.192,35m4.956-.261c-.855.365-1.113,2.68-.38,3.412a4.005,4.005,0,0,0,3,.189,3.075,3.075,0,0,0,.21-3.27,3.714,3.714,0,0,0-2.828-.332m4.61.033c-.871.422-1.061,2.744-.28,3.416.912.785,3.122.4,3.452-.6a2.232,2.232,0,0,0-3.172-2.82M70.415,36.6l.043.664H69.045V35.85l.664.043.664.042.042.664m4.639-.035v.7h-1.4v-1.4h1.4v.7m4.611,0v.7h-1.4v-.606c0-.75.043-.791.792-.791h.605v.7M68.14,39.692a2.755,2.755,0,0,0-.018,3.137,2.9,2.9,0,0,0,3.172-.085c.7-.78.519-2.814-.283-3.243a4.146,4.146,0,0,0-2.87.19m4.628.034c-.336.336-.369.465-.369,1.476,0,1.668.379,2.068,1.957,2.068s1.956-.4,1.956-2.068c0-1.6-.262-1.845-1.956-1.845-1.132,0-1.247.026-1.588.368m4.71-.036c-.887.763-.564,3.109.475,3.452,2.134.7,3.667-.765,2.977-2.855-.33-1-2.54-1.382-3.452-.6m-7.063,1.589-.042.664-.664.043-.664.043V40.616h1.413l-.043.663m4.639.035v.7h-1.4v-1.4h1.4v.7m4.611.008v.707L79,41.986l-.663-.043-.043-.664-.043-.663h1.413v.706m6.707.621v.629H87.63V41.314H86.373v.629m2.655,0v.629h7.965V41.314H89.028v.629M68.389,44.136c-.944.457-.991,3.1-.063,3.594a6.352,6.352,0,0,0,2.684.008c.989-.53.92-3.251-.093-3.635a5.9,5.9,0,0,0-2.528.034m4.419.241c-.385.385-.409.475-.409,1.548s.024,1.163.409,1.548.475.408,1.548.408,1.163-.023,1.548-.408.408-.475.408-1.548c0-1.632-.324-1.956-1.956-1.956-1.073,0-1.164.023-1.548.408m4.943-.267c-.691.278-1.012,2.143-.53,3.075.6,1.158,3.306.988,3.708-.233.7-2.13-1.051-3.7-3.178-2.842m8.621.488v.629H87.63V43.97H86.373V44.6m2.655,0v.629h7.965V43.97H89.028V44.6M70.373,45.926v.629l-.664.043-.664.043V45.211l.664.043.664.043v.629m4.681,0v.7h-1.4v-1.4h1.4v.7m4.611,0v.7h-1.4v-.605a1.744,1.744,0,0,1,.093-.7,1.752,1.752,0,0,1,.7-.093h.605v.7m6.707,1.327v.629H87.63V46.624H86.373v.629m2.655,0v.629h7.965V46.624H89.028v.629m13.065,1.035c-.231.146-3.037,2.9-6.235,6.113l-5.815,5.848-.787,1.7c-1.338,2.887-1.113,3.132,1.7,1.852l1.913-.87,5.639-5.6c6.364-6.321,6.448-6.417,6.447-7.334a1.907,1.907,0,0,0-2.864-1.7m-15.72,1.621v.629H87.63V49.279H86.373v.629m2.655,0v.629h7.965V49.279H89.028v.629m14.4-.484c.363.194.343.733-.044,1.183l-.314.365-.48-.5-.48-.5.329-.35c.36-.383.575-.428.988-.206m-1.71,2c.433.447.44.473.193.7-.355.321-1.317-.579-1.012-.946.246-.3.307-.279.819.249m-22.195-.034a6.66,6.66,0,0,0-4.251,10.84,6.74,6.74,0,0,0,10.061.138,6.67,6.67,0,0,0-5.81-10.977m20.709,1.342c.569.545.743.324-3.836,4.895-4.113,4.107-5.534,5.277-5.93,4.88-.333-.333,8.672-10.151,9.311-10.151a2.336,2.336,0,0,1,.455.376m-17.555.4a5.341,5.341,0,1,1-6.77,1.889,5.365,5.365,0,0,1,6.77-1.889m-3.014,1.218c0,.241-.16.388-.688.63-2.208,1.014-1.4,3.341,1.263,3.619a2.185,2.185,0,0,1,1.212.394l.355.305-.3.3a2.092,2.092,0,0,1-2.288.015c-.433-.31-1.508-.38-1.507-.1,0,.445.6,1.121,1.253,1.409.525.232.7.386.729.653.065.532,1.279.532,1.341,0,.031-.267.189-.412.664-.608,2.291-.947,1.42-3.353-1.325-3.664-1.039-.117-1.507-.449-1.266-.9.272-.508,2.094-.573,2.449-.086.289.4,1.511.319,1.383-.086a1.9,1.9,0,0,0-1.194-1.258c-.522-.24-.682-.387-.682-.628,0-.285-.067-.315-.7-.315s-.7.03-.7.315" transform="translate(521.043 699.621)" fill="#fff" fill-rule="evenodd"/>
  </g>
</svg>
