<svg xmlns="http://www.w3.org/2000/svg" width="43" height="43" viewBox="0 0 43 43">
  <g id="Group_340" data-name="Group 340" transform="translate(-599 -741)">
    <g id="Group_338" data-name="Group 338">
      <g id="Group_336" data-name="Group 336">
        <rect id="Rectangle_152" data-name="Rectangle 152" width="43" height="43" transform="translate(599 741)" fill="none"/>
        <path id="path0" d="M142.342,35.108l-.273,1.107-.923.3a15.337,15.337,0,0,0-1.812.751c-1.1.559-1.016.564-2.082-.117l-.889-.567-1.7,1.7-1.7,1.7.585,1.01.585,1.01-.415.752a13.89,13.89,0,0,0-.785,1.857c-.411,1.225-.186,1.059-2.1,1.555l-.54.14.04,2.383.039,2.383,1.108.288,1.107.288.306.932a16.078,16.078,0,0,0,1.545,3.22,2.074,2.074,0,0,1,.294.536,19.359,19.359,0,0,1-2.859.107H129v5h32.018l.039,1.916.04,1.916,3.932-3.145c2.163-1.73,3.949-3.162,3.971-3.183s-1.748-1.467-3.932-3.214l-3.97-3.177-.04,1.941-.039,1.941h-2.856a19.287,19.287,0,0,1-2.854-.107,2.034,2.034,0,0,1,.293-.536,16.423,16.423,0,0,0,1.555-3.224l.314-.937,1.1-.279,1.1-.279.039-2.389.039-2.388-.54-.14c-1.868-.484-1.7-.382-1.962-1.2-.132-.412-.472-1.25-.756-1.862-.572-1.234-.582-1.143.273-2.573l.322-.54-1.71-1.707-1.711-1.706-.888.567c-1.072.685-.967.681-2.163.079a12.942,12.942,0,0,0-1.783-.725c-.874-.254-.891-.282-1.324-2.111L147.412,34h-4.8l-.273,1.108m4.39,1.149c.3,1.089.215,1.005,1.234,1.263a15.49,15.49,0,0,1,2.293.927l1.457.716.474-.242a8.983,8.983,0,0,0,.879-.528l.407-.286,1.041,1.035,1.041,1.035-.54.922-.539.922.485.806a11.921,11.921,0,0,1,1.259,3.091c.2.791.277.849,1.407,1.1l.822.181v2.925l-.965.255c-.53.14-.984.268-1.006.284a10.514,10.514,0,0,0-.337,1.084,13.572,13.572,0,0,1-2.011,4.006l-.548.694h-1.927c-2.082,0-2.182-.039-1.423-.557,5.265-3.586,4.7-12.089-1-15.053-9.077-4.72-17.671,6.9-10.443,14.114,2.612,2.609,2.779,2.64,14.322,2.64H162.3l.042-1.216.041-1.216,2.338,1.874c1.922,1.542,2.3,1.907,2.145,2.054-.106.1-1.175.962-2.374,1.92l-2.181,1.741V60.164l-9.4,0c-10.289,0-10.341-.006-12.379-.854a11.975,11.975,0,0,1-6.6-7.444c-.305-1.218-.271-1.182-1.393-1.481l-.965-.257V47.2l.822-.182c1-.22,1.323-.381,1.323-.648a12.539,12.539,0,0,1,1.276-3.4l.569-.968-.493-.818c-.633-1.05-.656-.95.48-2.079l.974-.967.841.506c1.022.616.772.631,2.253-.132a13.836,13.836,0,0,1,2.067-.866c1.394-.383,1.4-.388,1.6-1.3a7.4,7.4,0,0,1,.252-.95,5.484,5.484,0,0,1,1.506-.071l1.439.04.246.9m.206,4.968a7.68,7.68,0,1,1-8.764,10.923,7.693,7.693,0,0,1,8.764-10.923m-2.5,3.286v2.218l-.643.617a1.822,1.822,0,0,0,1.556,3.175c.552-.088.6-.063,1.515.847l.945.938.416-.434.416-.434-.922-.932-.923-.932.05-.793c.049-.78.039-.8-.607-1.423l-.658-.63V42.293h-1.144v2.218m-5.548,2.46c-.19.619-.14.689.58.8.439.067.537.038.539-.16a2.66,2.66,0,0,1,.083-.546c.066-.244-.008-.334-.381-.464-.641-.224-.638-.225-.821.371m6.622,1.326a.626.626,0,1,1-1,0,.581.581,0,0,1,1,0m-6.488.818c-.31.059-.406.987-.13,1.263.142.142,1.113-.291,1.111-.5-.007-.788-.175-.92-.981-.767m.876,2.444-.464.248.362.533c.432.635.442.637.946.154l.4-.378-.29-.407c-.337-.474-.34-.474-.95-.148M136.569,58.2a14.1,14.1,0,0,0,2.3,1.656l.5.3-4.539,0-4.54,0V57.59h5.605l.677.607" transform="translate(471 713)" fill="#fff" fill-rule="evenodd"/>
      </g>
    </g>
  </g>
</svg>
