<svg xmlns="http://www.w3.org/2000/svg" width="50" height="50" viewBox="0 0 50 50">
  <g id="Group_323" data-name="Group 323" transform="translate(-608 -748)">
    <rect id="Rectangle_149" data-name="Rectangle 149" width="50" height="50" transform="translate(608 748)" fill="none"/>
    <path id="path0" d="M228.233,28.246a84.683,84.683,0,0,0-9.68,5.032c-.552.385-.577.994-.049,1.233.337.154.639.024,2.76-1.18A86.5,86.5,0,0,1,229,29.449l.939-.382V57.924l-2.261.9c-2.223.885-7.458,3.391-9.363,4.481l-.972.556v-14.3c0-16.315.168-14.6-1.493-15.224-3.918-1.466-11.423-1.37-17.323.221-1.357.366-1.245-1.179-1.245,17.218,0,18.982-.156,17.238,1.5,16.831,5.187-1.269,11.686-1.611,14.843-.782,2.342.616,2.335.611,2.281,1.637l-.046.867H206.59c-10.352,0-9.6.077-10.459-1.071-.318-.425-.321-.553-.361-15.5-.047-16.847.022-15.87-1.061-15.16l-.382.25.042,15.117.042,15.117.335.622a4.261,4.261,0,0,0,1.764,1.732c.522.278,1.316.29,20.06.29,21.807,0,20.024.09,21.182-1.069,1.115-1.115,1.047-.02,1.051-16.848l0-15.117-.322-.173c-.249-.133-.4-.117-.7.077l-.378.247V53.7c0,14.3-.011,14.874-.3,15.43-.641,1.247-.178,1.193-10.551,1.242l-9.214.044v-1.85l.739-.241c4.008-1.308,10.12-1.28,15.459.07,1.459.369,2.086.384,2.212.055.137-.358.111-33.231-.026-33.448a3.44,3.44,0,0,0-2.484-.425c-.67.434-.352,1.1.622,1.3l.5.1.039,15.594c.038,14.805.026,15.59-.233,15.511-4.534-1.362-11.9-1.471-16.066-.239l-1.487.44-1.389-.467c-3.661-1.229-10.685-1.111-16.2.272l-.35.088V51.619c0-8.557.052-15.59.117-15.628a42.01,42.01,0,0,1,5.171-.962c4.808-.617,8.464-.432,11.122.562l.85.318.04,14.879.039,14.879.411.048A7.928,7.928,0,0,0,219,64.578a88.019,88.019,0,0,1,9.308-4.459c1.283-.506,2.49-.985,2.682-1.066l.35-.145V43.216c0-14.166-.024-15.7-.246-15.788-.462-.177-.766-.091-2.863.817M225.589,35.9c-.641.259-2.237.99-3.547,1.623l-2.382,1.152.049.51c.076.784.53.742,2.6-.239,2.329-1.1,3.045-1.422,4.116-1.822,1.334-.5,1.586-.839,1.031-1.394-.4-.4-.476-.393-1.866.169m-.285,4.58c-4.422,1.816-6,2.8-5.53,3.469.327.468.313.472,3.252-.88,1.453-.669,2.991-1.341,3.419-1.495.887-.317,1.352-.759,1.208-1.147-.238-.647-.669-.637-2.348.052m-19.62.3c-.129.029-.959.178-1.846.33-1.632.281-2.042.48-2.042.988,0,.63.374.7,2.148.411a26.251,26.251,0,0,1,6.9-.251c1.37.174,1.584.17,1.8-.041.4-.4.137-1-.54-1.211a46.951,46.951,0,0,0-6.414-.226m19.127,4.374c-4.484,1.935-5.39,2.484-5.171,3.136.209.62.617.528,3.307-.737,1.458-.687,2.682-1.247,2.719-1.247a5.112,5.112,0,0,0,1.951-.945c.574-1.073-.6-1.159-2.806-.206m-18.88.068c-3.017.343-4.135.7-4.135,1.316,0,.688.349.778,1.835.475a32.488,32.488,0,0,1,7.537-.259c1.95.34,2.482-.9.58-1.353a27.051,27.051,0,0,0-5.817-.179m19.579,4.094c-1.5.614-5.361,2.419-5.645,2.638a.831.831,0,0,0-.156.635c.075.766.568.694,2.925-.424,1.154-.547,2.741-1.258,3.527-1.58,1.531-.627,1.747-.852,1.371-1.426-.311-.474-.523-.458-2.022.156m-20.035.43a13.432,13.432,0,0,0-3.463.772c-.533.442,0,1.326.7,1.163a24.381,24.381,0,0,1,7.765-.558c2.023.2,2.358.136,2.358-.48,0-.895-3.788-1.357-7.362-.9m19.957,4.042c-4.263,1.716-6.121,2.876-5.66,3.533.327.467.392.452,2.642-.619,1.1-.524,2.669-1.22,3.48-1.548,1.522-.613,1.916-.92,1.753-1.362-.23-.624-.675-.625-2.216,0m-21.16.59c-2.152.374-2.3.43-2.419.892-.2.813.194.935,2,.617a27.931,27.931,0,0,1,7.132-.258c1.614.221,1.98.083,1.79-.674-.208-.828-5.137-1.162-8.505-.578m1.567,4.22c-3.045.379-4.044.7-4.044,1.314,0,.694.356.787,1.84.479a25.381,25.381,0,0,1,8.295-.167c.672.169,1.228-.715.712-1.13-.583-.469-4.64-.765-6.8-.5" transform="translate(415.673 723.646)" fill="#fff" fill-rule="evenodd"/>
  </g>
</svg>
