<svg xmlns="http://www.w3.org/2000/svg" width="50" height="50" viewBox="0 0 50 50">
  <g id="Group_318" data-name="Group 318" transform="translate(-619 -710)">
    <rect id="Rectangle_147" data-name="Rectangle 147" width="50" height="50" transform="translate(619 710)" fill="none"/>
    <path id="path0" d="M269.254,27.578a9.511,9.511,0,1,0,8.5,16.508l.754-.663.552.688c2.4,2.988,4.309,3.849,8.806,3.98l2.64.076,5.207,5.186c5.27,5.25,5.494,5.431,6.05,4.876.5-.5.483-12.626-.014-13.257-.46-.586-11.437-11.575-12.075-12.089l-.53-.428-4.52,0-4.52,0-.466-.789c-1.918-3.249-6.455-5.033-10.38-4.083m3.846,1.54a7.854,7.854,0,0,1,6.091,5.589c.365,1.364.408,1.32-1.26,1.32-1.391,0-1.486.02-1.721.38-.55.838.385,3.078,1.627,3.9l.625.415-.5.7c-4.988,6.966-16.245,1.487-13.852-6.742a7.8,7.8,0,0,1,8.99-5.561m-1.994,1.874a1.473,1.473,0,0,0-.25.892c-.006.554-.077.694-.492.96a2.543,2.543,0,0,0,1.033,4.72c1.135.21,1.514.917.849,1.581-.395.395-.96.3-1.547-.257-.55-.523-1.332-.516-1.573.012-.248.545.059,1.06.991,1.665.7.452.745.524.745,1.144,0,.713.3,1.15.777,1.15s.776-.437.776-1.15c0-.594.06-.7.582-1.037,2.061-1.328,1.418-4.154-1.071-4.714-1.063-.239-1.433-.747-1.012-1.388a1.013,1.013,0,0,1,1.557-.086.915.915,0,0,0,1.449-.164c.243-.492.037-.838-.861-1.448-.568-.387-.644-.508-.644-1.037,0-.65-.313-1.088-.776-1.088a.888.888,0,0,0-.533.244M294.5,40.025l5.861,5.86v9.781l-3.8-3.8c-3.734-3.732-3.793-3.8-3.493-4.08.366-.341.382-.559.074-1-.224-.32-.362-.334-4.153-.395-4.977-.081-5.743-.308-7.685-2.281s-2.066-2.961-.342-2.961c.775,0,.917.045,1,.32.545,1.716,4.894,3.844,5.866,2.87.606-.6.085-1.483-.878-1.483a4.386,4.386,0,0,1-3.545-2.323c-.576-1.088-.575-1.087-2.188-1.09-1.755,0-3.372-.825-3.372-1.716a34.251,34.251,0,0,1,4.937-.15c5.288,0,5.31,0,5.31-.788,0-.71-.2-.756-3.649-.8l-3.238-.042-.1-.388c-.056-.213-.147-.616-.2-.893l-.1-.5h7.832l5.862,5.861m-23.949,8.889c-.278.278-.31.518-.31,2.275,0,1.894-.01,1.956-.284,1.708a.848.848,0,0,0-1.424.587,7.844,7.844,0,0,0,2.553,2.572,7.175,7.175,0,0,0,2.57-2.593c0-.719-.724-1.028-1.363-.581l-.345.242V51.105c0-2.407-.46-3.128-1.4-2.191m-3.008,9.259a6.99,6.99,0,0,0-3.5,2.823c-.177.33-.261.339-2.981.339-3.81,0-3.4-.617-3.4,5.121,0,5.959-.607,5.282,4.735,5.282,4.392,0,4.735-.061,4.735-.851,0-.82-.177-.856-4.2-.856h-3.715V63.043h4.176l-.026.637c-.063,1.591,1.446,1.425,1.659-.183.4-3,1.948-3.922,6.746-4,3.733-.061,3.857-.027,3.1.831-.777.885-1.216,1.005-3.672,1.005-1.89,0-2.186.035-2.412.284-.812.9.453,3.522,2.13,4.419.617.33.829.345,5.591.389l4.95.048L283.97,64c2.09-2.067,2.6-2.5,3.094-2.59a4.117,4.117,0,0,1,1.913.137c.044.044-1.466,1.971-3.355,4.282l-3.436,4.2h-4.163c-4.521,0-4.676.03-4.676.9,0,.755.356.811,5.1.811h4.411l.483-.516c.266-.283,1.043-1.209,1.726-2.056s2.307-2.847,3.61-4.444c2.651-3.25,2.711-3.391,1.786-4.158a4.477,4.477,0,0,0-4.513-.507c-.57.3-.573.3-1.348-.065-2.092-.973-3.485-.42-6.526,2.594L275.9,64.751h-1.9c-2.182,0-3.6-.624-3.6-1.586a9.61,9.61,0,0,1,1.763-.15c2.276-.087,3.2-.486,4.129-1.782.782-1.091,1.092-2.361.716-2.933l-.249-.38-4.227.01c-3.289.008-4.4.062-4.984.243m16.317,3.288c.13.082-.318.628-1.407,1.712l-1.6,1.592-1.206-.046-1.205-.046,1.465-1.458c1.846-1.835,3.01-2.353,3.951-1.755m-14.152,8.814c-.662.662.143,1.754.92,1.245.214-.14.4-.34.407-.444.085-.877-.749-1.379-1.327-.8" transform="translate(364.355 685.677)" fill="#0042a5" fill-rule="evenodd"/>
  </g>
</svg>
