<svg xmlns="http://www.w3.org/2000/svg" width="43" height="43" viewBox="0 0 43 43">
  <g id="Group_346" data-name="Group 346" transform="translate(-597 -758)">
    <path id="Path_250" data-name="Path 250" d="M0,0H43V43H0Z" transform="translate(597 758)" fill="none"/>
    <path id="path0" d="M24.029,101.945A1.666,1.666,0,0,0,24.909,105c.245,0-.034.332-1.408,1.655l-1.712,1.648-1.145-.589c-1.3-.67-1.631-.711-2.3-.289-.548.346-9.471,9.346-9.7,9.782a1.678,1.678,0,0,0,2.2,2.236c.247-.133,2.276-2.089,4.51-4.348s4.107-4.108,4.161-4.108a9.064,9.064,0,0,1,1.1.53c1.74.923,1.734.926,4.745-1.948,2.529-2.414,2.447-2.355,2.447-1.732a1.623,1.623,0,0,0,2.4,1.44c.835-.44.93-.818.93-3.723,0-3.989.1-3.892-3.972-3.892-2.623,0-2.807.016-3.14.278m5.886.947a17.955,17.955,0,0,1-.05,5.359c-.6.6-.99.146-.99-1.158,0-2.232-.2-2.167-3.671,1.168-3.212,3.088-2.873,2.925-4.455,2.131a7.133,7.133,0,0,0-1.442-.6,53.131,53.131,0,0,0-4.6,4.4c-4.211,4.258-4.621,4.606-4.992,4.236-.477-.477-.284-.713,4.535-5.534,2.582-2.583,4.756-4.7,4.829-4.7a12.16,12.16,0,0,1,1.481.691l1.346.692.358-.281c.692-.544,4.875-4.667,4.875-4.8,0-.384-.435-.558-1.4-.558-1.027,0-1.4-.173-1.4-.649,0-.5.241-.55,2.865-.55a9.072,9.072,0,0,1,2.7.16m3.8,3.178a2.963,2.963,0,0,0-.933.821l-.379.548-.037,8.866c-.019,4.876-.079,8.906-.133,8.956a1.671,1.671,0,0,1-.53.181l-.433.091v-6.139c0-5.991-.007-6.154-.285-6.745-.873-1.857-3.964-2.08-5.262-.38l-.382.5-.039,3.308-.04,3.308-.527.269-.526.269v-.943c0-2.531-.806-3.276-3.435-3.172-2.284.09-2.56.575-2.56,4.49v2.8l-.875.489a20.032,20.032,0,0,1-3.606,1.27c-3.64,1.041-4.225,1.377-4.806,2.764-.543,1.294.227,4.922,1.013,4.781.456-.082.473-.452.1-1.953-.476-1.89-.3-2.751.7-3.466a40.063,40.063,0,0,1,5.458-1.671c.249.249,3.615,9.646,3.615,10.092,0,1.64-.767,2.2-3.98,2.9-3.129.686-3.687.336-4.49-2.809-.385-1.508-.5-1.732-.855-1.732-.587,0-.611.333-.149,2.112.975,3.751,2.25,4.393,6.578,3.311,2.941-.735,3.841-1.53,3.94-3.48l.047-.947,1.553-.378c12.088-2.946,11.909-2.894,13.257-3.875a66.046,66.046,0,0,0,6.839-5.868,2.643,2.643,0,0,0-3.635-3.525,5.893,5.893,0,0,1-.551.261c-.021,0-.038-2.093-.038-4.653,0-5.181-.028-5.351-.808-4.934-.248.133-.257.336-.263,5.3l0,5.158-.627.463c-.93.686-2.583,1.809-2.925,1.988l-.3.156V107.768l.452-.453c.423-.422.512-.452,1.324-.452,1.646,0,1.985.353,2.087,2.177.073,1.3.274,1.649.766,1.336.408-.259.332-2.758-.1-3.41a3.637,3.637,0,0,0-4.214-.9m-4.346,6.343c.833.395.837.425.837,7.1v6H28.343c-2.169,0-2.14.034-.934-1.045,2.762-2.474,2.59-5.84-.3-5.8l-.767.01v-2.718a16.138,16.138,0,0,1,.142-2.984c.393-.735,1.9-1.028,2.885-.56m-6.664,4.761c.364.312.375.363.414,1.831l.04,1.511-1.858.966c-1.022.532-1.894.966-1.938.966-.3,0-.067-4.954.247-5.268a3.457,3.457,0,0,1,3.1-.006m5.263,2.882c.77.769.166,2.413-1.355,3.694-1.321,1.113-1.526,1.725-.814,2.437l.389.389h2.523c4.012,0,4.34-.109,7.931-2.635,3.446-2.423,3.9-2.563,4.809-1.482s.586,1.539-3.469,4.864c-3.949,3.239-3.51,3.026-9.079,4.391-2.545.623-5.463,1.34-6.485,1.591s-1.87.444-1.884.428-.774-2.021-1.686-4.455l-1.658-4.426,4.342-2.292,4.928-2.6c.771-.407,1.018-.391,1.506.1M14.721,133a2.52,2.52,0,0,0-1.486,1.622c-.453,2.419,3.051,3.592,4.064,1.36A2.142,2.142,0,0,0,14.721,133m1.377,1.294a1.061,1.061,0,0,1-1.376,1.611,1.075,1.075,0,0,1,.167-1.828.86.86,0,0,1,1.209.217" transform="translate(592.527 659.333)" fill="#fff" fill-rule="evenodd"/>
  </g>
</svg>
