<svg xmlns="http://www.w3.org/2000/svg" width="50" height="50" viewBox="0 0 50 50">
  <g id="Group_319" data-name="Group 319" transform="translate(-645 -722)">
    <rect id="Rectangle_148" data-name="Rectangle 148" width="50" height="50" transform="translate(645 722)" fill="none"/>
    <path id="path0" d="M82.208,102.507c-10.086,1.81-12.705,15.221-4,20.476l.625.378V140.5l1.825,3.646c1.935,3.867,2.3,4.351,3.289,4.351,1.115,0,1.479-.357,2.555-2.505l1-1.995H102.51c16.827,0,15.742.081,16.333-1.219.3-.667.317-1.3.32-14.328,0-14.914.044-14.3-.986-15.169l-.536-.451h-22.4l-.266-1.406a11.264,11.264,0,0,0-12.762-8.92m4.215,1.579a9.658,9.658,0,0,1,4.449,16.243c-6.327,6.3-17.088,1.474-16.492-7.394a9.723,9.723,0,0,1,12.043-8.849M82.106,105.6a8.127,8.127,0,1,0,7.664,13.649c5.833-5.753.314-15.58-7.664-13.649m3.971,1.475A6.817,6.817,0,0,1,90.21,116.2a6.679,6.679,0,0,1-11.031,1.869c-4.672-4.994.333-12.973,6.9-11m-2.744,1.992c0,.7-.026.736-.554.835-2.7.506-1.921,4.267.879,4.267,1.455,0,1.842.175,1.842.833,0,.93-2.149,1.249-2.8.417-.473-.6-1.529-.606-1.529-.006a2.341,2.341,0,0,0,1.6,1.686c.546.1.57.137.57.838v.732h1.5v-.75c0-.6.058-.75.292-.751a2.312,2.312,0,0,0,1.874-2.2c0-1.354-1.024-2.134-2.8-2.134q-1.852,0-1.672-.941c.164-.854,2.971-.992,2.971-.146,0,.19.189.254.75.254.844,0,.928-.173.492-1.016a2.478,2.478,0,0,0-1.617-1.15c-.234,0-.292-.148-.292-.751v-.75h-1.5v.732m22.334,7.437v2.336l-5.209-.044-5.208-.044-.046-2.292-.047-2.291h10.51V116.5m11.695-2.06c.264.239.305.552.305,2.334v2.057h-10.5v-4.666h4.945c4.368,0,4.981.032,5.25.275m-8.695,2.058v.667h1.5v-1.334h-1.5v.667m3,0v.667h1.5v-1.334h-1.5v.667m3,0v.667h1.5v-1.334h-1.5v.667m-20.834,8.417v5.75H89.167v-7.155l.958-.654a12.015,12.015,0,0,0,2.916-2.816,6.815,6.815,0,0,1,.729-.875c.035,0,.063,2.587.063,5.75m11.834.5v5.25h-10.5v-10.5h10.5v5.25m12,0v5.25h-10.5v-10.5h10.5v5.25m-20.834-3v.75h7.334v-1.5H96.833v.75m16.045,2.287-2.7,2.7-.464-.441-.463-.441-.524.47-.523.47.984.974.984.974,3.2-3.2,3.205-3.2-.5-.5-.5-.5-2.7,2.7m-31.045,6.717v7.013l-.75.364-.75.364v-15.1l.75.174.75.174v7.012m6,.162c0,4.171-.04,7.584-.09,7.584a5.023,5.023,0,0,1-.75-.337l-.66-.337v-14.1l.625-.175c.344-.1.682-.184.75-.2s.125,3.391.125,7.562m-3,.031c0,6.909,0,6.95-.363,7.335l-.363.386-.387-.363-.387-.363V124.667h1.5v6.947m12-6.2v.75h4.334v-1.5H96.833v.75m5.834,0v.75h1.5v-1.5h-1.5v.75m-5.834,3v.75h7.334v-1.5H96.833v.75m-3,9v5.25H88.162l.5-1,.5-1v-8.509h4.666v5.25m11.834,0v5.25h-10.5v-10.5h10.5v5.25m12-.262c0,4.312-.036,5.023-.262,5.25s-.938.262-5.25.262h-4.988v-10.5h10.5v4.988m-4.789-1.284-2.7,2.7-.473-.453-.474-.454-.484.505-.484.506.953.952.953.953,3.206-3.206,3.206-3.206-.5-.5-.5-.5-2.7,2.7m-16.045-1.454v.75h7.334v-1.5H96.833v.75m0,3v.75h7.334v-1.5H96.833v.75m0,3v.75h7.334v-1.5H96.833v.75m-13.538.186.737.77.813-.8.812-.8.849.4a4.387,4.387,0,0,1,.926.521,45.747,45.747,0,0,1-3.235,6.39c-.388.149-.5-.023-2.111-3.243L80.517,140.7l.783-.421c1.066-.572,1.152-.559,1.995.321" transform="translate(574.055 621.654)" fill="#fff" fill-rule="evenodd"/>
  </g>
</svg>
