<svg xmlns="http://www.w3.org/2000/svg" width="50" height="50" viewBox="0 0 50 50">
  <g id="Group_324" data-name="Group 324" transform="translate(-597 -785)">
    <rect id="Rectangle_150" data-name="Rectangle 150" width="50" height="50" transform="translate(597 785)" fill="none"/>
    <path id="path0" d="M179.663,99.64a2.041,2.041,0,0,0-.683.7l-.175.383-8.342.045c-9.438.051-8.5-.069-10.935,1.411-6.443,3.919-9.353,5.7-10.507,6.42-3.376,2.118-1.287,5.688,2.557,4.369a5.061,5.061,0,0,1,1.128-.317,9.163,9.163,0,0,1-.616.974,14.158,14.158,0,0,0-2.037,11.231c.586,2.155.629,1.953-.4,1.89a1.542,1.542,0,0,1-1.471-.7l-.572-.645-2.276-.05c-4.071-.091-3.85-.637-3.794,9.378l.043,7.848.459.479c1.24,1.294,5.649,1.078,6.442-.316l.258-.453h8.106c6.444,0,8.252-.045,8.821-.216,1.158-.348,13.517-7.959,13.949-8.589,1.525-2.225-.731-4.4-3.555-3.422-.635.219-1.205.4-1.267.4a5,5,0,0,1,.71-1.229,14.311,14.311,0,0,0,1.373-12.718c-.065-.169.134-.215.946-.215.745,0,1.028.056,1.028.2,0,1.625,5.616,1.926,6.732.361.347-.486.348-.511.4-7.958.052-8.056.034-8.276-.754-9.032l-.481-.46-2.285-.045c-2.073-.04-2.333-.015-2.795.272m4.7,1.34c.3.3.376,14.468.083,15.017-.2.364-3.815.464-4.165.114-.269-.269-.269-14.919,0-15.188a9.174,9.174,0,0,1,4.082.058m-5.706,7.575.04,6.342h-.939a6.928,6.928,0,0,1-4.038-1.536c-1.928-1.279-2.472-1.421-5.447-1.421-3.224,0-4.518-.643-4.518-2.248,0-.839.1-.864,3.494-.866,4.413,0,7.131-.934,6.448-2.21-.274-.511-.581-.488-1.8.132l-1.185.6-3.751.089-3.75.089-6.513,2.206c-6.893,2.335-7.082,2.383-7.569,1.9-.693-.693-.3-1.286,1.605-2.43.871-.523,3.161-1.916,5.086-3.094,7.34-4.492,5.292-3.955,14.939-3.92l7.859.03.041,6.341m-16.3,1.39c0,2.233,1.972,3.395,5.762,3.395,2.7,0,3.308.148,4.745,1.152a18.183,18.183,0,0,0,1.609,1.015c2.13,1.087,2.507,7.6.663,11.45-1.62,3.377-2.781,4.345-6.826,5.695l-3.151,1.05v-.46c0-2.3-1.894-3.428-5.991-3.565-3.147-.1-2.966-.059-4.7-1.188-.7-.457-1.453-.911-1.671-1.01-.83-.379-1.7-3.46-1.69-5.969a12.166,12.166,0,0,1,3.631-8.852l1.019-1.071,3.1-1.058c3.654-1.245,3.494-1.218,3.494-.584m-3.385,1.6a10.9,10.9,0,0,0-5.979,7.2c-.807,2.868-.069,7.516,1.192,7.516.645,0,.756-.475.373-1.591a9.789,9.789,0,0,1,5.053-11.863c1.242-.6,1.5-.782,1.5-1.072,0-.868-.61-.922-2.14-.189m4.265,2.86a1.318,1.318,0,0,0-.258.767c0,.416-.068.5-.506.59-3.892.841-4.21,5.073-.466,6.206l.972.294v3.719l-.428-.1a2.4,2.4,0,0,1-1.745-1.466c-.2-.748-.506-1.018-1-.893-1.662.417.845,3.829,2.813,3.829.3,0,.364.081.364.477,0,1.377,1.29,1.535,1.427.175.049-.486.112-.535,1.107-.869,3.505-1.176,3.435-5.067-.108-6.026-.35-.094-.724-.2-.831-.227-.141-.04-.194-.552-.194-1.87v-1.815l.559.091a2.312,2.312,0,0,1,1.7,1.318c.152.724.312.888.865.888h.528l-.006-.784c-.007-1.312-1.138-2.443-2.887-2.892-.739-.189-.765-.215-.765-.758,0-.9-.608-1.241-1.143-.651m9.635,2.606c-.311.311-.306.4.079,1.623a9.687,9.687,0,0,1-5.031,11.6c-2.161,1.07-2.193,2.424-.039,1.618a11.384,11.384,0,0,0,6.358-6.73c1.21-3.275.14-9.614-1.368-8.106m-9.924,2.854-.046.92-.6-.207c-1.986-.685-2-2.553-.017-3.24l.618-.215.046.911c.026.5.026,1.325,0,1.831m2.632,2.83c1.536.744,1.448,2.219-.176,2.957-1.037.472-1.023.491-1.023-1.494,0-2.034.007-2.041,1.2-1.463m-18.407,4.275c.216.215.245,1.121.245,7.616v7.371l-.345.243a7.67,7.67,0,0,1-3.822,0l-.345-.243v-7.371c0-6.495.029-7.4.245-7.616a7.7,7.7,0,0,1,4.023,0m4.447,1.545a10.712,10.712,0,0,1,1.83,1.029c2.143,1.46,2.533,1.575,5.561,1.646,3.161.075,3.2.08,3.878.68a1.831,1.831,0,0,1,.722,1.913l-.157.412H160.5c-4.505,0-7.329.947-6.731,2.257.237.522.526.492,1.88-.194l1.152-.585,3.827-.089,3.827-.089,6.536-2.222c7.023-2.388,7.1-2.4,7.511-1.539.358.745.049,1.035-3.2,3.01-1.682,1.024-4.076,2.485-5.32,3.247s-2.823,1.708-3.507,2.1l-1.245.715-8.209.043-8.209.043V128.279h1.07a6.435,6.435,0,0,1,1.732.234" transform="translate(458.486 688.647)" fill="#fff" fill-rule="evenodd"/>
  </g>
</svg>
