<svg xmlns="http://www.w3.org/2000/svg" width="50" height="50" viewBox="0 0 50 50">
  <g id="Group_328" data-name="Group 328" transform="translate(-681 -772)">
    <g id="Group_327" data-name="Group 327" transform="translate(89)">
      <rect id="Rectangle_151" data-name="Rectangle 151" width="50" height="50" transform="translate(592 772)" fill="none"/>
      <path id="path0" d="M216.165,99.649c-1.073.654-1.013-.37-1.013,17.114,0,16.688-.014,16.343.655,16.343.825,0,.792.68.792-16.4,0-15.411.007-15.758.312-15.921.206-.11,4.219-.166,11.9-.166H240.4V108.7l.628.628.628.628,2.772-.043c2.435-.039,2.793-.078,2.949-.326.44-.7.014-.84-2.645-.889-3.3-.06-3.046.254-3.046-3.759a24.34,24.34,0,0,1,.106-3.192c.059,0,1.868,1.767,4.021,3.925l3.915,3.925v16.87c0,13.243-.043,16.928-.2,17.142-.186.252-1.374.275-16.021.313l-15.822.04-.233.35c-.209.316-.2.383.1.687l.337.336,15.885-.043c17.683-.047,16.395.038,17.033-1.13.267-.489.285-1.572.285-17.852v-17.33l-4.829-4.823-4.83-4.823H229.057c-11.992,0-12.393.011-12.892.315m14.1,10.778c-8.507,2.264-12.187,12.452-6.91,19.128l.676.856-1.195,1.194c-1.126,1.126-1.22,1.185-1.637,1.026a3.435,3.435,0,0,0-2.238.056c-.965.417-8.6,8.282-8.727,8.993a2.839,2.839,0,0,0,3.5,3.482c.592-.156,1.243-.737,4.814-4.309,4.63-4.629,4.719-4.762,4.314-6.357l-.2-.781,1.1-1.109c1.289-1.3,1.146-1.262,2.1-.534,7.34,5.6,18.2.9,19.353-8.388,1.027-8.262-7-15.377-14.958-13.258m5.763,1.453a10.81,10.81,0,1,1-12.713,15,10.812,10.812,0,0,1,12.713-15m-1.169,1.536c-.553.554-.281,1.019.792,1.354a7.972,7.972,0,0,1,5.052,5.222c.384,1.244.57,1.534.978,1.534,1.166,0,.362-3.039-1.358-5.135-1.536-1.872-4.794-3.645-5.465-2.975m-8.684,4.825c-.331.331-.319.6.041.928.473.427,11.272.4,11.662-.028.332-.368.335-.579.014-.9-.382-.382-11.336-.382-11.717,0m-2.062,3.458a.754.754,0,0,0-.089,1.081c.329.329,14.983.272,15.315-.06s.319-.6-.042-.928-14.649-.4-15.185-.093m1.97,3.847c-.519.97-.557.965,7.4.965s7.917,0,7.4-.965c-.168-.315-.337-.321-7.4-.321s-7.229.007-7.4.321m-5,8.618c1.168.982,1.022,1.221-3.489,5.732s-4.617,4.574-5.7,3.494c-.945-.945-.809-1.158,3.525-5.508,4.5-4.513,4.62-4.594,5.661-3.718" transform="translate(386.822 674.667)" fill="#0042a5" fill-rule="evenodd"/>
    </g>
  </g>
</svg>
