<svg xmlns="http://www.w3.org/2000/svg" width="43" height="43" viewBox="0 0 43 43">
  <g id="Group_342" data-name="Group 342" transform="translate(-637 -722)">
    <rect id="Rectangle_153" data-name="Rectangle 153" width="43" height="43" transform="translate(637 722)" fill="none"/>
    <path id="path0" d="M287.042,99.743l-.409.409v5.758l-4.233.006c-4.812.007-5.273.06-5.893.68l-.438.438-.036,15.522L276,138.077l.434.494c.694.79.689.79,10.537.747,8.871-.039,9.026-.044,9.415-.329.892-.655.884-.58.884-7.79v-6.541h4.482c5.577,0,5.976-.123,6.122-1.888l.064-.771h1.717c2.455,0,2.337.153,2.281-2.965-.067-3.747-.072-3.75-4.763-3.75H303.99l-.039-7.638-.039-7.637-.393-.338-.392-.337H287.451l-.409.41m15.681,12.183v11.333h-7.27c-7.046,0-7.276-.008-7.416-.27-.1-.18-.144-3.975-.144-11.333V100.592h14.831v11.333m-12.033-6.645v.63h9.234V104.65h-9.234v.63m-4.057,3.988v2.1h-9.382l.039-1.92c.05-2.487-.422-2.273,5.041-2.276l4.3,0v2.1m-6.716.07v.63h1.259v-1.259h-1.259v.63m2.658,0v.63h2.659v-1.259h-2.659v.63m8.115,0v.63h9.234v-1.259h-9.234v.63m-4.057,8.479c0,7.3-.427,6.753,5.352,6.815l4.022.043v7.959H277.259V112.626h9.375v5.191m4.057-4.561v.63h9.234v-1.259h-9.234v.63m15.973,6.471c-.054,3.688.005,3.533-1.341,3.533-1.407,0-1.341.175-1.341-3.526v-3.19h2.728l-.047,3.183m3.813-2.913c.181.15.222.512.222,1.985v1.8h-2.8l0-1.574c0-1.84.058-2.119.465-2.326a3.442,3.442,0,0,1,2.11.112m-19.786.5v.63h9.234v-1.259h-9.234v.63m5.317,18.469c0,2.591,1.142,2.309-9.343,2.309-10.533,0-9.406.269-9.406-2.246v-1.811h18.749v1.749m-11.333.28v.63h3.918v-1.259h-3.918v.63" transform="translate(365.004 624.667)" fill="#0042a5" fill-rule="evenodd"/>
  </g>
</svg>
