<svg xmlns="http://www.w3.org/2000/svg" width="50" height="50" viewBox="0 0 50 50">
  <g id="Group_316" data-name="Group 316" transform="translate(-681 -754)">
    <rect id="Rectangle_146" data-name="Rectangle 146" width="50" height="50" transform="translate(681 754)" fill="none"/>
    <path id="path0" d="M15.247,183.108a10.708,10.708,0,0,0-.779,1.013c-.446.646-.611.755-1.6,1.048-1.014.3-1.415.605-1.415,1.068a5.78,5.78,0,0,0,.7,1.1,2.452,2.452,0,0,1,.7,2.11c0,1.728.187,1.857,1.9,1.306l1.06-.341.977.343c1.677.589,1.991.359,1.991-1.459a2.282,2.282,0,0,1,.624-1.942c.987-1.324.862-1.727-.676-2.189a2.479,2.479,0,0,1-1.819-1.3c-.761-1.039-1.2-1.242-1.665-.763m29.867-.118a4.845,4.845,0,0,0-.83.988,2.1,2.1,0,0,1-1.542,1.122c-1.729.506-1.872.905-.824,2.294a1.977,1.977,0,0,1,.6,1.968c-.123,1.706.334,2.009,2.066,1.373l.935-.344,1.058.376c1.6.568,1.827.413,1.827-1.239a2.338,2.338,0,0,1,.7-2.156c1.078-1.372.938-1.723-.914-2.3a2.143,2.143,0,0,1-1.513-1.165c-.709-1.044-1.032-1.234-1.566-.921m-15.29.662c-.208.279-.851,1.212-1.43,2.075L27.342,187.3l-2.344.68c-3.375.978-3.374.975-1.1,3.887l1.389,1.777-.08,2.467c-.109,3.428-.128,3.415,3.3,2.175l2.122-.768,2.121.768c3.4,1.231,3.335,1.274,3.335-2.173v-2.566l1.481-1.943c1.856-2.434,1.868-2.749.133-3.222-3.826-1.044-3.633-.942-4.654-2.454-2.091-3.1-2.43-3.336-3.224-2.269m-12.781,2.77c.615.006.741.265.373.763a1.866,1.866,0,0,0-.347,1.17v.7l-.624-.22a1.436,1.436,0,0,0-1.247,0l-.624.22v-.683a1.573,1.573,0,0,0-.39-1.146c-.5-.595-.5-.617.172-.743a1.414,1.414,0,0,0,.975-.7l.413-.593.519.614a1.8,1.8,0,0,0,.78.616m29.829.024c.708.212.689.136.208.846a2.158,2.158,0,0,0-.39,1.175v.6l-.605-.242a1.152,1.152,0,0,0-1.188,0,6.1,6.1,0,0,1-.642.243,2.376,2.376,0,0,1-.063-.741,1.816,1.816,0,0,0-.309-1.13c-.411-.525-.4-.547.3-.758a1.578,1.578,0,0,0,.954-.737l.342-.553.4.557a1.908,1.908,0,0,0,.994.737m-15.144.54c1.185,1.764,1.2,1.773,3.113,2.316.815.231,1.572.471,1.684.533.146.081-.126.542-.974,1.646l-1.177,1.533v2.02c0,1.55-.046,2-.2,1.947-.107-.04-.945-.336-1.861-.659l-1.666-.586-1.781.642c-.978.353-1.825.642-1.88.642a10.659,10.659,0,0,1-.1-2.039v-2.038l-1.164-1.505c-.776-1.006-1.1-1.54-.975-1.608.1-.056.89-.3,1.748-.537,1.785-.5,2.028-.692,3.275-2.609.95-1.46.747-1.492,1.952.3M15.821,197.723c-1.7.973-1.623.963-3.842.534-2.592-.5-2.716-.337-2.078,2.726l.317,1.516-.94,1.762c-1.35,2.53-1.327,2.578,1.476,2.97l1.871.262,1.4,1.387c.772.763,1.452,1.432,1.513,1.486.437.4.932-.143,1.774-1.93l.861-1.828,1.653-.775c2.618-1.228,2.628-1.289.616-3.348L18.987,201l-.2-1.715c-.322-2.769-.6-2.915-2.967-1.559m27.128-.626a9.124,9.124,0,0,0-.432,2.133l-.24,1.9-1.457,1.393c-2.039,1.949-2,2.121.79,3.385l1.489.675.834,1.727c1.275,2.639,1.429,2.667,3.331.593l1.265-1.38,1.223-.178c.673-.1,1.561-.225,1.973-.282,1.475-.2,1.52-.647.285-2.835l-.9-1.6.355-1.971c.505-2.792.383-2.926-2.179-2.4-2.086.431-2.074.433-3.815-.54-1.576-.88-2.183-1.031-2.52-.626m-25.835,2.38c.048.236.134.885.194,1.442.107,1.009.111,1.017,1.213,2.059a5.949,5.949,0,0,1,1.035,1.113c-.039.036-.637.324-1.329.639l-1.259.572-.69,1.411-.69,1.411-.967-1.041a3.427,3.427,0,0,0-2.969-1.412c-1.238-.133-1.225-.082-.39-1.55l.707-1.241-.274-1.455c-.326-1.73-.4-1.614.853-1.349a3.494,3.494,0,0,0,3.2-.393c1.325-.74,1.267-.731,1.371-.2m28.454.2a3.613,3.613,0,0,0,3.265.4c1.144-.246,1.1-.329.743,1.558l-.231,1.21.7,1.283c.384.705.7,1.317.7,1.359a4.272,4.272,0,0,1-1.118.19,3.381,3.381,0,0,0-2.948,1.4l-1.022,1.053-.608-1.366-.609-1.366-1.225-.592c-.673-.326-1.307-.62-1.407-.655s.326-.546.948-1.138l1.13-1.078.177-1.442a5.766,5.766,0,0,1,.272-1.44,11.969,11.969,0,0,1,1.237.624m-15.529.5c-.269.269-.269,15.258,0,15.527a.938.938,0,0,0,1.285-.16c.367-.523.367-14.686,0-15.209a.937.937,0,0,0-1.285-.159m-11.01,7.385c-.493.493-.311,1.1.5,1.646,3.943,2.68,7.483,8.343,8.539,13.659.361,1.816.494,2.06,1.122,2.064,1.484.01.353-5.18-2.068-9.486-2.354-4.186-7.131-8.841-8.089-7.883m21.905.2c-4.669,3.135-9.083,10.457-9.481,15.724-.126,1.664,1.34,2.181,1.593.562a19.791,19.791,0,0,1,1.945-6.516,23.265,23.265,0,0,1,5.714-7.411c2.139-1.788,2.211-1.9,1.62-2.489-.413-.412-.61-.395-1.391.13M11.7,211.711c-.751,1.073.366,2.643,1.214,1.707a1.985,1.985,0,0,0,.1-1.752.821.821,0,0,0-1.31.045m36.638-.1c-.566.567-.131,2.093.6,2.093s1.156-1.2.711-2.036a.923.923,0,0,0-1.309-.057m-39,2.483c-.428.655.024,1.169,1.028,1.169.652,0,.812-.061,1.028-.39.428-.654-.024-1.169-1.028-1.169-.652,0-.812.061-1.028.39m4.021-.2c-.6.6-.087,1.372.924,1.372,1.055,0,1.474-.495,1.065-1.257-.188-.354-1.666-.438-1.99-.115m32.615.2c-.428.655.023,1.169,1.028,1.169s1.456-.514,1.027-1.169c-.215-.329-.376-.39-1.027-.39s-.813.061-1.028.39m4.021-.2c-.6.6-.087,1.372.924,1.372.789,0,1.227-.278,1.227-.779,0-.681-1.618-1.126-2.151-.593m-38.3,1.718c-.516.738-.131,1.992.613,1.992.56,0,.86-.4.86-1.156,0-1.074-.934-1.6-1.472-.836m36.636,0a1.573,1.573,0,0,0,.042,1.734c.679.615,1.43.143,1.43-.9,0-1.074-.934-1.6-1.472-.836m-32.012.988c-.384.269-.478,1.059-.152,1.265.108.067.721.336,1.365.6a12.511,12.511,0,0,1,5.456,4.36c.3.48.688,1.1.862,1.374.427.678,1.043.755,1.421.179.92-1.406-3.635-6.137-7.251-7.532-1.48-.571-1.274-.541-1.7-.242m28.014.138c-3.712,1.505-7.625,5.259-7.625,7.313,0,1.129,1.212.891,1.884-.369a12.409,12.409,0,0,1,6.4-5.4c1.064-.432,1.219-.571,1.223-1.1.006-.784-.661-.942-1.882-.446m-14.138.641a.808.808,0,0,0-.1,1.227.781.781,0,0,0,1.138-1.07c-.364-.463-.557-.492-1.036-.157" transform="translate(675.592 575.146)" fill="#0042a5" fill-rule="evenodd"/>
  </g>
</svg>
