<svg xmlns="http://www.w3.org/2000/svg" width="43" height="43" viewBox="0 0 43 43">
  <g id="Group_352" data-name="Group 352" transform="translate(-551 -759)">
    <rect id="Rectangle_157" data-name="Rectangle 157" width="43" height="43" transform="translate(551 759)" fill="none"/>
    <path id="path0" d="M109.5,182.682a9.408,9.408,0,0,0-7.135,4.905l-.55,1.082H93.684c-6.8,0-8.161.033-8.326.2-.206.205-.381,8.946-.382,18.98v4.3h-2.51c-3,0-2.8-.159-2.8,2.2,0,3.4,1.109,5.257,3.612,6.046,1.4.44,21.705.435,23.133-.006a5.211,5.211,0,0,0,2.755-2.1c.8-1.3.82-1.584.82-9.8v-7.516h.734a9.523,9.523,0,0,0,5.95-2.439,9.151,9.151,0,0,0-7.172-15.845m3.068,1.452a7.917,7.917,0,1,1-9.985,7.621,7.944,7.944,0,0,1,9.985-7.621m-2.551,1.77a1.09,1.09,0,0,0-.168.632c0,.357-.075.494-.323.588a2.768,2.768,0,0,0,1,5.319,1.449,1.449,0,0,1,.064,2.891,1.551,1.551,0,0,1-1.575-1.21c0-.713-.65-1.116-1.09-.676-.643.643.724,3.047,1.731,3.047.112,0,.2.22.224.579.081,1.1.981,1.112,1.063.009.038-.5.091-.581.448-.659a2.986,2.986,0,0,0,1.645-1.7,2.689,2.689,0,0,0-2.484-3.561c-1.46-.2-2.055-1.539-1.107-2.487a1.509,1.509,0,0,1,2.505.874c0,.653.448.925.947.575.769-.538-.05-2.32-1.326-2.884-.537-.238-.6-.314-.6-.743,0-.631-.563-.986-.95-.6m-8.612,5.806a7.575,7.575,0,0,0,.313,2.69,10.339,10.339,0,0,1,.3,1.013,24.7,24.7,0,0,1-3.207.1c-3.479,0-3.679.049-3.431.828.125.393.432.425,4.071.428l3.369,0,.386.558a9.266,9.266,0,0,0,4.392,3.133l1.058.334v7.943c0,8.89.064,8.307-1.029,9.458a3.814,3.814,0,0,1-6.133-.862c-.364-.62-.386-.758-.431-2.748a10.773,10.773,0,0,0-.192-2.27c-.112-.136-1.763-.175-7.393-.175H86.233v-8.151c0-4.484.041-9.482.092-11.108l.092-2.957h14.976l.01,1.782M91.33,194.253a1.936,1.936,0,0,0,.5,3.833,1.9,1.9,0,0,0,1.948-1.94,1.986,1.986,0,0,0-2.447-1.893m.935,1.356a.758.758,0,0,1-.422,1.306.935.935,0,0,1-.859-.769.776.776,0,0,1,1.281-.537m-1.527,4.519a1.95,1.95,0,0,0,.987,3.633,1.994,1.994,0,0,0,1.772-3.007,2.108,2.108,0,0,0-2.759-.626m1.636,1.18a.736.736,0,0,1-.314,1.118.721.721,0,0,1-.967-.96.861.861,0,0,1,1.281-.158m3.252.016a.547.547,0,0,0-.143.873c.124.123,1.389.168,4.824.168h4.655l.167-.366c.148-.323.129-.4-.158-.629-.454-.367-8.827-.408-9.345-.045M90.847,205.7a1.924,1.924,0,0,0,.968,3.654,1.857,1.857,0,0,0,1.963-1.98,1.987,1.987,0,0,0-2.931-1.673m1.45,1.18a.738.738,0,0,1-.179,1.165.721.721,0,0,1-1.054-.415c-.245-.685.611-1.206,1.233-.75m3.164.228c-.5.943-.288.988,4.816.988,4.748,0,4.961-.027,4.961-.629s-.208-.629-5.035-.629c-4.4,0-4.6.012-4.741.27m4.363,7.939a5.271,5.271,0,0,0,1.081,3.633l.556.734H92.893c-9.9,0-9.577.035-10.778-1.165-.946-.946-1.191-1.662-1.191-3.471V213.4H99.753l.07,1.642" transform="translate(472.336 579.362)" fill="#fff" fill-rule="evenodd"/>
  </g>
</svg>
