<svg xmlns="http://www.w3.org/2000/svg" width="43" height="43" viewBox="0 0 43 43">
  <g id="Group_347" data-name="Group 347" transform="translate(-630 -737)">
    <rect id="Rectangle_155" data-name="Rectangle 155" width="43" height="43" transform="translate(630 737)" fill="none"/>
    <path id="path0" d="M189.039,181.124c-.7.137-13.972,13.683-13.972,14.259a1.173,1.173,0,0,0,1.683,1.108c.98-.62,13.779-13.744,13.779-14.127a1.269,1.269,0,0,0-1.489-1.24m-36.058.375-.4.342v36.474l.393.393.394.393H189.8l.367-.344.366-.344V197.378l-.329-.309a1.294,1.294,0,0,0-1.735.04l-.348.348v19.162H155.066V183.568h9.584c9.851,0,9.954-.005,10.377-.555a1.26,1.26,0,0,0-.166-1.508l-.349-.348H153.38l-.4.342m17.961,8.818-.344.366v9.474l.393.394.393.393,4.43.043c2.436.024,4.644,0,4.907-.045a1.237,1.237,0,0,0,.78-2.106l-.374-.374h-8.046V194.7c0-4.554-.054-4.745-1.335-4.745a1.056,1.056,0,0,0-.8.366" transform="translate(479.917 558.398)" fill="#fff" stroke="#0042a5" stroke-width="1" fill-rule="evenodd"/>
  </g>
</svg>
