<svg xmlns="http://www.w3.org/2000/svg" width="43" height="43" viewBox="0 0 43 43">
  <g id="Group_354" data-name="Group 354" transform="translate(-617 -784)">
    <rect id="Rectangle_158" data-name="Rectangle 158" width="43" height="43" transform="translate(617 784)" fill="none"/>
    <path id="path0" d="M223.338,178.168c-.252.251-.252,31.582,0,31.834.127.127,1.4.173,4.834.173h4.661v2.02h-1.072c-1.091,0-1.526.186-1.526.654a42.823,42.823,0,0,0,5.176,5.119c.4,0,5.242-4.956,5.129-5.249-.149-.389-.552-.524-1.565-.524h-.948v-2.02h4.685c4.484,0,4.691-.012,4.834-.28.1-.187.15-5.38.15-15.811s-.049-15.623-.15-15.811c-.207-.386-5.735-.434-6.117-.052-.2.2-.227.871-.227,5.2v4.97l-5.808-.038-5.809-.037-.038-4.966a33.5,33.5,0,0,0-.2-5.159,23.056,23.056,0,0,0-6.012-.02m5.022,1.775v.649h-3.9v-1.3h3.9v.649m18.038,0v.649h-3.9v-1.3h3.9v.649m-18.072,5.544a20.417,20.417,0,0,0,.2,3.86c.221.267,13.538.286,13.8.019.126-.126.173-1.192.173-3.9v-3.723h3.9v24.676h-8.37v-1.072c0-1.535.017-1.526-2.6-1.526s-2.6-.01-2.6,1.526v1.072h-8.369V181.738l1.912.04,1.912.041.039,3.668m26.143-.81a5.771,5.771,0,1,0,5.863,9.456c3.913-4.183-.326-11.017-5.863-9.456m3.5,1.436a4.5,4.5,0,0,1-2.1,8.59c-5.276-.289-5.876-7.55-.738-8.932a4.986,4.986,0,0,1,2.842.342m-4.263,1.813c-.47.52-.208,1.612.387,1.612.483,0,.674-.272.674-.961,0-.844-.569-1.193-1.061-.651m3.885-.036c-.485.484-.186,1.649.423,1.649.407,0,.649-.37.649-.99,0-.454-.317-.886-.649-.886a.761.761,0,0,0-.423.227m-3.888,2.638c-.791.874.874,2.914,2.372,2.9s2.972-1.709,2.459-2.836c-.287-.629-1.17-.27-1.17.474,0,1.341-2.253,1.419-2.533.087-.184-.874-.665-1.143-1.129-.63m-4.482,7.03c-.3.3-.348,12.149-.054,12.444.323.322,3.393.231,3.573-.107.321-.6.193-11.943-.139-12.275a5.176,5.176,0,0,0-3.381-.062m-16.714,1.228a.608.608,0,0,0,.027.994,15.639,15.639,0,0,0,2.9.149c2.791,0,3.175-.078,3.175-.649a.6.6,0,0,0-.279-.5,28.779,28.779,0,0,0-5.818.006m19.085,5.039v5.2h-1.3V198.63h1.3v5.2m2.85-3.74c-.345.2-.394,9.65-.052,9.933a4.83,4.83,0,0,0,1.84.126l1.639-.042.038-4.889a28.958,28.958,0,0,0-.126-5.087,7.942,7.942,0,0,0-3.34-.042m-21.935,1.3a.608.608,0,0,0,.027.994,15.638,15.638,0,0,0,2.9.149c2.791,0,3.175-.078,3.175-.649a.6.6,0,0,0-.279-.5,28.778,28.778,0,0,0-5.818.006m24.28,3.74v3.9h-1.3v-7.793h1.3v3.9m2.771-2.424c-.125.126-.173,1.139-.173,3.651,0,4.131-.151,3.824,1.876,3.824a4.19,4.19,0,0,0,1.7-.173,36.109,36.109,0,0,0,0-7.3,8.236,8.236,0,0,0-3.405,0m2.424,3.723v2.6h-1.443v-5.2h1.443v2.6m-25.254,2.66c0,4.469-.013,4.411,1.056,4.411h.6l-1.478,1.478-1.479,1.479-1.478-1.479-1.478-1.478h.6c1.069,0,1.055.057,1.055-4.411v-3.959h2.6v3.959m-3.9-.712v.649h-8.369v-1.3h8.369v.649m13.565,0v.649h-8.37v-1.3h8.37v.649" transform="translate(395.851 607.042)" fill="#fff" fill-rule="evenodd"/>
  </g>
</svg>
