<svg xmlns="http://www.w3.org/2000/svg" width="43" height="43" viewBox="0 0 43 43">
  <g id="Group_333" data-name="Group 333" transform="translate(-707 -692)">
    <g id="Group_332" data-name="Group 332" transform="translate(57)">
      <g id="Group_330" data-name="Group 330">
        <path id="Path_249" data-name="Path 249" d="M0,0H43V43H0Z" transform="translate(650 692)" fill="none"/>
      </g>
      <path id="path0" d="M6.167,30.83v3.5H8.4V29.571H13.16V27.333H6.167v3.5m32.867-2.377v1.119H43.79v4.756h2.377V27.333H39.034v1.119m-14.764,8.4c-5.544.538-11.974,3.979-16.82,9-1.529,1.585-1.541,1.284.115,2.971,9.541,9.718,20.426,11.562,30.689,5.2,2.686-1.666,7.774-6.063,7.774-6.718,0-1.057-6.561-6.255-10.116-8.014A20.911,20.911,0,0,0,24.27,36.852m5.022,2.518a27.353,27.353,0,0,1,13.029,7.264l.7.723-.839.772c-10.475,9.639-21.891,9.72-31.827.227l-1.119-1.07.459-.479a27.907,27.907,0,0,1,14.236-7.631,21.6,21.6,0,0,1,5.363.193M24.416,41.7a5.8,5.8,0,1,0,7.507,5.5c-.044-3.808-4.044-6.74-7.507-5.5m3.264,2.4A3.522,3.522,0,1,1,22.772,46.2a3.544,3.544,0,0,1,4.909-2.089M6.167,63.767v3.566H13.16V64.956H8.4V60.2H6.167v3.566M43.79,62.578v2.378H39.034v2.377h7.133V60.2H43.79v2.377" transform="translate(645.833 665.667)" fill="#0042a5" stroke="#fff" stroke-width="1" fill-rule="evenodd"/>
    </g>
  </g>
</svg>
