<svg xmlns="http://www.w3.org/2000/svg" width="44.478" height="49.834" viewBox="0 0 44.478 49.834">
  <path id="path0" d="M218.836,22.458c-.1.344-.394,1.55-.659,2.681s-.507,2.071-.538,2.091-.512.228-1.07.462l-1.014.426-2.236-1.386a25.665,25.665,0,0,0-2.4-1.392,42.48,42.48,0,0,0-3.25,3.08l-3.082,3.086.27.455c.148.251.793,1.306,1.433,2.346l1.165,1.891-.434,1.059-.434,1.06-2.666.646-2.667.646-.044,4.425-.045,4.426,2.295.535c3.334.778,3.053.631,3.55,1.85l.438,1.072-1.321,2.151c-.726,1.184-1.362,2.261-1.413,2.394-.061.157.65.946,2.045,2.27l2.137,2.029-.307,1.161a24.239,24.239,0,0,0-.381,5.453l-.074,4.292h30.737l-.073-4.209a27.171,27.171,0,0,0-.356-5.344l-.284-1.136.655-.781a14.455,14.455,0,0,1,1.025-1.114c.2-.183.815-.834,1.358-1.446l.988-1.114-1.417-2.315-1.416-2.316.389-.959a6.1,6.1,0,0,1,.536-1.1c.114-.111,4.987-1.332,5.317-1.332.046,0,.063-2,.039-4.447l-.045-4.446-2-.468c-3.618-.845-3.311-.692-3.8-1.9l-.435-1.06,1.261-2.05c.694-1.127,1.338-2.191,1.43-2.364.145-.27-.264-.746-2.951-3.436l-3.12-3.123-2.356,1.454-2.357,1.453-1.073-.458L229.1,27.2l-.552-2.309c-.3-1.271-.591-2.478-.638-2.685l-.087-.375h-8.814l-.177.625m6.818,2.834c.092.343.356,1.407.587,2.363.5,2.088.207,1.79,2.874,2.892l2.2.908,2.012-1.227c2.435-1.485,1.977-1.517,3.741.255l1.476,1.484-1.183,1.907c-.651,1.05-1.219,2.013-1.262,2.142a12.28,12.28,0,0,0,.871,2.478l.948,2.244,2.379.573,2.38.573-.046,2.162-.047,2.161-2.341.571-2.342.571-.959,2.316-.959,2.317,1.259,2.025c.692,1.114,1.259,2.079,1.259,2.144A8.568,8.568,0,0,1,236.8,58c-.038-.046-.349-.472-.691-.948a15.309,15.309,0,0,0-6.275-4.751c-.184-.063-.006-.344.679-1.069a9.726,9.726,0,1,0-14.138-.13c.76.815.975,1.14.793,1.2a15.2,15.2,0,0,0-6.267,4.738l-.706.958-.931-.85c-1.148-1.05-1.169-.842.317-3.209,1.211-1.928,1.235-1.987,1.016-2.5-.124-.288-.552-1.326-.952-2.306l-.727-1.782-2.167-.519c-1.192-.286-2.3-.559-2.463-.606-.268-.078-.292-.294-.25-2.2l.046-2.112,2.4-.589,2.4-.588.967-2.321a20,20,0,0,0,.91-2.411c-2.9-4.676-2.777-3.912-.962-5.71l1.458-1.446,2.131,1.327c1.678,1.044,2.194,1.292,2.428,1.168.163-.088,1.154-.507,2.2-.932,2.333-.947,2.033-.58,2.657-3.245.289-1.235.562-2.3.606-2.375a9.8,9.8,0,0,1,2.146-.128h2.067l.167.625m.7,12.933c6.61,3.259,4.441,13.119-2.884,13.107-7.727-.014-9.411-11.016-2.057-13.441a8.791,8.791,0,0,1,4.941.334m1.552,16.517c5.144,1.408,7.923,5.454,7.923,11.535v2.556h-24.7l.074-3.041c.136-5.618,2.421-9.1,7.071-10.781a23.559,23.559,0,0,1,9.635-.269" transform="translate(-201.161 -21.833)" fill="#fff" fill-rule="evenodd"/>
</svg>
