<svg xmlns="http://www.w3.org/2000/svg" width="43" height="43" viewBox="0 0 43 43">
  <g id="Group_289" data-name="Group 289" transform="translate(-607 -299)">
    <rect id="Rectangle_131" data-name="Rectangle 131" width="43" height="43" transform="translate(607 299)" fill="none"/>
    <path id="path0" d="M297.252,25.035c-3.856,1.251-4.963,5.651-2.2,8.747.64.718.731.89.731,1.384a4.02,4.02,0,0,0,.151,1.03,13.348,13.348,0,0,1,.234,2.147c.112,2.3.815,3.2,2.52,3.2,1.8,0,2.87-1.529,2.664-3.8a4.752,4.752,0,0,1,.118-1.534,6.069,6.069,0,0,0,.19-1.191c0-.37.133-.6.675-1.174a5.513,5.513,0,0,0,1.237-5.692c-.513-1.109-1.5-.731-1.017.389a4.305,4.305,0,0,1-1.077,4.569,2.642,2.642,0,0,0-.952,2.09c-.154,1.267-.3,1.537-.812,1.537h-.458V33.775l.8-.952c.848-1.007.989-1.461.532-1.706-.367-.2-.525-.076-1.583,1.21l-.27.328-.8-.868c-1.42-1.547-1.931-.58-.561,1.06l.809.968v2.915h-.447c-.539,0-.718-.31-.83-1.441a2.609,2.609,0,0,0-.924-2.163c-3.219-3.5.151-8.756,4.389-6.844.794.359,1.1.37,1.275.047.5-.936-2.645-1.862-4.4-1.294M272.6,27.153a4.108,4.108,0,0,0,.646,1.928.592.592,0,0,0,.894-.1c.23-.43-.614-2.062-1.095-2.118-.29-.033-.379.024-.445.285m5.947.546c-.539,1.19-.458,1.637.281,1.525a2.812,2.812,0,0,0,.97-2.095c-.358-.571-.831-.355-1.25.569m-10.282,2.015c-.268.322-.038.769.669,1.3.9.683,1.468.646,1.468-.1,0-.571-1.813-1.6-2.136-1.209m14.465.376c-.819.658-.96,1.325-.294,1.4.407.047,1.86-1.071,1.86-1.432,0-.7-.669-.69-1.566.03m-7.852-.056a5.223,5.223,0,0,0-2.508,8.575c.863.931,1.065,1.715,1.222,4.743.115,2.2.737,3.084,2.276,3.232,1.954.188,2.985-1.071,2.947-3.6a7.835,7.835,0,0,1,.126-1.713,4.194,4.194,0,0,0,.146-1.036c0-.506.083-.661.748-1.384,3.611-3.928.111-10.155-4.956-8.818m3.107,1.4a4.1,4.1,0,0,1,.964,6.7,2.521,2.521,0,0,0-.931,1.792c0,1.2-.255,1.747-.812,1.747h-.523V38.893l.868-1.044c.928-1.116.984-1.252.658-1.578-.342-.342-.536-.252-1.271.592-.838.964-.712.964-1.512-.006-.651-.79-.949-.941-1.256-.635s-.159.665.641,1.633l.8.969v2.849h-.457c-.529,0-.665-.277-.818-1.67a2.329,2.329,0,0,0-.942-1.842c-3.506-2.951.488-8.8,4.59-6.724m-11.113,3.633c-.57.569-.137.859,1.283.859,1.249,0,1.652-.3,1.177-.871a3.59,3.59,0,0,0-2.46.011m16.279-.107c-.778.532-.192.984,1.214.939,1.269-.041,1.594-.285,1.127-.848a4.65,4.65,0,0,0-2.341-.091m17.043,3.563c0,1.345-.6,2.026-1.67,1.894-.863-.106-1.27-.667-1.27-1.754V37.8h2.939v.726m-9.013,4.37c-.783.616-.28,2.978.882,4.14,1.048,1.048,1.638,1.234,4.1,1.293,2.415.058,2.406.054,2.171.924-.248.925-.179.895-4.85,2.1l-2.236.578-.118-.488c-.065-.268-.249-1.027-.409-1.687-.5-2.08-1.987-2.806-3.212-1.574-.527.53-.543.58-1.217,3.707a8.528,8.528,0,0,1-3.768,5.727c-1.368.9-1.606,1.393-.972,2.029l.329.328h6.808c7.359,0,7.148.015,7.443-.555s.037-.988-1.081-1.755a8.509,8.509,0,0,1-3.328-3.893c-.3-.791-.585-.639,2.884-1.555,4.337-1.146,4.921-1.55,4.921-3.405v-.435l1.9-.049c2.083-.053,2.658-.214,3.7-1.036,1.261-1,1.975-3.742,1.145-4.4-.578-.454-14.513-.456-15.09,0m-13.454.3a2.053,2.053,0,0,1-1.233,2.295c-1.086.2-1.817-.578-1.817-1.943v-.677l1.5.038c1.343.034,1.506.063,1.549.287m27.76,1.254a3.275,3.275,0,0,1-2.7,2.718A51.836,51.836,0,0,1,293.913,47a3.472,3.472,0,0,1-2-2.756V43.81h13.663l-.087.635M268.6,47.968c-.737.58-.295,2.769.8,3.985.987,1.093,1.818,1.381,4.165,1.449l2.037.059v.724c0,2.111,1.241,2.695,4.106,1.934.79-.21,1.967-.52,2.613-.689,1.263-.329,1.56-.575,1.3-1.067-.2-.37-.329-.353-3.139.4-3.378.907-3.808.833-3.808-.648v-.66l2.04-.048c2.4-.056,3.4-.4,4.3-1.5,1.032-1.258,1.44-3.417.753-3.973-.463-.375-10.647-.329-10.885.05-.426.674-.257.7,5.109.737l4.962.035,0,.5a3.249,3.249,0,0,1-1.8,2.689c-.713.377-8.918.439-9.792.075a3.275,3.275,0,0,1-1.929-2.62l-.038-.58.788-.067c.878-.075,1.2-.341.935-.769-.246-.39-2.025-.4-2.515-.016m20.663,1.018a10.55,10.55,0,0,1,.626,2.171c.829,3.816,1.9,5.686,4.125,7.172l.762.51-3.048.036c-1.677.019-4.376.019-6,0l-2.95-.036,1.01-.773c2.135-1.635,2.954-3.084,3.708-6.56.225-1.037.441-1.99.479-2.119a.767.767,0,0,1,1.286-.4m-1.14,6.684a.8.8,0,0,0,.725,1.341.776.776,0,0,0-.027-1.552.765.765,0,0,0-.7.211" transform="translate(342.375 278.139)" fill="#0042a5" fill-rule="evenodd"/>
  </g>
</svg>
