<svg xmlns="http://www.w3.org/2000/svg" width="34.485" height="50.844" viewBox="0 0 34.485 50.844">
  <path id="path0" d="M362.207,22.018c-4.439.74-7.364,4.617-7.371,9.77,0,1.573-.056,1.957-.335,2.416a3.051,3.051,0,0,0,1.749,4.3c.6.168.774.3.85.647a6.9,6.9,0,0,0,1.763,3.275c.936,1,.97,1.07.97,1.94v.9l-4.458,1.718c-8.41,3.242-8.107,2.7-8.174,14.53-.052,9.265-.051,9.279.837,9.82.623.38,7.642.516,8.306.161.858-.459.227-1.161-1.042-1.161h-.965l-.044-7.44c-.04-6.877-.065-7.454-.335-7.624-.853-.538-.868-.425-.958,7.582l-.083,7.4-1.977.047c-2.748.066-2.466,1.078-2.407-8.616l.05-8.264.4-.88q1.125-2.49,7.472-4.442c.338-.1.474.1,1.613,2.371,1.407,2.81,1.754,3.141,2.745,2.629.5-.258.52-.254.8.175.318.485.418-.266-1.364,10.227-.672,3.962-.715,3.667.768,5.293,1.444,1.584,1.454,1.543-.4,1.543-1.6,0-1.95.127-1.95.694,0,.627.392.648,10.843.6l10.184-.046.489-.547.49-.548-.045-4.036-.045-4.035-.384-.055c-.827-.117-.866.063-.866,4.057,0,4.337.263,3.914-2.43,3.914H375V63.012c0-7.863,0-7.845-.839-7.845-.623,0-.661.449-.661,7.9v7.261h-3.917a30.842,30.842,0,0,1-3.914-.125,12.891,12.891,0,0,1,1.25-1.5c1.492-1.65,1.466-.762.232-8-1.283-7.522-1.228-7.041-.856-7.509.3-.376.319-.378.8-.1.908.521,1.319.146,2.572-2.348.6-1.192,1.17-2.309,1.27-2.482.172-.3.3-.272,2.5.567,5.38,2.051,5.9,2.752,5.9,8.008,0,3.173.062,3.409.866,3.3l.384-.055.046-3.321c.081-5.982-.56-6.853-6.827-9.27-1.678-.648-3.633-1.408-4.344-1.689l-1.291-.512v-1.03a1.871,1.871,0,0,1,.732-1.817,7.4,7.4,0,0,0,1.686-3.144c.094-.5.193-.594.833-.765a3.1,3.1,0,0,0,1.674-4.623c-.187-.248-.249-.823-.253-2.335-.017-6.381-4.659-10.554-10.632-9.559m4.876,1.973a7.759,7.759,0,0,1,4.171,5.133c.27,1.04.336,3.543.093,3.543-.381,0-.68-.229-.68-.52a6.181,6.181,0,0,0-1.272-1.649c-1.5-1.569-1.745-1.626-3.3-.771a15.09,15.09,0,0,1-6.847,1.892c-1.559.1-1.69.133-2.078.575-1.709,1.947-1.2-3.438.547-5.822a7.787,7.787,0,0,1,9.362-2.381m1.388,7.538.887.946-.054,3.388c-.087,5.424-1.7,7.472-5.728,7.268-3.662-.185-5.125-2.168-5.214-7.063l-.054-3.016,1.637-.1a14.232,14.232,0,0,0,5.888-1.586c1.886-.961,1.562-.982,2.638.166M357,35.583c0,1.808-.243,2.052-1.069,1.071a1.464,1.464,0,0,1,.4-2.37c.641-.442.671-.384.671,1.3m14.735-1.07a1.67,1.67,0,0,1,.023,2.245c-.776.775-.925.586-.925-1.175,0-1.783.151-1.962.9-1.07m-8.841,10.01a7.308,7.308,0,0,0,3.4-.293c.953-.26.5,1.2-.917,2.975-1.565,1.958-1.256,1.961-2.867-.028-1.466-1.811-1.923-3.2-.966-2.949.206.055.814.188,1.352.295m-1.331,3.707a18.885,18.885,0,0,1,1.27,1.662,16.474,16.474,0,0,1-2.5,1.775,32.338,32.338,0,0,1-2.139-4.252,12.548,12.548,0,0,1,1.909-.731,8.011,8.011,0,0,1,1.458,1.546m7.172-1.207a2.331,2.331,0,0,1,.932.5c0,.493-2.042,4.16-2.269,4.073-.677-.259-2.389-1.643-2.273-1.836a30.589,30.589,0,0,1,2.554-3.1,8.442,8.442,0,0,1,1.056.356M364.7,51.439c1.064.737.708,1.394-.755,1.394-1.13,0-1.81-.622-1.177-1.078.174-.125.466-.344.65-.486.451-.35.551-.337,1.282.17m-.108,2.907c.061.1.551,2.78,1.088,5.959s1.012,5.928,1.056,6.112a11.578,11.578,0,0,1-2.791,3.333,10.666,10.666,0,0,1-1.5-1.464l-1.34-1.464.534-3.2c1.132-6.78,1.523-9.042,1.6-9.243.1-.256,1.194-.28,1.348-.03" transform="translate(-346.69 -21.358)" fill="#fff" stroke="#fff" stroke-width="1" fill-rule="evenodd"/>
</svg>
