<svg xmlns="http://www.w3.org/2000/svg" width="43" height="43" viewBox="0 0 43 43">
  <g id="Group_288" data-name="Group 288" transform="translate(-587 -285)">
    <rect id="Rectangle_130" data-name="Rectangle 130" width="43" height="43" transform="translate(587 285)" fill="none"/>
    <path id="path0" d="M30.227,108.618a12.227,12.227,0,0,0-6.9,4.033l-.635.8H16.378c-6.842,0-7.38.044-8.774.7a6.687,6.687,0,0,0-.8,11.478c1.625,1.085,1.689,1.093,9.149,1.093h6.574l1.072,1.145a11.621,11.621,0,0,0,20.3-7.246,11.753,11.753,0,0,0-13.672-12m3.6,2.425a9.211,9.211,0,1,1-9.485,13.773,9.274,9.274,0,0,1,9.485-13.773m-3.149,4.369c-4.965,1.739-4.186,9.052,1.028,9.642a4.975,4.975,0,0,0,4.24-8.255,5.114,5.114,0,0,0-5.268-1.387m-9.433.752c-.036.166-.178.693-.314,1.173a9.914,9.914,0,0,0-.246,2.816,9.774,9.774,0,0,0,.541,3.855l.087.3h-5.78c-5.31,0-5.833-.021-6.436-.25a4.2,4.2,0,0,1-.721-7.549c.928-.574,1.538-.626,7.389-.638l5.547-.011-.068.3M33.715,118.1a2.5,2.5,0,1,1-3.525.615,2.482,2.482,0,0,1,3.525-.615" transform="translate(584.584 186.063)" fill="#fff" stroke="#0042a5" stroke-width="1" fill-rule="evenodd"/>
  </g>
</svg>
