<svg xmlns="http://www.w3.org/2000/svg" width="56.805" height="53.071" viewBox="0 0 56.805 53.071">
  <path id="path0" d="M179.3,100.28c-.706.378-1.036.942-1.794,3.071-1.727,4.842-3.395,9.381-3.545,9.644-.13.227-.329.033-.9-.881-9.668-15.391-34.425-9.758-37.136,8.449a16.9,16.9,0,0,1-1.854,5.9c-3.207,6.682-3.789,8.081-3.685,8.844.193,1.419,1.247,2.036,3.479,2.036,1.808,0,1.813.007,1.892,2.6.09,2.907.294,3.125,3.041,3.269,2.413.125,2.218-.227,2.331,4.207l.1,3.793.542.456.54.457h18.233l.537-.552c.484-.5.553-.738.691-2.417.315-3.819,2.13-6.507,6.622-9.806a18.861,18.861,0,0,0,7.832-12.247c.149-.931.311-1.324.668-1.61.258-.209.825-.662,1.259-1.007s.788-.757.788-.917c0-.252,5-13.6,6.567-17.507,1.324-3.314.942-4.2-2.329-5.4-1.943-.711-3.057-.822-3.873-.387m2.954,1.708c2.522.894,2.666,1.086,2.035,2.711l-7.375,19.149-3.425,2.616c-.181-.089-.821-4.162-1.059-4.265l6.507-18.213.4-1c.684-1.7.808-1.746,2.917-1M162.1,105.53a18.636,18.636,0,0,1,10.516,8.968l.481.947-.934,2.465c-.514,1.356-1.031,2.644-1.149,2.865-.215.4.921,6.085,1.387,6.939.244.448.852.426,1.539-.055s.734-.255.251,1.352a17.088,17.088,0,0,1-6.017,8.517l-2.509,1.952a19.845,19.845,0,0,0-3.933,4.446,13.4,13.4,0,0,0-1.192,2.987,21.944,21.944,0,0,0-.539,3.695H142.672v-6.542c0-1.59-.889-2.256-3.119-2.338-2.319-.086-2.282-.047-2.282-2.374,0-3-.491-3.531-3.278-3.531-2.693,0-2.707.293.28-6.056,2.454-5.215,2.8-6.168,3.2-8.819,1.714-11.432,13.859-19.034,24.631-15.417m-7.95,3.772a2.739,2.739,0,0,0-.751,4.923l.654.4v2.892c0,2.562-.04,2.93-.352,3.207-.537.478-.569.457-2.81-1.751l-2.1-2.065.13-.848a2.785,2.785,0,0,0-4.892-2.3c-1.836,2.054.59,5.3,3.174,4.252.323-.131.753.2,2.647,2.044l2.263,2.2-.415.434c-.4.415-.539.433-3.323.431l-2.907,0-.446-.676a2.757,2.757,0,1,0,.079,2.926l.468-.729h2.762c2.637,0,2.78.019,3.181.438.585.613.638.523-1.608,2.748l-2.027,2.008-1.429.009c-3.225.02-4.227,3.808-1.34,5.062a2.66,2.66,0,0,0,3.863-2.872l-.113-1.063,2.172-2.129,2.172-2.128.425.445c.628.656.662,6.1.039,6.3-2.683.836-1.624,5.118,1.266,5.118a2.634,2.634,0,0,0,1.547-4.87l-.687-.438,0-2.831c0-2.659.024-2.858.424-3.275l.425-.445,2.159,2.114,2.159,2.115-.1,1.078a2.7,2.7,0,1,0,2.374-2.2l-1.141.1L160,127.879c-2.286-2.228-2.288-2.233-1.644-2.828.416-.383.639-.412,3.181-.412h2.734l.469.729a2.816,2.816,0,0,0,5.2-1.4c0-2.675-3.737-3.785-5.1-1.515l-.4.672h-2.91c-2.734,0-2.938-.025-3.362-.417l-.453-.417,2.162-2.131,2.162-2.131,1.171.1a2.721,2.721,0,1,0-2.331-2.289l.105,1.15-2.066,2.024c-2.2,2.152-2.306,2.217-2.8,1.678-.267-.29-.319-.811-.319-3.2v-2.857l.641-.371c2.683-1.556.7-5.866-2.28-4.956" transform="translate(-129.886 -99.552)" fill="#0042a5" stroke="#0042a5" stroke-width="1" fill-rule="evenodd"/>
</svg>
