<svg xmlns="http://www.w3.org/2000/svg" width="43" height="43" viewBox="0 0 43 43">
  <g id="Group_286" data-name="Group 286" transform="translate(-583 -263)">
    <rect id="Rectangle_129" data-name="Rectangle 129" width="43" height="43" transform="translate(583 263)" fill="none"/>
    <path id="path0" d="M67.991,98.129a2.242,2.242,0,0,0-.634.537L67,99.09v5.12c0,5.521,0,5.5.695,5.4l.308-.043.071-5.147c.039-2.831.084-5.163.1-5.183s1.338-.019,2.937,0l2.908.036.038,1.571.038,1.57H73.029c-1.129,0-1.484.161-1.484.673,0,.386.416.53,1.528.53h1.011v2.54h-.61c-.776,0-1.127.187-1.127.6s.351.6,1.127.6h.61V109.9H73.073c-1.173,0-1.528.142-1.528.61,0,.439.422.594,1.613.594h.926v2.54h-.642c-1.419,0-1.6.975-.192,1.043l.835.039v2.661H73.073c-1.113,0-1.528.144-1.528.532,0,.452.511.671,1.566.671h.973v2.539h-.719c-1.392,0-1.5.977-.116,1.043l.835.04v2.65l-1.155.038c-2.022.067-2.032.945-.013,1.013l1.144.038.054,2.033.054,2.034-2.949,2.971c-1.622,1.635-2.994,2.973-3.05,2.974s-.1-5.5-.1-12.224c0-13.5.041-12.865-.781-12.29l-.288.2v12.565c0,13.87-.047,13.111.85,13.537.419.2,2.127.218,19.135.218,20.7,0,19.335.06,19.774-.865.347-.731.307-5.994-.05-6.579-.5-.822.468-.771-16.115-.844l-15.24-.067-.067-15.246c-.075-17.046.006-15.757-1.008-16.18a31.691,31.691,0,0,0-6.288-.06m11.814,4.863a2.639,2.639,0,0,0-.239,2.762c.562.562.935.16.935-1.007v-.853l.889-.04c.983-.043,1.321-.286,1.035-.741a3.985,3.985,0,0,0-2.62-.121m20.22.014c-.432.521-.13.807.9.849l.969.039v.925c0,1.035.248,1.365.8,1.068.461-.247.4-2.419-.085-2.8a3.448,3.448,0,0,0-2.583-.083m-9.3,2.193a64.406,64.406,0,0,0-7.693,4.618c-.235.386-.253.734-.254,4.85V119.1l.336.4a24.641,24.641,0,0,0,3.108,2c4.083,2.362,4.478,2.564,4.989,2.562.672,0,7.686-4.041,8.108-4.669.4-.6.476-8.589.088-9.4-.25-.525.057-.318-3.993-2.678-3.949-2.3-4.014-2.33-4.69-2.116m2.708,2.243,3.232,1.886,1.254.733-1.187.7c-1.292.757-1.591,1.224-.991,1.546.238.128.457.049,1.461-.525a13.391,13.391,0,0,1,1.265-.676,43.359,43.359,0,0,1-.149,7.734,29.253,29.253,0,0,1-2.975,1.835c-1.507.857-2.936,1.676-3.175,1.821l-.435.263v-3.921l0-3.921,1.145-.649c1.184-.671,1.4-.9,1.167-1.274-.241-.385-.658-.309-1.707.311a7.8,7.8,0,0,1-1.156.609c-.17,0-6.595-3.726-6.635-3.848a63.074,63.074,0,0,1,6.609-3.759,12.228,12.228,0,0,1,2.273,1.141m-6.11,5.575,3.276,1.906.035,3.837c.026,2.859,0,3.837-.121,3.837-.19,0-6.228-3.459-6.484-3.714a51.009,51.009,0,0,1-.081-7.776c.055,0,1.574.863,3.375,1.911M79.484,123.6a3.078,3.078,0,0,0,.19,2.5c.577.577,2.631.482,2.784-.128.124-.495-.231-.708-1.181-.708H80.5v-.792c0-1.141-.539-1.6-1.017-.875m22.567-.177a2.149,2.149,0,0,0-.16,1v.842h-.842c-.9,0-1.163.139-1.163.623,0,.772,2.533.807,2.944.04.393-.734.1-2.669-.4-2.669a.614.614,0,0,0-.375.16m-24.88,7.459H78.62l.038,1.156c.043,1.261.244,1.615.74,1.3.188-.118.241-.375.273-1.3l.038-1.156h2.65l.04.755c.029.543.106.8.274.9.429.27.7-.056.742-.9l.04-.755h2.649l.039,1.156c.042,1.261.243,1.615.74,1.3.188-.118.241-.375.272-1.3l.039-1.156h2.649l.04.755c.029.543.106.8.274.9.429.27.7-.056.742-.9l.04-.755h2.65l.039,1.156c.031.927.084,1.185.273,1.3.5.312.7-.042.74-1.3l.039-1.156h2.65l.04.836c.066,1.384,1.043,1.275,1.043-.117v-.719h2.663l.038,1.156c.031.927.085,1.185.273,1.3.5.312.7-.042.74-1.3l.038-1.156h1.706a4.987,4.987,0,0,1,1.866.16,19.812,19.812,0,0,1-.05,5.645c-.225.226-36.686.336-36.686.111,0-.4,5.978-6.058,6.333-5.99a16.434,16.434,0,0,0,1.833.074" transform="translate(518 167)" fill="#fff" fill-rule="evenodd"/>
  </g>
</svg>
