<svg xmlns="http://www.w3.org/2000/svg" width="37.931" height="49.668" viewBox="0 0 37.931 49.668">
  <path id="path0" d="M216.144,98.109A4.469,4.469,0,0,0,212.9,103.5a7.185,7.185,0,0,1,.214.941c-.015.014-.5.216-1.074.449a13.473,13.473,0,0,0-6.615,6.11c-1.225,2.412-1.295,2.84-1.428,8.833-.163,7.345-.279,7.8-2.831,11.24a12.238,12.238,0,0,0-2.983,7.849c-.274,3.178-.5,3.078,7.07,3.078,6.588,0,5.933-.132,6.166,1.241,1.055,6.219,10.621,5.841,11.37-.449l.094-.792h5.969c7.583,0,7.27.127,7.106-2.868a12.911,12.911,0,0,0-2.988-8.049c-2.555-3.39-2.64-3.719-2.8-10.833-.128-5.666-.182-6.132-.943-8.143a13.684,13.684,0,0,0-7.264-7.278c-1.041-.424-1.04-.424-.782-1.105,1.116-2.933-1.793-6.179-5.032-5.615m-8.727,2.575c-4.977,2.691-8.675,8.594-9.228,14.731-.2,2.187.153,2.974,1.323,2.974.991,0,1.353-.621,1.506-2.585a16.3,16.3,0,0,1,7.109-12.2,6.509,6.509,0,0,0,1.375-1.11c.712-1.331-.7-2.561-2.085-1.813m17.82-.113c-1.348.583-1.074,1.776.681,2.969a16.386,16.386,0,0,1,7.191,12.284c.134,1.8.262,2.138.92,2.414,2.7,1.136,2.582-4.712-.2-10.065-2.121-4.078-6.919-8.324-8.589-7.6m-7.25.694a1.459,1.459,0,1,1-1.69-.142,1.239,1.239,0,0,1,1.69.142m1.735,5.832a10.59,10.59,0,0,1,7.116,6.746c.361,1.007.393,1.418.51,6.574.068,3.025.206,5.875.306,6.333a12.144,12.144,0,0,0,2.753,5.667,10.583,10.583,0,0,1,2.667,6.041l.1.709H201v-.426a10.647,10.647,0,0,1,2.238-5.665c3.144-4.064,3.587-5.73,3.592-13.5,0-3.531.044-4.15.348-5.249a10.214,10.214,0,0,1,12.544-7.234m.274,35.2a3.163,3.163,0,0,1-2.107,2.55c-1.574.52-3.72-.854-3.722-2.384V142h2.916c2.668,0,2.917.025,2.913.292" transform="translate(-198.082 -98.045)" fill="#0042a5" fill-rule="evenodd"/>
</svg>
