<svg xmlns="http://www.w3.org/2000/svg" width="53.11" height="53.055" viewBox="0 0 53.11 53.055">
  <path id="path0" d="M368.123,101.527a2.57,2.57,0,0,0-.382,1.254c-.063.873-.088.906-.767.96a23.883,23.883,0,0,0-21.564,20.622l-.231,1.807-1.059.107c-2.09.211-2.016,2.08.092,2.33l1.027.122.133,1.415c.959,10.32,9.837,19.373,20.281,20.683l2.025.253.107,1.058c.211,2.084,2.148,2.007,2.349-.094l.1-1,1.937-.231c10.613-1.27,19.468-10.553,20.348-21.332.054-.675.094-.707,1.023-.838,2.133-.3,2.251-2.375.135-2.375-1.129,0-1.017.21-1.4-2.61-1.356-10.061-10.522-18.858-20.624-19.8l-1.415-.133-.122-1.027c-.17-1.436-1.2-2.047-1.991-1.177m-.346,5.565c0,.742.089.958.51,1.233.931.61,1.9-.242,1.9-1.671v-.517l1.333.137c9.546.978,17.775,9.435,18.576,19.091l.066.8-.949.06c-2.086.135-2.038,2.085.059,2.408l.915.141-.259,1.807c-1.321,9.214-9.374,17.063-18.363,17.9l-1.379.129v-.518c0-1.429-.968-2.281-1.9-1.672-.424.278-.51.49-.51,1.261v.926l-1.515-.137c-9.186-.832-17.566-9.174-18.475-18.388l-.138-1.406h.516c1.426,0,2.278-.97,1.668-1.9-.276-.42-.491-.51-1.234-.51-1.035,0-1.081-.165-.7-2.536,1.478-9.11,10.432-17.359,19.02-17.524l.853-.017v.9m-8.733,9.329c-1.247.511-1.2.1-1.26,10.888l-.057,9.831.671.67c.924.925,1.125.941,11.2.868,11.79-.083,10.509,1.2,10.592-10.592.071-10.061.055-10.273-.862-11.191l-.665-.664-9.607.012c-5.283.007-9.787.087-10.008.177m4.918,5.019c0,3.927.365,4.191,3.181,2.3a6.589,6.589,0,0,1,1.906-1.029c.129.051.9.554,1.725,1.12,2.619,1.806,3.026,1.482,3.026-2.4v-2.807l1.957.057,1.957.058v17.466l-8.784.052-8.783.053V118.642h3.814v2.8m7.429-1.484v1.317l-.853-.525c-1.692-1.042-1.639-1.038-2.855-.23-1.395.925-1.312.962-1.312-.572v-1.3h5.019v1.315" transform="translate(-342.34 -100.856)" fill="#0042a5" stroke="#0042a5" stroke-width="0.5" fill-rule="evenodd"/>
</svg>
