<svg xmlns="http://www.w3.org/2000/svg" width="43" height="43" viewBox="0 0 43 43">
  <g id="Group_284" data-name="Group 284" transform="translate(-613 -314)">
    <rect id="Rectangle_128" data-name="Rectangle 128" width="43" height="43" transform="translate(613 314)" fill="none"/>
    <path id="path0" d="M271.1,99.785a1.268,1.268,0,0,0-.286,1c0,.867-.18.911-.856.214s-.754-.678-2.534,1.107-1.848,1.95-1.114,2.661c.654.633.538.867-.427.867-.918,0-1.059.177-1.059,1.335,0,1.053.354,1.434,1.008,1.084.191-.1.276-.3.276-.642,0-.467.027-.494.488-.494.763,0,.935-.127,1.306-.964.432-.976.436-.921-.106-1.537l-.452-.515.948-.947.947-.948.5.488.5.487.749-.264c1.02-.359,1.1-.448,1.1-1.165v-.624h2.71l0,.535c0,.7.078.792.907,1.156.908.4,1.06.387,1.585-.121l.44-.427.96.968.96.968-.43.412c-.492.471-.521.677-.2,1.447.344.832.6,1.052,1.22,1.052h.549v2.694l-.676.044a1.389,1.389,0,0,0-.89,2.328l.43.413-.954.962-.955.962-.479-.421c-.56-.491-.563-.491-1.358-.188s-1.108.673-1.108,1.352v.555H272.1v-1.442l-.788-.348c-1-.442-1.029-.441-1.6.11l-.474.459-.947-.947-.948-.948.452-.514c.543-.618.539-.559.1-1.557l-.355-.8h-1.217c-1.175,0-1.223.014-1.387.374-.236.517.244.91,1.111.91.813,0,.867.142.272.719-.775.751-.7.954,1.049,2.716,1.716,1.732,1.877,1.8,2.593,1.058.676-.7.856-.652.856.214,0,1.2.171,1.284,2.648,1.284,2.534,0,2.629-.039,2.629-1.066,0-.988.185-1.086.839-.448.716.7.956.657,1.943-.34l.847-.856h5.255c5.494,0,5.807-.033,5.807-.619,0-.655-.074-.665-5.03-.665-4.576,0-4.686-.007-4.6-.277.062-.2-.062-.443-.418-.838-.669-.74-.646-.882.145-.882,1.213,0,1.2.023,1.2-2.615s-.01-2.661-1.031-2.661c-.918,0-1.011-.269-.325-.935.416-.4.508-.584.44-.857l-.087-.347h7.326c8.041,0,8.109-.008,7.67-.828-.243-.454-.276-.456-8.482-.456h-7.872l-.847-.856c-.987-1-1.226-1.04-1.943-.341-.642.627-.839.54-.839-.373,0-1.059-.191-1.141-2.67-1.141-1.847,0-2.063.027-2.322.285m26.847,2.52a.683.683,0,0,0-.319.9c.145.271.3.286,3,.286h2.847v9.413h-5.462c-4.059,0-5.507.044-5.634.171a.651.651,0,0,0,.105.964,109.09,109.09,0,0,0,12.1-.023c.335-.336.235-11.48-.1-11.662a48.753,48.753,0,0,0-6.536-.052m-25.564,2.026a4,4,0,0,0-1.5,6.834c1.339,1.179,3.921,1.385,4.392.349a.628.628,0,0,0-.811-.786,2.738,2.738,0,0,1-3.4-3.75,2.7,2.7,0,0,1,5.02,1.878c-.3,1.247.614,1.793,1.108.662,1.21-2.765-1.919-6.137-4.814-5.187m12.654,1.412c-1,1.01-1.072,1.743-.174,1.743a.763.763,0,0,0,.471-.171c.134-.133.171.169.171,1.355V110.2h-.366c-.781,0-1.213.645-.746,1.112a8.806,8.806,0,0,0,3.508,0c.467-.467.035-1.112-.746-1.112h-.366V107.73c0-3.227-.246-3.507-1.752-1.986m7.342-.653a.652.652,0,0,0,.105.965,31.546,31.546,0,0,0,4.41.147c4.4,0,4.584-.028,4.584-.695,0-.564-.192-.589-4.635-.589-3.149,0-4.339.046-4.464.171m-3.356,2.634a.864.864,0,0,0,.181,1.041,88.967,88.967,0,0,0,11.958-.074.559.559,0,0,0,.146-.891c-.187-.187-12.1-.26-12.285-.076m1.413,2.7a.62.62,0,0,0-.053.888c.127.127,1.537.171,5.462.171,5.487,0,5.634-.015,5.634-.589,0-.682-.105-.695-5.634-.695-4.523,0-5.214.028-5.409.224m10.644,5.366a10.3,10.3,0,0,0-.171,3v2.824h-.856c-.921,0-.94-.011-.691-.411.2-.327.087-.661-.3-.87-.368-.2-2.143,1.389-2.143,1.914a4.426,4.426,0,0,0,1.968,1.934.652.652,0,0,0,.466-.98c-.16-.3-.142-.3,1.055-.3,1.851,0,1.788.128,1.788-3.646a19.788,19.788,0,0,0-.148-3.351.651.651,0,0,0-.964-.105m-30.629,2.6c-.388.283-.513,10.863-.136,11.439l.223.339h3.266c3.329,0,3.716-.06,3.716-.58,0-.6-.49-.7-3.281-.7h-2.709v-9.413h22.677v3.181c0,3.36.03,3.523.665,3.523.561,0,.619-.377.619-4.048,0-3.45,0-3.5-.317-3.717-.458-.321-24.284-.34-24.721-.02m4.219,2.749c-1.23.637-1.565,2.325-.462,2.325.264,0,.389-.128.565-.573.245-.624.736-.875,1.108-.566.335.278.286.387-1.071,2.423-1.374,2.062-1.457,2.287-.967,2.631a5.311,5.311,0,0,0,3.391-.063c.576-.575.08-1.141-1-1.141-.892,0-.908.092.309-1.747l1.022-1.546-.273-.656a1.856,1.856,0,0,0-2.624-1.085m8.353.693c-.3.3-.286.432.059.776.451.451,8.4.442,8.853-.01.266-.266.276-.327.09-.607-.279-.419-8.594-.567-9-.159m-17.973,1.285c-.339.339-.339,11.193,0,11.532.191.191.71.224,3.482.224h3.258l-.157.417c-.187.5.038.867.525.867a4.668,4.668,0,0,0,1.939-1.925,4.668,4.668,0,0,0-1.939-1.925c-.488,0-.713.371-.525.868l.157.416h-5.68v-9.413h1.207c1.047,0,1.227-.036,1.355-.276.421-.786.013-1.008-1.848-1.008-1.218,0-1.6.048-1.773.224m14.783,1.282a.558.558,0,0,0-.145.89c.335.335,12.192.236,12.374-.1a.59.59,0,0,0-.38-.877,92.361,92.361,0,0,0-11.848.091m-.805,3.425c-.39.39-.333,11.077.061,11.471.27.27.476.285,3.77.285,3.693,0,3.932-.042,3.932-.695,0-.549-.24-.589-3.523-.589h-3.18V128.88h22.819v9.413h-7.174c-7.455,0-7.516.005-7.516.589,0,.7-.084.695,7.926.695,7.287,0,7.484-.007,7.762-.285.394-.394.451-11.081.061-11.471-.341-.341-24.6-.341-24.938,0m4.981,2.622c-.807.334-1.37,1.527-.993,2.1.362.553.875.366,1.125-.408a.69.69,0,0,1,1.366.1c0,.363-.141.489-.785.7-.679.227-.625,1.213.067,1.213.666,0,.96,1.037.371,1.3-.481.22-.744.08-1.04-.55-.322-.686-.942-.833-1.194-.283a2.049,2.049,0,0,0,.78,1.883,1.987,1.987,0,0,0,2.861-2.517.747.747,0,0,1,0-.905,1.956,1.956,0,0,0-2.557-2.647m7.636.139a.614.614,0,0,0,.288.87,63.628,63.628,0,0,0,8.559-.009.651.651,0,0,0,.1-.964c-.332-.333-8.77-.234-8.951.1m-2.583,2.589c-.266.266-.275.326-.089.606.241.365,11.177.575,11.6.223a.641.641,0,0,0-.081-.977c-.608-.325-11.092-.19-11.43.148m-.051,2.728c-.608.868-.445.894,5.767.935,5.886.039,5.989.029,5.989-.6,0-.649-.036-.653-5.939-.653h-5.6l-.22.314" transform="translate(350.202 215.5)" fill="#fff" fill-rule="evenodd"/>
  </g>
</svg>
