<svg xmlns="http://www.w3.org/2000/svg" width="43" height="43" viewBox="0 0 43 43">
  <g id="Group_281" data-name="Group 281" transform="translate(-589 -318)">
    <rect id="Rectangle_122" data-name="Rectangle 122" width="43" height="43" transform="translate(589 318)" fill="none"/>
    <path id="path0" d="M20.2,22.018a2,2,0,0,0,.333,3.775c.608.134.645,1.493.044,1.619a15.119,15.119,0,0,0-5.248,1.954L14.3,30l-1.013-.984c-2.953-2.867-6.029.319-3.216,3.331l.907.972-.633,1.072c-6.5,11,3.328,24.72,15.682,21.887a5.268,5.268,0,0,1,1.02-.179c.02.026.289.423.6.883,6.2,9.242,20.632,4.805,20.632-6.344A11.143,11.143,0,0,0,38.214,39.324l-.8-.1-.227-.874A14.747,14.747,0,0,0,25.917,27.558l-.874-.166L25,26.648l-.039-.745.612-.234A1.926,1.926,0,0,0,26,22.177c-.475-.355-5.075-.482-5.8-.159m5.285,1.319a.752.752,0,0,1-.05.971c-.175.175-.6.211-2.475.211-2.438,0-2.686-.067-2.686-.722,0-.577.192-.621,2.686-.621a8.07,8.07,0,0,1,2.525.161m-1.853,3.2v.671H22.29V25.862h1.343v.672m3.022,2.484a13.579,13.579,0,0,1,9.2,9.241,6.883,6.883,0,0,1,.23.974c-.017.015-.532.127-1.143.25a11.324,11.324,0,0,0-8.751,14.511c.286.919.3.867-.367,1.017C15.152,57.393,6.145,46.268,10.741,36.38a13.541,13.541,0,0,1,15.914-7.362M12.517,30l.811.784-.7.66c-.907.851-.782.856-1.66-.065C9.279,29.615,10.757,28.3,12.517,30m9.983.819a.612.612,0,0,0,.721.955.647.647,0,0,0-.259-1.214.778.778,0,0,0-.462.259m-5.371,1.295a.721.721,0,0,0,.46,1.132c.2,0,.672-.51.672-.729a.652.652,0,0,0-1.132-.4m10.744,0a.561.561,0,0,0,.073.913.6.6,0,0,0,.84-.84.561.561,0,0,0-.913-.073M22.5,34.131c-.177.177-.212.62-.213,2.72l0,2.509-.514.216c-2.509,1.053-1.573,4.955,1.189,4.955a2.606,2.606,0,0,0,1.248-4.894l-.564-.277-.006-2.5c-.007-2.861-.3-3.567-1.138-2.731M13.089,36.2a.554.554,0,0,0,.463.94.577.577,0,0,0,.468-1,.591.591,0,0,0-.932.058m18.707.077c-.22.482,0,.8.566.8.326,0,.467-.074.546-.287.264-.712-.8-1.2-1.111-.508M23.5,40.7a1.29,1.29,0,0,1,.463,2.068,1.267,1.267,0,0,1-1.65.342c-1.468-.867-.324-3.19,1.186-2.409m15.084-.008A10.053,10.053,0,1,1,28.35,55.716,10.044,10.044,0,0,1,38.582,40.694m-26.825.824c-.247.247-.261.385-.072.738a.644.644,0,0,0,1.086-.06.613.613,0,0,0-1.015-.679m1.264,5.435c-.295.551.181,1.068.8.87s.416-1.143-.262-1.143a.565.565,0,0,0-.54.273M38.308,50.5c-2.455,2.107-4.505,3.832-4.558,3.832a11.959,11.959,0,0,1-1.26-1.142c-1.338-1.309-1.811-1.451-2.069-.625-.119.38,2.748,3.378,3.231,3.378.222,0,1.756-1.255,5.966-4.88l2.19-1.881c1.724-1.481,1.849-1.62,1.811-2.015-.1-1.057-.454-.837-5.31,3.332m-21.259.479c-.295.551.181,1.068.8.87s.416-1.143-.262-1.143a.565.565,0,0,0-.54.273m5.373,1.343a.6.6,0,0,0,.979.69c.239-.239.258-.33.125-.622a.638.638,0,0,0-1.1-.068" transform="translate(582.724 297.168)" fill="#0042a5" fill-rule="evenodd"/>
  </g>
</svg>
