<svg xmlns="http://www.w3.org/2000/svg" width="47.363" height="43.511" viewBox="0 0 47.363 43.511">
  <g id="Group_278" data-name="Group 278" transform="translate(-673.637 -312.959)">
    <path id="path0" d="M79.218,25.4l-.468.4V36.529l.468.4.467.4H96.359l.487-.487.487-.487V25.974l-.487-.487L96.359,25H79.685l-.467.4m24.9.065-.448.468V45.167h-.85c-1.81,0-2.737,1.038-2.072,2.323.29.562,1,.843,2.113.843h.809V67.565l.448.468a1.418,1.418,0,0,0,2.1,0l.448-.468V48.333h.808c1.117,0,1.823-.281,2.113-.843.665-1.285-.261-2.323-2.072-2.323h-.849V25.9l-.468-.448a1.393,1.393,0,0,0-2.084.019m-9.782,5.7v3.168l-6.291-.043L81.75,34.25,81.7,31.339c-.025-1.6-.009-3.007.037-3.125.065-.169,1.4-.214,6.337-.214h6.255v3.169M79.564,40.764c-.862.425-.9.662-.9,6,0,5.57.033,5.751,1.126,6.07a86.469,86.469,0,0,0,8.68.131l8.056-.05.4-.468.4-.468,0-5.2c0-5.634,0-5.614-.944-6.1-.625-.32-16.162-.248-16.822.078M94.333,46.75v3.083H81.667V43.667H94.333V46.75M79.218,56.569l-.468.4V67.7l.468.4.467.4H96.359l.487-.487.487-.487V57.141l-.487-.487-.487-.487H79.685l-.467.4m15.115,5.766V65.5l-6.291-.044-6.292-.043L81.7,62.506c-.025-1.6-.009-3.007.037-3.125.065-.169,1.4-.214,6.337-.214h6.255v3.168" transform="translate(594.97 287.97)" fill="#0042a5" fill-rule="evenodd"/>
    <g id="Polygon_3" data-name="Polygon 3" transform="translate(707 344) rotate(-90)" fill="none">
      <path d="M9.5,0,19,14H0Z" stroke="none"/>
      <path d="M 9.5 5.342818260192871 L 5.661197662353516 11 L 13.33880233764648 11 L 9.5 5.342818260192871 M 9.5 0 L 19 14 L 0 14 L 9.5 0 Z" stroke="none" fill="#0042a5"/>
    </g>
  </g>
</svg>
