<svg xmlns="http://www.w3.org/2000/svg" width="43" height="43" viewBox="0 0 43 43">
  <g id="Group_292" data-name="Group 292" transform="translate(-587 -283)">
    <rect id="Rectangle_132" data-name="Rectangle 132" width="43" height="43" transform="translate(587 283)" fill="none"/>
    <path id="path0" d="M154.9,22.953v1.12l1.1.1a17.7,17.7,0,0,1,13.686,27.375c-.563.865-.582.841-.692-.852l-.1-1.487-.683.082c-.376.046-.91.083-1.188.083-.453,0-.5.031-.436.3.037.165.159,1.473.271,2.908s.239,2.871.281,3.193l.076.586,1.025-.078c1.975-.149,5.818-.5,5.851-.529a9.9,9.9,0,0,0-.043-1.135l-.075-1.1-.415.006c-.229,0-.866.058-1.418.122-1.257.146-1.23.217-.4-1.084A19.99,19.99,0,0,0,156.92,21.974c-2.228-.225-2.024-.324-2.024.979m-15.907,4.636c-1.434.132-2.775.245-2.981.25l-.374.01.081.836c.156,1.6,0,1.468,1.608,1.36a7.045,7.045,0,0,1,1.4-.023,7.348,7.348,0,0,1-.521.853c-8.416,12.684.1,29.689,15.459,30.868l1.236.1V59.568l-1.168-.095A17.687,17.687,0,0,1,139.888,32.5c.787-1.307.8-1.3.91.286.12,1.7.058,1.632,1.37,1.53l1.094-.084-.061-.481c-.034-.265-.156-1.625-.272-3.021s-.241-2.736-.278-2.975c-.079-.518.134-.509-3.664-.16m14.793,2.489a5.125,5.125,0,0,0-.089,1.255V32.5l-.627.094a8.383,8.383,0,0,0-2.344.813l-.365.2-.687-.942c-.814-1.116-.691-1.091-1.709-.341-.979.721-.966.56-.139,1.7.572.785.648.957.485,1.088a12.209,12.209,0,0,0-1.7,2.225l-.266.521-1.145-.387c-.813-.275-1.158-.34-1.193-.226-.027.089-.181.571-.342,1.072a4.4,4.4,0,0,0-.244.95c.026.022.546.205,1.157.407l1.11.366-.091.418a17.1,17.1,0,0,0-.019,2.875c.026.279-.084.348-1.04.654-.589.188-1.092.361-1.12.384a11.221,11.221,0,0,0,.643,2.077,3.781,3.781,0,0,0,1.174-.285l1.1-.37.39.691a11.558,11.558,0,0,0,1.066,1.482c.391.459.631.85.569.93-1.421,1.861-1.4,1.74-.41,2.445,1.01.718.921.738,1.731-.377.521-.715.729-.911.857-.8a9.312,9.312,0,0,0,2.523.883l.632.095v2.51H156.1V51.135l.646-.089a9.419,9.419,0,0,0,1.72-.522l1.073-.432.626.91c.744,1.082.688,1.072,1.752.292l.842-.618-.719-.973c-.636-.861-.7-.993-.51-1.146a11.548,11.548,0,0,0,1.633-2.217l.286-.56,1.143.387,1.144.386.123-.322a10.431,10.431,0,0,0,.513-1.862c-.025-.021-.5-.187-1.048-.369l-1-.33L164.313,42a10.452,10.452,0,0,0-.1-1.816c-.062-.1.282-.275,1.01-.515.607-.2,1.125-.382,1.151-.4a5.486,5.486,0,0,0-.253-1.052c-.346-1.166-.322-1.157-1.7-.687l-.953.324-.4-.708a12.306,12.306,0,0,0-1.055-1.5l-.655-.788.706-.931a10.3,10.3,0,0,0,.68-.954,16.97,16.97,0,0,0-1.811-1.252,10.327,10.327,0,0,0-1.379,1.788c-.059.086-.156.079-.278-.022a9.042,9.042,0,0,0-2.542-.9L156.1,32.5v-2.51h-1.114a4.75,4.75,0,0,0-1.2.089m2.62,4.786a7.009,7.009,0,1,1-2.508-.11,7.252,7.252,0,0,1,2.508.11m-2.529,2.342a4.72,4.72,0,1,0,5.7,5.343,4.794,4.794,0,0,0-5.7-5.343m2.042,2.4a2.469,2.469,0,0,1-.055,4.454,2.429,2.429,0,1,1,.055-4.454" transform="translate(453.612 262.661)" fill="#fff" stroke="#0042a5" stroke-width="0.75" fill-rule="evenodd"/>
  </g>
</svg>
