<svg xmlns="http://www.w3.org/2000/svg" width="43" height="43" viewBox="0 0 43 43">
  <g id="Group_305" data-name="Group 305" transform="translate(-695 -486)">
    <rect id="Rectangle_142" data-name="Rectangle 142" width="43" height="43" transform="translate(695 486)" fill="none"/>
    <path id="path0" d="M336.959,123.535c-.274.6.111.994,1.369,1.4l1.088.35-1.179.469a17.864,17.864,0,0,0-11.221,13.02c-.235,1.115-.241,1.3-.05,1.6a.786.786,0,0,0,1.4-.441,16.229,16.229,0,0,1,.375-1.677,16.562,16.562,0,0,1,9.89-11c1.354-.531,1.37-.52.942.617-.415,1.1-.268,1.693.424,1.689.563,0,.665-.168,1.449-2.3.97-2.637,1.038-2.484-1.508-3.39-2.287-.814-2.737-.865-2.978-.335m10.151,1.508c-.815.572-.354,1.139,1.259,1.551a16.322,16.322,0,0,1,11.721,10.6c.5,1.483.509,1.466-.6.877-.927-.492-.989-.506-1.337-.277-.864.567-.531,1,1.789,2.31,1.781,1.008,2.242,1.114,2.595.6,1.644-2.412,2.28-3.939,1.814-4.36-.554-.5-.833-.312-1.713,1.157-.331.552-.556.8-.6.669-.041-.118-.249-.748-.463-1.4a18.051,18.051,0,0,0-12.331-11.554c-1.477-.387-1.79-.412-2.133-.172m-4.731,6.589c-.634.387-.827.791-.927,1.938-.105,1.19-.34,1.292-1.23.531-1.32-1.131-2.217-1.016-3.729.473-1.787,1.761-1.906,2.549-.594,3.923.775.811.643,1.076-.58,1.168-1.751.131-2.349.888-2.349,2.972,0,2.313.536,3.121,2.066,3.121,1.474,0,1.682.391.749,1.4-1.107,1.2-1,2.057.425,3.54,1.681,1.743,2.6,1.927,3.892.779a4.592,4.592,0,0,1,.867-.669c.292,0,.471.421.472,1.107,0,1.676.86,2.309,3.135,2.31,2.234,0,3.1-.668,3.106-2.384,0-.621.187-1.033.471-1.033a4.594,4.594,0,0,1,.867.669c1.3,1.153,2.242.959,3.9-.8,1.412-1.5,1.518-2.423.4-3.515-.968-.945-.7-1.405.809-1.405,1.567,0,2.138-1.023,1.991-3.565-.1-1.8-.633-2.372-2.323-2.517-1.218-.105-1.348-.371-.576-1.179,1.311-1.373,1.214-2.061-.543-3.852-1.565-1.6-2.5-1.723-3.823-.523-.832.753-1.079.634-1.2-.573-.184-1.848-.691-2.206-3.127-2.205-1.4,0-1.758.048-2.153.289m3.679,2.25c.192,2.229,2.055,3.058,3.624,1.613.827-.763.892-.752,1.99.357l.934.942-.662.776c-.66.772-.911,1.411-.752,1.908.406,1.26.921,1.673,2.088,1.673s1.257.144,1.206,1.712l-.044,1.335-.966.085c-2.219.194-3.1,2.086-1.623,3.49.849.809.844.867-.177,1.929-1.09,1.136-1.19,1.152-2.028.33-1.5-1.476-3.6-.438-3.6,1.783v.78h-2.973v-.78c0-2.226-2.044-3.234-3.617-1.783-.875.806-.88.805-1.988-.293s-1.092-.966-.264-1.9a3.035,3.035,0,0,0,.692-1.082c.109-1.557-.6-2.332-2.252-2.474l-.966-.084-.044-1.335c-.052-1.576.047-1.712,1.24-1.712,2.052,0,2.726-2.028,1.218-3.664l-.609-.66.95-.959c1.116-1.125,1.178-1.137,2.006-.373,1.6,1.47,3.62.474,3.631-1.787,0-.9,0-.9,1.556-.847l1.345.042.085.979m-3.078,4.755a4.392,4.392,0,0,0-2.573,5.695,4.432,4.432,0,1,0,2.573-5.695m2.489,1.405a2.854,2.854,0,0,1-.908,5.566,2.813,2.813,0,0,1-2.136-4.756,2.7,2.7,0,0,1,3.044-.811m-18.542,3.821a18,18,0,0,0-2.427,3.575c0,1.065.972.95,1.839-.217.429-.578.7-.837.749-.705.038.114.206.676.371,1.248a18.04,18.04,0,0,0,9.412,10.7c2.952,1.4,4.723,1.633,4.716.628,0-.555-.184-.679-1.564-1.076a16.639,16.639,0,0,1-11.078-10.669c-.4-1.348-.349-1.409.635-.7.905.647,1.3.736,1.67.368.563-.563.351-.851-1.722-2.342-1.7-1.22-2.114-1.349-2.6-.805m34.131.185a4.692,4.692,0,0,0-.389,1.3,16.5,16.5,0,0,1-10.423,12.295c-1.412.514-1.425.506-.631-.442.705-.843.781-1.407.224-1.661s-.8-.067-2.292,1.707c-1.78,2.119-1.812,1.876.5,3.8,1.675,1.394,2.073,1.565,2.509,1.083.4-.446.292-.711-.646-1.536-1.09-.958-1.092-.887.053-1.215a18.389,18.389,0,0,0,11.577-11.243c.621-1.876.925-3.516.73-3.942a.772.772,0,0,0-1.214-.146" transform="translate(372.5 364.812)" fill="#0042a5" fill-rule="evenodd"/>
  </g>
</svg>
