<svg xmlns="http://www.w3.org/2000/svg" width="43" height="43" viewBox="0 0 43 43">
  <g id="Group_307" data-name="Group 307" transform="translate(-674 -501)">
    <g id="Group_308" data-name="Group 308">
      <path id="Path_247" data-name="Path 247" d="M0,0H43V43H0Z" transform="translate(674 501)" fill="none"/>
      <path id="path0" d="M116.442,14.344a44.743,44.743,0,0,0-.188,5.958l-.036,5.773-2.824.036c-2.457.031-2.846.066-3,.267-.131.178-.172,1.737-.172,6.68v6.448h-2.888c-2.714,0-2.9.017-3.031.267a134.382,134.382,0,0,0,.053,14c.273.373,36.251.5,36.815.128l.322-.212V46.753c0-5.6-.035-6.966-.183-7.088a13.981,13.981,0,0,0-3-.189l-2.814-.037-.036-6.462a54.309,54.309,0,0,0-.189-6.647c-.119-.143-.782-.184-2.96-.184h-2.808V20.418a55.279,55.279,0,0,0-.142-5.992c-.185-.345-12.642-.425-12.926-.082m4.39,2.1c0,1.594-.025,1.575,1.975,1.575,2.048,0,2.02.021,2.02-1.474V15.4h3.443V26.144H117.526V15.4h3.306v1.042m2.756-.354v.689H122.21V15.4h1.378v.689m-5.241,6.349c-.354.66.007.952,1.177.952,1.133,0,1.589-.351,1.218-.941-.248-.394-2.185-.4-2.395-.012m.174,1.856c-.711.5-.138,1.163,1,1.163.773,0,1.308-.282,1.308-.689s-.536-.689-1.308-.689a2.045,2.045,0,0,0-1,.214m-3.612,4.924c0,2.272-.1,2.163,1.948,2.163,2.082,0,2.047.04,2.047-2.3V27.384h3.306V39.51l-5.338-.036-5.339-.036-.036-6.027-.036-6.026h3.448v1.832m2.617-.455v1.378h-1.377V27.384h1.377v1.377m9.368.455c0,2.272-.1,2.163,1.948,2.163,2.082,0,2.047.04,2.047-2.3V27.384h3.306V39.51l-5.338-.036-5.339-.036-.036-6.027-.036-6.026h3.448v1.832m2.617-.455v1.378h-1.377V27.384h1.377v1.377m-17.174,6.986a3.584,3.584,0,0,1-.141.345c-.164.3.54.66,1.308.66.974,0,1.308-.2,1.244-.765l-.046-.407-1.139-.04c-.991-.035-1.15-.008-1.227.207m12.023-.017c-.274.713.069,1.022,1.136,1.022,1.1,0,1.58-.367,1.26-.965-.2-.369-2.257-.419-2.4-.057m-11.99,2.014c-.386.55-.017.86,1.087.908,1.185.052,1.742-.455,1.149-1.047a2.63,2.63,0,0,0-2.236.139m12.072-.139c-.593.593-.036,1.1,1.149,1.047,1.1-.049,1.473-.358,1.087-.908a2.63,2.63,0,0,0-2.236-.139m-15.595,4.863c0,2.281-.007,2.273,2.056,2.273,2,0,1.939.065,1.939-2.214V40.746h3.443V52.731H105.541V40.746h3.306v1.723m2.726-.379-.04,1.343-.654.042-.655.042V40.746h1.388l-.04,1.343m9.259.379c0,2.281-.007,2.273,2.056,2.273,2,0,1.939.065,1.939-2.214V40.746h3.443V52.731H117.526V40.746h3.306v1.723m2.726-.379-.04,1.343-.654.042-.655.042V40.746H123.6l-.04,1.343m9.259.379c0,2.281-.007,2.273,2.056,2.273,2,0,1.939.065,1.939-2.214V40.746h3.443V52.731H129.511V40.746h3.306v1.723m2.726-.379-.04,1.343-.654.042-.655.042V40.746h1.388l-.04,1.343m-29.1,6.864c-.566.565-.006,1.161,1.092,1.161,1.116,0,1.666-.6,1.057-1.15a2.613,2.613,0,0,0-2.149-.012m11.985,0c-.566.565-.006,1.161,1.092,1.161.772,0,1.308-.282,1.308-.687,0-.492-.378-.691-1.308-.691-.612,0-.941.065-1.092.217m12,.036c-.52.574-.006,1.126,1.051,1.126,1.128,0,1.7-.588,1.122-1.161a2.5,2.5,0,0,0-2.173.036M106.4,50.968c-.548.547.013,1.075,1.143,1.075s1.518-.315,1.166-.974a2.994,2.994,0,0,0-2.309-.1m11.962.1c-.352.659.025.974,1.166.974s1.691-.527,1.143-1.075a2.994,2.994,0,0,0-2.309.1m11.985,0q-.519.972,1.117.974c1.207,0,1.765-.5,1.193-1.075a2.994,2.994,0,0,0-2.309.1" transform="translate(572.852 488.877)" fill="#0042a5" fill-rule="evenodd"/>
    </g>
  </g>
</svg>
