<svg xmlns="http://www.w3.org/2000/svg" width="43" height="43" viewBox="0 0 43 43">
  <g id="Group_312" data-name="Group 312" transform="translate(-691 -512)">
    <rect id="Rectangle_144" data-name="Rectangle 144" width="43" height="43" transform="translate(691 512)" fill="none"/>
    <path id="path0" d="M172.8,13.54a7.276,7.276,0,0,0-2.576,1.247,11.942,11.942,0,0,1-1.411.839c-2.433,1.184-3.047,3.305-1.734,5.99.585,1.2.639,1.373.434,1.438-1.114.358-1.515.8-1.6,1.772a1.913,1.913,0,0,0,1.717,2.022c.283,0,.366.079.432.4a7.486,7.486,0,0,0,2.643,3.707c.362.213.385.279.384,1.1l0,.874L168.05,34.2c-3.491,1.46-3.7,1.581-4.245,2.466l-.405.656-.039,4.958c-.046,5.953-.386,5.3,2.739,5.3h2.315v2.578c0,2.117.037,2.631.208,2.875l.209.3H183.4c14.264,0,14.568-.006,14.7-.259a16.174,16.174,0,0,0,.138-2.875V47.578h2.315c3.129,0,2.788.666,2.74-5.352l-.04-5.013-.4-.6c-.564-.835-.84-.993-4.257-2.419l-3.028-1.263V32.06c0-.813.025-.889.368-1.092a6.939,6.939,0,0,0,2.594-3.484c.141-.55.209-.635.506-.636a2.046,2.046,0,0,0,1.746-1.842c0-.931-.762-1.9-1.5-1.9-.381,0-.366-.16.129-1.338,1.367-3.255.14-5.844-3.548-7.488-3.064-1.365-5.221-1.2-7.622.582a4.861,4.861,0,0,1-.977.62c-1.264,0-2.726,2.09-2.724,3.9v1.155h-1.155a8.6,8.6,0,0,0-1.41.08c-.24.076-.256,0-.256-1.224,0-2.284-.987-3.7-3.363-4.838-2.339-1.116-3.972-1.412-5.563-1.009m2.659,1.2c2.379.562,4.311,1.9,4.862,3.375.781,2.087.031,3.471-2.524,4.658-2.387,1.11-2.981,3.369-1.6,6.111.649,1.293.652,1.26-.156,1.338a1.853,1.853,0,0,0,.153,3.7l.827.08.159.535a6.842,6.842,0,0,0,2.3,3.307l.723.546-.039.811-.039.811-1.137.31c-2.359.644-7.45,2.069-8.131,2.277a3.327,3.327,0,0,0-2.374,3.008l-.092.773-1.89-.037-1.89-.037-.035-4.213c-.047-5.6-.489-4.893,4.348-6.912,3.75-1.565,3.377-1.217,3.377-3.141v-1.6l-.429-.228A5.686,5.686,0,0,1,169.2,26.7c-.2-.931-.31-1.058-.948-1.058-.726,0-1.045-.2-1.045-.647,0-.514.227-.691.886-.691,1.219,0,1.3-.766.285-2.8-1.232-2.479-.77-4.307,1.237-4.892a5.625,5.625,0,0,0,1.131-.693,5.153,5.153,0,0,1,4.706-1.179m18.139,0q6.77,1.763,4.428,7.161c-.711,1.64-.521,2.4.6,2.4,1.28,0,1.236,1.231-.047,1.313-.823.052-.952.158-1.059.874a5.591,5.591,0,0,1-2.417,3.549c-.744.482-.732.447-.733,2.1,0,1.792-.363,1.465,3.274,2.973,4.931,2.045,4.4,1.233,4.452,6.85l.039,4.4h-3.889v-.444a3.558,3.558,0,0,0-1.062-2.512c-.7-.675-.629-.65-4.755-1.79-1.25-.345-3.056-.848-4.012-1.117l-1.738-.489-.039-.875-.039-.876.6-.433a6.587,6.587,0,0,0,2.271-3.192l.225-.677.8-.058a1.846,1.846,0,0,0,.064-3.69,2.653,2.653,0,0,1-.737-.116,6.667,6.667,0,0,1,.323-.692,5.316,5.316,0,0,0-2.672-7.721,2.617,2.617,0,0,1,.047-4.962,8.919,8.919,0,0,0,1.409-.834,5.176,5.176,0,0,1,4.674-1.153m-8.49,7.283c3.726,1.264,5.352,3.6,4.247,6.092l-.236.534-.386-.762c-.542-1.072-.744-1.147-1.544-.573-2.768,1.984-4.65,2.048-7.314.247-1.239-.838-1.38-.816-1.926.3-.439.895-.431.895-.875-.01a2.786,2.786,0,0,1,4.477-3.276l.676.652.45-.292c.248-.16.452-.338.453-.395,0-.264-1.2-1.364-1.866-1.7l-.741-.377.4-.164a4.948,4.948,0,0,1,2.378-.522,5.571,5.571,0,0,1,1.806.253m-5.237,7.036a6.611,6.611,0,0,0,7.285-.216c.466-.331.5-.312.986.636a8.927,8.927,0,0,1-.122,5.457,5.181,5.181,0,0,1-9.614-.657c-.532-1.569-.075-5.694.632-5.694.026,0,.4.213.834.474m-3.026,3c0,.742-.528.958-1.093.447-.5-.449-.112-1.116.645-1.116h.448v.669m14.065-.448c.5.449.112,1.116-.645,1.116h-.448v-.668c0-.743.528-.959,1.093-.448m-7.579,7.469a9.566,9.566,0,0,0,1.371-.1l.569-.1v.7c0,.681-1.408,2.512-1.932,2.512s-1.947-1.818-1.947-2.506v-.707l.569.1a9.566,9.566,0,0,0,1.371.1M181.8,42.429c1.581,1.554,1.481,1.554,3.059,0l1.29-1.267,2.671.745c1.469.409,3.625,1.007,4.791,1.327,3.446.947,3.295.7,3.3,5.377v3.511h-3.879V46.91h-1.2v5.216H174.968V46.91h-1.337v5.216h-3.879V48.615c0-4.791-.333-4.357,4.346-5.659,1.765-.491,3.9-1.092,4.748-1.334s1.564-.446,1.6-.452a18.084,18.084,0,0,1,1.352,1.259" transform="translate(529.672 500.631)" fill="#0042a5" fill-rule="evenodd"/>
  </g>
</svg>
