<svg xmlns="http://www.w3.org/2000/svg" width="50" height="50" viewBox="0 0 50 50">
  <g id="Group_299" data-name="Group 299" transform="translate(-605 -481)">
    <rect id="Rectangle_140" data-name="Rectangle 140" width="50" height="50" transform="translate(605 481)" fill="none"/>
    <path id="path0" d="M265.98,13.513c-.252.081-3.329,2.424-6.838,5.206s-7.65,6.064-9.2,7.293c-5.631,4.458-5.272,4.14-5.274,4.682a3.1,3.1,0,0,0,1.781,2.484c.315.1.49,13.6.176,13.6-1.436,0-2.571,4.065-1.681,6.02a3.786,3.786,0,0,0,3.463,2.156c.512,0,.588.053.8.549a3.535,3.535,0,0,0,6.569.1l.266-.646H261.9l.229.549c.979,2.345,4.1,3.071,5.709,1.328l.36-.391h7.754c9.36,0,9.48-.022,10.584-1.9l.412-.7.042-10.277.042-10.277.422-.175a2.849,2.849,0,0,0,1.65-2.442c0-.444-.165-.615-1.969-2.046l-8.882-7.037c-3.8-3.012-7.614-6.034-8.472-6.716-1.887-1.5-2.584-1.749-3.8-1.356m1.471,1.332c.179.1,1.094.786,2.034,1.534s4.485,3.558,7.878,6.245c11.114,8.8,10.425,8.232,10.273,8.516a1.985,1.985,0,0,1-.9.8,49.8,49.8,0,0,1-4.98-3.738c-2.619-2.093-6.232-4.974-8.028-6.4s-4.037-3.216-4.979-3.974a10.546,10.546,0,0,0-1.889-1.338c-.1.022-2.1,1.577-4.459,3.454-16.718,13.326-15.248,12.24-15.854,11.7-.717-.642-.827-.524,4.1-4.431l7.172-5.686c1.389-1.1,3.329-2.636,4.31-3.411s2.252-1.787,2.824-2.251c1.554-1.26,1.832-1.373,2.5-1.018m1.291,4.753c.776.614,4.422,3.515,8.1,6.445l7.692,6.126,1,.8V52.129h-1.487V47.886c0-3.513-.038-4.319-.227-4.682a.706.706,0,0,1,0-.877c.187-.363.227-1.165.227-4.646,0-6.135.639-5.643-7.274-5.586l-5.783.043-.4.371c-.763.7-.811,1.008-.811,5.24,0,3.538.027,3.965.28,4.462.275.539.275.56-.006,1.128-.267.538-.284.878-.243,4.685l.045,4.106h-.719a1.729,1.729,0,0,1-1.338-.495,5.442,5.442,0,0,0-1.1-.688.8.8,0,0,1-.565-.582,5.059,5.059,0,0,0-.813-2.151l-.419-.572.491-.431a2.171,2.171,0,0,0-.64-3.574,14.892,14.892,0,0,1-.689-2.73c-.293-1.472-.565-2.78-.6-2.907-.045-.153.1-.314.437-.474.961-.458,1.18-2.806.34-3.646l-.4-.4H252.7l-.4.4c-.818.818-.625,3.16.3,3.63.259.131.491.256.515.276s-.227,1.913-.557,4.2-.6,4.206-.6,4.253a9.993,9.993,0,0,1-1.858.087H248.23V32.981l6.5-5.178c3.576-2.848,7.773-6.192,9.328-7.432,2.359-1.88,2.863-2.222,3.048-2.071.123.1.859.685,1.636,1.3m-8.405,6.869a2.127,2.127,0,0,0,.46,4.027,2.371,2.371,0,0,0,2.144-.985,2.121,2.121,0,0,0-2.6-3.042m5.64.012a2.043,2.043,0,0,0-1.163,1.88,2.082,2.082,0,1,0,1.163-1.88m5.741.047A2.067,2.067,0,0,0,271.8,30.3a1.92,1.92,0,0,0,2.232-.351,2.084,2.084,0,0,0-2.316-3.423m-10.092,1.359a.657.657,0,0,1-.364,1.178.678.678,0,0,1-.6-1.188c.312-.345.525-.342.961.01m5.779.016c.358.358.363.433.066.859a.676.676,0,0,1-1.256-.435c0-.684.686-.928,1.19-.424m5.674-.052a.689.689,0,0,1-.5,1.241c-.68,0-.924-.687-.422-1.189.361-.362.562-.373.918-.052m1.015,6.963v1.412h5.648V33.4h1.2c1.917,0,1.774-.347,1.774,4.286,0,2.9-.048,4.027-.178,4.157-.326.326-10.958.248-11.209-.082-.152-.2-.2-1.122-.2-3.98-.006-4.583-.086-4.381,1.712-4.381h1.256v1.413m4.31-.669v.743h-2.972V33.4H278.4v.744m-15.042,1.449-.046.705H253.209l-.045-.705-.045-.706h10.289l-.045.706M262.053,37.8c0,.048.234,1.251.52,2.673.675,3.353.738,3.037-.6,3.037-1.913,0-2.894.709-2.894,2.092v.731h-2.908c-2.7,0-2.9-.019-2.837-.26.039-.144.325-2.083.633-4.311l.563-4.05h3.761c2.069,0,3.762.039,3.762.087m12.04,7.121v1.412h5.648V43.509h1.308a3.4,3.4,0,0,1,1.486.178c.347.346.244,8.1-.109,8.289a45.855,45.855,0,0,1-5.566.153h-5.278l-.231-.33c-.194-.277-.232-.923-.232-4.039,0-4.48-.093-4.251,1.733-4.251h1.241V44.92m4.31-.664v.748l-1.449-.042L275.5,44.92l-.045-.706-.045-.705H278.4v.748m-13.946.835a.772.772,0,0,1,.094,1.062,5.876,5.876,0,0,1-2.156.178h-1.977v-.471c0-.878.289-1.015,2.13-1.015,1.315,0,1.691.048,1.909.245m-12.66,4.2v1.474l-.5.165a3.814,3.814,0,0,0-2.012,1.933c-.82,1.907-3.175.46-3.257-2-.084-2.558.5-3.047,3.634-3.047H251.8v1.475m11.617-1.046c1.243.788,1.728,2.384.816,2.685a3.814,3.814,0,0,0-2.012,1.933l-.322.75h-5.891l-.181-.6a3.9,3.9,0,0,0-2.008-2.052l-.681-.3v-2.84h9.6l.676.429m-9.736,4.193a2.19,2.19,0,0,1-.257,3.781,2.157,2.157,0,0,1-3.064-1.766,2.187,2.187,0,0,1,3.321-2.016m12.994.026a2.17,2.17,0,1,1-3.04.584,2.306,2.306,0,0,1,3.04-.584m18.717,1.158c0,1.275-.352,1.328-8.861,1.328h-7.563l.028-.706c.015-.388.032-.722.037-.743.035-.136,16.36-.014,16.36.121" transform="translate(363.375 470.653)" fill="#0042a5" stroke="#0042a5" stroke-width="0.6" fill-rule="evenodd"/>
  </g>
</svg>
