<svg xmlns="http://www.w3.org/2000/svg" width="50" height="50" viewBox="0 0 50 50">
  <g id="Group_293" data-name="Group 293" transform="translate(-671 -477)">
    <rect id="Rectangle_136" data-name="Rectangle 136" width="50" height="50" transform="translate(671 477)" fill="none"/>
    <path id="path0" d="M330.07,12.645a4.268,4.268,0,0,0-2.818,2.227l-.34.637-.042,18.943c-.046,21.452-.126,19.993,1.163,21.315s.668,1.268,13.409,1.268h11.164l.574.519c4.726,4.27,12.811,3.028,16.412-2.522a11.044,11.044,0,0,0-7.242-16.775l-.617-.105-.08-7.084c-.105-9.241.251-8.24-4.779-13.426-3.544-3.654-3.981-4.028-5.418-4.645l-.971-.416-9.939-.024c-5.467-.014-10.182.026-10.478.088m20.921,3.16a7.391,7.391,0,0,1,1.532,1.233c.395.43,1.8,1.892,3.124,3.251a19.647,19.647,0,0,1,2.783,3.236l.378.767.043,6.891.043,6.891-.428.089c-7.194,1.492-11.226,8.816-8.388,15.232.183.413.332.777.332.809s-4.51.057-10.023.057H330.365l-.379-.378-.378-.379.006-18.689c0-14.45.047-18.745.192-18.932.464-.6.52-.6,10.588-.565l9.784.036.813.45M333.213,26.45a1.315,1.315,0,0,0,.231,2.035c.69.464,7.795.55,8.729.106a1.317,1.317,0,0,0,.2-2.282c-.3-.211-.951-.246-4.562-.246H333.6l-.387.386m14.955-.035c-1.069.92-.286,2.287,1.37,2.393,2.01.128,3.1-1.152,1.962-2.294a3.311,3.311,0,0,0-3.332-.1m-14.631,7.231a1.362,1.362,0,0,0,.029,2.408,55.109,55.109,0,0,0,8.592.029,1.325,1.325,0,0,0,.655-1.779,1.522,1.522,0,0,0-.655-.693,55.79,55.79,0,0,0-8.62.035m14.848.047a1.347,1.347,0,0,0,.03,2.314c1.734.9,4.017-.27,3.334-1.7-.4-.832-2.316-1.181-3.364-.611m14.082,7.4a8.3,8.3,0,0,1,4.77,12.575c-4.719,6.818-15.21,3.665-15.21-4.573,0-5.63,4.861-9.356,10.44-8m-29.022.111a1.315,1.315,0,0,0-.231,2.035l.387.387h4.209c3.611,0,4.26-.035,4.563-.247a1.317,1.317,0,0,0-.2-2.282c-.935-.444-8.04-.357-8.729.106m28.6,4.417a10.869,10.869,0,0,0-1.615,1.684l-1.3,1.559-.29-.578c-.7-1.4-1.7-1.718-2.476-.8-.552.655-.521.827.511,2.887,1.163,2.321,1.683,2.725,2.666,2.076A40.127,40.127,0,0,0,363.9,47.1a1.377,1.377,0,0,0-1.865-1.477" transform="translate(347.15 465.446)" fill="#0042a5" fill-rule="evenodd"/>
  </g>
</svg>
