<svg xmlns="http://www.w3.org/2000/svg" width="50" height="50" viewBox="0 0 50 50">
  <g id="Group_301" data-name="Group 301" transform="translate(-661 -481)">
    <g id="Group_302" data-name="Group 302">
      <rect id="Rectangle_141" data-name="Rectangle 141" width="50" height="50" transform="translate(661 481)" fill="none"/>
      <path id="path0" d="M34.075,116.787c-.975.594-1.065.9-1.121,3.827l-.052,2.653h-.592c-4.605,0-10.176,3.788-12.578,8.551-4.634,9.191,1.284,20.83,11.3,22.221,2.143.3,1.9-.05,1.9,2.67,0,3.186.319,3.9,1.906,4.24,1.5.322,26.046.135,26.666-.2,1.2-.653,1.107.842,1.108-18.486V125.033l-4.269-4.267L54.071,116.5H44.307c-9.24,0-9.79.016-10.232.286m19,4.341c0,4.939-.125,4.81,4.729,4.877l3.421.046v16.457c0,11.051-.052,16.556-.159,16.755-.2.368-26.049.479-26.416.113a7.84,7.84,0,0,1-.185-2.611c0-2.762-.166-2.475,1.538-2.661,6.79-.745,12.709-7.128,13.178-14.213.135-2.037.856-1.861-7.595-1.861H34.465v-9.911c0-9.278.018-9.922.269-10.069.174-.1,3.454-.159,9.3-.161l9.035,0v3.244m4.306.677,2.842,2.845H57.581c-3.385,0-3.123.259-3.123-3.087,0-1.432.018-2.6.04-2.6s1.319,1.28,2.883,2.845m-24.452,9.761v6.916l-4.883,4.853-4.883,4.854-.431-.5A14.217,14.217,0,0,1,20.418,133.8c1.835-4.918,7.215-9.038,11.933-9.138l.577-.013v6.917M53.842,129.8v.692h5.845v-1.384H53.842v.692m0,4.46v.692h5.845V133.57H53.842v.692m0,4.46v.692h5.845V138.03H53.842v.692M47.749,140.3a14.142,14.142,0,0,1-20.129,11.19c-1.428-.686-3.3-1.955-3.3-2.237,0-.087,2.189-2.336,4.863-5l4.862-4.84H47.847l-.1.885m3.1,4.814a6.627,6.627,0,1,0,8.711,7.333,6.691,6.691,0,0,0-8.711-7.333m4.022,1.4a5.266,5.266,0,0,1,3.294,5.706c-1.334,6.458-10.608,5.451-10.286-1.116a5.1,5.1,0,0,1,6.991-4.59m-1.377,4.09-1.954,1.954-.849-.839-.85-.839-.495.5-.5.5,1.224,1.23c1.552,1.561,1.294,1.633,4.042-1.119l2.346-2.35-.507-.492-.507-.492L53.494,150.6" transform="translate(645.371 367)" fill="#0042a5" stroke="#0042a5" stroke-width="1" fill-rule="evenodd"/>
    </g>
  </g>
</svg>
