<svg xmlns="http://www.w3.org/2000/svg" width="43.041" height="43" viewBox="0 0 43.041 43">
  <g id="Group_313" data-name="Group 313" transform="translate(-681 -475)">
    <rect id="Rectangle_145" data-name="Rectangle 145" width="43" height="43" transform="translate(681 475)" fill="none"/>
    <path id="path0" d="M90.667,137.609v17.608h11.116l3.538-4.719,3.537-4.719,2.814-.007,2.814-.006.035,2.988.035,2.987,8.052-7.034c4.43-3.869,8.056-7.069,8.06-7.113.005-.06-9.222-8.19-15.682-13.817l-.495-.431v5.976h-5.659l-3.482-4.655-3.483-4.656-5.6-.005-5.6-.006v17.609m13.548-10.622,3.477,4.657,4.5,0,4.5,0V130.1a4.178,4.178,0,0,1,.129-1.554c.182,0,10.377,8.945,10.331,9.065-.056.145-10.25,9.057-10.363,9.06a6.823,6.823,0,0,1-.1-1.617v-1.618h-8.929l-3.531,4.72-3.531,4.72-3.852.005L93,152.886v-7.121H98.49l-.612.621-.613.622.822.794.822.793,2-2,2-2-1.973-1.972-1.973-1.973-.806.806-.806.806.573.585.574.585H93v-4.661h14.814l-.574.584-.573.585.806.806.806.806,2.007-2,2.007-2-1.972-1.975-1.972-1.975-.811.8-.811.8.517.528a2.977,2.977,0,0,1,.517.619c0,.051-3.321.093-7.38.093H93v-4.791H98.49l-.609.619-.61.619.811.8.811.8,2-2,2-2-1.972-1.972-1.972-1.972-.832.825-.833.825.582.558.582.557H93v-6.992h7.74l3.478,4.656" transform="translate(593 358)" fill="#fff" stroke="#0042a5" stroke-width="0.75" fill-rule="evenodd"/>
  </g>
</svg>
