<svg xmlns="http://www.w3.org/2000/svg" width="43" height="43" viewBox="0 0 43 43">
  <g id="Group_310" data-name="Group 310" transform="translate(-680 -518)">
    <path id="Path_248" data-name="Path 248" d="M0,0H43V43H0Z" transform="translate(680 518)" fill="none"/>
    <path id="path0" d="M201.18,134.8c-3.125.434-6.63,3.9-7.3,7.231l-.255,1.26-3.915.054c-3.027.042-3.935,0-4-.2-1.008-2.9-1.83-3.974-3.759-4.923a6.62,6.62,0,0,0-9.243,4.186,10.141,10.141,0,0,0-.007,3.412c1.872,6.263,10.719,6.515,12.632.36l.375-1.207,3.954.051,3.953.052.257,1.135c2.173,9.57,15.626,9.839,18.409.367,1.007-3.429-.9-9.4-2.492-7.811l-.432.432.677,1.351c3.446,6.867-4.222,14.169-10.815,10.3-8.324-4.885-1.428-18.172,7.158-13.8.951.485,1.586.485,1.847,0,.775-1.45-3.335-2.767-7.038-2.254m-.3,4.846c-3.042,1.773-2.8,1.36-2.734,4.615l.055,2.784,2.282,1.345c2.772,1.632,2.358,1.631,5.2.024l2.343-1.328v-5.852l-1.637-.982c-3.552-2.131-2.992-2.069-5.507-.6m-20.215-.12a4.86,4.86,0,1,1-6.452,4.658,4.863,4.863,0,0,1,6.452-4.658m23.67,1.506c1.254.678,1.255.674-.2,1.524l-1.015.593-.926-.542c-1.453-.848-1.458-.885-.283-1.569,1.286-.75,1.054-.749,2.427-.006m-24.582,2.547-1.182,1.2-.726-.71c-.9-.881-1.83-.911-1.929-.063-.064.555,2.135,2.958,2.708,2.958.648,0,3.626-3.229,3.564-3.864-.111-1.124-1.028-.942-2.434.481m21.451.42,1.066.61V146c0,.764-.068,1.361-.15,1.325s-.619-.335-1.191-.662l-1.041-.6v-1.34c0-1.553-.063-1.518,1.316-.73m5.233.678c0,1.273-.008,1.293-.744,1.755-1.736,1.091-1.637,1.118-1.637-.451v-1.392l1.042-.6c1.368-.785,1.339-.8,1.339.686" transform="translate(508.445 395.309)" fill="#0042a5" fill-rule="evenodd"/>
  </g>
</svg>
