<svg xmlns="http://www.w3.org/2000/svg" width="50" height="50" viewBox="0 0 50 50">
  <g id="Group_295" data-name="Group 295" transform="translate(-674 -477)">
    <rect id="Rectangle_138" data-name="Rectangle 138" width="50" height="50" transform="translate(674 477)" fill="none"/>
    <path id="path0" d="M254.845,116.953c-.118.056-.49.28-.825.5l-6.255,4.077-7.3,4.757c-8.039,5.235-7.959,5.17-7.251,5.952.407.45.918.329,2.185-.52.806-.539,1.21-.736,1.257-.611.038.1.085,6.563.105,14.359l.036,14.175.4.529c.915,1.2-.594,1.11,18.12,1.068l16.587-.038.566-.393c1.229-.852,1.126.5,1.207-15.6l.072-14.266,1.206.785c1.356.883,1.89.987,2.248.44.493-.751.345-.883-4.549-4.071l-9.153-5.968c-8.577-5.6-8.22-5.383-8.662-5.176m2.813,3.5c1.256.818,4.971,3.241,8.256,5.385l5.97,3.9V159l-.339.275c-.3.241-.585.274-2.336.274h-2v-8.987c0-8.8-.006-8.993-.288-9.275-.43-.431-23.1-.456-23.487-.026-.213.236-.24,1.136-.273,9.239l-.037,8.977-1.952.04c-1.8.037-1.984.016-2.337-.262l-.384-.3,0-14.62,0-14.62.9-.569c1.42-.9,12.379-8.05,14.125-9.213a8.81,8.81,0,0,1,1.738-1.006c.086.027,1.185.718,2.441,1.536m-9.62,9.729a.814.814,0,0,0,.05,1.178c.282.283.443.288,7.138.252l6.85-.037.3-.4c.277-.372.284-.431.082-.791L262.24,130l-6.981-.037c-6.62-.035-6.994-.023-7.22.227m0,4.6a.85.85,0,0,0-.014,1.143l.224.319,6.857,0c3.772,0,6.93-.05,7.017-.108.529-.354.519-1.319-.016-1.525-.668-.256-13.827-.1-14.069.172m17.37,12.859c.054,2.708.078,6.478.053,8.376l-.046,3.451-.971.042-.971.043V156.1c0-4.292.139-4.033-2.157-4.033h-1.581v-3.4c0-4.412.568-3.929-4.616-3.929-5.144,0-4.587-.484-4.587,3.986v3.348h-1.516c-1.418,0-1.539.022-1.87.353l-.353.353v6.771h-1.87V142.722h20.385l.1,4.926m-7.4,1.618v2.8H252.4v-5.608h5.608v2.8m-3.738,7.477v2.8h-5.608v-5.608h5.608v2.8m7.477,0v2.807l-2.839-.039-2.84-.039-.039-2.768-.04-2.769h5.758v2.807" transform="translate(443.583 363.625)" fill="#0042a5" stroke="#0042a5" stroke-width="1" fill-rule="evenodd"/>
  </g>
</svg>
