<svg xmlns="http://www.w3.org/2000/svg" width="46" height="52.389" viewBox="0 0 46 52.389">
  <g id="dedication" transform="translate(-32 511.838)">
    <path id="Path_248" data-name="Path 248" d="M48.305-511.691a18.169,18.169,0,0,0-14.1,9.959,26.838,26.838,0,0,0-1.587,4.36A18.084,18.084,0,0,0,32-492.56c0,3.48.655,5.773,3.378,11.771a55.955,55.955,0,0,1,3.542,9.212,33.684,33.684,0,0,1,1.228,8.393c.061,2.9.092,3.153.42,3.47l.266.266H60.219l.256-.256a1.432,1.432,0,0,0,.328-.645c.031-.2.061-1.924.061-3.818v-3.439l.256-.256a1.414,1.414,0,0,1,.573-.328c.184-.031,1.822-.061,3.664-.061,3.3,0,3.347,0,3.859-.246a3.2,3.2,0,0,0,1.535-1.535l.246-.522V-479.2H73.28c2.62,0,2.938-.061,3.705-.737a4.092,4.092,0,0,0,.747-.942A2.274,2.274,0,0,0,78-482.274a2.375,2.375,0,0,0-.235-1.32c-.133-.246-1.709-2.457-3.5-4.9L71-492.949v-.676a23.847,23.847,0,0,0-.665-4.36c-1.935-7.38-8.188-12.651-16.264-13.716A29.272,29.272,0,0,0,48.305-511.691Zm6.786,2.334A17.017,17.017,0,0,1,67.9-498.6a19.032,19.032,0,0,1,.952,5.159c0,1.29-.113,1.085,3.6,6.162,3.275,4.463,3.48,4.76,3.419,5.087a.954.954,0,0,1-.768.839,28.829,28.829,0,0,1-2.989.1h-2.62l-.266.266-.266.266L68.93-475.9c-.031,5.138-.02,5.067-.532,5.4-.174.113-.983.154-3.9.194-3.582.051-3.7.061-4.115.287a3.348,3.348,0,0,0-1.423,1.494c-.235.512-.246.563-.246,3.767v3.255H42.369l-.061-1.975a37.019,37.019,0,0,0-1.935-10.819,67.3,67.3,0,0,0-3.081-7.533,38.784,38.784,0,0,1-2.8-7.411,18.107,18.107,0,0,1-.235-5.282,20.223,20.223,0,0,1,2.958-8.076,16.314,16.314,0,0,1,11.474-6.96A24.487,24.487,0,0,1,55.091-509.357Z" fill="#fff"/>
    <path id="Path_249" data-name="Path 249" d="M115.133-442.826a12.308,12.308,0,0,0-8.751,6.4A11.5,11.5,0,0,0,105-430.7a11.5,11.5,0,0,0,1.382,5.732,12.417,12.417,0,0,0,8.731,6.4,16.216,16.216,0,0,0,4.34,0,12.972,12.972,0,0,0,6.418-3.265,12.994,12.994,0,0,0,3.542-6.694,16.214,16.214,0,0,0,0-4.34,12.971,12.971,0,0,0-3.265-6.418,13.091,13.091,0,0,0-5.435-3.245A14.333,14.333,0,0,0,115.133-442.826Zm4.074,2.16a10.249,10.249,0,0,1,7.738,6.827,9.008,9.008,0,0,1,.471,3.142,9.418,9.418,0,0,1-1.167,4.749,10.454,10.454,0,0,1-7.257,5.282,14.689,14.689,0,0,1-3.419,0,10.467,10.467,0,0,1-7.892-6.7,10.565,10.565,0,0,1,0-6.653,10.5,10.5,0,0,1,6.326-6.285A10.782,10.782,0,0,1,119.207-440.666Z" transform="translate(-65.528 -61.813)" fill="#fff"/>
    <path id="Path_250" data-name="Path 250" d="M215.266-392.734l-.266.276v7.1l.266.276.276.266h7.1l.276-.266a.868.868,0,0,0,.266-.757.868.868,0,0,0-.266-.757l-.276-.266h-5.6v-5.6l-.266-.276a.868.868,0,0,0-.757-.266A.868.868,0,0,0,215.266-392.734Z" transform="translate(-164.269 -106.674)" fill="#fff"/>
    <path id="Path_251" data-name="Path 251" d="M275.266-145.734a.868.868,0,0,0-.266.757.868.868,0,0,0,.266.757.868.868,0,0,0,.757.266.868.868,0,0,0,.757-.266.868.868,0,0,0,.266-.757.868.868,0,0,0-.266-.757.868.868,0,0,0-.757-.266A.868.868,0,0,0,275.266-145.734Z" transform="translate(-218.128 -328.392)" fill="#fff"/>
    <path id="Path_252" data-name="Path 252" d="M315.266-145.734a.868.868,0,0,0-.266.757.868.868,0,0,0,.266.757l.276.266H320.6l.276-.266a1.152,1.152,0,0,0,0-1.515L320.6-146h-5.056Z" transform="translate(-254.033 -328.392)" fill="#fff"/>
  </g>
</svg>
