<svg xmlns="http://www.w3.org/2000/svg" width="46.767" height="46.705" viewBox="0 0 46.767 46.705">
  <g id="Group_314" data-name="Group 314" transform="translate(-842.618 -642.622)">
    <g id="full-stack" transform="translate(815.2 1127.01)">
      <path id="Path_253" data-name="Path 253" d="M201.471-483.849a6.645,6.645,0,0,1-.907.373c-.625.212-.847.222-5.291.272l-4.636.06-.574.282a4,4,0,0,0-1.794,1.945c-.2.564-.212.685-.181,6.178.04,5.211.05,5.644.232,6.128a1.393,1.393,0,0,0,.262.534,2.873,2.873,0,0,0,.443-.161c.282-.111.353-.191.3-.323a7.752,7.752,0,0,1-.353-1.482c0-.141.141-.282.474-.454a2.174,2.174,0,0,0,.756-.7l.282-.454V-474c0-2.217.01-2.358.2-2.55s.333-.2,4.233-.2,4.042.01,4.233.2.2.333.2,2.55v2.348l.282.454a2.174,2.174,0,0,0,.756.7c.333.171.474.312.474.454a7.669,7.669,0,0,1-.353,1.472c-.04.111.05.212.353.343a1.166,1.166,0,0,0,.443.141c.02-.02.111-.272.212-.544.161-.443.191-.958.242-4.082.071-3.981.05-3.89.766-4.334a2.332,2.332,0,0,0,.6-.645c.252-.433.252-.443.252-3.024v-2.6l-.343-.343a.893.893,0,0,0-.826-.343,2.021,2.021,0,0,0-.737.153Zm1.008.947a24.237,24.237,0,0,1,0,4.364,1.878,1.878,0,0,1-.645.837c-.867.736-.867.736-.867,3.77a22.623,22.623,0,0,1-.081,2.631c-.161,0-.534-.474-.625-.816a19.472,19.472,0,0,1-.1-2.54v-2.207l-.343-.343-.343-.343h-9.111l-.343.343-.343.343v2.207a19.479,19.479,0,0,1-.1,2.54c-.1.343-.464.816-.625.816-.06,0-.081-1.875-.06-4.415.03-4.233.04-4.425.242-4.868a2.983,2.983,0,0,1,1.371-1.441l.524-.262h3.88c4.505,0,5.322-.071,6.37-.484.9-.363,1.058-.383,1.2-.13Z" transform="translate(-144.12)" fill="#fff" stroke="#fff" stroke-width="0.75"/>
      <path id="Path_254" data-name="Path 254" d="M47.3-468.7a5.691,5.691,0,0,0-2.641,1.451,5.34,5.34,0,0,0-1.494,4.33,5.34,5.34,0,0,0,2.411,3.894,4.823,4.823,0,0,0,2.822.786,4.838,4.838,0,0,0,2.328-.474l.4-.212.373.343a1.033,1.033,0,0,0,.917.343,1.074,1.074,0,0,0,1.129-.6,1.319,1.319,0,0,0-.323-1.623l-.252-.272.2-.383a5.848,5.848,0,0,0,.323-3.991A5.369,5.369,0,0,0,47.3-468.7Zm2.217.937A4.57,4.57,0,0,1,52.43-465.3a3.3,3.3,0,0,1,.343,1.572,3.866,3.866,0,0,1-.6,2.489,2.64,2.64,0,0,0-.292.574,2.724,2.724,0,0,0,.454.6c.494.564.474.524.393.746-.111.282-.484.181-.9-.242-.454-.464-.635-.494-1.2-.161a3.942,3.942,0,0,1-2.419.544,3.275,3.275,0,0,1-1.6-.363,4.878,4.878,0,0,1-2.127-2.056,4.417,4.417,0,0,1,.575-4.669,4.417,4.417,0,0,1,4.458-1.5Z" transform="translate(-13.788 -13.662)" fill="#fff" stroke="#fff" stroke-width="0.75"/>
      <path id="Path_255" data-name="Path 255" d="M63.405-444.8a8.331,8.331,0,0,0-1.128.814l-.909.723-.387-.289a1.215,1.215,0,0,0-1.137-.307.724.724,0,0,0-.569.957,5.931,5.931,0,0,0,.9.814c.781.609.834.638,1.137.638a1.683,1.683,0,0,0,.485-.066,30.639,30.639,0,0,0,2.827-2.235.613.613,0,0,0,.059-.608.856.856,0,0,0-.529-.441.954.954,0,0,0-.752,0Zm.554.53a.244.244,0,0,1,.091.163,20.364,20.364,0,0,1-2.653,2.115,5.175,5.175,0,0,1-1.478-1.217c.106-.223.288-.175.8.223a2.3,2.3,0,0,0,.652.392,7.519,7.519,0,0,0,1.243-.873,13.507,13.507,0,0,1,1.184-.874.31.31,0,0,1,.165.072Z" transform="translate(-27.246 -33.877)" fill="#fff" stroke="#fff" stroke-width="0.75"/>
      <path id="Path_256" data-name="Path 256" d="M367.256-468.7a6.4,6.4,0,0,0-1.26.464,5.327,5.327,0,0,0-2.379,7.055l.242.474-.343.383a1.012,1.012,0,0,0-.343.887.9.9,0,0,0,.343.857.9.9,0,0,0,.857.343,1.042,1.042,0,0,0,.9-.343c.353-.323.393-.333.625-.2a6.106,6.106,0,0,0,3.941.383,5.342,5.342,0,0,0,3.659-3.659,6.522,6.522,0,0,0-.04-3.054,5.369,5.369,0,0,0-6.2-3.59Zm2.217.937a4.57,4.57,0,0,1,2.913,2.469,4.769,4.769,0,0,1,.212,3.034,4.369,4.369,0,0,1-4.142,3.124,3.908,3.908,0,0,1-2.147-.524,2.511,2.511,0,0,0-.766-.292,1.332,1.332,0,0,0-.6.4c-.252.262-.474.4-.6.383-.353-.05-.292-.4.151-.837.484-.474.5-.685.1-1.33a4.343,4.343,0,0,1,.716-5.261,4.337,4.337,0,0,1,4.163-1.166Z" transform="translate(-301.489 -13.662)" fill="#fff" stroke="#fff" stroke-width="0.75"/>
      <path id="Path_257" data-name="Path 257" d="M382.682-451.45c-1.057.554-1.182.716-1.182,1.542,0,.867.111,1.008,1.208,1.572a5.489,5.489,0,0,0,1.057.454,5.488,5.488,0,0,0,1.057-.454c1.1-.564,1.208-.706,1.208-1.562s-.111-1-1.208-1.562a4.423,4.423,0,0,0-1.09-.443,4.6,4.6,0,0,0-1.051.453Zm1.97.877c.723.393.788.443.788.675s-.065.282-.834.7l-.84.433-.834-.433c-.775-.413-.84-.464-.84-.7s.065-.282.788-.675a6.367,6.367,0,0,1,.887-.423,6.368,6.368,0,0,1,.887.423Z" transform="translate(-317.051 -27.861)" fill="#fff" stroke="#fff" stroke-width="0.75"/>
      <path id="Path_262" data-name="Path 262" d="M216.2-383.8a.825.825,0,0,0-.2.6.715.715,0,0,0,.2.6.715.715,0,0,0,.6.2.715.715,0,0,0,.6-.2.715.715,0,0,0,.2-.6.825.825,0,0,0-.2-.6.825.825,0,0,0-.6-.2.825.825,0,0,0-.612.2Z" transform="translate(-169.232 -89.921)" fill="#fff" stroke="#fff" stroke-width="0.75"/>
      <path id="Path_263" data-name="Path 263" d="M252-382.387v1.613h.806V-384H252Z" transform="translate(-201.603 -89.921)" fill="#fff" stroke="#fff" stroke-width="0.75"/>
      <path id="Path_264" data-name="Path 264" d="M280.2-383.8a.825.825,0,0,0-.2.6.825.825,0,0,0,.2.6.825.825,0,0,0,.6.2.825.825,0,0,0,.6-.2.825.825,0,0,0,.2-.6.825.825,0,0,0-.2-.6.825.825,0,0,0-.6-.2A.825.825,0,0,0,280.2-383.8Z" transform="translate(-226.781 -89.921)" fill="#fff" stroke="#fff" stroke-width="0.75"/>
      <path id="Path_265" data-name="Path 265" d="M228-351.627a2.732,2.732,0,0,0,1.532,2.187,3.35,3.35,0,0,0,2.459.071,2.872,2.872,0,0,0,1.653-2.248V-352h-.454c-.423,0-.454.02-.454.252a2.159,2.159,0,0,1-.564,1.169,2.1,2.1,0,0,1-2.772-.071,2.127,2.127,0,0,1-.494-1.1c0-.232-.03-.252-.454-.252H228Z" transform="translate(-180.022 -118.696)" fill="#fff" stroke="#fff" stroke-width="0.75"/>
      <path id="Path_266" data-name="Path 266" d="M109.353-347.738a2.941,2.941,0,0,0-.989.685c-.335.4-.364.514-.364,1.814v1.391l.5.343.5.343h8.5l.5-.343.5-.343v-1.391c0-1.3-.029-1.411-.364-1.814a2.758,2.758,0,0,0-1.011-.7c-.611-.252-.656-.252-3.887-.252S109.966-348,109.353-347.738Zm6.987.776c.7.323.888.625.946,1.633.058.847.029.957-.247,1.149a1.288,1.288,0,0,1-.6.212c-.261,0-.289-.071-.289-.6v-.6H114.99v1.209h-1.164v-1.209h-1.164v1.209H111.5v-1.209h-1.164v.6c0,.534-.029.6-.289.6-.611,0-.867-.343-.867-1.139,0-1.22.393-1.764,1.4-1.986.962-.072,1.93-.1,2.9-.071,2.081.021,2.532.051,2.867.2Z" transform="translate(-75.342 -122.293)" fill="#fff" stroke="#fff" stroke-width="0.75"/>
      <path id="Path_267" data-name="Path 267" d="M333.358-347.738a2.951,2.951,0,0,0-.993.685c-.336.4-.365.514-.365,1.814v1.391l.5.343.5.343h8.531l.5-.343.5-.343v-1.391c0-1.3-.029-1.411-.365-1.814a2.768,2.768,0,0,0-1.015-.7c-.613-.252-.658-.252-3.9-.252S333.973-348,333.358-347.738Zm7.012.776c.7.323.891.625.949,1.633.058.847.029.957-.248,1.149a1.3,1.3,0,0,1-.6.212c-.262,0-.29-.071-.29-.6v-.6h-1.168v1.209h-1.168v-1.209h-1.168v1.209H335.51v-1.209h-1.168v.6c0,.534-.029.6-.29.6-.613,0-.87-.343-.87-1.139,0-1.22.394-1.764,1.4-1.986.966-.072,1.937-.1,2.907-.071,2.089.021,2.541.051,2.877.2Z" transform="translate(-273.54 -122.293)" fill="#fff" stroke="#fff" stroke-width="0.75"/>
      <path id="Path_269" data-name="Path 269" d="M192-315.6v.4h12.9v-.8H192Z" transform="translate(-147.65 -151.067)" fill="#fff" stroke="#fff" stroke-width="0.75"/>
      <path id="Path_271" data-name="Path 271" d="M76.343-291.657l-.343.343v19.069h.806v-9.273c0-9.142,0-9.273.2-9.474s.333-.2,17.134-.2,16.933,0,17.134.2.2.333.2,9.474v9.273h.806v-19.069l-.343-.343L111.6-292H76.685Z" transform="translate(-43.342 -172.649)" fill="#fff" stroke="#fff" stroke-width="0.75"/>
      <path id="Path_274" data-name="Path 274" d="M180.937-211.738a1.9,1.9,0,0,0-.937,1.754,1.738,1.738,0,0,0,.252,1.068,1.89,1.89,0,0,0,1.764.947,1.89,1.89,0,0,0,1.764-.947,2.289,2.289,0,0,0,0-2.137,1.9,1.9,0,0,0-1.774-.947A1.657,1.657,0,0,0,180.937-211.738Zm1.844.988a.882.882,0,0,1,.343.766.882.882,0,0,1-.343.766.882.882,0,0,1-.766.343.882.882,0,0,1-.766-.343.882.882,0,0,1-.343-.766.882.882,0,0,1,.343-.766.882.882,0,0,1,.766-.343.882.882,0,0,1,.767.343Z" transform="translate(-136.86 -244.585)" fill="#fff" stroke="#fff" stroke-width="0.75"/>
      <path id="Path_275" data-name="Path 275" d="M236.937-211.738a1.9,1.9,0,0,0-.937,1.754,1.738,1.738,0,0,0,.252,1.068,1.89,1.89,0,0,0,1.764.947,1.874,1.874,0,0,0,1.473-.543,1.874,1.874,0,0,0,.543-1.473,1.877,1.877,0,0,0-.548-1.475,1.877,1.877,0,0,0-1.478-.54,1.657,1.657,0,0,0-1.069.262Zm1.844.988a.882.882,0,0,1,.343.766.882.882,0,0,1-.343.766.882.882,0,0,1-.766.343.882.882,0,0,1-.766-.343.882.882,0,0,1-.343-.766.882.882,0,0,1,.343-.766.882.882,0,0,1,.766-.343.882.882,0,0,1,.767.343Z" transform="translate(-187.216 -244.585)" fill="#fff" stroke="#fff" stroke-width="0.75"/>
      <path id="Path_276" data-name="Path 276" d="M292.937-211.738a1.9,1.9,0,0,0-.937,1.754,1.874,1.874,0,0,0,.543,1.473,1.874,1.874,0,0,0,1.473.543,1.874,1.874,0,0,0,1.473-.543,1.874,1.874,0,0,0,.543-1.473,1.877,1.877,0,0,0-.547-1.476,1.877,1.877,0,0,0-1.479-.54A1.657,1.657,0,0,0,292.937-211.738Zm1.844.988a.882.882,0,0,1,.343.766.882.882,0,0,1-.343.766.882.882,0,0,1-.766.343.882.882,0,0,1-.766-.343.882.882,0,0,1-.343-.766.882.882,0,0,1,.343-.766.882.882,0,0,1,.766-.343.882.882,0,0,1,.767.343Z" transform="translate(-237.572 -244.585)" fill="#fff" stroke="#fff" stroke-width="0.75"/>
      <path id="Path_277" data-name="Path 277" d="M28.153-83.647l-.353.353.04.887a3.17,3.17,0,0,0,.363,1.542,4.566,4.566,0,0,0,2.691,2.348c.474.151,2.147.161,20.107.141l19.6-.03.665-.323A4.843,4.843,0,0,0,73.4-80.865a3.171,3.171,0,0,0,.363-1.542l.04-.887-.353-.353L73.094-84H28.506Zm17.406.917a.887.887,0,0,0,.343.806l.343.343h9.111l.343-.343a.887.887,0,0,0,.343-.806v-.464h8.224c5.473,0,8.285.03,8.416.1.262.151.252.826-.02,1.582A4.165,4.165,0,0,1,70.6-79.454l-.6.242H31.6l-.6-.242a4.067,4.067,0,0,1-2.046-2.056c-.272-.726-.292-1.431-.04-1.572.111-.071,3-.1,8.416-.111h8.234Zm9.676-.262a.7.7,0,0,1-.2.4c-.192.191-.333.2-4.233.2s-4.042-.01-4.233-.2a.7.7,0,0,1-.2-.4c0-.2.071-.2,4.435-.2s4.431,0,4.431.2Z" transform="translate(0 -359.684)" fill="#fff" stroke="#fff" stroke-width="0.75"/>
      <g id="Group_311" data-name="Group 311">
        <line id="Line_221" data-name="Line 221" x2="6" y2="7" transform="translate(60.3 -460.51)" fill="none" stroke="#fff" stroke-width="1.55"/>
        <line id="Line_222" data-name="Line 222" x1="6" y2="6" transform="translate(60.3 -454.51)" fill="none" stroke="#fff" stroke-width="1.55"/>
      </g>
      <g id="Group_313" data-name="Group 313" transform="translate(35.3 -460.51)">
        <line id="Line_221-2" data-name="Line 221" x1="6" y2="7" fill="none" stroke="#fff" stroke-width="1.55"/>
        <line id="Line_222-2" data-name="Line 222" x2="6" y2="6" transform="translate(0 6)" fill="none" stroke="#fff" stroke-width="1.55"/>
      </g>
    </g>
  </g>
</svg>
