<svg xmlns="http://www.w3.org/2000/svg" width="46" height="49.301" viewBox="0 0 46 49.301">
  <g id="TechConsulting" transform="translate(-32.115 496.026)">
    <path id="Path_278" data-name="Path 278" d="M45.219-495.859a6.724,6.724,0,0,0-4.149,3.276c-.76,1.479-.75,1.345-.75,8.134,0,6.881,0,6.871.852,8.566l.442.873L37.66-472.7c-4.3,2.506-4.663,2.773-5.187,3.893l-.318.668-.031,10.5c-.021,10.414-.021,10.507.185,10.712s.3.205,17.357.205c11.914,0,17.306-.031,17.686-.113a8.713,8.713,0,0,0,1.51-.575c.914-.442,1.058-.555,2.886-2.352l1.921-1.89h.781c1.253,0,1.2.134,1.2-3.081v-2.67h2.465v-1.643H75.651v-1.643h2.465v-1.643H75.651v-1.643h2.465v-1.643H75.651v-1.643h2.465v-1.643H75.651v-1.849c0-2.393.113-2.259-1.849-2.259H72.364v-2.465H70.721v2.465H69.077v-2.465H67.434v2.465H65.791v-2.465H64.148v2.465H62.73c-1.633,0-1.767.051-1.859.709l-.062.421-2.67-1.551L55.459-475l.442-.883c.863-1.715.852-1.6.852-9.213,0-6.553,0-6.727-.216-7.282a3.2,3.2,0,0,0-2.907-2c-.514,0-.565-.021-.791-.359a3.419,3.419,0,0,0-1.541-1.13A28.645,28.645,0,0,0,45.219-495.859Zm5.207,1.582c.965.216,1.315.77,1.376,2.2l.041,1.037-.38.144a6.55,6.55,0,0,0-1.448,1.15c-.986.955-1.078,1.017-1.479,1.017s-.493-.062-1.438-.976c-1.212-1.181-1.612-1.387-2.67-1.387a2.609,2.609,0,0,0-1.982.719c-.431.37-.442.349-.216-.421a4.088,4.088,0,0,1,1.068-1.869,4.7,4.7,0,0,1,3.03-1.6A23.723,23.723,0,0,1,50.426-494.277Zm3.862,1.879a1.845,1.845,0,0,1,.791,1.674l.062.791-.585-.472a3.28,3.28,0,0,0-.832-.544c-.246-.062-.257-.092-.257-.873s.01-.811.246-.811A1.285,1.285,0,0,1,54.288-492.4Zm-8.412,4.036c1.243,1.181,1.612,1.376,2.66,1.376s1.417-.2,2.66-1.376c.965-.924,1.048-.986,1.458-.986s.483.051,1.448,1l1.027,1.007-.051,4.365c-.041,4.766-.062,4.9-.688,6.2a6.685,6.685,0,0,1-5.084,3.636,6.489,6.489,0,0,1-7.241-5.864c-.051-.524-.1-2.609-.1-4.653v-3.7l1.017-1c.955-.945,1.037-1,1.438-1S44.911-489.286,45.876-488.361Zm-2.547,15.19a9.417,9.417,0,0,0,3.194,1.592,7.931,7.931,0,0,0,2.013.205,7.931,7.931,0,0,0,2.013-.205,9.16,9.16,0,0,0,3.194-1.6c.39-.339.585-.442.7-.38s-.421.924-2.824,4.4c-1.643,2.372-3.03,4.314-3.081,4.314s-1.438-1.941-3.081-4.3c-2.773-4.016-3.04-4.457-2.691-4.478A5.137,5.137,0,0,1,43.329-473.171Zm.616,4.93,2.907,4.211-1.458.051a4.351,4.351,0,0,0-1.6.185,18.231,18.231,0,0,0-.185,3.831l-.051,3.7-.462-.3a2.3,2.3,0,0,1-.76-.832c-.267-.5-.3-.657-.349-1.921l-.051-1.376H40.3l.041,1.674c.031,1.643.031,1.684.359,2.342a4.262,4.262,0,0,0,1.941,1.91,47.581,47.581,0,0,0,6.029,1.222c3.009.534,5.495.965,5.536.965a12.748,12.748,0,0,1,.082,2.105v2.105H49.132c-5.618,0-6.892-.072-8.268-.472a9.883,9.883,0,0,1-6.655-6.686c-.39-1.335-.483-2.937-.442-7.734.031-4.18.031-4.273.267-4.735a2.922,2.922,0,0,1,.493-.719c.329-.318,6.214-3.78,6.378-3.759C40.967-472.463,42.333-470.563,43.945-468.241Zm14.594-2.917,2.321,1.356v.894H58.4v1.643h2.465v1.643H58.4v1.643h2.465v1.643H58.4v1.643h2.465v1.643H58.4v1.633l.431.031.431.031-2.147,1.53a21.042,21.042,0,0,1-2.311,1.541,6.965,6.965,0,0,1-.739-.082l-.6-.082v-4.54c0-3.759-.021-4.581-.144-4.745s-.318-.205-1.623-.246l-1.479-.051,2.927-4.242c1.612-2.321,2.968-4.231,3.009-4.231S57.266-471.9,58.54-471.158Zm15.467,8.822v9.038h-3.7v-.39a2.41,2.41,0,0,0-.205-.822l-.2-.431h1.017c1.6,0,1.438.852,1.438-7.395,0-6.85,0-6.984-.205-7.189s-.339-.205-2.67-.205c-2.8,0-2.8,0-2.927.852A1.713,1.713,0,0,1,65-467.317c-.914.134-.852-.308-.852,6.214,0,6.676-.082,6.162,1.048,6.162h.627l-.852.668c-1.037.822-1.058.832-1.7.924l-.534.072.257-1.222c.288-1.4.236-2.054-.226-2.66L62.5-457.5v-13.875h11.5Zm-3.287,0v5.751h-4.93v-9.12l.3-.072A3.531,3.531,0,0,0,68.1-467.79l.072-.3h2.547Zm-23.006,1.027c0,1.212.123,1.438.822,1.438s.822-.226.822-1.438v-1.027h2.465v7.569l-1.407-.246c-.781-.144-2.249-.4-3.266-.575l-1.849-.329-.031-3.215-.021-3.2h2.465Zm13.6,5.2a.844.844,0,0,1,.164.185c0,.021-.134.719-.308,1.551-.37,1.808-.38,2.239-.1,2.516.185.185.339.205,1.623.205,1.746,0,1.962-.082,3.718-1.5,1.335-1.068,1.633-1.181,1.972-.76.37.452.277.585-1.787,2.629-2.927,2.907-2.732,2.824-7.354,2.9l-3.307.041.021-2.239.031-2.239,2.4-1.725a27.088,27.088,0,0,1,2.588-1.725A.53.53,0,0,1,61.313-456.112ZM34.7-450.864a11.359,11.359,0,0,0,2.352,2.157,2.107,2.107,0,0,1,.39.3c0,.021-.832.041-1.849.041H33.747l.01-1.88c0-1.787.01-1.859.175-1.612C34.024-451.727,34.373-451.275,34.7-450.864Zm35.3.288a12.845,12.845,0,0,1-1.571,1.4,5.514,5.514,0,0,1-1.9.709,7.842,7.842,0,0,1,1.417-1.592l1.592-1.592H71.08Z" fill="#fff"/>
    <path id="Path_279" data-name="Path 279" d="M144-391.178v.822h3.287V-392H144Z" transform="translate(-100.393 -93.342)" fill="#fff"/>
    <path id="Path_280" data-name="Path 280" d="M208-391.178v.822h3.287V-392H208Z" transform="translate(-157.82 -93.342)" fill="#fff"/>
    <path id="Path_281" data-name="Path 281" d="M152.205-367.795a.84.84,0,0,0-.205.616.729.729,0,0,0,.822.822.729.729,0,0,0,.822-.822.84.84,0,0,0-.205-.616.84.84,0,0,0-.616-.205A.84.84,0,0,0,152.205-367.795Z" transform="translate(-107.572 -114.877)" fill="#fff"/>
    <path id="Path_282" data-name="Path 282" d="M216.205-367.795a.84.84,0,0,0-.205.616.729.729,0,0,0,.822.822.729.729,0,0,0,.822-.822.84.84,0,0,0-.205-.616.84.84,0,0,0-.616-.205A.84.84,0,0,0,216.205-367.795Z" transform="translate(-164.999 -114.877)" fill="#fff"/>
    <path id="Path_283" data-name="Path 283" d="M177.643-343.23c0,1.284-.318,1.695-1.294,1.695H176v1.643h.719a2.365,2.365,0,0,0,1.838-.647c.585-.555.729-1,.729-2.311V-344h-1.643Z" transform="translate(-129.107 -136.412)" fill="#fff"/>
    <path id="Path_284" data-name="Path 284" d="M376-181.535v2.465h1.643V-184H376Z" transform="translate(-308.566 -279.979)" fill="#fff"/>
  </g>
</svg>
