<svg xmlns="http://www.w3.org/2000/svg" width="46" height="45.824" viewBox="0 0 46 45.824">
  <g id="third-party" transform="translate(0 511.002)">
    <path id="Path_285" data-name="Path 285" d="M21.988-510.9a4.569,4.569,0,0,0-1.9,1.114,4.124,4.124,0,0,0-1.132,3.539,4.408,4.408,0,0,0,.889,2l.278.314-.53.323a7.557,7.557,0,0,0-1.967,2.057,5.537,5.537,0,0,0-.808,2.829l-.045,1.015H14.048c-2.713,0-2.722,0-2.964.207a7.345,7.345,0,0,0-.925,1.931l-.692,1.725-.4-.413a7.28,7.28,0,0,0-.826-.7l-.422-.287.44-.44a4.094,4.094,0,0,0,1.1-3.485,4.134,4.134,0,0,0-3.171-3.386,4.98,4.98,0,0,0-2.416.171,4.369,4.369,0,0,0-2.335,2.317,4.776,4.776,0,0,0-.1,2.793,4.87,4.87,0,0,0,1.159,1.85l.189.162-.512.377a5.4,5.4,0,0,0-2.039,2.973A15.239,15.239,0,0,0,0-488.861a13.262,13.262,0,0,0,.18,3.269,8.2,8.2,0,0,0,2.254,3.925,10.882,10.882,0,0,0,1.68,1.257c.009.009-.71,1.868-1.608,4.132L.871-472.155,1-471.8c.207.593.467.674,2.308.674H4.85v2.551a20.378,20.378,0,0,0,.1,2.82.858.858,0,0,0,.889.557.745.745,0,0,0,.638-.26l.26-.26v-5.407h6.153c6.674,0,6.593.009,6.925-.485a1.012,1.012,0,0,0-.189-1.195l-.234-.207H3.26l2.425-6.135c1.338-3.368,2.452-6.144,2.47-6.171s.108.054.18.18a4.247,4.247,0,0,0,.4.476l.234.242H14.8l.476-.251c.943-.494,1.311-1.338,1.222-2.775a2.425,2.425,0,0,0-.781-1.859c-.5-.458-1.069-.593-2.443-.593h-1.15l-.674-1.015-.683-1.024.763-1.922.763-1.922L23.03-495.8l10.724-.018.754,1.9L35.263-492l-.7,1.051-.7,1.06h-1.15c-1.509,0-1.976.135-2.551.719a2.619,2.619,0,0,0-.7,2.03c0,1.374.359,2.1,1.248,2.569l.476.251h2.892c3.242,0,3.1.027,3.512-.683.18-.305.269-.386.314-.3.09.153,4.76,11.919,4.823,12.135.045.153-.377.162-8.012.162H26.658l-.26.26a.885.885,0,0,0,0,1.284l.26.3L33-471.14l6.341.027v5.4l.26.26a.884.884,0,0,0,1.284,0l.3-.26.027-2.7.027-2.7h1.527c2.021,0,2.326-.126,2.326-.961a34.907,34.907,0,0,0-1.581-4.32c-.871-2.192-1.545-4.015-1.509-4.051s.35-.251.674-.485a9.315,9.315,0,0,0,2.129-2.245,9.246,9.246,0,0,0,1.042-2.6,31.115,31.115,0,0,0,.009-6.135,5.426,5.426,0,0,0-2.039-2.973l-.512-.377.189-.162a5.006,5.006,0,0,0,1.15-1.805,4.133,4.133,0,0,0-3.9-5.416,4.043,4.043,0,0,0-2.982,1.222,4.109,4.109,0,0,0-.09,5.677l.494.521-.287.171a5.388,5.388,0,0,0-.8.656c-.512.485-.521.485-.6.278a16.408,16.408,0,0,0-1.509-3.4c-.216-.171-.368-.18-2.955-.18H29.281v-.745a6.319,6.319,0,0,0-2.739-5.1l-.566-.377.35-.458a4.2,4.2,0,0,0-1.078-6A4.7,4.7,0,0,0,21.988-510.9Zm1.743,1.9a2.606,2.606,0,0,1,1.329,1.2,2.318,2.318,0,0,1-.763,2.748,2.239,2.239,0,0,1-3.314-2.713A2.248,2.248,0,0,1,23.73-509.008Zm.332,6.4a4.276,4.276,0,0,1,2.021,1.159,4.215,4.215,0,0,1,1.311,3.126v.611H18.682v-.656a4.168,4.168,0,0,1,1.293-3.072,4.136,4.136,0,0,1,3.018-1.293A4.473,4.473,0,0,1,24.063-502.6ZM6.036-500.618a2.408,2.408,0,0,1,1.257,1.141,2.428,2.428,0,0,1,.036,1.859,2.234,2.234,0,0,1-4.042.072A2.222,2.222,0,0,1,6.036-500.618Zm35.6.072a2.229,2.229,0,0,1-.251,4.15,2.3,2.3,0,0,1-2.722-1.222,2.428,2.428,0,0,1,.036-1.859A2.213,2.213,0,0,1,41.631-500.547Zm-34.94,6.925a4.052,4.052,0,0,1,.961.647c.18.189,1,1.329,1.814,2.533l1.491,2.192v1.949H9.88l-1.015-1.554c-.566-.844-1.1-1.608-1.186-1.68a1.1,1.1,0,0,0-.557-.135.689.689,0,0,0-.665.3c-.377.422-.35.817.09,1.491l.359.53-.153.368a48.334,48.334,0,0,1-1.958,4.7,5.39,5.39,0,0,1-1.59-1.365,6.505,6.505,0,0,1-1.186-2.425,13.24,13.24,0,0,1-.117-3.009c.027-2.353.027-2.389.26-2.874a3.547,3.547,0,0,1,2.416-1.949A3.038,3.038,0,0,1,6.692-493.621Zm35.2-.126a3.414,3.414,0,0,1,2.021,2.012c.171.458.189.692.189,2.8a13.443,13.443,0,0,1-.144,2.892,6.315,6.315,0,0,1-2.147,3.35,3.362,3.362,0,0,1-.584.431c-.054,0-2.066-5.057-2.066-5.21a2.89,2.89,0,0,1,.314-.629c.4-.665.413-1.051.054-1.455a.689.689,0,0,0-.665-.3.872.872,0,0,0-.584.162c-.1.09-.629.907-1.186,1.814l-1.006,1.662H35.03v-2.048l1.491-2.183c.817-1.2,1.635-2.344,1.805-2.524a4.222,4.222,0,0,1,1.751-.97A3.665,3.665,0,0,1,41.892-493.747Zm-27.431,5.919c.135.135.18.3.18.683,0,.8-.054.844-.988.844h-.808v-1.707h.719C14.165-488.008,14.308-487.981,14.461-487.828Zm18.682.719v.9h-.808c-.943,0-.988-.036-.988-.889,0-.79.144-.907,1.078-.907h.719Z" transform="translate(0 0)" fill="#fff"/>
    <path id="Path_286" data-name="Path 286" d="M246.124-87.9a.889.889,0,0,0-.009,1.275.941.941,0,0,0,1.6-.862A.954.954,0,0,0,246.124-87.9Z" transform="translate(-223.767 -384.844)" fill="#fff"/>
  </g>
</svg>
