<svg xmlns="http://www.w3.org/2000/svg" width="46" height="44.536" viewBox="0 0 46 44.536">
  <g id="webApplication" transform="translate(0 503.7)">
    <path id="Path_287" data-name="Path 287" d="M2.309-503.628A3.221,3.221,0,0,0,.27-501.966l-.225.44L.018-486.189,0-470.853l.189.521a3.338,3.338,0,0,0,1.743,1.743l.539.216,7.924.027c6.145.018,7.933.045,7.933.135,0,.063-.054.431-.126.827-.332,1.9-1.222,3.064-2.614,3.414-.144.036-.934.09-1.752.126-1.626.063-1.887.135-2.426.665a3.221,3.221,0,0,0-.521.773,2.312,2.312,0,0,0,1.3,3.064c.476.18.71.18,10.808.18s10.332,0,10.808-.18a2.293,2.293,0,0,0,1.482-2.03,1.684,1.684,0,0,0-.18-1.033,3.221,3.221,0,0,0-.521-.773c-.539-.53-.8-.6-2.426-.665-.818-.036-1.6-.09-1.752-.126-1.393-.35-2.282-1.509-2.614-3.414-.072-.4-.126-.764-.126-.827,0-.09,1.788-.117,7.933-.135l7.924-.027.539-.216a3.338,3.338,0,0,0,1.743-1.743l.189-.521-.018-15.336-.027-15.336-.225-.44a3.37,3.37,0,0,0-1.509-1.473l-.512-.243L23.18-503.7C11.4-503.7,2.507-503.673,2.309-503.628Zm41.229,1.689a1.681,1.681,0,0,1,.584.467l.216.305.027,12.506.018,12.515H42.945v-12.021c-.009-12.973.027-12.219-.485-12.416-.341-.126-38.579-.126-38.92,0-.512.2-.476-.557-.485,12.416v12.021H1.617l.018-12.515.027-12.506.216-.305a1.681,1.681,0,0,1,.584-.467c.359-.162,1.06-.171,20.538-.171S43.179-502.1,43.538-501.939ZM41.328-487.6v11.455H4.672v-22.91H41.328Zm3.055,14.788c0,1.977-.072,2.219-.755,2.605l-.368.216H2.74l-.368-.216c-.683-.386-.755-.629-.755-2.605v-1.716H44.383Zm-18.256,5.283a7.646,7.646,0,0,0,1.249,3.4l.216.3H18.409l.216-.3a7.646,7.646,0,0,0,1.249-3.4l.108-.8h6.038Zm7.214,5.427a1.015,1.015,0,0,1,.35.647.885.885,0,0,1-.261.413l-.261.261H12.83l-.261-.261a.885.885,0,0,1-.261-.413,1.015,1.015,0,0,1,.35-.647C12.866-462.264,33.134-462.264,33.341-462.1Z" fill="#fff"/>
    <path id="Path_288" data-name="Path 288" d="M111.039-435.664a1.39,1.39,0,0,0-.359.279c-.18.2-.18.323-.18,7.771v7.574l.216.234.216.234h18l.4,1.312c.422,1.42.566,1.7.952,1.77s.656-.081,1.258-.683l.566-.548,1.015,1.006c1.42,1.4,1.312,1.411,3.019-.3,1.258-1.24,1.312-1.312,1.312-1.662s-.063-.413-1.015-1.375l-1.006-1.006.5-.494c.566-.557.764-.916.692-1.285-.072-.386-.35-.53-1.77-.952l-1.312-.4v-11.087l-.234-.216-.234-.216-10.925-.018C116.142-435.727,111.138-435.7,111.039-435.664ZM131.928-433v1.123H112.072v-2.246h19.855Zm0,5.525c0,1.527-.018,2.785-.045,2.785s-.863-.243-1.86-.539c-1.851-.557-2.1-.584-2.426-.3s-.287.584.279,2.444c.305.979.548,1.815.548,1.842s-3.675.054-8.176.054h-8.176v-9.074h19.855Zm-.674,4.313c.845.252,1.86.566,2.273.683l.746.234-.359.4c-.323.341-.368.449-.368.8,0,.4.018.44.961,1.4l.961.988-.485.485-.485.485-.961-.934c-.961-.943-.97-.943-1.411-.943a1,1,0,0,0-.854.359l-.413.368-.225-.746c-.117-.413-.431-1.437-.683-2.273l-.5-1.689c-.045-.135-.018-.162.117-.117C129.655-423.643,130.418-423.418,131.254-423.166Z" transform="translate(-100.572 -61.873)" fill="#fff"/>
    <path id="Path_289" data-name="Path 289" d="M145.458-341.645c-.431.171-.449.27-.458,2.264,0,1.869,0,1.869.225,2.084l.216.225h3.405c3.288,0,3.405-.009,3.594-.18a1.1,1.1,0,0,0,.252-.386c.027-.117.036-.988.018-1.932-.027-1.653-.036-1.725-.234-1.923l-.207-.207-3.3-.018A34.273,34.273,0,0,0,145.458-341.645Zm5.651,2.237v.719h-4.492v-1.437h4.492Z" transform="translate(-131.973 -147.428)" fill="#fff"/>
    <path id="Path_290" data-name="Path 290" d="M222.225-162.664a.826.826,0,0,0-.305,1.321l.2.216h5.337l.2-.216a.8.8,0,0,0-.018-1.114l-.243-.243-2.5-.018C223.527-162.727,222.323-162.7,222.225-162.664Z" transform="translate(-201.785 -310.346)" fill="#fff"/>
  </g>
</svg>
